G04*
G04 #@! TF.GenerationSoftware,Altium Limited,Altium Designer,19.1.5 (86)*
G04*
G04 Layer_Physical_Order=2*
G04 Layer_Color=16711680*
%FSLAX25Y25*%
%MOIN*%
G70*
G01*
G75*
%ADD14C,0.01500*%
%ADD15C,0.00600*%
%ADD17C,0.01000*%
%ADD73C,0.01200*%
%ADD75C,0.01300*%
%ADD77O,0.03937X0.06299*%
%ADD78O,0.03937X0.08268*%
%ADD79C,0.02559*%
%ADD80C,0.02362*%
%ADD81C,0.01968*%
G04:AMPARAMS|DCode=82|XSize=15.75mil|YSize=118.11mil|CornerRadius=3.94mil|HoleSize=0mil|Usage=FLASHONLY|Rotation=180.000|XOffset=0mil|YOffset=0mil|HoleType=Round|Shape=RoundedRectangle|*
%AMROUNDEDRECTD82*
21,1,0.01575,0.11024,0,0,180.0*
21,1,0.00787,0.11811,0,0,180.0*
1,1,0.00787,-0.00394,0.05512*
1,1,0.00787,0.00394,0.05512*
1,1,0.00787,0.00394,-0.05512*
1,1,0.00787,-0.00394,-0.05512*
%
%ADD82ROUNDEDRECTD82*%
G36*
X59552Y73282D02*
X61760Y72691D01*
X63872Y71816D01*
X65852Y70673D01*
X67665Y69282D01*
X69282Y67665D01*
X70673Y65852D01*
X71816Y63872D01*
X72691Y61760D01*
X73282Y59552D01*
X73580Y57285D01*
X73580Y56142D01*
X73580Y56142D01*
X73580Y56142D01*
X73580Y35310D01*
X71635Y33365D01*
X71370Y32968D01*
X71276Y32500D01*
Y-32500D01*
X71370Y-32968D01*
X71635Y-33365D01*
X73580Y-35310D01*
Y-39000D01*
X62099D01*
X61876Y-38908D01*
X61700Y-38872D01*
X61528Y-38820D01*
X61144Y-38782D01*
X61083Y-38788D01*
X61024Y-38776D01*
X-61024D01*
X-61083Y-38788D01*
X-61144Y-38782D01*
X-61528Y-38820D01*
X-61700Y-38872D01*
X-61876Y-38908D01*
X-62099Y-39000D01*
X-73580D01*
Y-35310D01*
X-71635Y-33365D01*
X-71370Y-32968D01*
X-71276Y-32500D01*
Y20258D01*
X-70815Y20449D01*
X-64979Y14613D01*
Y7792D01*
X-65203Y7642D01*
X-65553Y7118D01*
X-65676Y6500D01*
X-65553Y5882D01*
X-65327Y5543D01*
X-65687Y5182D01*
X-65728Y5210D01*
X-66500Y5363D01*
X-67272Y5210D01*
X-67926Y4772D01*
X-68363Y4118D01*
X-68517Y3347D01*
X-68363Y2575D01*
X-67926Y1920D01*
X-67272Y1483D01*
X-66500Y1330D01*
X-65728Y1483D01*
X-65074Y1920D01*
X-64637Y2575D01*
X-64483Y3347D01*
X-64637Y4118D01*
X-64953Y4591D01*
X-64768Y4872D01*
X-64622Y4996D01*
X-64061Y4885D01*
X-63443Y5008D01*
X-62919Y5358D01*
X-62876Y5421D01*
X-62376Y5270D01*
Y-2180D01*
X-62642Y-2358D01*
X-62992Y-2882D01*
X-63115Y-3500D01*
X-62992Y-4118D01*
X-62642Y-4642D01*
X-62376Y-4820D01*
Y-10500D01*
X-62272Y-11027D01*
X-61973Y-11473D01*
X-53447Y-20000D01*
X-56783Y-23337D01*
X-58713D01*
X-59240Y-23441D01*
X-59686Y-23740D01*
X-61414Y-25467D01*
X-61618Y-25508D01*
X-62142Y-25858D01*
X-62492Y-26382D01*
X-62615Y-27000D01*
X-62492Y-27618D01*
X-62142Y-28142D01*
X-61618Y-28492D01*
X-61000Y-28615D01*
X-60382Y-28492D01*
X-59858Y-28142D01*
X-59508Y-27618D01*
X-59467Y-27414D01*
X-58143Y-26090D01*
X-56213D01*
X-55686Y-25985D01*
X-55240Y-25686D01*
X-51086Y-21533D01*
X-50882Y-21492D01*
X-50358Y-21142D01*
X-50008Y-20618D01*
X-49885Y-20000D01*
X-50008Y-19382D01*
X-50358Y-18858D01*
X-50882Y-18508D01*
X-51086Y-18467D01*
X-59624Y-9930D01*
Y20208D01*
X-59508Y20382D01*
X-59385Y21000D01*
X-59508Y21618D01*
X-59624Y21792D01*
Y26000D01*
X-59623Y26000D01*
X-59728Y26527D01*
X-60027Y26973D01*
X-60027Y26973D01*
X-69624Y36570D01*
Y43208D01*
X-69508Y43382D01*
X-69385Y44000D01*
X-69508Y44618D01*
X-69818Y45082D01*
X-69749Y45340D01*
X-69617Y45582D01*
X-62880D01*
X-61410Y44113D01*
X-61113Y43914D01*
X-60761Y43844D01*
X-53544D01*
X-52700Y43000D01*
X-52700Y26000D01*
X-52000Y25300D01*
X-35500Y25300D01*
X-35000Y24800D01*
X-35000Y21000D01*
X-30000Y16000D01*
X-22000Y16000D01*
X-14700Y23300D01*
X16300D01*
X23000Y30000D01*
X28000Y30000D01*
X34000Y36000D01*
X34000Y40000D01*
X42000Y48000D01*
X46000Y52000D01*
X54000Y60000D01*
Y73580D01*
X56142D01*
X56142Y73580D01*
X56142Y73580D01*
X57285Y73580D01*
X59552Y73282D01*
D02*
G37*
G36*
X-56142Y73580D02*
X-56142Y73580D01*
X-56142Y73580D01*
X53351Y73580D01*
Y60269D01*
X45541Y52459D01*
X45541Y52459D01*
X41541Y48459D01*
X41541Y48459D01*
X33541Y40459D01*
X33351Y40000D01*
X33351Y36269D01*
X27731Y30649D01*
X23000Y30649D01*
X22541Y30459D01*
X16031Y23949D01*
X-14700D01*
X-15159Y23759D01*
X-22269Y16649D01*
X-29731Y16649D01*
X-34351Y21269D01*
X-34350Y24800D01*
X-34541Y25259D01*
X-35041Y25759D01*
X-35500Y25949D01*
X-51731Y25949D01*
X-52000Y26218D01*
Y43844D01*
X-49981D01*
X-49629Y43914D01*
X-49332Y44113D01*
X-47851Y45593D01*
X-47652Y45891D01*
X-47582Y46242D01*
Y48120D01*
X-42765Y52937D01*
X-42500Y52885D01*
X-41882Y53008D01*
X-41358Y53358D01*
X-41008Y53882D01*
X-40885Y54500D01*
X-41008Y55118D01*
X-41358Y55642D01*
X-41443Y55699D01*
Y56301D01*
X-41358Y56358D01*
X-41008Y56882D01*
X-40885Y57500D01*
X-41008Y58118D01*
X-41358Y58642D01*
X-41882Y58992D01*
X-42500Y59115D01*
X-43118Y58992D01*
X-43642Y58642D01*
X-43992Y58118D01*
X-44115Y57500D01*
X-44063Y57235D01*
X-50264Y51033D01*
X-57900D01*
X-60582Y53715D01*
Y58208D01*
X-60358Y58358D01*
X-60008Y58882D01*
X-59885Y59500D01*
X-60008Y60118D01*
X-60358Y60642D01*
X-60882Y60992D01*
X-61500Y61115D01*
X-62118Y60992D01*
X-62642Y60642D01*
X-62992Y60118D01*
X-63115Y59500D01*
X-62992Y58882D01*
X-62642Y58358D01*
X-62418Y58208D01*
Y53335D01*
X-62348Y52984D01*
X-62149Y52686D01*
X-58929Y49467D01*
X-58632Y49268D01*
X-58280Y49198D01*
X-49884D01*
X-49692Y49236D01*
X-49418Y48930D01*
X-49352Y48836D01*
X-49351Y48833D01*
X-49418Y48500D01*
Y46622D01*
X-50361Y45679D01*
X-60381D01*
X-61851Y47149D01*
X-62149Y47348D01*
X-62500Y47418D01*
X-64418D01*
X-65500Y48500D01*
Y52500D01*
X-66000Y53000D01*
X-73580D01*
Y56142D01*
X-73580Y56142D01*
X-73580Y56142D01*
X-73580Y57285D01*
X-73282Y59552D01*
X-72691Y61760D01*
X-71816Y63872D01*
X-70673Y65852D01*
X-69282Y67665D01*
X-67665Y69282D01*
X-65852Y70673D01*
X-63872Y71816D01*
X-61760Y72691D01*
X-59552Y73282D01*
X-57285Y73580D01*
X-56142Y73580D01*
D02*
G37*
%LPC*%
G36*
X66500Y29363D02*
X65728Y29210D01*
X65074Y28773D01*
X64637Y28118D01*
X64483Y27347D01*
X64637Y26575D01*
X65074Y25920D01*
X65728Y25483D01*
X66500Y25330D01*
X67272Y25483D01*
X67926Y25920D01*
X68363Y26575D01*
X68517Y27347D01*
X68363Y28118D01*
X67926Y28773D01*
X67272Y29210D01*
X66500Y29363D01*
D02*
G37*
G36*
X41500Y22115D02*
X40882Y21992D01*
X40358Y21642D01*
X40008Y21118D01*
X39885Y20500D01*
X39890Y20476D01*
X39207Y19793D01*
X38964Y19429D01*
X38878Y19000D01*
X38878Y19000D01*
Y-10344D01*
X38858Y-10358D01*
X38508Y-10882D01*
X38385Y-11500D01*
X38390Y-11524D01*
X28291Y-21623D01*
X28118Y-21508D01*
X27500Y-21385D01*
X26882Y-21508D01*
X26358Y-21858D01*
X26008Y-22382D01*
X25885Y-23000D01*
X26008Y-23618D01*
X26358Y-24142D01*
X26882Y-24492D01*
X27500Y-24615D01*
X28118Y-24492D01*
X28642Y-24142D01*
X28680Y-24086D01*
X28929Y-24036D01*
X29293Y-23793D01*
X39976Y-13111D01*
X40000Y-13115D01*
X40618Y-12992D01*
X41142Y-12642D01*
X41492Y-12118D01*
X41615Y-11500D01*
X41492Y-10882D01*
X41142Y-10358D01*
X41122Y-10344D01*
Y18535D01*
X41476Y18890D01*
X41500Y18885D01*
X42118Y19008D01*
X42642Y19358D01*
X42992Y19882D01*
X43115Y20500D01*
X42992Y21118D01*
X42642Y21642D01*
X42118Y21992D01*
X41500Y22115D01*
D02*
G37*
G36*
X66500Y22670D02*
X65728Y22517D01*
X65074Y22080D01*
X64637Y21425D01*
X64483Y20653D01*
X64637Y19882D01*
X65074Y19228D01*
X65728Y18790D01*
X66500Y18637D01*
X67272Y18790D01*
X67926Y19228D01*
X68363Y19882D01*
X68517Y20653D01*
X68363Y21425D01*
X67926Y22080D01*
X67272Y22517D01*
X66500Y22670D01*
D02*
G37*
G36*
X-9500Y21115D02*
X-10118Y20992D01*
X-10642Y20642D01*
X-10992Y20118D01*
X-11115Y19500D01*
X-11111Y19476D01*
X-15888Y14698D01*
X-16358Y14642D01*
X-16882Y14992D01*
X-17500Y15115D01*
X-18118Y14992D01*
X-18642Y14642D01*
X-18992Y14118D01*
X-19115Y13500D01*
X-18992Y12882D01*
X-18642Y12358D01*
X-18118Y12008D01*
X-17867Y11958D01*
X-17517Y11640D01*
X-17532Y11420D01*
X-17615Y11000D01*
X-17492Y10382D01*
X-17142Y9858D01*
X-16618Y9508D01*
X-16000Y9385D01*
X-15382Y9508D01*
X-14858Y9858D01*
X-14844Y9878D01*
X-2500D01*
X-2500Y9878D01*
X-2071Y9964D01*
X-1707Y10207D01*
X1476Y13389D01*
X1500Y13385D01*
X2118Y13508D01*
X2642Y13858D01*
X2992Y14382D01*
X3115Y15000D01*
X2992Y15618D01*
X2642Y16142D01*
X2118Y16492D01*
X1500Y16615D01*
X882Y16492D01*
X358Y16142D01*
X8Y15618D01*
X-115Y15000D01*
X-111Y14976D01*
X-2965Y12122D01*
X-14477D01*
X-14772Y12585D01*
X-14755Y12675D01*
X-14707Y12707D01*
X-9524Y17889D01*
X-9500Y17885D01*
X-8882Y18008D01*
X-8358Y18358D01*
X-8008Y18882D01*
X-7885Y19500D01*
X-8008Y20118D01*
X-8358Y20642D01*
X-8882Y20992D01*
X-9500Y21115D01*
D02*
G37*
G36*
X50500Y26115D02*
X49882Y25992D01*
X49358Y25642D01*
X49008Y25118D01*
X48885Y24500D01*
X49008Y23882D01*
X49358Y23358D01*
X49882Y23008D01*
X50356Y22913D01*
X53308Y19962D01*
Y14536D01*
X53039Y14134D01*
X52916Y13516D01*
X53039Y12898D01*
X53389Y12374D01*
X53913Y12023D01*
X54531Y11900D01*
X55150Y12023D01*
X55673Y12374D01*
X56024Y12898D01*
X56147Y13516D01*
X56024Y14134D01*
X55755Y14536D01*
Y20469D01*
X55662Y20937D01*
X55396Y21334D01*
X52087Y24644D01*
X51992Y25118D01*
X51642Y25642D01*
X51118Y25992D01*
X50500Y26115D01*
D02*
G37*
G36*
X-49516Y12131D02*
X-50134Y12008D01*
X-50658Y11658D01*
X-51008Y11134D01*
X-51131Y10516D01*
X-51008Y9898D01*
X-50658Y9374D01*
X-50134Y9023D01*
X-49516Y8901D01*
X-48898Y9023D01*
X-48374Y9374D01*
X-48360Y9394D01*
X-40167D01*
X-40142Y9358D01*
X-39618Y9008D01*
X-39000Y8885D01*
X-38382Y9008D01*
X-37858Y9358D01*
X-37508Y9882D01*
X-37385Y10500D01*
X-37508Y11118D01*
X-37858Y11642D01*
X-38382Y11992D01*
X-39000Y12115D01*
X-39618Y11992D01*
X-40142Y11642D01*
X-40145Y11637D01*
X-48360D01*
X-48374Y11658D01*
X-48898Y12008D01*
X-49516Y12131D01*
D02*
G37*
G36*
X9500Y11115D02*
X8882Y10992D01*
X8358Y10642D01*
X8008Y10118D01*
X7885Y9500D01*
X7890Y9476D01*
X3791Y5377D01*
X3548Y5014D01*
X3463Y4584D01*
X3463Y4584D01*
Y2318D01*
X2963Y2023D01*
X2500Y2115D01*
X1882Y1992D01*
X1358Y1642D01*
X1008Y1118D01*
X967Y914D01*
X-2473Y-2527D01*
X-2772Y-2973D01*
X-2877Y-3500D01*
Y-21430D01*
X-3914Y-22467D01*
X-4118Y-22508D01*
X-4642Y-22858D01*
X-4992Y-23382D01*
X-5115Y-24000D01*
X-4992Y-24618D01*
X-4642Y-25142D01*
X-4118Y-25492D01*
X-3914Y-25533D01*
X27Y-29473D01*
X473Y-29772D01*
X1000Y-29876D01*
X32500D01*
X33027Y-29772D01*
X33473Y-29473D01*
X37679Y-25268D01*
X37977Y-24822D01*
X38082Y-24295D01*
Y-22365D01*
X42414Y-18033D01*
X42618Y-17992D01*
X43142Y-17642D01*
X43492Y-17118D01*
X43615Y-16500D01*
X43492Y-15882D01*
X43142Y-15358D01*
X42618Y-15008D01*
X42000Y-14885D01*
X41382Y-15008D01*
X40858Y-15358D01*
X40508Y-15882D01*
X40467Y-16086D01*
X35732Y-20821D01*
X35434Y-21268D01*
X35329Y-21795D01*
Y-23725D01*
X31930Y-27124D01*
X1570D01*
X541Y-26094D01*
X724Y-25571D01*
X1118Y-25492D01*
X1642Y-25142D01*
X1992Y-24618D01*
X2115Y-24000D01*
X1992Y-23382D01*
X1642Y-22858D01*
X1622Y-22844D01*
Y-4965D01*
X5377Y-1209D01*
X5377Y-1209D01*
X5620Y-845D01*
X5706Y-416D01*
Y4120D01*
X9476Y7890D01*
X9500Y7885D01*
X10118Y8008D01*
X10642Y8358D01*
X10992Y8882D01*
X11115Y9500D01*
X10992Y10118D01*
X10642Y10642D01*
X10118Y10992D01*
X9500Y11115D01*
D02*
G37*
G36*
X54000Y53615D02*
X53382Y53492D01*
X52858Y53142D01*
X52508Y52618D01*
X52385Y52000D01*
X52508Y51382D01*
X52858Y50858D01*
X53382Y50508D01*
X53766Y50431D01*
X57726Y46472D01*
Y40944D01*
X57508Y40618D01*
X57431Y40234D01*
X56472Y39274D01*
X47500D01*
X47012Y39178D01*
X46599Y38901D01*
X31766Y24069D01*
X31382Y23992D01*
X30858Y23642D01*
X30508Y23118D01*
X30431Y22734D01*
X24472Y16774D01*
X9000D01*
X8512Y16678D01*
X8099Y16401D01*
X-1028Y7275D01*
X-9500D01*
X-9988Y7177D01*
X-10401Y6901D01*
X-13901Y3401D01*
X-14177Y2988D01*
X-14275Y2500D01*
Y-1034D01*
X-16019D01*
X-16624Y-430D01*
Y1208D01*
X-16508Y1382D01*
X-16385Y2000D01*
X-16508Y2618D01*
X-16858Y3142D01*
X-17382Y3492D01*
X-18000Y3615D01*
X-18618Y3492D01*
X-19142Y3142D01*
X-19492Y2618D01*
X-19615Y2000D01*
X-19492Y1382D01*
X-19376Y1208D01*
Y-1000D01*
X-19272Y-1527D01*
X-18973Y-1973D01*
X-17563Y-3384D01*
X-17563Y-3384D01*
X-17116Y-3682D01*
X-16590Y-3787D01*
X-13926D01*
X-13618Y-3992D01*
X-13532Y-4009D01*
X-13367Y-4552D01*
X-15877Y-7062D01*
X-16120Y-7426D01*
X-16206Y-7855D01*
X-16206Y-7855D01*
Y-13654D01*
X-16206Y-13654D01*
X-16120Y-14083D01*
X-16052Y-14185D01*
X-16115Y-14500D01*
X-15992Y-15118D01*
X-15642Y-15642D01*
X-15118Y-15992D01*
X-14500Y-16115D01*
X-13882Y-15992D01*
X-13358Y-15642D01*
X-13008Y-15118D01*
X-12885Y-14500D01*
X-13008Y-13882D01*
X-13358Y-13358D01*
X-13882Y-13008D01*
X-13963Y-12992D01*
Y-8319D01*
X-10123Y-4479D01*
X-9880Y-4115D01*
X-9794Y-3686D01*
X-9794Y-3686D01*
Y120D01*
X-8524Y1390D01*
X-8500Y1385D01*
X-7882Y1508D01*
X-7358Y1858D01*
X-7008Y2382D01*
X-6885Y3000D01*
X-7008Y3618D01*
X-7358Y4142D01*
X-7482Y4225D01*
X-7331Y4725D01*
X-500D01*
X-12Y4823D01*
X401Y5099D01*
X9528Y14225D01*
X25000D01*
X25488Y14322D01*
X25901Y14599D01*
X32234Y20931D01*
X32618Y21008D01*
X33142Y21358D01*
X33492Y21882D01*
X33569Y22266D01*
X48028Y36726D01*
X57000D01*
X57488Y36823D01*
X57901Y37099D01*
X59234Y38431D01*
X59618Y38508D01*
X60142Y38858D01*
X60492Y39382D01*
X60615Y40000D01*
X60492Y40618D01*
X60274Y40944D01*
Y47000D01*
X60177Y47488D01*
X59901Y47901D01*
X55569Y52234D01*
X55492Y52618D01*
X55142Y53142D01*
X54618Y53492D01*
X54000Y53615D01*
D02*
G37*
G36*
X-66500Y-1330D02*
X-67272Y-1483D01*
X-67926Y-1920D01*
X-68363Y-2575D01*
X-68517Y-3347D01*
X-68363Y-4118D01*
X-67926Y-4772D01*
X-67272Y-5210D01*
X-66500Y-5363D01*
X-65728Y-5210D01*
X-65074Y-4772D01*
X-64637Y-4118D01*
X-64483Y-3347D01*
X-64637Y-2575D01*
X-65074Y-1920D01*
X-65728Y-1483D01*
X-66500Y-1330D01*
D02*
G37*
G36*
X66500Y-18637D02*
X65728Y-18790D01*
X65074Y-19228D01*
X64637Y-19882D01*
X64483Y-20653D01*
X64637Y-21425D01*
X65074Y-22080D01*
X65728Y-22517D01*
X66500Y-22670D01*
X67272Y-22517D01*
X67926Y-22080D01*
X68363Y-21425D01*
X68517Y-20653D01*
X68363Y-19882D01*
X67926Y-19228D01*
X67272Y-18790D01*
X66500Y-18637D01*
D02*
G37*
G36*
X-66500D02*
X-67272Y-18790D01*
X-67926Y-19228D01*
X-68363Y-19882D01*
X-68517Y-20653D01*
X-68363Y-21425D01*
X-67926Y-22080D01*
X-67272Y-22517D01*
X-66500Y-22670D01*
X-65728Y-22517D01*
X-65074Y-22080D01*
X-64637Y-21425D01*
X-64483Y-20653D01*
X-64637Y-19882D01*
X-65074Y-19228D01*
X-65728Y-18790D01*
X-66500Y-18637D01*
D02*
G37*
G36*
X-21627Y-18385D02*
X-22245Y-18508D01*
X-22769Y-18858D01*
X-23119Y-19382D01*
X-23242Y-20000D01*
X-23119Y-20618D01*
X-22769Y-21142D01*
X-22245Y-21492D01*
X-22040Y-21533D01*
X-18600Y-24973D01*
X-18600Y-24973D01*
X-18154Y-25272D01*
X-17627Y-25376D01*
X-12292D01*
X-12118Y-25492D01*
X-11500Y-25615D01*
X-10882Y-25492D01*
X-10358Y-25142D01*
X-10008Y-24618D01*
X-9885Y-24000D01*
X-10008Y-23382D01*
X-10358Y-22858D01*
X-10882Y-22508D01*
X-11500Y-22385D01*
X-12118Y-22508D01*
X-12292Y-22624D01*
X-17057D01*
X-20094Y-19586D01*
X-20134Y-19382D01*
X-20485Y-18858D01*
X-21009Y-18508D01*
X-21627Y-18385D01*
D02*
G37*
G36*
X66500Y-25330D02*
X65728Y-25483D01*
X65074Y-25920D01*
X64637Y-26575D01*
X64483Y-27347D01*
X64637Y-28118D01*
X65074Y-28773D01*
X65728Y-29210D01*
X66500Y-29363D01*
X67272Y-29210D01*
X67926Y-28773D01*
X68363Y-28118D01*
X68517Y-27347D01*
X68363Y-26575D01*
X67926Y-25920D01*
X67272Y-25483D01*
X66500Y-25330D01*
D02*
G37*
G36*
X-66500D02*
X-67272Y-25483D01*
X-67926Y-25920D01*
X-68363Y-26575D01*
X-68517Y-27347D01*
X-68363Y-28118D01*
X-67926Y-28773D01*
X-67272Y-29210D01*
X-66500Y-29363D01*
X-65728Y-29210D01*
X-65074Y-28773D01*
X-64637Y-28118D01*
X-64483Y-27347D01*
X-64637Y-26575D01*
X-65074Y-25920D01*
X-65728Y-25483D01*
X-66500Y-25330D01*
D02*
G37*
G36*
X46500Y17615D02*
X45882Y17492D01*
X45358Y17142D01*
X45008Y16618D01*
X44885Y16000D01*
X45008Y15382D01*
X45358Y14858D01*
X45378Y14844D01*
Y-26825D01*
X45358Y-26838D01*
X45008Y-27362D01*
X44885Y-27981D01*
X45008Y-28599D01*
X45358Y-29123D01*
X45882Y-29473D01*
X46500Y-29596D01*
X47118Y-29473D01*
X47642Y-29123D01*
X47992Y-28599D01*
X48115Y-27981D01*
X47992Y-27362D01*
X47642Y-26838D01*
X47622Y-26825D01*
Y14844D01*
X47642Y14858D01*
X47992Y15382D01*
X48115Y16000D01*
X47992Y16618D01*
X47642Y17142D01*
X47118Y17492D01*
X46500Y17615D01*
D02*
G37*
G36*
X61000Y14615D02*
X60382Y14492D01*
X59858Y14142D01*
X59508Y13618D01*
X59385Y13000D01*
X59508Y12382D01*
X59858Y11858D01*
X60082Y11708D01*
Y5880D01*
X58351Y4149D01*
X58152Y3851D01*
X58082Y3500D01*
Y500D01*
X58152Y149D01*
X58351Y-149D01*
X60082Y-1880D01*
Y-31120D01*
X56620Y-34582D01*
X11683D01*
X11615Y-34500D01*
X11492Y-33882D01*
X11142Y-33358D01*
X10618Y-33008D01*
X10000Y-32885D01*
X9382Y-33008D01*
X8858Y-33358D01*
X8508Y-33882D01*
X8385Y-34500D01*
X8508Y-35118D01*
X8617Y-35282D01*
X8350Y-35782D01*
X2580D01*
X1563Y-34765D01*
X1615Y-34500D01*
X1492Y-33882D01*
X1142Y-33358D01*
X618Y-33008D01*
X0Y-32885D01*
X-618Y-33008D01*
X-1142Y-33358D01*
X-1492Y-33882D01*
X-1615Y-34500D01*
X-1492Y-35118D01*
X-1142Y-35642D01*
X-618Y-35992D01*
X0Y-36115D01*
X265Y-36063D01*
X1551Y-37349D01*
X1849Y-37548D01*
X2200Y-37618D01*
X58800D01*
X59151Y-37548D01*
X59449Y-37349D01*
X60735Y-36063D01*
X61000Y-36115D01*
X61618Y-35992D01*
X62142Y-35642D01*
X62492Y-35118D01*
X62615Y-34500D01*
X62492Y-33882D01*
X62142Y-33358D01*
X61618Y-33008D01*
X61517Y-32988D01*
X61353Y-32445D01*
X61649Y-32149D01*
X61848Y-31851D01*
X61918Y-31500D01*
Y-1500D01*
X61848Y-1149D01*
X61649Y-851D01*
X59918Y880D01*
Y3120D01*
X61649Y4851D01*
X61848Y5149D01*
X61918Y5500D01*
Y11708D01*
X62142Y11858D01*
X62492Y12382D01*
X62615Y13000D01*
X62492Y13618D01*
X62142Y14142D01*
X61618Y14492D01*
X61000Y14615D01*
D02*
G37*
G36*
X35000Y72615D02*
X34382Y72492D01*
X33979Y72224D01*
X6021D01*
X5618Y72492D01*
X5000Y72615D01*
X4382Y72492D01*
X3980Y72224D01*
X-32000D01*
X-32468Y72130D01*
X-32865Y71865D01*
X-36644Y68087D01*
X-37118Y67992D01*
X-37521Y67724D01*
X-40911D01*
X-41379Y67630D01*
X-41776Y67365D01*
X-43594Y65547D01*
X-44177D01*
X-44645Y65454D01*
X-45042Y65189D01*
X-46644Y63587D01*
X-47118Y63492D01*
X-47642Y63142D01*
X-47686Y63077D01*
X-49147D01*
X-49615Y62983D01*
X-50012Y62718D01*
X-55144Y57587D01*
X-55618Y57492D01*
X-56142Y57142D01*
X-56492Y56618D01*
X-56615Y56000D01*
X-56492Y55382D01*
X-56142Y54858D01*
X-55618Y54508D01*
X-55000Y54385D01*
X-54382Y54508D01*
X-53858Y54858D01*
X-53508Y55382D01*
X-53413Y55856D01*
X-48640Y60629D01*
X-47300D01*
X-47118Y60508D01*
X-46500Y60385D01*
X-45882Y60508D01*
X-45358Y60858D01*
X-45008Y61382D01*
X-44913Y61856D01*
X-43670Y63100D01*
X-43088D01*
X-42619Y63193D01*
X-42222Y63458D01*
X-40404Y65276D01*
X-37521D01*
X-37118Y65008D01*
X-36500Y64885D01*
X-35882Y65008D01*
X-35358Y65358D01*
X-35008Y65882D01*
X-34913Y66356D01*
X-31493Y69776D01*
X3980D01*
X4382Y69508D01*
X5000Y69385D01*
X5618Y69508D01*
X6021Y69776D01*
X33979D01*
X34382Y69508D01*
X35000Y69385D01*
X35618Y69508D01*
X36142Y69858D01*
X36492Y70382D01*
X36615Y71000D01*
X36492Y71618D01*
X36142Y72142D01*
X35618Y72492D01*
X35000Y72615D01*
D02*
G37*
G36*
X17028Y68036D02*
X16357Y67947D01*
X15732Y67689D01*
X15196Y67277D01*
X14784Y66740D01*
X14525Y66115D01*
X14463Y65640D01*
X-14463D01*
X-14525Y66115D01*
X-14784Y66740D01*
X-15196Y67277D01*
X-15732Y67689D01*
X-16357Y67947D01*
X-17028Y68036D01*
X-17698Y67947D01*
X-18323Y67689D01*
X-18859Y67277D01*
X-19271Y66740D01*
X-19530Y66115D01*
X-19618Y65445D01*
Y63621D01*
X-20118Y63414D01*
X-20237Y63533D01*
X-20535Y63732D01*
X-20886Y63802D01*
X-32445D01*
X-32796Y63732D01*
X-33094Y63533D01*
X-33963Y62664D01*
X-34228Y62717D01*
X-34846Y62594D01*
X-35370Y62243D01*
X-35720Y61720D01*
X-35843Y61101D01*
X-35720Y60483D01*
X-35370Y59959D01*
X-34975Y59695D01*
X-34828Y59134D01*
X-35387Y58575D01*
X-35416Y58533D01*
X-35618Y58492D01*
X-36142Y58142D01*
X-36492Y57618D01*
X-36615Y57000D01*
X-36532Y56580D01*
X-36517Y56360D01*
X-36867Y56042D01*
X-37118Y55992D01*
X-37642Y55642D01*
X-37992Y55118D01*
X-38115Y54500D01*
X-37992Y53882D01*
X-37642Y53358D01*
X-37118Y53008D01*
X-36500Y52885D01*
X-35882Y53008D01*
X-35358Y53358D01*
X-35141Y53682D01*
X-34065D01*
X-33714Y53752D01*
X-33592Y53834D01*
X-33118Y53689D01*
X-33040Y53620D01*
X-32992Y53382D01*
X-32642Y52858D01*
X-32118Y52508D01*
X-31500Y52385D01*
X-30882Y52508D01*
X-30358Y52858D01*
X-30008Y53382D01*
X-29885Y54000D01*
X-29914Y54147D01*
X-29540Y54582D01*
X-22367D01*
X-20836Y53051D01*
X-20538Y52852D01*
X-20187Y52782D01*
X-19283D01*
X-19036Y52282D01*
X-19271Y51976D01*
X-19530Y51352D01*
X-19618Y50681D01*
Y46350D01*
X-19530Y45680D01*
X-19271Y45055D01*
X-18859Y44519D01*
X-18323Y44107D01*
X-17698Y43848D01*
X-17028Y43760D01*
X-16357Y43848D01*
X-15732Y44107D01*
X-15196Y44519D01*
X-14784Y45055D01*
X-14525Y45680D01*
X-14437Y46350D01*
Y50681D01*
X-14525Y51352D01*
X-14784Y51976D01*
X-15019Y52282D01*
X-14772Y52782D01*
X-12236D01*
X-12216Y52740D01*
X-12111Y52255D01*
X-12733Y51839D01*
X-13148Y51218D01*
X-13294Y50484D01*
X-13148Y49751D01*
X-12733Y49129D01*
X-12111Y48714D01*
X-11378Y48568D01*
X-10645Y48714D01*
X-10557Y48772D01*
X-10116Y48537D01*
Y47182D01*
X-13048Y44250D01*
X-13247Y43952D01*
X-13317Y43601D01*
Y42814D01*
X-13509Y42685D01*
X-13729Y42356D01*
X-13806Y41969D01*
Y30945D01*
X-13729Y30557D01*
X-13509Y30228D01*
X-13181Y30009D01*
X-12793Y29932D01*
X-12005D01*
X-11618Y30009D01*
X-11289Y30228D01*
X-10753D01*
X-10425Y30009D01*
X-10037Y29932D01*
X-9250D01*
X-8862Y30009D01*
X-8533Y30228D01*
X-7998D01*
X-7669Y30009D01*
X-7281Y29932D01*
X-6494D01*
X-6106Y30009D01*
X-5777Y30228D01*
X-5558Y30557D01*
X-5480Y30945D01*
Y41969D01*
X-5558Y42356D01*
X-5777Y42685D01*
X-5881Y42754D01*
Y45930D01*
X-5419Y46121D01*
X-2534Y43237D01*
X-2486Y42685D01*
X-2705Y42356D01*
X-2782Y41969D01*
Y30945D01*
X-2705Y30557D01*
X-2486Y30228D01*
X-2157Y30009D01*
X-1769Y29932D01*
X-982D01*
X-594Y30009D01*
X-265Y30228D01*
X-46Y30557D01*
X31Y30945D01*
Y41969D01*
X-46Y42356D01*
X-265Y42685D01*
X-458Y42814D01*
Y43375D01*
X-528Y43727D01*
X-727Y44024D01*
X-4507Y47805D01*
X-4465Y48019D01*
X-3917Y48212D01*
X-3611Y48008D01*
X-2993Y47885D01*
X-2375Y48008D01*
X-1851Y48358D01*
X-1500Y48882D01*
X-1378Y49500D01*
X-1500Y50118D01*
X-1851Y50642D01*
X-2075Y50792D01*
Y53281D01*
X-2145Y53632D01*
X-2344Y53930D01*
X-4324Y55910D01*
X-4159Y56453D01*
X-3882Y56508D01*
X-3358Y56858D01*
X-3008Y57382D01*
X-2885Y58000D01*
X-3008Y58618D01*
X-3358Y59142D01*
X-3882Y59492D01*
X-4500Y59615D01*
X-4765Y59563D01*
X-6065Y60863D01*
X-6363Y61062D01*
X-6714Y61132D01*
X-14657D01*
X-14903Y61632D01*
X-14784Y61787D01*
X-14525Y62412D01*
X-14463Y62887D01*
X14463D01*
X14525Y62412D01*
X14784Y61787D01*
X15196Y61251D01*
X15732Y60839D01*
X16357Y60580D01*
X17028Y60492D01*
X17698Y60580D01*
X18323Y60839D01*
X18859Y61251D01*
X19271Y61787D01*
X19530Y62412D01*
X19618Y63083D01*
Y65445D01*
X19530Y66115D01*
X19271Y66740D01*
X18859Y67277D01*
X18323Y67689D01*
X17698Y67947D01*
X17028Y68036D01*
D02*
G37*
G36*
X-54000Y68115D02*
X-54618Y67992D01*
X-55142Y67642D01*
X-55292Y67418D01*
X-55946D01*
X-56297Y67348D01*
X-56595Y67149D01*
X-58804Y64940D01*
X-58882Y64992D01*
X-59500Y65115D01*
X-60118Y64992D01*
X-60642Y64642D01*
X-60992Y64118D01*
X-61115Y63500D01*
X-60992Y62882D01*
X-60642Y62358D01*
X-60118Y62008D01*
X-59500Y61885D01*
X-58882Y62008D01*
X-58358Y62358D01*
X-58008Y62882D01*
X-57943Y63205D01*
X-55730Y65418D01*
X-55153Y65374D01*
X-55142Y65358D01*
X-54618Y65008D01*
X-54000Y64885D01*
X-53382Y65008D01*
X-52858Y65358D01*
X-52508Y65882D01*
X-52385Y66500D01*
X-52508Y67118D01*
X-52858Y67642D01*
X-53382Y67992D01*
X-54000Y68115D01*
D02*
G37*
G36*
X2500Y59615D02*
X1882Y59492D01*
X1358Y59142D01*
X1008Y58618D01*
X885Y58000D01*
X1008Y57382D01*
X1358Y56858D01*
X1882Y56508D01*
X2500Y56385D01*
X2970Y56478D01*
X3317Y56222D01*
X3404Y56097D01*
X3385Y56000D01*
X3508Y55382D01*
X3858Y54858D01*
X4382Y54508D01*
X4856Y54413D01*
X7130Y52139D01*
Y45298D01*
X6196Y44363D01*
X5930Y43966D01*
X5837Y43498D01*
Y42722D01*
X5782Y42685D01*
X5562Y42356D01*
X5485Y41969D01*
Y30945D01*
X5562Y30557D01*
X5782Y30228D01*
X6111Y30009D01*
X6498Y29932D01*
X7286D01*
X7674Y30009D01*
X8002Y30228D01*
X8538D01*
X8867Y30009D01*
X9254Y29932D01*
X10042D01*
X10430Y30009D01*
X10758Y30228D01*
X11294D01*
X11622Y30009D01*
X12010Y29932D01*
X12798D01*
X13185Y30009D01*
X13514Y30228D01*
X13734Y30557D01*
X13811Y30945D01*
Y31273D01*
X13896Y31402D01*
X14019Y32020D01*
X13896Y32638D01*
X13811Y32766D01*
Y41969D01*
X13734Y42356D01*
X13514Y42685D01*
X13185Y42904D01*
X12798Y42982D01*
X12010D01*
X11622Y42904D01*
X11294Y42685D01*
X11204D01*
X10723Y43156D01*
Y43645D01*
X10630Y44113D01*
X10365Y44510D01*
X9578Y45298D01*
Y48896D01*
X9834Y49030D01*
X10078Y49093D01*
X10645Y48714D01*
X11378Y48568D01*
X12111Y48714D01*
X12733Y49129D01*
X13148Y49751D01*
X13294Y50484D01*
X13148Y51218D01*
X12733Y51839D01*
X12301Y52128D01*
X12453Y52628D01*
X14654D01*
X14900Y52128D01*
X14784Y51976D01*
X14525Y51352D01*
X14437Y50681D01*
Y46350D01*
X14525Y45680D01*
X14784Y45055D01*
X15196Y44519D01*
X15732Y44107D01*
X16357Y43848D01*
X17028Y43760D01*
X17698Y43848D01*
X18213Y44061D01*
X18401Y44033D01*
X18479Y43996D01*
X18750Y43804D01*
X18780Y43526D01*
X18508Y43118D01*
X18385Y42500D01*
X18508Y41882D01*
X18858Y41358D01*
X19382Y41008D01*
X20000Y40885D01*
X20618Y41008D01*
X21142Y41358D01*
X21492Y41882D01*
X21615Y42500D01*
X21492Y43118D01*
X21218Y43529D01*
Y51952D01*
X21132Y52381D01*
X20889Y52745D01*
X20889Y52745D01*
X19092Y54543D01*
X18728Y54786D01*
X18299Y54871D01*
X18298Y54871D01*
X10715D01*
X6709Y58877D01*
X6345Y59120D01*
X5916Y59206D01*
X5916Y59206D01*
X3547D01*
X3118Y59492D01*
X2500Y59615D01*
D02*
G37*
G36*
X-24500Y53615D02*
X-25118Y53492D01*
X-25228Y53419D01*
X-27305D01*
X-27773Y53326D01*
X-28170Y53061D01*
X-29365Y51865D01*
X-29630Y51468D01*
X-29724Y51000D01*
Y49000D01*
X-29630Y48532D01*
X-29365Y48135D01*
X-27724Y46493D01*
Y24521D01*
X-27992Y24118D01*
X-28115Y23500D01*
X-27992Y22882D01*
X-27642Y22358D01*
X-27118Y22008D01*
X-26500Y21885D01*
X-25882Y22008D01*
X-25358Y22358D01*
X-25008Y22882D01*
X-24885Y23500D01*
X-25008Y24118D01*
X-25276Y24521D01*
Y40107D01*
X-24777Y40314D01*
X-20814Y36351D01*
X-20516Y36152D01*
X-20165Y36082D01*
X-19292D01*
X-19142Y35858D01*
X-18618Y35508D01*
X-18000Y35385D01*
X-17382Y35508D01*
X-16858Y35858D01*
X-16508Y36382D01*
X-16385Y37000D01*
X-16508Y37618D01*
X-16858Y38142D01*
X-17382Y38492D01*
X-17783Y38572D01*
X-17843Y38717D01*
X-17720Y39335D01*
X-17843Y39953D01*
X-18193Y40477D01*
X-18717Y40828D01*
X-19335Y40951D01*
X-19600Y40898D01*
X-20019Y41317D01*
X-20316Y41515D01*
X-20504Y41553D01*
X-20885Y42000D01*
X-21008Y42618D01*
X-21358Y43142D01*
X-21882Y43492D01*
X-22500Y43615D01*
X-23118Y43492D01*
X-23163Y43462D01*
X-23663Y43729D01*
Y48449D01*
X-23733Y48800D01*
X-23932Y49097D01*
X-24581Y49746D01*
X-24528Y50011D01*
X-24108Y50463D01*
X-23882Y50508D01*
X-23358Y50858D01*
X-23008Y51382D01*
X-22885Y52000D01*
X-23008Y52618D01*
X-23358Y53142D01*
X-23882Y53492D01*
X-24500Y53615D01*
D02*
G37*
%LPD*%
D14*
X-61000Y-10500D02*
Y21000D01*
Y26000D01*
X-71000Y36000D02*
X-61000Y26000D01*
X-71000Y36000D02*
Y44000D01*
X-17028Y64264D02*
X17028D01*
X-58713Y-24713D02*
X-56213D01*
X-51500Y-20000D01*
X-61000Y-27000D02*
X-58713Y-24713D01*
X-1500Y-3500D02*
X2500Y500D01*
X-1500Y-22000D02*
Y-3500D01*
X-3500Y-24000D02*
X-1500Y-22000D01*
X1000Y-28500D02*
X32500D01*
X-3500Y-24000D02*
X1000Y-28500D01*
X-16590Y-2410D02*
X-13090D01*
X-18000Y-1000D02*
X-16590Y-2410D01*
X-18000Y-1000D02*
Y2000D01*
X-17627Y-24000D02*
X-11500D01*
X32500Y-28500D02*
X36705Y-24295D01*
X-13090Y-2410D02*
X-13000Y-2500D01*
X-61000Y-10500D02*
X-51500Y-20000D01*
X-21627D02*
X-17627Y-24000D01*
X36705Y-24295D02*
Y-21795D01*
X42000Y-16500D01*
D15*
X-20165Y37000D02*
X-18000D01*
X-24581Y41416D02*
X-20165Y37000D01*
X-24581Y41416D02*
Y48449D01*
X-26143Y50011D02*
X-24581Y48449D01*
X-21168Y40668D02*
X-20668D01*
X-19335Y39335D01*
X-19335D01*
X-22500Y42000D02*
X-21168Y40668D01*
X-1375Y32520D02*
Y43375D01*
X-5598Y47598D02*
X-1375Y43375D01*
X-5598Y47598D02*
Y52878D01*
X-12399Y32520D02*
Y43601D01*
X-9198Y46802D02*
Y51387D01*
X-12399Y43601D02*
X-9198Y46802D01*
X-9643Y32520D02*
Y43357D01*
X-7998Y45002D02*
Y51884D01*
X-9643Y43357D02*
X-7998Y45002D01*
X-49884Y50116D02*
X-42500Y57500D01*
X61000Y-31500D02*
Y-1500D01*
X59000Y500D02*
X61000Y-1500D01*
X59000Y500D02*
Y3500D01*
X61000Y5500D02*
Y13000D01*
X59000Y3500D02*
X61000Y5500D01*
X57000Y-35500D02*
X61000Y-31500D01*
X-32445Y62884D02*
X-20886D01*
X-31916Y57916D02*
X-21008D01*
X-32000Y58000D02*
X-31916Y57916D01*
X-21008D02*
X-19193Y56100D01*
X-30049Y59884D02*
X-29280Y59116D01*
X-20511D01*
X-18696Y57300D01*
X-32781Y59884D02*
X-30049D01*
X-34228Y61101D02*
X-32445Y62884D01*
X-35000Y57000D02*
X-34738Y57262D01*
Y57927D01*
X-32781Y59884D01*
X-59500Y63500D02*
X-58946D01*
X-55946Y66500D01*
X-58280Y50116D02*
X-49884D01*
X-61500Y53335D02*
X-58280Y50116D01*
X-61500Y53335D02*
Y59500D01*
X-48500Y48500D02*
X-42500Y54500D01*
X-48500Y46242D02*
Y48500D01*
X-49981Y44761D02*
X-48500Y46242D01*
X-60761Y44761D02*
X-49981D01*
X-62500Y46500D02*
X-60761Y44761D01*
X-71750Y46500D02*
X-62500D01*
X-31500Y54138D02*
X-30138Y55500D01*
X-31500Y54000D02*
Y54138D01*
X-36400Y54600D02*
X-34065D01*
X-36500Y54500D02*
X-36400Y54600D01*
X-20886Y62884D02*
X-18216Y60214D01*
X-6714D01*
X-4500Y58000D01*
X-34065Y54600D02*
X-32781Y55884D01*
X-31451D01*
X-30635Y56700D01*
X-21490D01*
X-19690Y54900D01*
X-30138Y55500D02*
X-21987D01*
X-20699Y61000D02*
X-18199Y58500D01*
X-27500Y61000D02*
X-20699D01*
X-21987Y55500D02*
X-20187Y53700D01*
X-18199Y58500D02*
X-8212D01*
X-18696Y57300D02*
X-10020D01*
X-19193Y56100D02*
X-10517D01*
X-19690Y54900D02*
X-11014D01*
X-20187Y53700D02*
X-11511D01*
X-8212Y58500D02*
X-2993Y53281D01*
X-10020Y57300D02*
X-5598Y52878D01*
X-10517Y56100D02*
X-6798Y52381D01*
X-11014Y54900D02*
X-7998Y51884D01*
X-11511Y53700D02*
X-9198Y51387D01*
X-6798Y32609D02*
Y52381D01*
X-2993Y49500D02*
Y53281D01*
X-55946Y66500D02*
X-54000D01*
X-6887Y32520D02*
X-6798Y32609D01*
X-73303Y44947D02*
X-71750Y46500D01*
X-73303Y35803D02*
Y44947D01*
X-71000Y21932D02*
Y33500D01*
X-73303Y35803D02*
X-71000Y33500D01*
Y21932D02*
X-64061Y14993D01*
Y6500D02*
Y14993D01*
X11000Y-35500D02*
X57000D01*
X58800Y-36700D02*
X61000Y-34500D01*
X2200Y-36700D02*
X58800D01*
X0Y-34500D02*
X2200Y-36700D01*
X10000Y-34500D02*
X11000Y-35500D01*
D17*
X10250Y53750D02*
X18299D01*
X5916Y58084D02*
X10250Y53750D01*
X2584Y58084D02*
X5916D01*
X18299Y53750D02*
X20096Y51952D01*
Y42596D02*
Y51952D01*
X20000Y42500D02*
X20096Y42596D01*
X-39016Y10516D02*
X-39000Y10500D01*
X2500Y58000D02*
X2584Y58084D01*
X-15500Y13500D02*
X-9500Y19500D01*
X-17500Y13500D02*
X-15500D01*
X-49516Y10516D02*
X-39016D01*
X46500Y-27981D02*
Y16000D01*
X500Y-4500D02*
X4584Y-416D01*
X500Y-24000D02*
Y-4500D01*
X4584Y-416D02*
Y4584D01*
X9500Y9500D01*
X27500Y-23000D02*
X28500D01*
X40000Y-11500D01*
X-14500Y-14500D02*
Y-14238D01*
X-15084Y-13654D02*
X-14500Y-14238D01*
X-15084Y-13654D02*
Y-7855D01*
X-10916Y-3686D01*
Y584D01*
X-8500Y3000D01*
X-16000Y11000D02*
X-2500D01*
X1500Y15000D01*
X40000Y19000D02*
X41500Y20500D01*
X40000Y-11500D02*
Y19000D01*
D73*
X9574Y32594D02*
Y39426D01*
X9500Y39500D02*
Y43645D01*
X7061Y36625D02*
Y43498D01*
Y32688D02*
Y36625D01*
X6892Y36457D02*
X7061Y36625D01*
X-46647Y61853D02*
X-46500Y62000D01*
X-44177Y64324D01*
X-43088D02*
X-40911Y66500D01*
X-44177Y64324D02*
X-43088D01*
X-32000Y71000D02*
X5000D01*
X-36500Y66500D02*
X-32000Y71000D01*
X-40911Y66500D02*
X-36500D01*
X-26500Y23500D02*
Y47000D01*
X-28500Y49000D02*
X-26500Y47000D01*
X-28500Y49000D02*
Y51000D01*
X-27305Y52195D01*
X-24543D01*
X-49147Y61853D02*
X-46647D01*
X-55000Y56000D02*
X-49147Y61853D01*
X5000Y56000D02*
X8354Y52646D01*
Y44791D02*
Y52646D01*
X7061Y43498D02*
X8354Y44791D01*
X9500Y43645D01*
X6892Y32520D02*
X7061Y32688D01*
X5000Y71000D02*
X35000D01*
X9500Y39500D02*
X9574Y39426D01*
Y32594D02*
X9648Y32520D01*
X54531Y13516D02*
Y20469D01*
X50500Y24500D02*
X54531Y20469D01*
D75*
X32000Y22500D02*
X47500Y38000D01*
X57000D01*
X59000Y40000D01*
X54000Y52000D02*
X59000Y47000D01*
Y40000D02*
Y47000D01*
X25000Y15500D02*
X32000Y22500D01*
X-500Y6000D02*
X9000Y15500D01*
X-9500Y6000D02*
X-500D01*
X9000Y15500D02*
X25000D01*
X-13000Y-2500D02*
Y2500D01*
X-9500Y6000D01*
D77*
X-17028Y64264D02*
D03*
X17028D02*
D03*
D78*
Y48516D02*
D03*
X-17028D02*
D03*
D79*
X-11378Y50484D02*
D03*
X11378D02*
D03*
X-66500Y20653D02*
D03*
Y27347D02*
D03*
Y-27347D02*
D03*
Y-20653D02*
D03*
Y-3347D02*
D03*
Y3347D02*
D03*
X66500Y-20653D02*
D03*
Y-27347D02*
D03*
Y27347D02*
D03*
Y20653D02*
D03*
D80*
X-31157Y37000D02*
D03*
Y27158D02*
D03*
Y46843D02*
D03*
X-50842D02*
D03*
Y37000D02*
D03*
Y27158D02*
D03*
X-41000D02*
D03*
Y46843D02*
D03*
Y37000D02*
D03*
D81*
X31000Y31000D02*
D03*
X38000Y40000D02*
D03*
X20000Y42500D02*
D03*
X21000Y31000D02*
D03*
X29000Y34000D02*
D03*
X35500Y47500D02*
D03*
X38000D02*
D03*
X-42500Y57500D02*
D03*
X-46500Y62000D02*
D03*
X-5000Y20000D02*
D03*
X-39000Y10500D02*
D03*
X-4130Y37087D02*
D03*
X-19335Y39335D02*
D03*
X-15154Y35500D02*
D03*
X-18000Y37000D02*
D03*
X57500Y32000D02*
D03*
X55500Y26000D02*
D03*
X-70000Y0D02*
D03*
Y-24000D02*
D03*
X-64000Y34000D02*
D03*
X-72000Y-37000D02*
D03*
X72000D02*
D03*
X70000Y-24000D02*
D03*
Y24000D02*
D03*
X68500Y-9000D02*
D03*
X68000Y8000D02*
D03*
X54000Y-5800D02*
D03*
X53300Y-11100D02*
D03*
X57500Y-20000D02*
D03*
X19500Y-32500D02*
D03*
X30500D02*
D03*
X40000Y-27500D02*
D03*
Y-32500D02*
D03*
X64000Y-24500D02*
D03*
X50500Y-32500D02*
D03*
X61000Y2000D02*
D03*
X-28500Y61000D02*
D03*
X-20835Y45665D02*
D03*
X-71500Y55000D02*
D03*
X-21000Y19500D02*
D03*
X13500Y67000D02*
D03*
X17500Y39000D02*
D03*
X0Y55500D02*
D03*
X14000Y58000D02*
D03*
X-6000Y68000D02*
D03*
X0D02*
D03*
X-12000D02*
D03*
X-59500Y63500D02*
D03*
X-36500Y71000D02*
D03*
X-43500Y67500D02*
D03*
X-42500Y54500D02*
D03*
X-34228Y61101D02*
D03*
X-26143Y50011D02*
D03*
X-31500Y54000D02*
D03*
X-36500Y54500D02*
D03*
X-48000Y57500D02*
D03*
X-32000Y58000D02*
D03*
X-36500Y66500D02*
D03*
X-4500Y58000D02*
D03*
X2500D02*
D03*
X-66000Y12000D02*
D03*
X-10000Y-36000D02*
D03*
Y-27500D02*
D03*
X-16700Y-21100D02*
D03*
X-20500Y-25000D02*
D03*
X-40000D02*
D03*
X-50000D02*
D03*
X5000Y71000D02*
D03*
Y56000D02*
D03*
X-54000Y66500D02*
D03*
X-24500Y52000D02*
D03*
X-22500Y42000D02*
D03*
X35000Y71000D02*
D03*
X-57500Y52000D02*
D03*
X-61500Y59500D02*
D03*
X-59500Y70500D02*
D03*
X-55000Y56000D02*
D03*
X-2993Y49500D02*
D03*
X12404Y32020D02*
D03*
X9650Y39500D02*
D03*
X60000Y71500D02*
D03*
Y69000D02*
D03*
X48000Y69500D02*
D03*
Y72000D02*
D03*
X54000Y52000D02*
D03*
X-71000Y44000D02*
D03*
X59000Y40000D02*
D03*
X-9500Y19500D02*
D03*
X-64061Y6500D02*
D03*
X-49516Y10516D02*
D03*
X-53500Y10500D02*
D03*
X-61500Y-3500D02*
D03*
X46500Y-27981D02*
D03*
X61000Y-34500D02*
D03*
X10000D02*
D03*
X0D02*
D03*
X500Y-24000D02*
D03*
X-3500D02*
D03*
X6000Y9000D02*
D03*
X9500Y9500D02*
D03*
X11500Y-24500D02*
D03*
X-11500Y-24000D02*
D03*
X27500Y-23000D02*
D03*
X-14500Y-14500D02*
D03*
X-8500Y3000D02*
D03*
X-23000Y1000D02*
D03*
X-13000Y-2500D02*
D03*
X-18000Y2000D02*
D03*
X-17500Y13500D02*
D03*
X-16000Y11000D02*
D03*
X-13000Y-11000D02*
D03*
X-51500Y-20000D02*
D03*
X2500Y500D02*
D03*
X-33000Y2000D02*
D03*
X61000Y13000D02*
D03*
X46000Y40500D02*
D03*
X54000D02*
D03*
X69000Y56500D02*
D03*
Y41000D02*
D03*
X50500Y24500D02*
D03*
X-41000Y-10000D02*
D03*
X-33000D02*
D03*
X-41000Y2000D02*
D03*
Y-4000D02*
D03*
X-33000D02*
D03*
X-51500Y-13500D02*
D03*
X-21627Y-20000D02*
D03*
X42000Y-16500D02*
D03*
X9500Y-3500D02*
D03*
X49500Y5500D02*
D03*
X28000Y22500D02*
D03*
X-26500Y23500D02*
D03*
X1500Y15000D02*
D03*
X30000Y-26000D02*
D03*
X18500Y-17000D02*
D03*
X17500Y18000D02*
D03*
X42500Y16500D02*
D03*
X41500Y20500D02*
D03*
X40000Y-11500D02*
D03*
X32000Y22500D02*
D03*
X30000Y-4000D02*
D03*
Y4000D02*
D03*
X36000D02*
D03*
Y-4000D02*
D03*
X24000D02*
D03*
Y4000D02*
D03*
X46500Y16000D02*
D03*
X-15155Y26500D02*
D03*
X54531Y13516D02*
D03*
X42000Y-20500D02*
D03*
X9000Y25000D02*
D03*
X6000D02*
D03*
X3000D02*
D03*
X12000D02*
D03*
X15157Y25106D02*
D03*
X18000Y28000D02*
D03*
X0Y25000D02*
D03*
X-3000D02*
D03*
X-6000D02*
D03*
X-9000D02*
D03*
X-12000D02*
D03*
X-60000Y47000D02*
D03*
X-35000Y57000D02*
D03*
X-61000Y-27000D02*
D03*
Y21000D02*
D03*
X-67500Y44000D02*
D03*
D82*
X-12399Y36457D02*
D03*
X15160D02*
D03*
X6892D02*
D03*
X-1376D02*
D03*
X-9643D02*
D03*
X9648D02*
D03*
X12404D02*
D03*
X1380D02*
D03*
X4136D02*
D03*
X-4132D02*
D03*
X-6887D02*
D03*
X-15155D02*
D03*
M02*
