G04*
G04 #@! TF.GenerationSoftware,Altium Limited,Altium Designer,19.1.5 (86)*
G04*
G04 Layer_Color=2752767*
%FSLAX25Y25*%
%MOIN*%
G70*
G01*
G75*
%ADD10C,0.00500*%
%ADD11C,0.00200*%
%ADD12C,0.00267*%
D10*
X74803Y56142D02*
G03*
X56142Y74803I-18657J4D01*
G01*
X-61024Y-40000D02*
G03*
X-61024Y-43937I0J-1969D01*
G01*
X61024Y-74154D02*
G03*
X74803Y-56142I-4878J18008D01*
G01*
X-74803D02*
G03*
X-61024Y-74154I18657J-4D01*
G01*
X-56142Y74803D02*
G03*
X-74803Y56142I-4J-18657D01*
G01*
X61024Y-43937D02*
G03*
X61024Y-40000I0J1969D01*
G01*
X-74803Y34803D02*
X-72500Y32500D01*
Y-32500D02*
Y32500D01*
X72500Y-32500D02*
Y32500D01*
X-74803Y-34803D02*
X-72500Y-32500D01*
X-61024Y-40000D02*
X61024D01*
X72500Y-32500D02*
X74803Y-34803D01*
Y-56142D02*
Y-34803D01*
X-74803Y-56142D02*
Y-34803D01*
X-61024Y-74154D02*
Y-43937D01*
X72500Y32500D02*
X74803Y34803D01*
X61024Y-74154D02*
Y-43937D01*
X-56142Y74803D02*
X56142D01*
X74803Y34803D02*
Y56142D01*
X-74803Y34803D02*
Y56142D01*
D11*
X-17828Y63464D02*
Y65064D01*
X-16228D01*
Y63464D01*
X-17828D01*
X16228D02*
Y65064D01*
X17828D01*
Y63464D01*
X16228D01*
X-11378Y49684D02*
X-12178Y51284D01*
X-10578D01*
X-11378Y49684D01*
X11378D02*
X10578Y51284D01*
X12178D01*
X11378Y49684D01*
X-66500Y19853D02*
X-66100Y20254D01*
X-65700D01*
X-66100Y20653D01*
X-65700Y21054D01*
X-66100D01*
X-66500Y21453D01*
X-66900Y21054D01*
X-67300D01*
X-66900Y20653D01*
X-67300Y20254D01*
X-66900D01*
X-66500Y19853D01*
Y26546D02*
X-66100Y26946D01*
X-65700D01*
X-66100Y27347D01*
X-65700Y27746D01*
X-66100D01*
X-66500Y28146D01*
X-66900Y27746D01*
X-67300D01*
X-66900Y27347D01*
X-67300Y26946D01*
X-66900D01*
X-66500Y26546D01*
X-31958Y36200D02*
X-31558Y37000D01*
X-31958Y37800D01*
X-31157Y37400D01*
X-30358Y37800D01*
X-30757Y37000D01*
X-30358Y36200D01*
X-31157Y36600D01*
X-31958Y36200D01*
Y26357D02*
X-31558Y27158D01*
X-31958Y27957D01*
X-31157Y27558D01*
X-30358Y27957D01*
X-30757Y27158D01*
X-30358Y26357D01*
X-31157Y26757D01*
X-31958Y26357D01*
Y46042D02*
X-31558Y46843D01*
X-31958Y47642D01*
X-31157Y47243D01*
X-30358Y47642D01*
X-30757Y46843D01*
X-30358Y46042D01*
X-31157Y46442D01*
X-31958Y46042D01*
X-51643D02*
X-51243Y46843D01*
X-51643Y47642D01*
X-50842Y47243D01*
X-50042Y47642D01*
X-50442Y46843D01*
X-50042Y46042D01*
X-50842Y46442D01*
X-51643Y46042D01*
Y36200D02*
X-51243Y37000D01*
X-51643Y37800D01*
X-50842Y37400D01*
X-50042Y37800D01*
X-50442Y37000D01*
X-50042Y36200D01*
X-50842Y36600D01*
X-51643Y36200D01*
Y26357D02*
X-51243Y27158D01*
X-51643Y27957D01*
X-50842Y27558D01*
X-50042Y27957D01*
X-50442Y27158D01*
X-50042Y26357D01*
X-50842Y26757D01*
X-51643Y26357D01*
X-41800D02*
X-41400Y27158D01*
X-41800Y27957D01*
X-41000Y27558D01*
X-40200Y27957D01*
X-40600Y27158D01*
X-40200Y26357D01*
X-41000Y26757D01*
X-41800Y26357D01*
Y46042D02*
X-41400Y46843D01*
X-41800Y47642D01*
X-41000Y47243D01*
X-40200Y47642D01*
X-40600Y46843D01*
X-40200Y46042D01*
X-41000Y46442D01*
X-41800Y46042D01*
Y36200D02*
X-41400Y37000D01*
X-41800Y37800D01*
X-41000Y37400D01*
X-40200Y37800D01*
X-40600Y37000D01*
X-40200Y36200D01*
X-41000Y36600D01*
X-41800Y36200D01*
X-66500Y-28146D02*
X-66100Y-27746D01*
X-65700D01*
X-66100Y-27347D01*
X-65700Y-26946D01*
X-66100D01*
X-66500Y-26546D01*
X-66900Y-26946D01*
X-67300D01*
X-66900Y-27347D01*
X-67300Y-27746D01*
X-66900D01*
X-66500Y-28146D01*
Y-21453D02*
X-66100Y-21054D01*
X-65700D01*
X-66100Y-20653D01*
X-65700Y-20254D01*
X-66100D01*
X-66500Y-19853D01*
X-66900Y-20254D01*
X-67300D01*
X-66900Y-20653D01*
X-67300Y-21054D01*
X-66900D01*
X-66500Y-21453D01*
Y-4146D02*
X-66100Y-3746D01*
X-65700D01*
X-66100Y-3347D01*
X-65700Y-2946D01*
X-66100D01*
X-66500Y-2547D01*
X-66900Y-2946D01*
X-67300D01*
X-66900Y-3347D01*
X-67300Y-3746D01*
X-66900D01*
X-66500Y-4146D01*
Y2547D02*
X-66100Y2946D01*
X-65700D01*
X-66100Y3347D01*
X-65700Y3746D01*
X-66100D01*
X-66500Y4146D01*
X-66900Y3746D01*
X-67300D01*
X-66900Y3347D01*
X-67300Y2946D01*
X-66900D01*
X-66500Y2547D01*
X66500Y-21453D02*
X66900Y-21054D01*
X67300D01*
X66900Y-20653D01*
X67300Y-20254D01*
X66900D01*
X66500Y-19853D01*
X66100Y-20254D01*
X65700D01*
X66100Y-20653D01*
X65700Y-21054D01*
X66100D01*
X66500Y-21453D01*
Y-28146D02*
X66900Y-27746D01*
X67300D01*
X66900Y-27347D01*
X67300Y-26946D01*
X66900D01*
X66500Y-26546D01*
X66100Y-26946D01*
X65700D01*
X66100Y-27347D01*
X65700Y-27746D01*
X66100D01*
X66500Y-28146D01*
Y26546D02*
X66900Y26946D01*
X67300D01*
X66900Y27347D01*
X67300Y27746D01*
X66900D01*
X66500Y28146D01*
X66100Y27746D01*
X65700D01*
X66100Y27347D01*
X65700Y26946D01*
X66100D01*
X66500Y26546D01*
Y19853D02*
X66900Y20254D01*
X67300D01*
X66900Y20653D01*
X67300Y21054D01*
X66900D01*
X66500Y21453D01*
X66100Y21054D01*
X65700D01*
X66100Y20653D01*
X65700Y20254D01*
X66100D01*
X66500Y19853D01*
X30200Y30200D02*
X30600Y31000D01*
X30200Y31800D01*
X31000Y31400D01*
X31800Y31800D01*
X31400Y31000D01*
X31800Y30200D01*
X31000Y30600D01*
X30200Y30200D01*
X37200Y39200D02*
X37600Y40000D01*
X37200Y40800D01*
X38000Y40400D01*
X38800Y40800D01*
X38400Y40000D01*
X38800Y39200D01*
X38000Y39600D01*
X37200Y39200D01*
X19200Y41700D02*
X19600Y42500D01*
X19200Y43300D01*
X20000Y42900D01*
X20800Y43300D01*
X20400Y42500D01*
X20800Y41700D01*
X20000Y42100D01*
X19200Y41700D01*
X20200Y30200D02*
X20600Y31000D01*
X20200Y31800D01*
X21000Y31400D01*
X21800Y31800D01*
X21400Y31000D01*
X21800Y30200D01*
X21000Y30600D01*
X20200Y30200D01*
X28200Y33200D02*
X28600Y34000D01*
X28200Y34800D01*
X29000Y34400D01*
X29800Y34800D01*
X29400Y34000D01*
X29800Y33200D01*
X29000Y33600D01*
X28200Y33200D01*
X34700Y46700D02*
X35100Y47500D01*
X34700Y48300D01*
X35500Y47900D01*
X36300Y48300D01*
X35900Y47500D01*
X36300Y46700D01*
X35500Y47100D01*
X34700Y46700D01*
X37200D02*
X37600Y47500D01*
X37200Y48300D01*
X38000Y47900D01*
X38800Y48300D01*
X38400Y47500D01*
X38800Y46700D01*
X38000Y47100D01*
X37200Y46700D01*
X-43300Y56700D02*
X-42900Y57500D01*
X-43300Y58300D01*
X-42500Y57900D01*
X-41700Y58300D01*
X-42100Y57500D01*
X-41700Y56700D01*
X-42500Y57100D01*
X-43300Y56700D01*
X-47300Y61200D02*
X-46900Y62000D01*
X-47300Y62800D01*
X-46500Y62400D01*
X-45700Y62800D01*
X-46100Y62000D01*
X-45700Y61200D01*
X-46500Y61600D01*
X-47300Y61200D01*
X-5800Y19200D02*
X-5400Y20000D01*
X-5800Y20800D01*
X-5000Y20400D01*
X-4200Y20800D01*
X-4600Y20000D01*
X-4200Y19200D01*
X-5000Y19600D01*
X-5800Y19200D01*
X-39800Y9700D02*
X-39400Y10500D01*
X-39800Y11300D01*
X-39000Y10900D01*
X-38200Y11300D01*
X-38600Y10500D01*
X-38200Y9700D01*
X-39000Y10100D01*
X-39800Y9700D01*
X-4930Y36287D02*
X-4530Y37087D01*
X-4930Y37887D01*
X-4130Y37487D01*
X-3330Y37887D01*
X-3730Y37087D01*
X-3330Y36287D01*
X-4130Y36687D01*
X-4930Y36287D01*
X-20135Y38535D02*
X-19735Y39335D01*
X-20135Y40135D01*
X-19335Y39735D01*
X-18535Y40135D01*
X-18935Y39335D01*
X-18535Y38535D01*
X-19335Y38935D01*
X-20135Y38535D01*
X-15954Y34700D02*
X-15553Y35500D01*
X-15954Y36300D01*
X-15154Y35900D01*
X-14354Y36300D01*
X-14753Y35500D01*
X-14354Y34700D01*
X-15154Y35100D01*
X-15954Y34700D01*
X-18800Y36200D02*
X-18400Y37000D01*
X-18800Y37800D01*
X-18000Y37400D01*
X-17200Y37800D01*
X-17600Y37000D01*
X-17200Y36200D01*
X-18000Y36600D01*
X-18800Y36200D01*
X56700Y31200D02*
X57100Y32000D01*
X56700Y32800D01*
X57500Y32400D01*
X58300Y32800D01*
X57900Y32000D01*
X58300Y31200D01*
X57500Y31600D01*
X56700Y31200D01*
X54700Y25200D02*
X55100Y26000D01*
X54700Y26800D01*
X55500Y26400D01*
X56300Y26800D01*
X55900Y26000D01*
X56300Y25200D01*
X55500Y25600D01*
X54700Y25200D01*
X-70800Y-800D02*
X-70400Y0D01*
X-70800Y800D01*
X-70000Y400D01*
X-69200Y800D01*
X-69600Y0D01*
X-69200Y-800D01*
X-70000Y-400D01*
X-70800Y-800D01*
Y-24800D02*
X-70400Y-24000D01*
X-70800Y-23200D01*
X-70000Y-23600D01*
X-69200Y-23200D01*
X-69600Y-24000D01*
X-69200Y-24800D01*
X-70000Y-24400D01*
X-70800Y-24800D01*
X-64800Y33200D02*
X-64400Y34000D01*
X-64800Y34800D01*
X-64000Y34400D01*
X-63200Y34800D01*
X-63600Y34000D01*
X-63200Y33200D01*
X-64000Y33600D01*
X-64800Y33200D01*
X-72800Y-37800D02*
X-72400Y-37000D01*
X-72800Y-36200D01*
X-72000Y-36600D01*
X-71200Y-36200D01*
X-71600Y-37000D01*
X-71200Y-37800D01*
X-72000Y-37400D01*
X-72800Y-37800D01*
X71200D02*
X71600Y-37000D01*
X71200Y-36200D01*
X72000Y-36600D01*
X72800Y-36200D01*
X72400Y-37000D01*
X72800Y-37800D01*
X72000Y-37400D01*
X71200Y-37800D01*
X69200Y-24800D02*
X69600Y-24000D01*
X69200Y-23200D01*
X70000Y-23600D01*
X70800Y-23200D01*
X70400Y-24000D01*
X70800Y-24800D01*
X70000Y-24400D01*
X69200Y-24800D01*
Y23200D02*
X69600Y24000D01*
X69200Y24800D01*
X70000Y24400D01*
X70800Y24800D01*
X70400Y24000D01*
X70800Y23200D01*
X70000Y23600D01*
X69200Y23200D01*
X67700Y-9800D02*
X68100Y-9000D01*
X67700Y-8200D01*
X68500Y-8600D01*
X69300Y-8200D01*
X68900Y-9000D01*
X69300Y-9800D01*
X68500Y-9400D01*
X67700Y-9800D01*
X67200Y7200D02*
X67600Y8000D01*
X67200Y8800D01*
X68000Y8400D01*
X68800Y8800D01*
X68400Y8000D01*
X68800Y7200D01*
X68000Y7600D01*
X67200Y7200D01*
X53200Y-6600D02*
X53600Y-5800D01*
X53200Y-5000D01*
X54000Y-5400D01*
X54800Y-5000D01*
X54400Y-5800D01*
X54800Y-6600D01*
X54000Y-6200D01*
X53200Y-6600D01*
X52500Y-11900D02*
X52900Y-11100D01*
X52500Y-10300D01*
X53300Y-10700D01*
X54100Y-10300D01*
X53700Y-11100D01*
X54100Y-11900D01*
X53300Y-11500D01*
X52500Y-11900D01*
X56700Y-20800D02*
X57100Y-20000D01*
X56700Y-19200D01*
X57500Y-19600D01*
X58300Y-19200D01*
X57900Y-20000D01*
X58300Y-20800D01*
X57500Y-20400D01*
X56700Y-20800D01*
X18700Y-33300D02*
X19100Y-32500D01*
X18700Y-31700D01*
X19500Y-32100D01*
X20300Y-31700D01*
X19900Y-32500D01*
X20300Y-33300D01*
X19500Y-32900D01*
X18700Y-33300D01*
X29700D02*
X30100Y-32500D01*
X29700Y-31700D01*
X30500Y-32100D01*
X31300Y-31700D01*
X30900Y-32500D01*
X31300Y-33300D01*
X30500Y-32900D01*
X29700Y-33300D01*
X39200Y-28300D02*
X39600Y-27500D01*
X39200Y-26700D01*
X40000Y-27100D01*
X40800Y-26700D01*
X40400Y-27500D01*
X40800Y-28300D01*
X40000Y-27900D01*
X39200Y-28300D01*
Y-33300D02*
X39600Y-32500D01*
X39200Y-31700D01*
X40000Y-32100D01*
X40800Y-31700D01*
X40400Y-32500D01*
X40800Y-33300D01*
X40000Y-32900D01*
X39200Y-33300D01*
X63200Y-25300D02*
X63600Y-24500D01*
X63200Y-23700D01*
X64000Y-24100D01*
X64800Y-23700D01*
X64400Y-24500D01*
X64800Y-25300D01*
X64000Y-24900D01*
X63200Y-25300D01*
X49700Y-33300D02*
X50100Y-32500D01*
X49700Y-31700D01*
X50500Y-32100D01*
X51300Y-31700D01*
X50900Y-32500D01*
X51300Y-33300D01*
X50500Y-32900D01*
X49700Y-33300D01*
X60200Y1200D02*
X60600Y2000D01*
X60200Y2800D01*
X61000Y2400D01*
X61800Y2800D01*
X61400Y2000D01*
X61800Y1200D01*
X61000Y1600D01*
X60200Y1200D01*
X-29300Y60200D02*
X-28900Y61000D01*
X-29300Y61800D01*
X-28500Y61400D01*
X-27700Y61800D01*
X-28100Y61000D01*
X-27700Y60200D01*
X-28500Y60600D01*
X-29300Y60200D01*
X-21635Y44865D02*
X-21235Y45665D01*
X-21635Y46465D01*
X-20835Y46065D01*
X-20035Y46465D01*
X-20435Y45665D01*
X-20035Y44865D01*
X-20835Y45265D01*
X-21635Y44865D01*
X-72300Y54200D02*
X-71900Y55000D01*
X-72300Y55800D01*
X-71500Y55400D01*
X-70700Y55800D01*
X-71100Y55000D01*
X-70700Y54200D01*
X-71500Y54600D01*
X-72300Y54200D01*
X-21800Y18700D02*
X-21400Y19500D01*
X-21800Y20300D01*
X-21000Y19900D01*
X-20200Y20300D01*
X-20600Y19500D01*
X-20200Y18700D01*
X-21000Y19100D01*
X-21800Y18700D01*
X12700Y66200D02*
X13100Y67000D01*
X12700Y67800D01*
X13500Y67400D01*
X14300Y67800D01*
X13900Y67000D01*
X14300Y66200D01*
X13500Y66600D01*
X12700Y66200D01*
X16700Y38200D02*
X17100Y39000D01*
X16700Y39800D01*
X17500Y39400D01*
X18300Y39800D01*
X17900Y39000D01*
X18300Y38200D01*
X17500Y38600D01*
X16700Y38200D01*
X-800Y54700D02*
X-400Y55500D01*
X-800Y56300D01*
X0Y55900D01*
X800Y56300D01*
X400Y55500D01*
X800Y54700D01*
X0Y55100D01*
X-800Y54700D01*
X13200Y57200D02*
X13600Y58000D01*
X13200Y58800D01*
X14000Y58400D01*
X14800Y58800D01*
X14400Y58000D01*
X14800Y57200D01*
X14000Y57600D01*
X13200Y57200D01*
X-6800Y67200D02*
X-6400Y68000D01*
X-6800Y68800D01*
X-6000Y68400D01*
X-5200Y68800D01*
X-5600Y68000D01*
X-5200Y67200D01*
X-6000Y67600D01*
X-6800Y67200D01*
X-800D02*
X-400Y68000D01*
X-800Y68800D01*
X0Y68400D01*
X800Y68800D01*
X400Y68000D01*
X800Y67200D01*
X0Y67600D01*
X-800Y67200D01*
X-12800D02*
X-12400Y68000D01*
X-12800Y68800D01*
X-12000Y68400D01*
X-11200Y68800D01*
X-11600Y68000D01*
X-11200Y67200D01*
X-12000Y67600D01*
X-12800Y67200D01*
X-60300Y62700D02*
X-59900Y63500D01*
X-60300Y64300D01*
X-59500Y63900D01*
X-58700Y64300D01*
X-59100Y63500D01*
X-58700Y62700D01*
X-59500Y63100D01*
X-60300Y62700D01*
X-37300Y70200D02*
X-36900Y71000D01*
X-37300Y71800D01*
X-36500Y71400D01*
X-35700Y71800D01*
X-36100Y71000D01*
X-35700Y70200D01*
X-36500Y70600D01*
X-37300Y70200D01*
X-44300Y66700D02*
X-43900Y67500D01*
X-44300Y68300D01*
X-43500Y67900D01*
X-42700Y68300D01*
X-43100Y67500D01*
X-42700Y66700D01*
X-43500Y67100D01*
X-44300Y66700D01*
X-43300Y53700D02*
X-42900Y54500D01*
X-43300Y55300D01*
X-42500Y54900D01*
X-41700Y55300D01*
X-42100Y54500D01*
X-41700Y53700D01*
X-42500Y54100D01*
X-43300Y53700D01*
X-35028Y60301D02*
X-34628Y61101D01*
X-35028Y61901D01*
X-34228Y61501D01*
X-33428Y61901D01*
X-33828Y61101D01*
X-33428Y60301D01*
X-34228Y60701D01*
X-35028Y60301D01*
X-26943Y49211D02*
X-26543Y50011D01*
X-26943Y50811D01*
X-26143Y50411D01*
X-25343Y50811D01*
X-25743Y50011D01*
X-25343Y49211D01*
X-26143Y49611D01*
X-26943Y49211D01*
X-32300Y53200D02*
X-31900Y54000D01*
X-32300Y54800D01*
X-31500Y54400D01*
X-30700Y54800D01*
X-31100Y54000D01*
X-30700Y53200D01*
X-31500Y53600D01*
X-32300Y53200D01*
X-37300Y53700D02*
X-36900Y54500D01*
X-37300Y55300D01*
X-36500Y54900D01*
X-35700Y55300D01*
X-36100Y54500D01*
X-35700Y53700D01*
X-36500Y54100D01*
X-37300Y53700D01*
X-48800Y56700D02*
X-48400Y57500D01*
X-48800Y58300D01*
X-48000Y57900D01*
X-47200Y58300D01*
X-47600Y57500D01*
X-47200Y56700D01*
X-48000Y57100D01*
X-48800Y56700D01*
X-32800Y57200D02*
X-32400Y58000D01*
X-32800Y58800D01*
X-32000Y58400D01*
X-31200Y58800D01*
X-31600Y58000D01*
X-31200Y57200D01*
X-32000Y57600D01*
X-32800Y57200D01*
X-37300Y65700D02*
X-36900Y66500D01*
X-37300Y67300D01*
X-36500Y66900D01*
X-35700Y67300D01*
X-36100Y66500D01*
X-35700Y65700D01*
X-36500Y66100D01*
X-37300Y65700D01*
X-5300Y57200D02*
X-4900Y58000D01*
X-5300Y58800D01*
X-4500Y58400D01*
X-3700Y58800D01*
X-4100Y58000D01*
X-3700Y57200D01*
X-4500Y57600D01*
X-5300Y57200D01*
X1700D02*
X2100Y58000D01*
X1700Y58800D01*
X2500Y58400D01*
X3300Y58800D01*
X2900Y58000D01*
X3300Y57200D01*
X2500Y57600D01*
X1700Y57200D01*
X-66800Y11200D02*
X-66400Y12000D01*
X-66800Y12800D01*
X-66000Y12400D01*
X-65200Y12800D01*
X-65600Y12000D01*
X-65200Y11200D01*
X-66000Y11600D01*
X-66800Y11200D01*
X-10800Y-36800D02*
X-10400Y-36000D01*
X-10800Y-35200D01*
X-10000Y-35600D01*
X-9200Y-35200D01*
X-9600Y-36000D01*
X-9200Y-36800D01*
X-10000Y-36400D01*
X-10800Y-36800D01*
Y-28300D02*
X-10400Y-27500D01*
X-10800Y-26700D01*
X-10000Y-27100D01*
X-9200Y-26700D01*
X-9600Y-27500D01*
X-9200Y-28300D01*
X-10000Y-27900D01*
X-10800Y-28300D01*
X-17500Y-21900D02*
X-17100Y-21100D01*
X-17500Y-20300D01*
X-16700Y-20700D01*
X-15900Y-20300D01*
X-16300Y-21100D01*
X-15900Y-21900D01*
X-16700Y-21500D01*
X-17500Y-21900D01*
X-21300Y-25800D02*
X-20900Y-25000D01*
X-21300Y-24200D01*
X-20500Y-24600D01*
X-19700Y-24200D01*
X-20100Y-25000D01*
X-19700Y-25800D01*
X-20500Y-25400D01*
X-21300Y-25800D01*
X-40800D02*
X-40400Y-25000D01*
X-40800Y-24200D01*
X-40000Y-24600D01*
X-39200Y-24200D01*
X-39600Y-25000D01*
X-39200Y-25800D01*
X-40000Y-25400D01*
X-40800Y-25800D01*
X-50800D02*
X-50400Y-25000D01*
X-50800Y-24200D01*
X-50000Y-24600D01*
X-49200Y-24200D01*
X-49600Y-25000D01*
X-49200Y-25800D01*
X-50000Y-25400D01*
X-50800Y-25800D01*
X4200Y70200D02*
X4600Y71000D01*
X4200Y71800D01*
X5000Y71400D01*
X5800Y71800D01*
X5400Y71000D01*
X5800Y70200D01*
X5000Y70600D01*
X4200Y70200D01*
Y55200D02*
X4600Y56000D01*
X4200Y56800D01*
X5000Y56400D01*
X5800Y56800D01*
X5400Y56000D01*
X5800Y55200D01*
X5000Y55600D01*
X4200Y55200D01*
X-54800Y65700D02*
X-54400Y66500D01*
X-54800Y67300D01*
X-54000Y66900D01*
X-53200Y67300D01*
X-53600Y66500D01*
X-53200Y65700D01*
X-54000Y66100D01*
X-54800Y65700D01*
X-25300Y51200D02*
X-24900Y52000D01*
X-25300Y52800D01*
X-24500Y52400D01*
X-23700Y52800D01*
X-24100Y52000D01*
X-23700Y51200D01*
X-24500Y51600D01*
X-25300Y51200D01*
X-23300Y41200D02*
X-22900Y42000D01*
X-23300Y42800D01*
X-22500Y42400D01*
X-21700Y42800D01*
X-22100Y42000D01*
X-21700Y41200D01*
X-22500Y41600D01*
X-23300Y41200D01*
X34200Y70200D02*
X34600Y71000D01*
X34200Y71800D01*
X35000Y71400D01*
X35800Y71800D01*
X35400Y71000D01*
X35800Y70200D01*
X35000Y70600D01*
X34200Y70200D01*
X-58300Y51200D02*
X-57900Y52000D01*
X-58300Y52800D01*
X-57500Y52400D01*
X-56700Y52800D01*
X-57100Y52000D01*
X-56700Y51200D01*
X-57500Y51600D01*
X-58300Y51200D01*
X-62300Y58700D02*
X-61900Y59500D01*
X-62300Y60300D01*
X-61500Y59900D01*
X-60700Y60300D01*
X-61100Y59500D01*
X-60700Y58700D01*
X-61500Y59100D01*
X-62300Y58700D01*
X-60300Y69700D02*
X-59900Y70500D01*
X-60300Y71300D01*
X-59500Y70900D01*
X-58700Y71300D01*
X-59100Y70500D01*
X-58700Y69700D01*
X-59500Y70100D01*
X-60300Y69700D01*
X-55800Y55200D02*
X-55400Y56000D01*
X-55800Y56800D01*
X-55000Y56400D01*
X-54200Y56800D01*
X-54600Y56000D01*
X-54200Y55200D01*
X-55000Y55600D01*
X-55800Y55200D01*
X-3793Y48700D02*
X-3393Y49500D01*
X-3793Y50300D01*
X-2993Y49900D01*
X-2193Y50300D01*
X-2593Y49500D01*
X-2193Y48700D01*
X-2993Y49100D01*
X-3793Y48700D01*
X11604Y31220D02*
X12004Y32020D01*
X11604Y32820D01*
X12404Y32420D01*
X13204Y32820D01*
X12804Y32020D01*
X13204Y31220D01*
X12404Y31620D01*
X11604Y31220D01*
X8850Y38700D02*
X9250Y39500D01*
X8850Y40300D01*
X9650Y39900D01*
X10450Y40300D01*
X10050Y39500D01*
X10450Y38700D01*
X9650Y39100D01*
X8850Y38700D01*
X59200Y70700D02*
X59600Y71500D01*
X59200Y72300D01*
X60000Y71900D01*
X60800Y72300D01*
X60400Y71500D01*
X60800Y70700D01*
X60000Y71100D01*
X59200Y70700D01*
Y68200D02*
X59600Y69000D01*
X59200Y69800D01*
X60000Y69400D01*
X60800Y69800D01*
X60400Y69000D01*
X60800Y68200D01*
X60000Y68600D01*
X59200Y68200D01*
X47200Y68700D02*
X47600Y69500D01*
X47200Y70300D01*
X48000Y69900D01*
X48800Y70300D01*
X48400Y69500D01*
X48800Y68700D01*
X48000Y69100D01*
X47200Y68700D01*
Y71200D02*
X47600Y72000D01*
X47200Y72800D01*
X48000Y72400D01*
X48800Y72800D01*
X48400Y72000D01*
X48800Y71200D01*
X48000Y71600D01*
X47200Y71200D01*
X53200Y51200D02*
X53600Y52000D01*
X53200Y52800D01*
X54000Y52400D01*
X54800Y52800D01*
X54400Y52000D01*
X54800Y51200D01*
X54000Y51600D01*
X53200Y51200D01*
X-71800Y43200D02*
X-71400Y44000D01*
X-71800Y44800D01*
X-71000Y44400D01*
X-70200Y44800D01*
X-70600Y44000D01*
X-70200Y43200D01*
X-71000Y43600D01*
X-71800Y43200D01*
X58200Y39200D02*
X58600Y40000D01*
X58200Y40800D01*
X59000Y40400D01*
X59800Y40800D01*
X59400Y40000D01*
X59800Y39200D01*
X59000Y39600D01*
X58200Y39200D01*
X-10300Y18700D02*
X-9900Y19500D01*
X-10300Y20300D01*
X-9500Y19900D01*
X-8700Y20300D01*
X-9100Y19500D01*
X-8700Y18700D01*
X-9500Y19100D01*
X-10300Y18700D01*
X-64861Y5700D02*
X-64461Y6500D01*
X-64861Y7300D01*
X-64061Y6900D01*
X-63261Y7300D01*
X-63661Y6500D01*
X-63261Y5700D01*
X-64061Y6100D01*
X-64861Y5700D01*
X-50316Y9716D02*
X-49916Y10516D01*
X-50316Y11316D01*
X-49516Y10916D01*
X-48716Y11316D01*
X-49116Y10516D01*
X-48716Y9716D01*
X-49516Y10116D01*
X-50316Y9716D01*
X-54300Y9700D02*
X-53900Y10500D01*
X-54300Y11300D01*
X-53500Y10900D01*
X-52700Y11300D01*
X-53100Y10500D01*
X-52700Y9700D01*
X-53500Y10100D01*
X-54300Y9700D01*
X-62300Y-4300D02*
X-61900Y-3500D01*
X-62300Y-2700D01*
X-61500Y-3100D01*
X-60700Y-2700D01*
X-61100Y-3500D01*
X-60700Y-4300D01*
X-61500Y-3900D01*
X-62300Y-4300D01*
X45700Y-28780D02*
X46100Y-27981D01*
X45700Y-27180D01*
X46500Y-27580D01*
X47300Y-27180D01*
X46900Y-27981D01*
X47300Y-28780D01*
X46500Y-28381D01*
X45700Y-28780D01*
X60200Y-35300D02*
X60600Y-34500D01*
X60200Y-33700D01*
X61000Y-34100D01*
X61800Y-33700D01*
X61400Y-34500D01*
X61800Y-35300D01*
X61000Y-34900D01*
X60200Y-35300D01*
X9200D02*
X9600Y-34500D01*
X9200Y-33700D01*
X10000Y-34100D01*
X10800Y-33700D01*
X10400Y-34500D01*
X10800Y-35300D01*
X10000Y-34900D01*
X9200Y-35300D01*
X-800D02*
X-400Y-34500D01*
X-800Y-33700D01*
X0Y-34100D01*
X800Y-33700D01*
X400Y-34500D01*
X800Y-35300D01*
X0Y-34900D01*
X-800Y-35300D01*
X-300Y-24800D02*
X100Y-24000D01*
X-300Y-23200D01*
X500Y-23600D01*
X1300Y-23200D01*
X900Y-24000D01*
X1300Y-24800D01*
X500Y-24400D01*
X-300Y-24800D01*
X-4300D02*
X-3900Y-24000D01*
X-4300Y-23200D01*
X-3500Y-23600D01*
X-2700Y-23200D01*
X-3100Y-24000D01*
X-2700Y-24800D01*
X-3500Y-24400D01*
X-4300Y-24800D01*
X5200Y8200D02*
X5600Y9000D01*
X5200Y9800D01*
X6000Y9400D01*
X6800Y9800D01*
X6400Y9000D01*
X6800Y8200D01*
X6000Y8600D01*
X5200Y8200D01*
X8700Y8700D02*
X9100Y9500D01*
X8700Y10300D01*
X9500Y9900D01*
X10300Y10300D01*
X9900Y9500D01*
X10300Y8700D01*
X9500Y9100D01*
X8700Y8700D01*
X10700Y-25300D02*
X11100Y-24500D01*
X10700Y-23700D01*
X11500Y-24100D01*
X12300Y-23700D01*
X11900Y-24500D01*
X12300Y-25300D01*
X11500Y-24900D01*
X10700Y-25300D01*
X-12300Y-24800D02*
X-11900Y-24000D01*
X-12300Y-23200D01*
X-11500Y-23600D01*
X-10700Y-23200D01*
X-11100Y-24000D01*
X-10700Y-24800D01*
X-11500Y-24400D01*
X-12300Y-24800D01*
X26700Y-23800D02*
X27100Y-23000D01*
X26700Y-22200D01*
X27500Y-22600D01*
X28300Y-22200D01*
X27900Y-23000D01*
X28300Y-23800D01*
X27500Y-23400D01*
X26700Y-23800D01*
X-15300Y-15300D02*
X-14900Y-14500D01*
X-15300Y-13700D01*
X-14500Y-14100D01*
X-13700Y-13700D01*
X-14100Y-14500D01*
X-13700Y-15300D01*
X-14500Y-14900D01*
X-15300Y-15300D01*
X-9300Y2200D02*
X-8900Y3000D01*
X-9300Y3800D01*
X-8500Y3400D01*
X-7700Y3800D01*
X-8100Y3000D01*
X-7700Y2200D01*
X-8500Y2600D01*
X-9300Y2200D01*
X-23800Y200D02*
X-23400Y1000D01*
X-23800Y1800D01*
X-23000Y1400D01*
X-22200Y1800D01*
X-22600Y1000D01*
X-22200Y200D01*
X-23000Y600D01*
X-23800Y200D01*
X-13800Y-3300D02*
X-13400Y-2500D01*
X-13800Y-1700D01*
X-13000Y-2100D01*
X-12200Y-1700D01*
X-12600Y-2500D01*
X-12200Y-3300D01*
X-13000Y-2900D01*
X-13800Y-3300D01*
X-18800Y1200D02*
X-18400Y2000D01*
X-18800Y2800D01*
X-18000Y2400D01*
X-17200Y2800D01*
X-17600Y2000D01*
X-17200Y1200D01*
X-18000Y1600D01*
X-18800Y1200D01*
X-18300Y12700D02*
X-17900Y13500D01*
X-18300Y14300D01*
X-17500Y13900D01*
X-16700Y14300D01*
X-17100Y13500D01*
X-16700Y12700D01*
X-17500Y13100D01*
X-18300Y12700D01*
X-16800Y10200D02*
X-16400Y11000D01*
X-16800Y11800D01*
X-16000Y11400D01*
X-15200Y11800D01*
X-15600Y11000D01*
X-15200Y10200D01*
X-16000Y10600D01*
X-16800Y10200D01*
X-13800Y-11800D02*
X-13400Y-11000D01*
X-13800Y-10200D01*
X-13000Y-10600D01*
X-12200Y-10200D01*
X-12600Y-11000D01*
X-12200Y-11800D01*
X-13000Y-11400D01*
X-13800Y-11800D01*
X-52300Y-20800D02*
X-51900Y-20000D01*
X-52300Y-19200D01*
X-51500Y-19600D01*
X-50700Y-19200D01*
X-51100Y-20000D01*
X-50700Y-20800D01*
X-51500Y-20400D01*
X-52300Y-20800D01*
X1700Y-300D02*
X2100Y500D01*
X1700Y1300D01*
X2500Y900D01*
X3300Y1300D01*
X2900Y500D01*
X3300Y-300D01*
X2500Y100D01*
X1700Y-300D01*
X-33800Y1200D02*
X-33400Y2000D01*
X-33800Y2800D01*
X-33000Y2400D01*
X-32200Y2800D01*
X-32600Y2000D01*
X-32200Y1200D01*
X-33000Y1600D01*
X-33800Y1200D01*
X60200Y12200D02*
X60600Y13000D01*
X60200Y13800D01*
X61000Y13400D01*
X61800Y13800D01*
X61400Y13000D01*
X61800Y12200D01*
X61000Y12600D01*
X60200Y12200D01*
X45200Y39700D02*
X45600Y40500D01*
X45200Y41300D01*
X46000Y40900D01*
X46800Y41300D01*
X46400Y40500D01*
X46800Y39700D01*
X46000Y40100D01*
X45200Y39700D01*
X53200D02*
X53600Y40500D01*
X53200Y41300D01*
X54000Y40900D01*
X54800Y41300D01*
X54400Y40500D01*
X54800Y39700D01*
X54000Y40100D01*
X53200Y39700D01*
X68200Y55700D02*
X68600Y56500D01*
X68200Y57300D01*
X69000Y56900D01*
X69800Y57300D01*
X69400Y56500D01*
X69800Y55700D01*
X69000Y56100D01*
X68200Y55700D01*
Y40200D02*
X68600Y41000D01*
X68200Y41800D01*
X69000Y41400D01*
X69800Y41800D01*
X69400Y41000D01*
X69800Y40200D01*
X69000Y40600D01*
X68200Y40200D01*
X49700Y23700D02*
X50100Y24500D01*
X49700Y25300D01*
X50500Y24900D01*
X51300Y25300D01*
X50900Y24500D01*
X51300Y23700D01*
X50500Y24100D01*
X49700Y23700D01*
X-41800Y-10800D02*
X-41400Y-10000D01*
X-41800Y-9200D01*
X-41000Y-9600D01*
X-40200Y-9200D01*
X-40600Y-10000D01*
X-40200Y-10800D01*
X-41000Y-10400D01*
X-41800Y-10800D01*
X-33800D02*
X-33400Y-10000D01*
X-33800Y-9200D01*
X-33000Y-9600D01*
X-32200Y-9200D01*
X-32600Y-10000D01*
X-32200Y-10800D01*
X-33000Y-10400D01*
X-33800Y-10800D01*
X-41800Y1200D02*
X-41400Y2000D01*
X-41800Y2800D01*
X-41000Y2400D01*
X-40200Y2800D01*
X-40600Y2000D01*
X-40200Y1200D01*
X-41000Y1600D01*
X-41800Y1200D01*
Y-4800D02*
X-41400Y-4000D01*
X-41800Y-3200D01*
X-41000Y-3600D01*
X-40200Y-3200D01*
X-40600Y-4000D01*
X-40200Y-4800D01*
X-41000Y-4400D01*
X-41800Y-4800D01*
X-33800D02*
X-33400Y-4000D01*
X-33800Y-3200D01*
X-33000Y-3600D01*
X-32200Y-3200D01*
X-32600Y-4000D01*
X-32200Y-4800D01*
X-33000Y-4400D01*
X-33800Y-4800D01*
X-52300Y-14300D02*
X-51900Y-13500D01*
X-52300Y-12700D01*
X-51500Y-13100D01*
X-50700Y-12700D01*
X-51100Y-13500D01*
X-50700Y-14300D01*
X-51500Y-13900D01*
X-52300Y-14300D01*
X-22427Y-20800D02*
X-22027Y-20000D01*
X-22427Y-19200D01*
X-21627Y-19600D01*
X-20827Y-19200D01*
X-21227Y-20000D01*
X-20827Y-20800D01*
X-21627Y-20400D01*
X-22427Y-20800D01*
X41200Y-17300D02*
X41600Y-16500D01*
X41200Y-15700D01*
X42000Y-16100D01*
X42800Y-15700D01*
X42400Y-16500D01*
X42800Y-17300D01*
X42000Y-16900D01*
X41200Y-17300D01*
X8700Y-4300D02*
X9100Y-3500D01*
X8700Y-2700D01*
X9500Y-3100D01*
X10300Y-2700D01*
X9900Y-3500D01*
X10300Y-4300D01*
X9500Y-3900D01*
X8700Y-4300D01*
X48700Y4700D02*
X49100Y5500D01*
X48700Y6300D01*
X49500Y5900D01*
X50300Y6300D01*
X49900Y5500D01*
X50300Y4700D01*
X49500Y5100D01*
X48700Y4700D01*
X27200Y21700D02*
X27600Y22500D01*
X27200Y23300D01*
X28000Y22900D01*
X28800Y23300D01*
X28400Y22500D01*
X28800Y21700D01*
X28000Y22100D01*
X27200Y21700D01*
X-27300Y22700D02*
X-26900Y23500D01*
X-27300Y24300D01*
X-26500Y23900D01*
X-25700Y24300D01*
X-26100Y23500D01*
X-25700Y22700D01*
X-26500Y23100D01*
X-27300Y22700D01*
X700Y14200D02*
X1100Y15000D01*
X700Y15800D01*
X1500Y15400D01*
X2300Y15800D01*
X1900Y15000D01*
X2300Y14200D01*
X1500Y14600D01*
X700Y14200D01*
X29200Y-26800D02*
X29600Y-26000D01*
X29200Y-25200D01*
X30000Y-25600D01*
X30800Y-25200D01*
X30400Y-26000D01*
X30800Y-26800D01*
X30000Y-26400D01*
X29200Y-26800D01*
X17700Y-17800D02*
X18100Y-17000D01*
X17700Y-16200D01*
X18500Y-16600D01*
X19300Y-16200D01*
X18900Y-17000D01*
X19300Y-17800D01*
X18500Y-17400D01*
X17700Y-17800D01*
X16700Y17200D02*
X17100Y18000D01*
X16700Y18800D01*
X17500Y18400D01*
X18300Y18800D01*
X17900Y18000D01*
X18300Y17200D01*
X17500Y17600D01*
X16700Y17200D01*
X41700Y15700D02*
X42100Y16500D01*
X41700Y17300D01*
X42500Y16900D01*
X43300Y17300D01*
X42900Y16500D01*
X43300Y15700D01*
X42500Y16100D01*
X41700Y15700D01*
X40700Y19700D02*
X41100Y20500D01*
X40700Y21300D01*
X41500Y20900D01*
X42300Y21300D01*
X41900Y20500D01*
X42300Y19700D01*
X41500Y20100D01*
X40700Y19700D01*
X39200Y-12300D02*
X39600Y-11500D01*
X39200Y-10700D01*
X40000Y-11100D01*
X40800Y-10700D01*
X40400Y-11500D01*
X40800Y-12300D01*
X40000Y-11900D01*
X39200Y-12300D01*
X31200Y21700D02*
X31600Y22500D01*
X31200Y23300D01*
X32000Y22900D01*
X32800Y23300D01*
X32400Y22500D01*
X32800Y21700D01*
X32000Y22100D01*
X31200Y21700D01*
X29200Y-4800D02*
X29600Y-4000D01*
X29200Y-3200D01*
X30000Y-3600D01*
X30800Y-3200D01*
X30400Y-4000D01*
X30800Y-4800D01*
X30000Y-4400D01*
X29200Y-4800D01*
Y3200D02*
X29600Y4000D01*
X29200Y4800D01*
X30000Y4400D01*
X30800Y4800D01*
X30400Y4000D01*
X30800Y3200D01*
X30000Y3600D01*
X29200Y3200D01*
X35200D02*
X35600Y4000D01*
X35200Y4800D01*
X36000Y4400D01*
X36800Y4800D01*
X36400Y4000D01*
X36800Y3200D01*
X36000Y3600D01*
X35200Y3200D01*
Y-4800D02*
X35600Y-4000D01*
X35200Y-3200D01*
X36000Y-3600D01*
X36800Y-3200D01*
X36400Y-4000D01*
X36800Y-4800D01*
X36000Y-4400D01*
X35200Y-4800D01*
X23200D02*
X23600Y-4000D01*
X23200Y-3200D01*
X24000Y-3600D01*
X24800Y-3200D01*
X24400Y-4000D01*
X24800Y-4800D01*
X24000Y-4400D01*
X23200Y-4800D01*
Y3200D02*
X23600Y4000D01*
X23200Y4800D01*
X24000Y4400D01*
X24800Y4800D01*
X24400Y4000D01*
X24800Y3200D01*
X24000Y3600D01*
X23200Y3200D01*
X45700Y15200D02*
X46100Y16000D01*
X45700Y16800D01*
X46500Y16400D01*
X47300Y16800D01*
X46900Y16000D01*
X47300Y15200D01*
X46500Y15600D01*
X45700Y15200D01*
X-15955Y25700D02*
X-15555Y26500D01*
X-15955Y27300D01*
X-15155Y26900D01*
X-14355Y27300D01*
X-14755Y26500D01*
X-14355Y25700D01*
X-15155Y26100D01*
X-15955Y25700D01*
X53731Y12716D02*
X54131Y13516D01*
X53731Y14316D01*
X54531Y13916D01*
X55331Y14316D01*
X54931Y13516D01*
X55331Y12716D01*
X54531Y13116D01*
X53731Y12716D01*
X41200Y-21300D02*
X41600Y-20500D01*
X41200Y-19700D01*
X42000Y-20100D01*
X42800Y-19700D01*
X42400Y-20500D01*
X42800Y-21300D01*
X42000Y-20900D01*
X41200Y-21300D01*
X8200Y24200D02*
X8600Y25000D01*
X8200Y25800D01*
X9000Y25400D01*
X9800Y25800D01*
X9400Y25000D01*
X9800Y24200D01*
X9000Y24600D01*
X8200Y24200D01*
X5200D02*
X5600Y25000D01*
X5200Y25800D01*
X6000Y25400D01*
X6800Y25800D01*
X6400Y25000D01*
X6800Y24200D01*
X6000Y24600D01*
X5200Y24200D01*
X2200D02*
X2600Y25000D01*
X2200Y25800D01*
X3000Y25400D01*
X3800Y25800D01*
X3400Y25000D01*
X3800Y24200D01*
X3000Y24600D01*
X2200Y24200D01*
X11200D02*
X11600Y25000D01*
X11200Y25800D01*
X12000Y25400D01*
X12800Y25800D01*
X12400Y25000D01*
X12800Y24200D01*
X12000Y24600D01*
X11200Y24200D01*
X14357Y24306D02*
X14758Y25106D01*
X14357Y25906D01*
X15157Y25506D01*
X15958Y25906D01*
X15558Y25106D01*
X15958Y24306D01*
X15157Y24706D01*
X14357Y24306D01*
X17200Y27200D02*
X17600Y28000D01*
X17200Y28800D01*
X18000Y28400D01*
X18800Y28800D01*
X18400Y28000D01*
X18800Y27200D01*
X18000Y27600D01*
X17200Y27200D01*
X-800Y24200D02*
X-400Y25000D01*
X-800Y25800D01*
X0Y25400D01*
X800Y25800D01*
X400Y25000D01*
X800Y24200D01*
X0Y24600D01*
X-800Y24200D01*
X-3800D02*
X-3400Y25000D01*
X-3800Y25800D01*
X-3000Y25400D01*
X-2200Y25800D01*
X-2600Y25000D01*
X-2200Y24200D01*
X-3000Y24600D01*
X-3800Y24200D01*
X-6800D02*
X-6400Y25000D01*
X-6800Y25800D01*
X-6000Y25400D01*
X-5200Y25800D01*
X-5600Y25000D01*
X-5200Y24200D01*
X-6000Y24600D01*
X-6800Y24200D01*
X-9800D02*
X-9400Y25000D01*
X-9800Y25800D01*
X-9000Y25400D01*
X-8200Y25800D01*
X-8600Y25000D01*
X-8200Y24200D01*
X-9000Y24600D01*
X-9800Y24200D01*
X-12800D02*
X-12400Y25000D01*
X-12800Y25800D01*
X-12000Y25400D01*
X-11200Y25800D01*
X-11600Y25000D01*
X-11200Y24200D01*
X-12000Y24600D01*
X-12800Y24200D01*
X-60800Y46200D02*
X-60400Y47000D01*
X-60800Y47800D01*
X-60000Y47400D01*
X-59200Y47800D01*
X-59600Y47000D01*
X-59200Y46200D01*
X-60000Y46600D01*
X-60800Y46200D01*
X-35800Y56200D02*
X-35400Y57000D01*
X-35800Y57800D01*
X-35000Y57400D01*
X-34200Y57800D01*
X-34600Y57000D01*
X-34200Y56200D01*
X-35000Y56600D01*
X-35800Y56200D01*
X-61800Y-27800D02*
X-61400Y-27000D01*
X-61800Y-26200D01*
X-61000Y-26600D01*
X-60200Y-26200D01*
X-60600Y-27000D01*
X-60200Y-27800D01*
X-61000Y-27400D01*
X-61800Y-27800D01*
Y20200D02*
X-61400Y21000D01*
X-61800Y21800D01*
X-61000Y21400D01*
X-60200Y21800D01*
X-60600Y21000D01*
X-60200Y20200D01*
X-61000Y20600D01*
X-61800Y20200D01*
X-68300Y43200D02*
X-67900Y44000D01*
X-68300Y44800D01*
X-67500Y44400D01*
X-66700Y44800D01*
X-67100Y44000D01*
X-66700Y43200D01*
X-67500Y43600D01*
X-68300Y43200D01*
D12*
X17828Y48516D02*
G03*
X17828Y48516I-800J0D01*
G01*
X-16228D02*
G03*
X-16228Y48516I-800J0D01*
G01*
M02*
