G04*
G04 #@! TF.GenerationSoftware,Altium Limited,Altium Designer,19.1.5 (86)*
G04*
G04 Layer_Color=32896*
%FSLAX25Y25*%
%MOIN*%
G70*
G01*
G75*
%ADD15C,0.00600*%
%ADD16C,0.00800*%
%ADD17C,0.01000*%
%ADD84C,0.03937*%
G36*
X65924Y64892D02*
X66002Y64882D01*
X66071Y64868D01*
X66140Y64853D01*
X66199Y64833D01*
X66253Y64819D01*
X66298Y64799D01*
X66342Y64779D01*
X66376Y64759D01*
X66411Y64740D01*
X66435Y64725D01*
X66455Y64710D01*
X66470Y64701D01*
X66475Y64696D01*
X66480Y64691D01*
X66524Y64651D01*
X66558Y64607D01*
X66593Y64558D01*
X66617Y64509D01*
X66662Y64405D01*
X66691Y64307D01*
X66706Y64218D01*
X66716Y64179D01*
Y64144D01*
X66721Y64115D01*
Y64076D01*
X66716Y63992D01*
X66711Y63958D01*
Y63923D01*
X66706Y63894D01*
X66701Y63874D01*
X66696Y63859D01*
Y63854D01*
X66676Y63775D01*
X66667Y63741D01*
X66652Y63707D01*
X66642Y63682D01*
X66632Y63662D01*
X66627Y63648D01*
X66622Y63643D01*
X66578Y63564D01*
X66529Y63500D01*
X66509Y63471D01*
X66489Y63451D01*
X66480Y63436D01*
X66475Y63431D01*
X66401Y63352D01*
X66366Y63313D01*
X66327Y63279D01*
X66298Y63249D01*
X66273Y63229D01*
X66253Y63215D01*
X66248Y63210D01*
X66672Y63190D01*
Y62787D01*
X64044D01*
Y63239D01*
X65786D01*
X65840Y63283D01*
X65894Y63328D01*
X65939Y63367D01*
X65978Y63402D01*
X66007Y63426D01*
X66027Y63451D01*
X66042Y63461D01*
X66047Y63466D01*
X66120Y63539D01*
X66145Y63569D01*
X66170Y63598D01*
X66189Y63623D01*
X66204Y63638D01*
X66209Y63648D01*
X66214Y63652D01*
X66253Y63717D01*
X66283Y63771D01*
X66293Y63790D01*
X66298Y63805D01*
X66303Y63815D01*
Y63820D01*
X66317Y63884D01*
X66322Y63933D01*
X66327Y63958D01*
Y63987D01*
X66322Y64066D01*
X66303Y64135D01*
X66283Y64194D01*
X66253Y64243D01*
X66229Y64277D01*
X66204Y64307D01*
X66185Y64322D01*
X66180Y64327D01*
X66116Y64366D01*
X66047Y64395D01*
X65968Y64415D01*
X65894Y64430D01*
X65830Y64440D01*
X65771Y64445D01*
X65751D01*
X65737D01*
X65727D01*
X65722D01*
X64044D01*
Y64902D01*
X65756D01*
X65845D01*
X65924Y64892D01*
D02*
G37*
G36*
X65934Y61926D02*
X66007Y61921D01*
X66071Y61911D01*
X66130Y61896D01*
X66175Y61881D01*
X66209Y61871D01*
X66234Y61867D01*
X66239Y61862D01*
X66298Y61832D01*
X66352Y61803D01*
X66396Y61768D01*
X66435Y61734D01*
X66465Y61704D01*
X66489Y61680D01*
X66504Y61665D01*
X66509Y61660D01*
X66549Y61606D01*
X66578Y61552D01*
X66608Y61498D01*
X66627Y61448D01*
X66647Y61404D01*
X66657Y61370D01*
X66667Y61345D01*
Y61335D01*
X66686Y61261D01*
X66696Y61188D01*
X66706Y61114D01*
X66716Y61050D01*
Y60991D01*
X66721Y60947D01*
Y60809D01*
X66716Y60764D01*
Y60725D01*
X66711Y60696D01*
Y60671D01*
X66706Y60651D01*
Y60646D01*
X66696Y60553D01*
X66686Y60514D01*
X66681Y60474D01*
X66676Y60445D01*
X66672Y60420D01*
X66667Y60405D01*
Y60400D01*
X66647Y60317D01*
X66637Y60277D01*
X66632Y60243D01*
X66622Y60213D01*
X66617Y60194D01*
X66612Y60179D01*
Y60174D01*
X66593Y60100D01*
X66573Y60041D01*
X66563Y60017D01*
X66558Y59997D01*
X66553Y59987D01*
Y59982D01*
X66140D01*
X66175Y60066D01*
X66204Y60150D01*
X66229Y60223D01*
X66248Y60292D01*
X66263Y60351D01*
X66273Y60391D01*
X66283Y60420D01*
Y60430D01*
X66312Y60592D01*
X66322Y60666D01*
X66327Y60730D01*
X66332Y60784D01*
Y60868D01*
X66327Y60976D01*
X66312Y61070D01*
X66288Y61143D01*
X66263Y61207D01*
X66234Y61256D01*
X66214Y61291D01*
X66194Y61316D01*
X66189Y61320D01*
X66135Y61370D01*
X66076Y61409D01*
X66012Y61434D01*
X65953Y61453D01*
X65899Y61463D01*
X65860Y61473D01*
X65830D01*
X65825D01*
X65820D01*
X65589D01*
Y60824D01*
X65579Y60725D01*
X65570Y60632D01*
X65555Y60548D01*
X65535Y60469D01*
X65515Y60400D01*
X65496Y60331D01*
X65476Y60277D01*
X65456Y60223D01*
X65437Y60179D01*
X65417Y60145D01*
X65397Y60110D01*
X65382Y60085D01*
X65373Y60071D01*
X65368Y60061D01*
X65363Y60056D01*
X65319Y60002D01*
X65274Y59958D01*
X65225Y59918D01*
X65171Y59884D01*
X65122Y59859D01*
X65068Y59835D01*
X64969Y59800D01*
X64881Y59776D01*
X64841Y59771D01*
X64807Y59766D01*
X64782Y59761D01*
X64763D01*
X64748D01*
X64743D01*
X64630Y59771D01*
X64581Y59776D01*
X64536Y59785D01*
X64502Y59795D01*
X64472Y59800D01*
X64453Y59810D01*
X64448D01*
X64398Y59830D01*
X64354Y59854D01*
X64310Y59879D01*
X64275Y59904D01*
X64246Y59928D01*
X64226Y59948D01*
X64212Y59958D01*
X64207Y59962D01*
X64172Y60002D01*
X64143Y60046D01*
X64094Y60130D01*
X64079Y60169D01*
X64064Y60199D01*
X64059Y60218D01*
X64054Y60223D01*
X64034Y60287D01*
X64025Y60351D01*
X64015Y60420D01*
X64005Y60479D01*
Y60533D01*
X64000Y60573D01*
Y60612D01*
X64005Y60701D01*
X64015Y60789D01*
X64030Y60868D01*
X64044Y60937D01*
X64059Y60996D01*
X64074Y61040D01*
X64084Y61070D01*
X64089Y61079D01*
X64128Y61163D01*
X64177Y61242D01*
X64226Y61316D01*
X64275Y61379D01*
X64320Y61434D01*
X64359Y61478D01*
X64384Y61502D01*
X64394Y61512D01*
X64044Y61522D01*
Y61931D01*
X65855D01*
X65934Y61926D01*
D02*
G37*
G36*
X66091Y59170D02*
X66209Y59156D01*
X66312Y59131D01*
X66401Y59097D01*
X66475Y59062D01*
X66534Y59018D01*
X66583Y58974D01*
X66627Y58929D01*
X66657Y58885D01*
X66681Y58841D01*
X66696Y58797D01*
X66711Y58762D01*
X66716Y58728D01*
X66721Y58703D01*
Y58683D01*
X66716Y58605D01*
X66711Y58570D01*
X66701Y58541D01*
X66696Y58521D01*
X66686Y58501D01*
X66681Y58491D01*
Y58486D01*
X66647Y58428D01*
X66612Y58378D01*
X66593Y58359D01*
X66583Y58344D01*
X66573Y58339D01*
X66568Y58334D01*
X66514Y58285D01*
X66455Y58245D01*
X66430Y58231D01*
X66411Y58216D01*
X66396Y58211D01*
X66391Y58206D01*
X66312Y58162D01*
X66234Y58122D01*
X66199Y58108D01*
X66175Y58093D01*
X66155Y58088D01*
X66150Y58083D01*
X66253Y58078D01*
X66342Y58063D01*
X66411Y58049D01*
X66475Y58029D01*
X66519Y58004D01*
X66553Y57990D01*
X66573Y57975D01*
X66578Y57970D01*
X66627Y57926D01*
X66662Y57876D01*
X66686Y57822D01*
X66701Y57768D01*
X66716Y57724D01*
X66721Y57685D01*
Y57650D01*
X66716Y57586D01*
X66706Y57527D01*
X66701Y57507D01*
X66696Y57493D01*
X66691Y57483D01*
Y57478D01*
X66667Y57424D01*
X66632Y57375D01*
X66617Y57355D01*
X66608Y57340D01*
X66603Y57335D01*
X66598Y57330D01*
X66544Y57281D01*
X66489Y57242D01*
X66465Y57222D01*
X66445Y57207D01*
X66430Y57202D01*
X66426Y57197D01*
X66342Y57148D01*
X66263Y57109D01*
X66229Y57094D01*
X66199Y57079D01*
X66180Y57074D01*
X66175Y57070D01*
X66672Y57045D01*
Y56696D01*
X64044D01*
Y57119D01*
X65732D01*
X65796Y57148D01*
X65855Y57178D01*
X65909Y57202D01*
X65948Y57222D01*
X65983Y57242D01*
X66012Y57257D01*
X66027Y57261D01*
X66032Y57266D01*
X66076Y57291D01*
X66111Y57311D01*
X66145Y57330D01*
X66170Y57345D01*
X66189Y57360D01*
X66204Y57370D01*
X66214Y57380D01*
X66219D01*
X66263Y57419D01*
X66293Y57448D01*
X66307Y57468D01*
X66312Y57473D01*
X66332Y57507D01*
X66337Y57532D01*
X66342Y57552D01*
Y57562D01*
X66337Y57591D01*
X66332Y57616D01*
X66327Y57630D01*
X66322Y57635D01*
X66303Y57660D01*
X66283Y57675D01*
X66263Y57685D01*
X66253Y57689D01*
X66209Y57704D01*
X66165Y57714D01*
X66145D01*
X66130Y57719D01*
X66120D01*
X66116D01*
X66081Y57724D01*
X66042D01*
X65963Y57729D01*
X65929D01*
X65904D01*
X65884D01*
X65879D01*
X64044D01*
Y58147D01*
X65732D01*
X65796Y58177D01*
X65850Y58206D01*
X65899Y58231D01*
X65939Y58250D01*
X65973Y58265D01*
X65997Y58280D01*
X66012Y58285D01*
X66017Y58290D01*
X66062Y58314D01*
X66096Y58334D01*
X66130Y58354D01*
X66155Y58368D01*
X66175Y58383D01*
X66189Y58393D01*
X66199Y58403D01*
X66204D01*
X66253Y58437D01*
X66283Y58467D01*
X66303Y58486D01*
X66307Y58496D01*
X66327Y58531D01*
X66337Y58560D01*
X66342Y58585D01*
Y58595D01*
X66337Y58624D01*
X66332Y58649D01*
X66327Y58664D01*
X66322Y58669D01*
X66303Y58688D01*
X66283Y58703D01*
X66268Y58713D01*
X66258Y58718D01*
X66219Y58732D01*
X66180Y58742D01*
X66150Y58747D01*
X66140D01*
X66135D01*
X66071Y58752D01*
X66007Y58757D01*
X65978D01*
X65953D01*
X65939D01*
X65934D01*
X64044D01*
Y59175D01*
X65958D01*
X66091Y59170D01*
D02*
G37*
G36*
X65850Y56194D02*
X65934Y56184D01*
X66012Y56174D01*
X66081Y56159D01*
X66145Y56145D01*
X66204Y56125D01*
X66258Y56105D01*
X66303Y56086D01*
X66342Y56066D01*
X66376Y56051D01*
X66406Y56036D01*
X66426Y56022D01*
X66445Y56012D01*
X66450Y56007D01*
X66455Y56002D01*
X66504Y55963D01*
X66544Y55918D01*
X66578Y55869D01*
X66608Y55820D01*
X66657Y55717D01*
X66686Y55613D01*
X66706Y55525D01*
X66711Y55485D01*
X66716Y55451D01*
X66721Y55421D01*
Y55382D01*
X66716Y55298D01*
X66701Y55215D01*
X66681Y55136D01*
X66657Y55067D01*
X66632Y55008D01*
X66612Y54964D01*
X66598Y54934D01*
X66593Y54929D01*
Y54924D01*
X66539Y54841D01*
X66480Y54757D01*
X66411Y54678D01*
X66347Y54610D01*
X66283Y54550D01*
X66234Y54506D01*
X66214Y54492D01*
X66204Y54477D01*
X66194Y54472D01*
X66189Y54467D01*
X66672Y54452D01*
Y54039D01*
X64044D01*
Y54496D01*
X65732D01*
X65791Y54546D01*
X65845Y54590D01*
X65889Y54629D01*
X65929Y54664D01*
X65958Y54693D01*
X65983Y54713D01*
X65997Y54728D01*
X66002Y54733D01*
X66081Y54811D01*
X66111Y54851D01*
X66140Y54880D01*
X66160Y54905D01*
X66175Y54929D01*
X66185Y54939D01*
X66189Y54944D01*
X66239Y55013D01*
X66268Y55077D01*
X66278Y55097D01*
X66288Y55116D01*
X66293Y55126D01*
Y55131D01*
X66312Y55200D01*
X66322Y55259D01*
X66327Y55284D01*
Y55318D01*
X66322Y55392D01*
X66303Y55456D01*
X66278Y55510D01*
X66248Y55559D01*
X66219Y55594D01*
X66194Y55618D01*
X66175Y55633D01*
X66170Y55638D01*
X66106Y55672D01*
X66027Y55697D01*
X65943Y55717D01*
X65860Y55726D01*
X65786Y55736D01*
X65751D01*
X65727D01*
X65702D01*
X65683D01*
X65673D01*
X65668D01*
Y56199D01*
X65761D01*
X65850Y56194D01*
D02*
G37*
G36*
X65599Y53193D02*
X65693Y53188D01*
X65781Y53173D01*
X65855Y53163D01*
X65914Y53148D01*
X65963Y53134D01*
X65993Y53129D01*
X66002Y53124D01*
X66086Y53094D01*
X66160Y53060D01*
X66224Y53020D01*
X66278Y52986D01*
X66322Y52952D01*
X66357Y52927D01*
X66381Y52907D01*
X66386Y52902D01*
X66445Y52848D01*
X66494Y52789D01*
X66534Y52730D01*
X66568Y52671D01*
X66598Y52622D01*
X66617Y52583D01*
X66627Y52558D01*
X66632Y52553D01*
Y52548D01*
X66662Y52464D01*
X66681Y52381D01*
X66701Y52302D01*
X66711Y52223D01*
X66716Y52159D01*
X66721Y52105D01*
Y52061D01*
X66716Y51958D01*
X66701Y51859D01*
X66686Y51776D01*
X66667Y51702D01*
X66642Y51638D01*
X66627Y51594D01*
X66612Y51564D01*
X66608Y51559D01*
Y51554D01*
X66563Y51476D01*
X66514Y51402D01*
X66465Y51338D01*
X66421Y51284D01*
X66376Y51239D01*
X66342Y51205D01*
X66322Y51180D01*
X66312Y51175D01*
X66239Y51121D01*
X66165Y51077D01*
X66091Y51038D01*
X66022Y51003D01*
X65963Y50979D01*
X65919Y50959D01*
X65899Y50954D01*
X65884Y50949D01*
X65879Y50944D01*
X65874D01*
X65781Y50920D01*
X65688Y50900D01*
X65604Y50885D01*
X65520Y50875D01*
X65451Y50870D01*
X65402Y50865D01*
X65382D01*
X65368D01*
X65358D01*
X65353D01*
X65235Y50870D01*
X65127Y50875D01*
X65028Y50890D01*
X64945Y50905D01*
X64876Y50915D01*
X64822Y50929D01*
X64802Y50934D01*
X64787D01*
X64782Y50939D01*
X64777D01*
X64689Y50969D01*
X64605Y51008D01*
X64531Y51043D01*
X64467Y51082D01*
X64418Y51116D01*
X64379Y51146D01*
X64359Y51166D01*
X64349Y51170D01*
X64290Y51234D01*
X64236Y51298D01*
X64192Y51367D01*
X64152Y51431D01*
X64128Y51485D01*
X64103Y51530D01*
X64094Y51559D01*
X64089Y51564D01*
Y51569D01*
X64059Y51662D01*
X64039Y51766D01*
X64020Y51859D01*
X64010Y51953D01*
X64005Y52031D01*
Y52066D01*
X64000Y52095D01*
Y52243D01*
X64005Y52332D01*
X64010Y52415D01*
X64015Y52489D01*
X64020Y52548D01*
X64025Y52597D01*
X64030Y52627D01*
Y52637D01*
X64039Y52725D01*
X64054Y52804D01*
X64069Y52873D01*
X64084Y52937D01*
X64094Y52986D01*
X64103Y53025D01*
X64113Y53050D01*
Y53060D01*
X64487D01*
X64472Y52996D01*
X64458Y52937D01*
X64453Y52912D01*
X64448Y52893D01*
X64443Y52883D01*
Y52878D01*
X64428Y52804D01*
X64418Y52740D01*
X64413Y52710D01*
Y52691D01*
X64408Y52676D01*
Y52671D01*
X64398Y52592D01*
X64394Y52553D01*
X64389Y52519D01*
Y52489D01*
X64384Y52464D01*
Y52445D01*
X64379Y52361D01*
Y52322D01*
X64374Y52287D01*
Y52218D01*
X64379Y52140D01*
X64384Y52066D01*
X64408Y51938D01*
X64423Y51879D01*
X64443Y51825D01*
X64463Y51776D01*
X64482Y51731D01*
X64502Y51692D01*
X64521Y51658D01*
X64541Y51628D01*
X64556Y51608D01*
X64571Y51589D01*
X64581Y51574D01*
X64590Y51569D01*
Y51564D01*
X64635Y51525D01*
X64679Y51490D01*
X64777Y51436D01*
X64881Y51397D01*
X64984Y51372D01*
X65073Y51353D01*
X65112Y51348D01*
X65146D01*
X65171Y51343D01*
X65191D01*
X65205D01*
X65210D01*
Y53188D01*
X65255Y53193D01*
X65294D01*
X65324D01*
X65328D01*
X65333D01*
X65387Y53197D01*
X65437D01*
X65461D01*
X65481D01*
X65491D01*
X65496D01*
X65599Y53193D01*
D02*
G37*
G36*
X65953Y49099D02*
X65570D01*
Y49798D01*
X64477D01*
X64467Y49763D01*
X64458Y49734D01*
X64453Y49709D01*
X64448Y49704D01*
Y49699D01*
X64438Y49660D01*
X64428Y49621D01*
X64423Y49596D01*
Y49586D01*
X64418Y49547D01*
Y49507D01*
X64413Y49483D01*
Y49473D01*
X64408Y49434D01*
Y49365D01*
X64413Y49262D01*
X64423Y49163D01*
X64438Y49079D01*
X64453Y49006D01*
X64467Y48947D01*
X64482Y48907D01*
X64492Y48878D01*
X64497Y48868D01*
X64536Y48794D01*
X64576Y48725D01*
X64620Y48666D01*
X64664Y48617D01*
X64704Y48578D01*
X64733Y48548D01*
X64753Y48528D01*
X64763Y48524D01*
X64832Y48479D01*
X64900Y48435D01*
X64969Y48405D01*
X65038Y48376D01*
X65092Y48356D01*
X65141Y48337D01*
X65171Y48332D01*
X65176Y48327D01*
X65181D01*
X65279Y48307D01*
X65378Y48292D01*
X65471Y48282D01*
X65560Y48278D01*
X65633Y48273D01*
X65668Y48268D01*
X65693D01*
X65717D01*
X65732D01*
X65742D01*
X65747D01*
X65860Y48273D01*
X65963Y48278D01*
X66057Y48292D01*
X66135Y48307D01*
X66204Y48317D01*
X66253Y48332D01*
X66273Y48337D01*
X66288D01*
X66293Y48342D01*
X66298D01*
X66386Y48376D01*
X66470Y48410D01*
X66544Y48445D01*
X66608Y48484D01*
X66657Y48514D01*
X66696Y48538D01*
X66716Y48558D01*
X66726Y48563D01*
X66790Y48622D01*
X66844Y48681D01*
X66888Y48740D01*
X66927Y48799D01*
X66957Y48848D01*
X66982Y48888D01*
X66991Y48912D01*
X66996Y48922D01*
X67031Y49006D01*
X67055Y49089D01*
X67070Y49173D01*
X67085Y49247D01*
X67090Y49311D01*
X67095Y49365D01*
Y49498D01*
X67085Y49576D01*
X67075Y49650D01*
X67065Y49719D01*
X67055Y49773D01*
X67045Y49813D01*
X67041Y49837D01*
X67036Y49847D01*
X67011Y49926D01*
X66986Y49995D01*
X66962Y50064D01*
X66937Y50122D01*
X66913Y50172D01*
X66893Y50206D01*
X66883Y50231D01*
X66878Y50241D01*
X67346D01*
X67405Y50098D01*
X67424Y50034D01*
X67444Y49970D01*
X67459Y49921D01*
X67469Y49876D01*
X67474Y49852D01*
Y49842D01*
X67498Y49685D01*
X67503Y49611D01*
X67508Y49547D01*
X67513Y49488D01*
Y49404D01*
X67508Y49271D01*
X67493Y49148D01*
X67474Y49035D01*
X67454Y48937D01*
X67439Y48893D01*
X67429Y48853D01*
X67419Y48819D01*
X67410Y48794D01*
X67400Y48770D01*
X67395Y48755D01*
X67390Y48745D01*
Y48740D01*
X67341Y48632D01*
X67287Y48533D01*
X67228Y48445D01*
X67173Y48371D01*
X67119Y48312D01*
X67080Y48268D01*
X67050Y48238D01*
X67045Y48233D01*
X67041Y48228D01*
X66952Y48155D01*
X66854Y48086D01*
X66760Y48031D01*
X66672Y47982D01*
X66593Y47948D01*
X66558Y47933D01*
X66529Y47918D01*
X66509Y47913D01*
X66489Y47904D01*
X66480Y47899D01*
X66475D01*
X66347Y47859D01*
X66214Y47830D01*
X66086Y47810D01*
X65973Y47795D01*
X65919Y47790D01*
X65870Y47785D01*
X65825D01*
X65791Y47781D01*
X65756D01*
X65737D01*
X65722D01*
X65717D01*
X65565Y47785D01*
X65422Y47795D01*
X65294Y47815D01*
X65235Y47825D01*
X65186Y47835D01*
X65136Y47840D01*
X65092Y47850D01*
X65058Y47859D01*
X65028Y47869D01*
X65004Y47874D01*
X64984Y47879D01*
X64974Y47884D01*
X64969D01*
X64856Y47928D01*
X64753Y47977D01*
X64659Y48027D01*
X64581Y48076D01*
X64517Y48120D01*
X64472Y48155D01*
X64443Y48179D01*
X64438Y48189D01*
X64433D01*
X64359Y48268D01*
X64290Y48346D01*
X64236Y48425D01*
X64192Y48504D01*
X64152Y48568D01*
X64128Y48622D01*
X64118Y48642D01*
X64113Y48656D01*
X64108Y48661D01*
Y48666D01*
X64074Y48774D01*
X64044Y48888D01*
X64025Y48991D01*
X64015Y49089D01*
X64005Y49178D01*
Y49212D01*
X64000Y49242D01*
Y49301D01*
X64005Y49389D01*
Y49429D01*
X64010Y49468D01*
Y49498D01*
X64015Y49522D01*
Y49542D01*
X64025Y49630D01*
X64030Y49675D01*
X64034Y49709D01*
X64039Y49744D01*
X64044Y49768D01*
X64049Y49783D01*
Y49788D01*
X64069Y49876D01*
X64079Y49921D01*
X64089Y49955D01*
X64098Y49985D01*
X64108Y50009D01*
X64113Y50024D01*
Y50029D01*
X64143Y50118D01*
X64157Y50157D01*
X64172Y50191D01*
X64182Y50221D01*
X64192Y50241D01*
X64202Y50255D01*
Y50260D01*
X65953D01*
Y49099D01*
D02*
G37*
G36*
X67744Y46713D02*
X66637D01*
X66662Y46624D01*
X66667Y46585D01*
X66676Y46551D01*
X66681Y46516D01*
Y46492D01*
X66686Y46477D01*
Y46472D01*
X66696Y46383D01*
X66701Y46344D01*
X66706Y46305D01*
Y46226D01*
X66701Y46118D01*
X66691Y46019D01*
X66676Y45931D01*
X66662Y45852D01*
X66642Y45788D01*
X66627Y45739D01*
X66622Y45724D01*
X66617Y45709D01*
X66612Y45704D01*
Y45699D01*
X66573Y45616D01*
X66529Y45537D01*
X66485Y45468D01*
X66440Y45409D01*
X66401Y45360D01*
X66366Y45321D01*
X66347Y45301D01*
X66337Y45291D01*
X66268Y45232D01*
X66194Y45178D01*
X66120Y45134D01*
X66052Y45099D01*
X65993Y45070D01*
X65943Y45050D01*
X65924Y45040D01*
X65909Y45035D01*
X65904Y45030D01*
X65899D01*
X65801Y45001D01*
X65697Y44981D01*
X65594Y44961D01*
X65505Y44952D01*
X65422Y44947D01*
X65387D01*
X65358Y44942D01*
X65338D01*
X65319D01*
X65309D01*
X65304D01*
X65196Y44947D01*
X65097Y44952D01*
X65004Y44961D01*
X64925Y44971D01*
X64861Y44981D01*
X64812Y44986D01*
X64792Y44991D01*
X64777Y44996D01*
X64772D01*
X64767D01*
X64679Y45020D01*
X64600Y45050D01*
X64531Y45075D01*
X64472Y45104D01*
X64423Y45129D01*
X64384Y45148D01*
X64364Y45163D01*
X64354Y45168D01*
X64295Y45212D01*
X64241Y45262D01*
X64197Y45306D01*
X64157Y45355D01*
X64128Y45394D01*
X64108Y45424D01*
X64094Y45444D01*
X64089Y45453D01*
X64059Y45522D01*
X64039Y45586D01*
X64020Y45655D01*
X64010Y45719D01*
X64005Y45773D01*
X64000Y45813D01*
Y45852D01*
X64005Y45945D01*
X64020Y46039D01*
X64039Y46118D01*
X64064Y46191D01*
X64089Y46251D01*
X64108Y46295D01*
X64123Y46324D01*
X64128Y46334D01*
X64182Y46418D01*
X64251Y46492D01*
X64315Y46560D01*
X64384Y46624D01*
X64448Y46674D01*
X64497Y46713D01*
X64517Y46728D01*
X64531Y46738D01*
X64536Y46747D01*
X64541D01*
X64044Y46762D01*
Y47170D01*
X67744D01*
Y46713D01*
D02*
G37*
G36*
X64423Y43481D02*
X67744D01*
Y42241D01*
X67370D01*
Y43018D01*
X64423D01*
Y42152D01*
X64044D01*
Y44263D01*
X64423D01*
Y43481D01*
D02*
G37*
G36*
X65924Y41552D02*
X66062Y41547D01*
X66185Y41532D01*
X66288Y41517D01*
X66337Y41513D01*
X66376Y41503D01*
X66411Y41498D01*
X66445Y41493D01*
X66465Y41488D01*
X66485Y41483D01*
X66494Y41478D01*
X66499D01*
X66617Y41444D01*
X66721Y41404D01*
X66814Y41365D01*
X66893Y41326D01*
X66957Y41291D01*
X67006Y41262D01*
X67036Y41242D01*
X67045Y41232D01*
X67124Y41168D01*
X67193Y41099D01*
X67252Y41030D01*
X67301Y40966D01*
X67341Y40912D01*
X67370Y40863D01*
X67385Y40834D01*
X67390Y40829D01*
Y40824D01*
X67429Y40730D01*
X67459Y40632D01*
X67483Y40538D01*
X67498Y40450D01*
X67508Y40371D01*
Y40337D01*
X67513Y40307D01*
Y40253D01*
X67508Y40150D01*
X67498Y40056D01*
X67478Y39968D01*
X67459Y39889D01*
X67439Y39825D01*
X67419Y39776D01*
X67414Y39756D01*
X67410Y39741D01*
X67405Y39736D01*
Y39731D01*
X67360Y39643D01*
X67311Y39559D01*
X67257Y39485D01*
X67203Y39421D01*
X67154Y39372D01*
X67114Y39333D01*
X67090Y39308D01*
X67085Y39298D01*
X67080D01*
X66996Y39235D01*
X66903Y39176D01*
X66809Y39126D01*
X66726Y39087D01*
X66647Y39053D01*
X66612Y39038D01*
X66583Y39028D01*
X66563Y39018D01*
X66544Y39013D01*
X66534Y39008D01*
X66529D01*
X66401Y38974D01*
X66263Y38944D01*
X66130Y38925D01*
X66007Y38915D01*
X65953Y38910D01*
X65899Y38905D01*
X65855D01*
X65816Y38900D01*
X65781D01*
X65756D01*
X65742D01*
X65737D01*
X65589Y38905D01*
X65451Y38915D01*
X65328Y38925D01*
X65220Y38939D01*
X65176Y38949D01*
X65132Y38954D01*
X65097Y38959D01*
X65068Y38969D01*
X65043Y38974D01*
X65023D01*
X65013Y38979D01*
X65009D01*
X64890Y39013D01*
X64787Y39048D01*
X64694Y39087D01*
X64610Y39126D01*
X64546Y39161D01*
X64497Y39190D01*
X64482Y39200D01*
X64467Y39210D01*
X64463Y39215D01*
X64458D01*
X64379Y39279D01*
X64310Y39348D01*
X64251Y39417D01*
X64202Y39481D01*
X64162Y39535D01*
X64138Y39584D01*
X64118Y39613D01*
X64113Y39618D01*
Y39623D01*
X64074Y39717D01*
X64049Y39815D01*
X64030Y39913D01*
X64015Y40002D01*
X64005Y40081D01*
Y40115D01*
X64000Y40145D01*
Y40199D01*
X64005Y40302D01*
X64015Y40396D01*
X64034Y40484D01*
X64054Y40563D01*
X64069Y40627D01*
X64089Y40676D01*
X64094Y40696D01*
X64098Y40711D01*
X64103Y40716D01*
Y40720D01*
X64148Y40809D01*
X64197Y40893D01*
X64251Y40966D01*
X64300Y41030D01*
X64349Y41085D01*
X64389Y41119D01*
X64413Y41144D01*
X64423Y41153D01*
X64512Y41222D01*
X64605Y41276D01*
X64699Y41331D01*
X64782Y41370D01*
X64861Y41404D01*
X64895Y41419D01*
X64925Y41429D01*
X64945Y41439D01*
X64964Y41444D01*
X64974Y41449D01*
X64979D01*
X65112Y41483D01*
X65245Y41513D01*
X65378Y41532D01*
X65505Y41542D01*
X65560Y41547D01*
X65614Y41552D01*
X65658D01*
X65697Y41557D01*
X65732D01*
X65756D01*
X65771D01*
X65776D01*
X65924Y41552D01*
D02*
G37*
G36*
X71023Y58956D02*
X71073Y58951D01*
X71122Y58941D01*
X71156Y58931D01*
X71186Y58921D01*
X71205Y58916D01*
X71210Y58911D01*
X71309Y58867D01*
X71348Y58842D01*
X71387Y58818D01*
X71417Y58798D01*
X71442Y58778D01*
X71456Y58769D01*
X71461Y58764D01*
X71540Y58685D01*
X71574Y58646D01*
X71604Y58611D01*
X71628Y58582D01*
X71648Y58557D01*
X71658Y58537D01*
X71663Y58532D01*
X71732Y58434D01*
X71756Y58390D01*
X71786Y58345D01*
X71806Y58306D01*
X71820Y58277D01*
X71830Y58257D01*
X71835Y58252D01*
X71894Y58360D01*
X71958Y58454D01*
X72022Y58537D01*
X72076Y58601D01*
X72125Y58655D01*
X72165Y58695D01*
X72189Y58714D01*
X72199Y58724D01*
X72283Y58778D01*
X72366Y58823D01*
X72455Y58852D01*
X72534Y58872D01*
X72603Y58882D01*
X72662Y58892D01*
X72681D01*
X72696D01*
X72706D01*
X72711D01*
X72780Y58887D01*
X72839Y58882D01*
X72893Y58872D01*
X72942Y58857D01*
X72986Y58842D01*
X73016Y58833D01*
X73036Y58828D01*
X73041Y58823D01*
X73095Y58793D01*
X73144Y58764D01*
X73188Y58729D01*
X73228Y58695D01*
X73257Y58665D01*
X73277Y58641D01*
X73291Y58621D01*
X73296Y58616D01*
X73331Y58562D01*
X73365Y58508D01*
X73390Y58454D01*
X73414Y58400D01*
X73429Y58350D01*
X73444Y58316D01*
X73454Y58291D01*
Y58281D01*
X73474Y58203D01*
X73488Y58124D01*
X73498Y58045D01*
X73508Y57976D01*
Y57912D01*
X73513Y57863D01*
Y57819D01*
X73508Y57716D01*
X73503Y57622D01*
X73488Y57539D01*
X73478Y57470D01*
X73464Y57411D01*
X73449Y57366D01*
X73444Y57337D01*
X73439Y57332D01*
Y57327D01*
X73410Y57253D01*
X73380Y57184D01*
X73351Y57125D01*
X73316Y57076D01*
X73291Y57037D01*
X73267Y57007D01*
X73252Y56988D01*
X73247Y56983D01*
X73203Y56938D01*
X73154Y56894D01*
X73109Y56860D01*
X73065Y56830D01*
X73026Y56810D01*
X72996Y56796D01*
X72977Y56786D01*
X72972Y56781D01*
X72913Y56756D01*
X72859Y56741D01*
X72804Y56727D01*
X72755Y56722D01*
X72716Y56717D01*
X72686Y56712D01*
X72667D01*
X72657D01*
X72558Y56717D01*
X72470Y56737D01*
X72386Y56761D01*
X72312Y56791D01*
X72258Y56815D01*
X72214Y56840D01*
X72184Y56860D01*
X72180Y56865D01*
X72175D01*
X72101Y56933D01*
X72027Y57007D01*
X71963Y57091D01*
X71909Y57170D01*
X71860Y57243D01*
X71825Y57302D01*
X71816Y57327D01*
X71806Y57342D01*
X71796Y57352D01*
Y57357D01*
X71727Y57229D01*
X71653Y57115D01*
X71584Y57022D01*
X71520Y56943D01*
X71466Y56884D01*
X71422Y56845D01*
X71392Y56820D01*
X71387Y56810D01*
X71382D01*
X71294Y56751D01*
X71201Y56712D01*
X71112Y56682D01*
X71028Y56658D01*
X70955Y56648D01*
X70920Y56643D01*
X70895D01*
X70871Y56638D01*
X70856D01*
X70846D01*
X70841D01*
X70772Y56643D01*
X70709Y56648D01*
X70649Y56663D01*
X70600Y56678D01*
X70556Y56687D01*
X70526Y56702D01*
X70502Y56707D01*
X70497Y56712D01*
X70443Y56741D01*
X70394Y56776D01*
X70344Y56815D01*
X70305Y56850D01*
X70275Y56879D01*
X70251Y56904D01*
X70236Y56924D01*
X70231Y56928D01*
X70192Y56983D01*
X70157Y57047D01*
X70128Y57106D01*
X70103Y57160D01*
X70084Y57209D01*
X70069Y57248D01*
X70064Y57273D01*
X70059Y57283D01*
X70039Y57366D01*
X70025Y57450D01*
X70015Y57534D01*
X70010Y57612D01*
X70005Y57681D01*
X70000Y57730D01*
Y57780D01*
X70005Y57873D01*
X70010Y57962D01*
X70020Y58040D01*
X70029Y58114D01*
X70039Y58168D01*
X70044Y58213D01*
X70054Y58242D01*
Y58252D01*
X70079Y58331D01*
X70108Y58400D01*
X70133Y58464D01*
X70162Y58523D01*
X70187Y58567D01*
X70207Y58596D01*
X70221Y58621D01*
X70226Y58626D01*
X70271Y58685D01*
X70320Y58734D01*
X70369Y58778D01*
X70413Y58813D01*
X70453Y58842D01*
X70482Y58862D01*
X70507Y58872D01*
X70512Y58877D01*
X70576Y58906D01*
X70644Y58926D01*
X70709Y58946D01*
X70772Y58956D01*
X70822Y58960D01*
X70866Y58965D01*
X70890D01*
X70900D01*
X70964D01*
X71023Y58956D01*
D02*
G37*
G36*
X71919Y56087D02*
X72066Y56077D01*
X72204Y56063D01*
X72263Y56058D01*
X72317Y56048D01*
X72366Y56038D01*
X72411Y56033D01*
X72450Y56023D01*
X72480Y56018D01*
X72504Y56013D01*
X72524Y56008D01*
X72534Y56003D01*
X72539D01*
X72657Y55969D01*
X72765Y55930D01*
X72859Y55890D01*
X72942Y55851D01*
X73006Y55812D01*
X73050Y55782D01*
X73080Y55762D01*
X73090Y55757D01*
X73164Y55694D01*
X73232Y55630D01*
X73287Y55566D01*
X73331Y55507D01*
X73365Y55453D01*
X73390Y55413D01*
X73405Y55384D01*
X73410Y55379D01*
Y55374D01*
X73444Y55290D01*
X73469Y55202D01*
X73488Y55118D01*
X73498Y55044D01*
X73508Y54975D01*
X73513Y54921D01*
Y54877D01*
X73508Y54759D01*
X73493Y54655D01*
X73474Y54557D01*
X73449Y54478D01*
X73424Y54409D01*
X73405Y54360D01*
X73395Y54341D01*
X73390Y54326D01*
X73385Y54321D01*
Y54316D01*
X73336Y54232D01*
X73277Y54154D01*
X73218Y54090D01*
X73159Y54031D01*
X73109Y53986D01*
X73065Y53952D01*
X73036Y53932D01*
X73031Y53922D01*
X73026D01*
X72937Y53868D01*
X72844Y53819D01*
X72750Y53775D01*
X72662Y53745D01*
X72583Y53716D01*
X72553Y53706D01*
X72524Y53696D01*
X72499Y53691D01*
X72485Y53686D01*
X72475Y53681D01*
X72470D01*
X72347Y53657D01*
X72219Y53637D01*
X72101Y53622D01*
X71988Y53612D01*
X71939Y53607D01*
X71894D01*
X71855D01*
X71820Y53603D01*
X71791D01*
X71771D01*
X71756D01*
X71751D01*
X71589Y53607D01*
X71437Y53617D01*
X71304Y53632D01*
X71245Y53637D01*
X71191Y53647D01*
X71136Y53657D01*
X71092Y53662D01*
X71058Y53671D01*
X71023Y53676D01*
X70999Y53681D01*
X70979Y53686D01*
X70969Y53691D01*
X70964D01*
X70846Y53726D01*
X70738Y53765D01*
X70644Y53809D01*
X70566Y53849D01*
X70502Y53883D01*
X70453Y53913D01*
X70423Y53932D01*
X70418Y53937D01*
X70413D01*
X70340Y54001D01*
X70275Y54065D01*
X70221Y54129D01*
X70177Y54188D01*
X70143Y54242D01*
X70118Y54282D01*
X70103Y54311D01*
X70098Y54321D01*
X70064Y54409D01*
X70039Y54493D01*
X70025Y54582D01*
X70015Y54655D01*
X70005Y54724D01*
X70000Y54778D01*
Y54823D01*
X70005Y54941D01*
X70020Y55044D01*
X70039Y55138D01*
X70064Y55221D01*
X70084Y55285D01*
X70103Y55339D01*
X70113Y55354D01*
X70118Y55369D01*
X70123Y55374D01*
Y55379D01*
X70177Y55467D01*
X70231Y55541D01*
X70295Y55610D01*
X70349Y55669D01*
X70403Y55713D01*
X70443Y55748D01*
X70472Y55772D01*
X70477Y55777D01*
X70482D01*
X70571Y55836D01*
X70664Y55880D01*
X70758Y55925D01*
X70846Y55954D01*
X70920Y55984D01*
X70955Y55994D01*
X70979Y55999D01*
X71004Y56003D01*
X71018Y56008D01*
X71028Y56013D01*
X71033D01*
X71156Y56038D01*
X71284Y56058D01*
X71402Y56072D01*
X71515Y56082D01*
X71565Y56087D01*
X71609D01*
X71648Y56092D01*
X71688D01*
X71712D01*
X71732D01*
X71747D01*
X71751D01*
X71919Y56087D01*
D02*
G37*
G36*
X73744Y52884D02*
X70044Y50473D01*
Y50906D01*
X73744Y53322D01*
Y52884D01*
D02*
G37*
G36*
X70477Y48446D02*
X71082Y49066D01*
X71161Y49145D01*
X71235Y49219D01*
X71299Y49283D01*
X71358Y49342D01*
X71402Y49386D01*
X71442Y49421D01*
X71461Y49445D01*
X71471Y49450D01*
X71540Y49509D01*
X71604Y49558D01*
X71658Y49608D01*
X71712Y49642D01*
X71756Y49676D01*
X71786Y49696D01*
X71811Y49711D01*
X71816Y49716D01*
X71879Y49755D01*
X71939Y49785D01*
X71993Y49814D01*
X72047Y49834D01*
X72086Y49854D01*
X72120Y49863D01*
X72145Y49873D01*
X72150D01*
X72214Y49893D01*
X72278Y49903D01*
X72337Y49913D01*
X72396Y49922D01*
X72445D01*
X72480Y49927D01*
X72504D01*
X72514D01*
X72598Y49922D01*
X72681Y49918D01*
X72750Y49903D01*
X72814Y49893D01*
X72863Y49878D01*
X72903Y49863D01*
X72922Y49858D01*
X72932Y49854D01*
X73001Y49824D01*
X73060Y49790D01*
X73114Y49755D01*
X73159Y49721D01*
X73198Y49691D01*
X73223Y49667D01*
X73242Y49647D01*
X73247Y49642D01*
X73296Y49588D01*
X73336Y49534D01*
X73370Y49480D01*
X73395Y49430D01*
X73414Y49386D01*
X73434Y49347D01*
X73439Y49327D01*
X73444Y49317D01*
X73469Y49248D01*
X73483Y49175D01*
X73498Y49106D01*
X73503Y49042D01*
X73508Y48988D01*
X73513Y48943D01*
Y48904D01*
X73508Y48781D01*
X73493Y48673D01*
X73474Y48569D01*
X73454Y48486D01*
X73429Y48412D01*
X73419Y48382D01*
X73410Y48358D01*
X73400Y48338D01*
X73395Y48323D01*
X73390Y48318D01*
Y48314D01*
X73341Y48220D01*
X73287Y48136D01*
X73232Y48063D01*
X73183Y47994D01*
X73134Y47940D01*
X73100Y47900D01*
X73075Y47876D01*
X73065Y47866D01*
X72760Y48122D01*
X72814Y48176D01*
X72868Y48235D01*
X72908Y48289D01*
X72947Y48338D01*
X72972Y48382D01*
X72996Y48417D01*
X73006Y48437D01*
X73011Y48446D01*
X73045Y48515D01*
X73070Y48584D01*
X73085Y48648D01*
X73100Y48712D01*
X73105Y48766D01*
X73109Y48806D01*
Y48904D01*
X73100Y48953D01*
X73095Y48997D01*
X73085Y49037D01*
X73075Y49066D01*
X73070Y49091D01*
X73060Y49106D01*
Y49111D01*
X73016Y49189D01*
X72996Y49219D01*
X72972Y49243D01*
X72952Y49263D01*
X72937Y49278D01*
X72927Y49288D01*
X72922Y49293D01*
X72859Y49342D01*
X72795Y49376D01*
X72765Y49386D01*
X72745Y49396D01*
X72731Y49401D01*
X72726D01*
X72642Y49421D01*
X72598Y49426D01*
X72563Y49430D01*
X72529Y49435D01*
X72504D01*
X72490D01*
X72485D01*
X72391Y49430D01*
X72347Y49426D01*
X72307Y49421D01*
X72278Y49416D01*
X72253Y49411D01*
X72239Y49406D01*
X72234D01*
X72189Y49396D01*
X72150Y49381D01*
X72106Y49362D01*
X72066Y49347D01*
X72037Y49327D01*
X72012Y49317D01*
X71993Y49307D01*
X71988Y49303D01*
X71939Y49273D01*
X71889Y49238D01*
X71840Y49204D01*
X71796Y49170D01*
X71761Y49140D01*
X71727Y49115D01*
X71707Y49096D01*
X71702Y49091D01*
X71643Y49037D01*
X71579Y48983D01*
X71515Y48924D01*
X71461Y48865D01*
X71407Y48815D01*
X71368Y48776D01*
X71343Y48751D01*
X71338Y48746D01*
X71333Y48742D01*
X70453Y47856D01*
X70044D01*
Y50109D01*
X70477D01*
Y48446D01*
D02*
G37*
G36*
Y45494D02*
X71082Y46114D01*
X71161Y46193D01*
X71235Y46267D01*
X71299Y46331D01*
X71358Y46390D01*
X71402Y46434D01*
X71442Y46469D01*
X71461Y46493D01*
X71471Y46498D01*
X71540Y46557D01*
X71604Y46606D01*
X71658Y46655D01*
X71712Y46690D01*
X71756Y46724D01*
X71786Y46744D01*
X71811Y46759D01*
X71816Y46764D01*
X71879Y46803D01*
X71939Y46833D01*
X71993Y46862D01*
X72047Y46882D01*
X72086Y46902D01*
X72120Y46911D01*
X72145Y46921D01*
X72150D01*
X72214Y46941D01*
X72278Y46951D01*
X72337Y46961D01*
X72396Y46970D01*
X72445D01*
X72480Y46975D01*
X72504D01*
X72514D01*
X72598Y46970D01*
X72681Y46966D01*
X72750Y46951D01*
X72814Y46941D01*
X72863Y46926D01*
X72903Y46911D01*
X72922Y46906D01*
X72932Y46902D01*
X73001Y46872D01*
X73060Y46838D01*
X73114Y46803D01*
X73159Y46769D01*
X73198Y46739D01*
X73223Y46715D01*
X73242Y46695D01*
X73247Y46690D01*
X73296Y46636D01*
X73336Y46582D01*
X73370Y46528D01*
X73395Y46478D01*
X73414Y46434D01*
X73434Y46395D01*
X73439Y46375D01*
X73444Y46365D01*
X73469Y46296D01*
X73483Y46223D01*
X73498Y46154D01*
X73503Y46090D01*
X73508Y46036D01*
X73513Y45991D01*
Y45952D01*
X73508Y45829D01*
X73493Y45721D01*
X73474Y45617D01*
X73454Y45534D01*
X73429Y45460D01*
X73419Y45430D01*
X73410Y45406D01*
X73400Y45386D01*
X73395Y45371D01*
X73390Y45366D01*
Y45362D01*
X73341Y45268D01*
X73287Y45184D01*
X73232Y45111D01*
X73183Y45042D01*
X73134Y44988D01*
X73100Y44948D01*
X73075Y44924D01*
X73065Y44914D01*
X72760Y45170D01*
X72814Y45224D01*
X72868Y45283D01*
X72908Y45337D01*
X72947Y45386D01*
X72972Y45430D01*
X72996Y45465D01*
X73006Y45485D01*
X73011Y45494D01*
X73045Y45563D01*
X73070Y45632D01*
X73085Y45696D01*
X73100Y45760D01*
X73105Y45814D01*
X73109Y45854D01*
Y45952D01*
X73100Y46001D01*
X73095Y46045D01*
X73085Y46085D01*
X73075Y46114D01*
X73070Y46139D01*
X73060Y46154D01*
Y46159D01*
X73016Y46237D01*
X72996Y46267D01*
X72972Y46291D01*
X72952Y46311D01*
X72937Y46326D01*
X72927Y46336D01*
X72922Y46341D01*
X72859Y46390D01*
X72795Y46424D01*
X72765Y46434D01*
X72745Y46444D01*
X72731Y46449D01*
X72726D01*
X72642Y46469D01*
X72598Y46474D01*
X72563Y46478D01*
X72529Y46483D01*
X72504D01*
X72490D01*
X72485D01*
X72391Y46478D01*
X72347Y46474D01*
X72307Y46469D01*
X72278Y46464D01*
X72253Y46459D01*
X72239Y46454D01*
X72234D01*
X72189Y46444D01*
X72150Y46429D01*
X72106Y46409D01*
X72066Y46395D01*
X72037Y46375D01*
X72012Y46365D01*
X71993Y46355D01*
X71988Y46350D01*
X71939Y46321D01*
X71889Y46286D01*
X71840Y46252D01*
X71796Y46218D01*
X71761Y46188D01*
X71727Y46163D01*
X71707Y46144D01*
X71702Y46139D01*
X71643Y46085D01*
X71579Y46031D01*
X71515Y45972D01*
X71461Y45913D01*
X71407Y45863D01*
X71368Y45824D01*
X71343Y45799D01*
X71338Y45794D01*
X71333Y45790D01*
X70453Y44904D01*
X70044D01*
Y47157D01*
X70477D01*
Y45494D01*
D02*
G37*
G36*
X71919Y44279D02*
X72066Y44269D01*
X72204Y44255D01*
X72263Y44250D01*
X72317Y44240D01*
X72366Y44230D01*
X72411Y44225D01*
X72450Y44215D01*
X72480Y44210D01*
X72504Y44205D01*
X72524Y44200D01*
X72534Y44196D01*
X72539D01*
X72657Y44161D01*
X72765Y44122D01*
X72859Y44082D01*
X72942Y44043D01*
X73006Y44004D01*
X73050Y43974D01*
X73080Y43954D01*
X73090Y43949D01*
X73164Y43886D01*
X73232Y43822D01*
X73287Y43758D01*
X73331Y43699D01*
X73365Y43644D01*
X73390Y43605D01*
X73405Y43576D01*
X73410Y43571D01*
Y43566D01*
X73444Y43482D01*
X73469Y43394D01*
X73488Y43310D01*
X73498Y43236D01*
X73508Y43167D01*
X73513Y43113D01*
Y43069D01*
X73508Y42951D01*
X73493Y42847D01*
X73474Y42749D01*
X73449Y42670D01*
X73424Y42601D01*
X73405Y42552D01*
X73395Y42533D01*
X73390Y42518D01*
X73385Y42513D01*
Y42508D01*
X73336Y42424D01*
X73277Y42346D01*
X73218Y42282D01*
X73159Y42223D01*
X73109Y42178D01*
X73065Y42144D01*
X73036Y42124D01*
X73031Y42114D01*
X73026D01*
X72937Y42060D01*
X72844Y42011D01*
X72750Y41967D01*
X72662Y41937D01*
X72583Y41908D01*
X72553Y41898D01*
X72524Y41888D01*
X72499Y41883D01*
X72485Y41878D01*
X72475Y41873D01*
X72470D01*
X72347Y41849D01*
X72219Y41829D01*
X72101Y41814D01*
X71988Y41804D01*
X71939Y41800D01*
X71894D01*
X71855D01*
X71820Y41795D01*
X71791D01*
X71771D01*
X71756D01*
X71751D01*
X71589Y41800D01*
X71437Y41809D01*
X71304Y41824D01*
X71245Y41829D01*
X71191Y41839D01*
X71136Y41849D01*
X71092Y41854D01*
X71058Y41863D01*
X71023Y41868D01*
X70999Y41873D01*
X70979Y41878D01*
X70969Y41883D01*
X70964D01*
X70846Y41918D01*
X70738Y41957D01*
X70644Y42001D01*
X70566Y42041D01*
X70502Y42075D01*
X70453Y42105D01*
X70423Y42124D01*
X70418Y42129D01*
X70413D01*
X70340Y42193D01*
X70275Y42257D01*
X70221Y42321D01*
X70177Y42380D01*
X70143Y42434D01*
X70118Y42474D01*
X70103Y42503D01*
X70098Y42513D01*
X70064Y42601D01*
X70039Y42685D01*
X70025Y42774D01*
X70015Y42847D01*
X70005Y42916D01*
X70000Y42970D01*
Y43015D01*
X70005Y43133D01*
X70020Y43236D01*
X70039Y43330D01*
X70064Y43413D01*
X70084Y43477D01*
X70103Y43531D01*
X70113Y43546D01*
X70118Y43561D01*
X70123Y43566D01*
Y43571D01*
X70177Y43659D01*
X70231Y43733D01*
X70295Y43802D01*
X70349Y43861D01*
X70403Y43905D01*
X70443Y43940D01*
X70472Y43964D01*
X70477Y43969D01*
X70482D01*
X70571Y44028D01*
X70664Y44072D01*
X70758Y44117D01*
X70846Y44146D01*
X70920Y44176D01*
X70955Y44186D01*
X70979Y44191D01*
X71004Y44196D01*
X71018Y44200D01*
X71028Y44205D01*
X71033D01*
X71156Y44230D01*
X71284Y44250D01*
X71402Y44264D01*
X71515Y44274D01*
X71565Y44279D01*
X71609D01*
X71648Y44284D01*
X71688D01*
X71712D01*
X71732D01*
X71747D01*
X71751D01*
X71919Y44279D01*
D02*
G37*
G36*
X70477Y39590D02*
X71082Y40210D01*
X71161Y40289D01*
X71235Y40363D01*
X71299Y40427D01*
X71358Y40486D01*
X71402Y40530D01*
X71442Y40565D01*
X71461Y40589D01*
X71471Y40594D01*
X71540Y40653D01*
X71604Y40702D01*
X71658Y40751D01*
X71712Y40786D01*
X71756Y40820D01*
X71786Y40840D01*
X71811Y40855D01*
X71816Y40860D01*
X71879Y40899D01*
X71939Y40929D01*
X71993Y40958D01*
X72047Y40978D01*
X72086Y40997D01*
X72120Y41007D01*
X72145Y41017D01*
X72150D01*
X72214Y41037D01*
X72278Y41047D01*
X72337Y41057D01*
X72396Y41066D01*
X72445D01*
X72480Y41071D01*
X72504D01*
X72514D01*
X72598Y41066D01*
X72681Y41061D01*
X72750Y41047D01*
X72814Y41037D01*
X72863Y41022D01*
X72903Y41007D01*
X72922Y41002D01*
X72932Y40997D01*
X73001Y40968D01*
X73060Y40934D01*
X73114Y40899D01*
X73159Y40865D01*
X73198Y40835D01*
X73223Y40811D01*
X73242Y40791D01*
X73247Y40786D01*
X73296Y40732D01*
X73336Y40678D01*
X73370Y40624D01*
X73395Y40574D01*
X73414Y40530D01*
X73434Y40491D01*
X73439Y40471D01*
X73444Y40461D01*
X73469Y40392D01*
X73483Y40319D01*
X73498Y40250D01*
X73503Y40186D01*
X73508Y40132D01*
X73513Y40087D01*
Y40048D01*
X73508Y39925D01*
X73493Y39817D01*
X73474Y39713D01*
X73454Y39630D01*
X73429Y39556D01*
X73419Y39526D01*
X73410Y39502D01*
X73400Y39482D01*
X73395Y39467D01*
X73390Y39463D01*
Y39458D01*
X73341Y39364D01*
X73287Y39280D01*
X73232Y39207D01*
X73183Y39138D01*
X73134Y39084D01*
X73100Y39044D01*
X73075Y39020D01*
X73065Y39010D01*
X72760Y39266D01*
X72814Y39320D01*
X72868Y39379D01*
X72908Y39433D01*
X72947Y39482D01*
X72972Y39526D01*
X72996Y39561D01*
X73006Y39581D01*
X73011Y39590D01*
X73045Y39659D01*
X73070Y39728D01*
X73085Y39792D01*
X73100Y39856D01*
X73105Y39910D01*
X73109Y39950D01*
Y40048D01*
X73100Y40097D01*
X73095Y40141D01*
X73085Y40181D01*
X73075Y40210D01*
X73070Y40235D01*
X73060Y40250D01*
Y40255D01*
X73016Y40333D01*
X72996Y40363D01*
X72972Y40387D01*
X72952Y40407D01*
X72937Y40422D01*
X72927Y40432D01*
X72922Y40437D01*
X72859Y40486D01*
X72795Y40520D01*
X72765Y40530D01*
X72745Y40540D01*
X72731Y40545D01*
X72726D01*
X72642Y40565D01*
X72598Y40569D01*
X72563Y40574D01*
X72529Y40579D01*
X72504D01*
X72490D01*
X72485D01*
X72391Y40574D01*
X72347Y40569D01*
X72307Y40565D01*
X72278Y40560D01*
X72253Y40555D01*
X72239Y40550D01*
X72234D01*
X72189Y40540D01*
X72150Y40525D01*
X72106Y40505D01*
X72066Y40491D01*
X72037Y40471D01*
X72012Y40461D01*
X71993Y40451D01*
X71988Y40446D01*
X71939Y40417D01*
X71889Y40383D01*
X71840Y40348D01*
X71796Y40314D01*
X71761Y40284D01*
X71727Y40260D01*
X71707Y40240D01*
X71702Y40235D01*
X71643Y40181D01*
X71579Y40127D01*
X71515Y40068D01*
X71461Y40009D01*
X71407Y39959D01*
X71368Y39920D01*
X71343Y39895D01*
X71338Y39891D01*
X71333Y39886D01*
X70453Y39000D01*
X70044D01*
Y41253D01*
X70477D01*
Y39590D01*
D02*
G37*
G36*
X68091Y-31702D02*
X68085Y-31874D01*
X68069Y-32035D01*
X68047Y-32173D01*
X68030Y-32240D01*
X68019Y-32296D01*
X68008Y-32346D01*
X67991Y-32395D01*
X67980Y-32434D01*
X67969Y-32468D01*
X67958Y-32495D01*
X67952Y-32512D01*
X67947Y-32523D01*
Y-32529D01*
X67891Y-32651D01*
X67819Y-32762D01*
X67747Y-32862D01*
X67680Y-32945D01*
X67614Y-33011D01*
X67564Y-33062D01*
X67542Y-33084D01*
X67525Y-33095D01*
X67519Y-33100D01*
X67514Y-33106D01*
X67619Y-33206D01*
X67708Y-33311D01*
X67786Y-33411D01*
X67847Y-33505D01*
X67891Y-33583D01*
X67924Y-33650D01*
X67936Y-33672D01*
X67947Y-33689D01*
X67952Y-33700D01*
Y-33705D01*
X67997Y-33833D01*
X68030Y-33972D01*
X68058Y-34105D01*
X68074Y-34233D01*
X68080Y-34288D01*
X68085Y-34343D01*
Y-34388D01*
X68091Y-34432D01*
Y-34538D01*
X67081D01*
Y-34443D01*
X67075Y-34310D01*
X67053Y-34194D01*
X67026Y-34094D01*
X66992Y-34010D01*
X66959Y-33944D01*
X66931Y-33894D01*
X66909Y-33866D01*
X66903Y-33855D01*
X66831Y-33783D01*
X66754Y-33727D01*
X66676Y-33689D01*
X66604Y-33661D01*
X66531Y-33644D01*
X66482Y-33639D01*
X66459Y-33633D01*
X66443D01*
X66437D01*
X66432D01*
X66326Y-33644D01*
X66237Y-33666D01*
X66154Y-33705D01*
X66088Y-33744D01*
X66037Y-33783D01*
X65999Y-33822D01*
X65971Y-33844D01*
X65965Y-33855D01*
X65910Y-33944D01*
X65865Y-34038D01*
X65838Y-34138D01*
X65816Y-34233D01*
X65804Y-34316D01*
X65799Y-34349D01*
Y-34382D01*
X65793Y-34410D01*
Y-34538D01*
X64783D01*
Y-34510D01*
X64789Y-34343D01*
X64805Y-34188D01*
X64828Y-34055D01*
X64855Y-33938D01*
X64867Y-33888D01*
X64878Y-33844D01*
X64889Y-33805D01*
X64900Y-33772D01*
X64911Y-33744D01*
X64916Y-33727D01*
X64922Y-33716D01*
Y-33711D01*
X64983Y-33583D01*
X65050Y-33472D01*
X65116Y-33367D01*
X65188Y-33278D01*
X65250Y-33206D01*
X65305Y-33150D01*
X65322Y-33134D01*
X65338Y-33117D01*
X65344Y-33111D01*
X65349Y-33106D01*
X65250Y-33017D01*
X65161Y-32917D01*
X65088Y-32823D01*
X65027Y-32734D01*
X64983Y-32651D01*
X64950Y-32584D01*
X64939Y-32562D01*
X64928Y-32545D01*
X64922Y-32534D01*
Y-32529D01*
X64878Y-32390D01*
X64844Y-32251D01*
X64816Y-32112D01*
X64800Y-31979D01*
X64794Y-31924D01*
X64789Y-31868D01*
Y-31824D01*
X64783Y-31779D01*
Y-31674D01*
X65793D01*
Y-31763D01*
X65799Y-31896D01*
X65821Y-32013D01*
X65849Y-32112D01*
X65882Y-32196D01*
X65910Y-32262D01*
X65938Y-32312D01*
X65960Y-32340D01*
X65965Y-32351D01*
X66037Y-32423D01*
X66110Y-32479D01*
X66187Y-32512D01*
X66265Y-32540D01*
X66332Y-32556D01*
X66382Y-32562D01*
X66404Y-32568D01*
X66421D01*
X66426D01*
X66432D01*
X66537Y-32556D01*
X66631Y-32534D01*
X66709Y-32501D01*
X66776Y-32456D01*
X66831Y-32418D01*
X66870Y-32384D01*
X66898Y-32362D01*
X66903Y-32351D01*
X66964Y-32262D01*
X67009Y-32168D01*
X67036Y-32068D01*
X67059Y-31974D01*
X67070Y-31890D01*
X67075Y-31857D01*
X67081Y-31824D01*
Y-31674D01*
X68091D01*
Y-31702D01*
D02*
G37*
G36*
X68846Y-34971D02*
X68957Y-34998D01*
X69051Y-35037D01*
X69129Y-35082D01*
X69190Y-35126D01*
X69234Y-35165D01*
X69257Y-35193D01*
X69268Y-35198D01*
Y-35204D01*
X69301Y-35254D01*
X69329Y-35304D01*
X69379Y-35415D01*
X69412Y-35537D01*
X69434Y-35653D01*
X69445Y-35759D01*
X69451Y-35803D01*
X69456Y-35848D01*
Y-38062D01*
X68385D01*
Y-36158D01*
X64783Y-37390D01*
Y-36147D01*
X68446Y-34998D01*
X68491Y-34987D01*
X68535Y-34982D01*
X68563Y-34976D01*
X68568D01*
X68574D01*
X68624Y-34971D01*
X68674Y-34965D01*
X68707Y-34960D01*
X68713D01*
X68718D01*
X68785D01*
X68846Y-34971D01*
D02*
G37*
G36*
X68102Y-38589D02*
X68219Y-38606D01*
X68330Y-38628D01*
X68430Y-38661D01*
X68529Y-38695D01*
X68618Y-38739D01*
X68701Y-38783D01*
X68779Y-38828D01*
X68851Y-38872D01*
X68907Y-38917D01*
X68962Y-38961D01*
X69007Y-38994D01*
X69040Y-39028D01*
X69062Y-39050D01*
X69079Y-39067D01*
X69085Y-39072D01*
X69162Y-39166D01*
X69234Y-39261D01*
X69295Y-39361D01*
X69345Y-39461D01*
X69390Y-39560D01*
X69423Y-39660D01*
X69456Y-39760D01*
X69478Y-39849D01*
X69495Y-39938D01*
X69512Y-40016D01*
X69523Y-40088D01*
X69529Y-40149D01*
Y-40199D01*
X69534Y-40232D01*
Y-40265D01*
X69529Y-40399D01*
X69517Y-40521D01*
X69495Y-40643D01*
X69462Y-40754D01*
X69429Y-40859D01*
X69390Y-40959D01*
X69351Y-41048D01*
X69312Y-41131D01*
X69268Y-41203D01*
X69229Y-41270D01*
X69190Y-41325D01*
X69157Y-41375D01*
X69129Y-41409D01*
X69107Y-41436D01*
X69090Y-41453D01*
X69085Y-41459D01*
X69001Y-41542D01*
X68913Y-41614D01*
X68818Y-41675D01*
X68724Y-41730D01*
X68629Y-41775D01*
X68541Y-41814D01*
X68452Y-41847D01*
X68369Y-41869D01*
X68285Y-41892D01*
X68213Y-41903D01*
X68147Y-41914D01*
X68091Y-41925D01*
X68047D01*
X68008Y-41930D01*
X67986D01*
X67980D01*
X66249D01*
X66126Y-41925D01*
X66010Y-41908D01*
X65899Y-41886D01*
X65793Y-41858D01*
X65693Y-41819D01*
X65605Y-41780D01*
X65521Y-41736D01*
X65444Y-41692D01*
X65377Y-41653D01*
X65316Y-41608D01*
X65261Y-41570D01*
X65216Y-41531D01*
X65183Y-41503D01*
X65161Y-41481D01*
X65144Y-41464D01*
X65139Y-41459D01*
X65061Y-41364D01*
X64994Y-41270D01*
X64933Y-41170D01*
X64883Y-41070D01*
X64844Y-40970D01*
X64805Y-40870D01*
X64778Y-40776D01*
X64755Y-40682D01*
X64739Y-40598D01*
X64722Y-40515D01*
X64711Y-40448D01*
X64706Y-40382D01*
Y-40332D01*
X64700Y-40299D01*
Y-40265D01*
X64706Y-40132D01*
X64717Y-40010D01*
X64739Y-39888D01*
X64772Y-39777D01*
X64805Y-39671D01*
X64839Y-39572D01*
X64883Y-39483D01*
X64922Y-39399D01*
X64961Y-39322D01*
X65005Y-39255D01*
X65039Y-39200D01*
X65077Y-39155D01*
X65105Y-39116D01*
X65127Y-39089D01*
X65139Y-39072D01*
X65144Y-39067D01*
X65227Y-38983D01*
X65322Y-38906D01*
X65410Y-38844D01*
X65505Y-38789D01*
X65599Y-38739D01*
X65688Y-38700D01*
X65777Y-38667D01*
X65865Y-38645D01*
X65943Y-38623D01*
X66015Y-38612D01*
X66082Y-38600D01*
X66137Y-38589D01*
X66187D01*
X66221Y-38584D01*
X66243D01*
X66249D01*
X67980D01*
X68102Y-38589D01*
D02*
G37*
G36*
X69456Y-43273D02*
X69451Y-43423D01*
X69440Y-43562D01*
X69423Y-43695D01*
X69395Y-43812D01*
X69368Y-43923D01*
X69334Y-44023D01*
X69301Y-44117D01*
X69262Y-44195D01*
X69229Y-44267D01*
X69190Y-44328D01*
X69157Y-44383D01*
X69129Y-44422D01*
X69101Y-44456D01*
X69085Y-44483D01*
X69073Y-44495D01*
X69068Y-44500D01*
X68990Y-44572D01*
X68907Y-44633D01*
X68818Y-44683D01*
X68724Y-44733D01*
X68624Y-44772D01*
X68524Y-44800D01*
X68430Y-44827D01*
X68335Y-44850D01*
X68241Y-44866D01*
X68158Y-44877D01*
X68085Y-44888D01*
X68019Y-44894D01*
X67963D01*
X67919Y-44900D01*
X67897D01*
X67886D01*
X64783D01*
Y-43734D01*
X66487D01*
Y-42441D01*
X67575D01*
Y-43734D01*
X67880D01*
X67963Y-43729D01*
X68036Y-43718D01*
X68097Y-43695D01*
X68152Y-43673D01*
X68191Y-43651D01*
X68219Y-43629D01*
X68235Y-43617D01*
X68241Y-43612D01*
X68285Y-43562D01*
X68313Y-43507D01*
X68335Y-43446D01*
X68352Y-43384D01*
X68363Y-43334D01*
X68369Y-43290D01*
Y-42441D01*
X69456D01*
Y-43273D01*
D02*
G37*
G36*
X66881Y-47197D02*
X66021D01*
Y-45443D01*
X66881D01*
Y-47197D01*
D02*
G37*
G36*
X69456Y-47824D02*
X69451Y-48046D01*
X69440Y-48252D01*
X69434Y-48341D01*
X69423Y-48429D01*
X69418Y-48513D01*
X69406Y-48590D01*
X69395Y-48657D01*
X69390Y-48718D01*
X69379Y-48768D01*
X69373Y-48812D01*
X69368Y-48851D01*
X69362Y-48873D01*
X69356Y-48890D01*
Y-48896D01*
X69318Y-49057D01*
X69268Y-49206D01*
X69218Y-49340D01*
X69168Y-49451D01*
X69146Y-49501D01*
X69123Y-49545D01*
X69107Y-49578D01*
X69090Y-49611D01*
X69073Y-49634D01*
X69068Y-49650D01*
X69057Y-49661D01*
Y-49667D01*
X68996Y-49761D01*
X68929Y-49845D01*
X68857Y-49928D01*
X68790Y-50006D01*
X68718Y-50078D01*
X68652Y-50139D01*
X68585Y-50200D01*
X68518Y-50250D01*
X68457Y-50300D01*
X68402Y-50339D01*
X68352Y-50377D01*
X68308Y-50405D01*
X68274Y-50427D01*
X68247Y-50444D01*
X68230Y-50450D01*
X68224Y-50455D01*
X68130Y-50505D01*
X68036Y-50544D01*
X67936Y-50583D01*
X67841Y-50616D01*
X67658Y-50666D01*
X67569Y-50683D01*
X67486Y-50699D01*
X67408Y-50710D01*
X67336Y-50716D01*
X67275Y-50722D01*
X67220Y-50727D01*
X67181Y-50733D01*
X67148D01*
X67125D01*
X67120D01*
X67009Y-50727D01*
X66898Y-50722D01*
X66692Y-50688D01*
X66593Y-50666D01*
X66504Y-50644D01*
X66415Y-50622D01*
X66337Y-50594D01*
X66265Y-50566D01*
X66204Y-50544D01*
X66143Y-50522D01*
X66099Y-50499D01*
X66060Y-50483D01*
X66032Y-50466D01*
X66015Y-50461D01*
X66010Y-50455D01*
X65827Y-50344D01*
X65666Y-50217D01*
X65527Y-50083D01*
X65460Y-50017D01*
X65405Y-49956D01*
X65355Y-49900D01*
X65305Y-49845D01*
X65266Y-49795D01*
X65238Y-49750D01*
X65211Y-49717D01*
X65194Y-49689D01*
X65183Y-49673D01*
X65177Y-49667D01*
X65105Y-49545D01*
X65044Y-49412D01*
X64994Y-49284D01*
X64955Y-49162D01*
X64922Y-49057D01*
X64905Y-49012D01*
X64894Y-48973D01*
X64889Y-48940D01*
X64883Y-48918D01*
X64878Y-48901D01*
Y-48896D01*
X64844Y-48718D01*
X64822Y-48535D01*
X64805Y-48352D01*
X64794Y-48185D01*
X64789Y-48113D01*
Y-47980D01*
X64783Y-47924D01*
Y-47702D01*
X65849D01*
Y-48046D01*
X65854Y-48158D01*
X65865Y-48263D01*
X65877Y-48363D01*
X65893Y-48457D01*
X65910Y-48540D01*
X65926Y-48618D01*
X65943Y-48690D01*
X65960Y-48751D01*
X65977Y-48807D01*
X65993Y-48851D01*
X66010Y-48890D01*
X66021Y-48923D01*
X66032Y-48946D01*
X66037Y-48957D01*
Y-48962D01*
X66076Y-49029D01*
X66121Y-49095D01*
X66165Y-49151D01*
X66210Y-49201D01*
X66309Y-49290D01*
X66404Y-49356D01*
X66487Y-49406D01*
X66526Y-49423D01*
X66559Y-49439D01*
X66581Y-49451D01*
X66604Y-49456D01*
X66615Y-49462D01*
X66620D01*
Y-47702D01*
X67664D01*
Y-49439D01*
X67797Y-49373D01*
X67908Y-49295D01*
X68002Y-49206D01*
X68080Y-49123D01*
X68141Y-49045D01*
X68185Y-48984D01*
X68202Y-48957D01*
X68208Y-48940D01*
X68219Y-48929D01*
Y-48923D01*
X68252Y-48851D01*
X68280Y-48779D01*
X68324Y-48618D01*
X68357Y-48457D01*
X68380Y-48302D01*
X68385Y-48230D01*
X68391Y-48163D01*
X68396Y-48102D01*
X68402Y-48046D01*
Y-47841D01*
X68396Y-47813D01*
Y-47736D01*
X68391Y-47714D01*
Y-47702D01*
X69456D01*
Y-47824D01*
D02*
G37*
G36*
X68036Y-51082D02*
X68158Y-51099D01*
X68269Y-51121D01*
X68380Y-51155D01*
X68480Y-51188D01*
X68579Y-51227D01*
X68668Y-51271D01*
X68746Y-51315D01*
X68818Y-51365D01*
X68885Y-51404D01*
X68940Y-51449D01*
X68985Y-51482D01*
X69018Y-51515D01*
X69046Y-51537D01*
X69062Y-51554D01*
X69068Y-51560D01*
X69151Y-51654D01*
X69223Y-51748D01*
X69284Y-51848D01*
X69340Y-51948D01*
X69384Y-52042D01*
X69423Y-52142D01*
X69456Y-52237D01*
X69478Y-52331D01*
X69501Y-52414D01*
X69517Y-52492D01*
X69523Y-52564D01*
X69534Y-52625D01*
Y-52675D01*
X69540Y-52709D01*
Y-52742D01*
X69534Y-52881D01*
X69517Y-53019D01*
X69495Y-53141D01*
X69462Y-53263D01*
X69429Y-53374D01*
X69390Y-53474D01*
X69345Y-53569D01*
X69301Y-53652D01*
X69251Y-53730D01*
X69212Y-53796D01*
X69168Y-53852D01*
X69134Y-53902D01*
X69101Y-53935D01*
X69079Y-53963D01*
X69062Y-53979D01*
X69057Y-53985D01*
X68962Y-54068D01*
X68862Y-54140D01*
X68763Y-54201D01*
X68657Y-54257D01*
X68552Y-54301D01*
X68446Y-54335D01*
X68341Y-54368D01*
X68241Y-54390D01*
X68152Y-54412D01*
X68063Y-54429D01*
X67986Y-54435D01*
X67919Y-54446D01*
X67869D01*
X67825Y-54451D01*
X67802D01*
X67791D01*
X64783D01*
Y-53286D01*
X67797D01*
X67902Y-53280D01*
X67991Y-53263D01*
X68074Y-53241D01*
X68135Y-53219D01*
X68191Y-53197D01*
X68230Y-53175D01*
X68252Y-53158D01*
X68258Y-53152D01*
X68313Y-53097D01*
X68352Y-53036D01*
X68385Y-52969D01*
X68402Y-52908D01*
X68413Y-52853D01*
X68424Y-52808D01*
Y-52770D01*
X68419Y-52692D01*
X68402Y-52620D01*
X68380Y-52559D01*
X68352Y-52509D01*
X68324Y-52464D01*
X68302Y-52437D01*
X68285Y-52414D01*
X68280Y-52409D01*
X68224Y-52359D01*
X68163Y-52325D01*
X68102Y-52298D01*
X68047Y-52281D01*
X67997Y-52270D01*
X67958Y-52264D01*
X67936D01*
X67924D01*
X67836Y-52270D01*
X67764Y-52292D01*
X67697Y-52320D01*
X67642Y-52348D01*
X67597Y-52381D01*
X67564Y-52409D01*
X67542Y-52431D01*
X67536Y-52437D01*
X67492Y-52503D01*
X67458Y-52581D01*
X67431Y-52658D01*
X67414Y-52736D01*
X67403Y-52803D01*
X67397Y-52853D01*
Y-53080D01*
X66282D01*
Y-52964D01*
X66287Y-52808D01*
X66298Y-52658D01*
X66321Y-52520D01*
X66354Y-52386D01*
X66387Y-52264D01*
X66421Y-52153D01*
X66465Y-52053D01*
X66504Y-51959D01*
X66543Y-51876D01*
X66587Y-51804D01*
X66620Y-51737D01*
X66659Y-51687D01*
X66687Y-51648D01*
X66709Y-51615D01*
X66720Y-51599D01*
X66726Y-51593D01*
X66815Y-51504D01*
X66903Y-51421D01*
X67003Y-51354D01*
X67098Y-51293D01*
X67198Y-51243D01*
X67297Y-51204D01*
X67392Y-51171D01*
X67486Y-51143D01*
X67575Y-51121D01*
X67653Y-51104D01*
X67725Y-51093D01*
X67786Y-51082D01*
X67836D01*
X67875Y-51077D01*
X67902D01*
X67908D01*
X68036Y-51082D01*
D02*
G37*
G36*
X67297Y-54945D02*
X67469Y-54967D01*
X67630Y-54995D01*
X67703Y-55012D01*
X67769Y-55028D01*
X67830Y-55050D01*
X67880Y-55067D01*
X67930Y-55078D01*
X67969Y-55095D01*
X68002Y-55106D01*
X68024Y-55117D01*
X68041Y-55123D01*
X68047D01*
X68208Y-55195D01*
X68352Y-55278D01*
X68485Y-55361D01*
X68602Y-55445D01*
X68652Y-55484D01*
X68696Y-55522D01*
X68729Y-55556D01*
X68763Y-55583D01*
X68790Y-55606D01*
X68807Y-55622D01*
X68818Y-55633D01*
X68824Y-55639D01*
X68946Y-55766D01*
X69051Y-55905D01*
X69140Y-56033D01*
X69218Y-56155D01*
X69273Y-56261D01*
X69295Y-56305D01*
X69318Y-56344D01*
X69334Y-56371D01*
X69340Y-56394D01*
X69351Y-56410D01*
Y-56416D01*
X69412Y-56582D01*
X69456Y-56743D01*
X69490Y-56899D01*
X69512Y-57043D01*
X69517Y-57104D01*
X69523Y-57160D01*
X69529Y-57209D01*
X69534Y-57254D01*
Y-57337D01*
X69529Y-57515D01*
X69506Y-57681D01*
X69478Y-57837D01*
X69462Y-57909D01*
X69445Y-57975D01*
X69423Y-58037D01*
X69406Y-58092D01*
X69395Y-58136D01*
X69379Y-58175D01*
X69368Y-58209D01*
X69356Y-58231D01*
X69351Y-58247D01*
Y-58253D01*
X69279Y-58408D01*
X69195Y-58558D01*
X69107Y-58691D01*
X69024Y-58802D01*
X68985Y-58852D01*
X68946Y-58897D01*
X68913Y-58936D01*
X68885Y-58969D01*
X68862Y-58997D01*
X68846Y-59013D01*
X68835Y-59024D01*
X68829Y-59030D01*
X68696Y-59152D01*
X68557Y-59257D01*
X68424Y-59346D01*
X68302Y-59424D01*
X68247Y-59452D01*
X68196Y-59479D01*
X68152Y-59502D01*
X68113Y-59524D01*
X68085Y-59540D01*
X68063Y-59546D01*
X68047Y-59557D01*
X68041D01*
X67880Y-59618D01*
X67714Y-59657D01*
X67558Y-59690D01*
X67419Y-59712D01*
X67353Y-59718D01*
X67297Y-59724D01*
X67247Y-59729D01*
X67203D01*
X67170Y-59735D01*
X67142D01*
X67125D01*
X67120D01*
X66942Y-59729D01*
X66770Y-59707D01*
X66615Y-59679D01*
X66543Y-59663D01*
X66476Y-59646D01*
X66415Y-59629D01*
X66360Y-59613D01*
X66309Y-59596D01*
X66271Y-59585D01*
X66237Y-59574D01*
X66215Y-59563D01*
X66198Y-59557D01*
X66193D01*
X66037Y-59479D01*
X65888Y-59396D01*
X65754Y-59307D01*
X65638Y-59224D01*
X65588Y-59185D01*
X65544Y-59146D01*
X65505Y-59113D01*
X65472Y-59085D01*
X65444Y-59063D01*
X65427Y-59047D01*
X65416Y-59035D01*
X65410Y-59030D01*
X65288Y-58897D01*
X65177Y-58763D01*
X65088Y-58630D01*
X65011Y-58514D01*
X64983Y-58458D01*
X64955Y-58408D01*
X64933Y-58364D01*
X64911Y-58325D01*
X64894Y-58297D01*
X64889Y-58270D01*
X64878Y-58258D01*
Y-58253D01*
X64816Y-58086D01*
X64778Y-57925D01*
X64744Y-57770D01*
X64722Y-57631D01*
X64717Y-57570D01*
X64711Y-57509D01*
X64706Y-57459D01*
Y-57420D01*
X64700Y-57382D01*
Y-57337D01*
X64706Y-57160D01*
X64728Y-56988D01*
X64755Y-56832D01*
X64772Y-56760D01*
X64789Y-56693D01*
X64805Y-56632D01*
X64822Y-56582D01*
X64839Y-56532D01*
X64850Y-56494D01*
X64861Y-56460D01*
X64872Y-56438D01*
X64878Y-56421D01*
Y-56416D01*
X64955Y-56255D01*
X65039Y-56111D01*
X65127Y-55977D01*
X65211Y-55861D01*
X65255Y-55811D01*
X65288Y-55766D01*
X65322Y-55733D01*
X65355Y-55700D01*
X65377Y-55672D01*
X65394Y-55655D01*
X65405Y-55644D01*
X65410Y-55639D01*
X65538Y-55517D01*
X65671Y-55417D01*
X65799Y-55328D01*
X65921Y-55256D01*
X66026Y-55195D01*
X66071Y-55173D01*
X66110Y-55156D01*
X66137Y-55139D01*
X66165Y-55128D01*
X66176Y-55123D01*
X66182D01*
X66348Y-55062D01*
X66515Y-55017D01*
X66676Y-54984D01*
X66820Y-54962D01*
X66881Y-54956D01*
X66942Y-54951D01*
X66992Y-54945D01*
X67036Y-54940D01*
X67070D01*
X67098D01*
X67114D01*
X67120D01*
X67297Y-54945D01*
D02*
G37*
G36*
X69456Y-60223D02*
X69451Y-60445D01*
X69440Y-60650D01*
X69434Y-60739D01*
X69423Y-60828D01*
X69418Y-60911D01*
X69406Y-60989D01*
X69395Y-61056D01*
X69390Y-61117D01*
X69379Y-61167D01*
X69373Y-61211D01*
X69368Y-61250D01*
X69362Y-61272D01*
X69356Y-61289D01*
Y-61294D01*
X69318Y-61455D01*
X69268Y-61605D01*
X69218Y-61738D01*
X69168Y-61849D01*
X69146Y-61899D01*
X69123Y-61944D01*
X69107Y-61977D01*
X69090Y-62010D01*
X69073Y-62032D01*
X69068Y-62049D01*
X69057Y-62060D01*
Y-62066D01*
X68996Y-62160D01*
X68929Y-62243D01*
X68857Y-62327D01*
X68790Y-62404D01*
X68718Y-62476D01*
X68652Y-62537D01*
X68585Y-62599D01*
X68518Y-62648D01*
X68457Y-62699D01*
X68402Y-62737D01*
X68352Y-62776D01*
X68308Y-62804D01*
X68274Y-62826D01*
X68247Y-62843D01*
X68230Y-62848D01*
X68224Y-62854D01*
X68130Y-62904D01*
X68036Y-62943D01*
X67936Y-62981D01*
X67841Y-63015D01*
X67658Y-63065D01*
X67569Y-63081D01*
X67486Y-63098D01*
X67408Y-63109D01*
X67336Y-63115D01*
X67275Y-63120D01*
X67220Y-63126D01*
X67181Y-63131D01*
X67148D01*
X67125D01*
X67120D01*
X67009Y-63126D01*
X66898Y-63120D01*
X66692Y-63087D01*
X66593Y-63065D01*
X66504Y-63043D01*
X66415Y-63020D01*
X66337Y-62993D01*
X66265Y-62965D01*
X66204Y-62943D01*
X66143Y-62920D01*
X66099Y-62898D01*
X66060Y-62882D01*
X66032Y-62865D01*
X66015Y-62859D01*
X66010Y-62854D01*
X65827Y-62743D01*
X65666Y-62615D01*
X65527Y-62482D01*
X65460Y-62415D01*
X65405Y-62354D01*
X65355Y-62299D01*
X65305Y-62243D01*
X65266Y-62193D01*
X65238Y-62149D01*
X65211Y-62116D01*
X65194Y-62088D01*
X65183Y-62071D01*
X65177Y-62066D01*
X65105Y-61944D01*
X65044Y-61810D01*
X64994Y-61683D01*
X64955Y-61561D01*
X64922Y-61455D01*
X64905Y-61411D01*
X64894Y-61372D01*
X64889Y-61339D01*
X64883Y-61317D01*
X64878Y-61300D01*
Y-61294D01*
X64844Y-61117D01*
X64822Y-60934D01*
X64805Y-60750D01*
X64794Y-60584D01*
X64789Y-60512D01*
Y-60378D01*
X64783Y-60323D01*
Y-60101D01*
X65871D01*
Y-60367D01*
X65877Y-60506D01*
X65888Y-60634D01*
X65899Y-60756D01*
X65921Y-60873D01*
X65943Y-60972D01*
X65971Y-61072D01*
X66004Y-61156D01*
X66032Y-61233D01*
X66060Y-61305D01*
X66093Y-61366D01*
X66121Y-61416D01*
X66143Y-61455D01*
X66165Y-61488D01*
X66182Y-61516D01*
X66187Y-61527D01*
X66193Y-61533D01*
X66254Y-61605D01*
X66326Y-61666D01*
X66398Y-61722D01*
X66476Y-61766D01*
X66548Y-61805D01*
X66626Y-61838D01*
X66703Y-61866D01*
X66776Y-61888D01*
X66848Y-61905D01*
X66909Y-61916D01*
X66970Y-61927D01*
X67020Y-61933D01*
X67064D01*
X67092Y-61938D01*
X67114D01*
X67120D01*
X67231Y-61933D01*
X67331Y-61922D01*
X67425Y-61899D01*
X67519Y-61877D01*
X67597Y-61844D01*
X67675Y-61810D01*
X67741Y-61772D01*
X67808Y-61733D01*
X67858Y-61699D01*
X67908Y-61661D01*
X67947Y-61627D01*
X67980Y-61594D01*
X68008Y-61572D01*
X68024Y-61550D01*
X68036Y-61538D01*
X68041Y-61533D01*
X68097Y-61455D01*
X68152Y-61366D01*
X68191Y-61272D01*
X68230Y-61178D01*
X68263Y-61083D01*
X68291Y-60984D01*
X68330Y-60800D01*
X68341Y-60711D01*
X68352Y-60628D01*
X68357Y-60556D01*
X68363Y-60495D01*
X68369Y-60440D01*
Y-60245D01*
X68363Y-60218D01*
Y-60134D01*
X68357Y-60112D01*
Y-60101D01*
X69456D01*
Y-60223D01*
D02*
G37*
G36*
X66215Y-63548D02*
X66343Y-63570D01*
X66459Y-63598D01*
X66559Y-63636D01*
X66642Y-63675D01*
X66676Y-63692D01*
X66703Y-63703D01*
X66726Y-63720D01*
X66742Y-63725D01*
X66754Y-63736D01*
X66759D01*
X66876Y-63814D01*
X66975Y-63908D01*
X67070Y-64003D01*
X67148Y-64097D01*
X67214Y-64180D01*
X67242Y-64214D01*
X67264Y-64247D01*
X67281Y-64269D01*
X67292Y-64291D01*
X67303Y-64302D01*
Y-64308D01*
X67830Y-65185D01*
X67864Y-65240D01*
X67897Y-65285D01*
X67930Y-65329D01*
X67958Y-65357D01*
X67980Y-65385D01*
X67997Y-65401D01*
X68008Y-65412D01*
X68013Y-65418D01*
X68047Y-65440D01*
X68085Y-65457D01*
X68141Y-65479D01*
X68169Y-65485D01*
X68185Y-65490D01*
X68196D01*
X68202D01*
X68235Y-65485D01*
X68269Y-65474D01*
X68308Y-65440D01*
X68335Y-65412D01*
X68341Y-65401D01*
Y-65396D01*
X68357Y-65351D01*
X68369Y-65301D01*
X68374Y-65240D01*
X68380Y-65185D01*
X68385Y-65129D01*
Y-63820D01*
X69456D01*
Y-65002D01*
X69451Y-65107D01*
Y-65207D01*
X69445Y-65296D01*
X69440Y-65379D01*
X69434Y-65451D01*
X69429Y-65518D01*
X69423Y-65579D01*
X69412Y-65634D01*
X69406Y-65679D01*
X69401Y-65718D01*
X69395Y-65745D01*
X69390Y-65773D01*
Y-65790D01*
X69384Y-65795D01*
Y-65801D01*
X69351Y-65901D01*
X69318Y-65990D01*
X69279Y-66073D01*
X69240Y-66139D01*
X69201Y-66195D01*
X69173Y-66239D01*
X69151Y-66262D01*
X69146Y-66273D01*
X69079Y-66345D01*
X69007Y-66406D01*
X68935Y-66461D01*
X68868Y-66506D01*
X68807Y-66539D01*
X68763Y-66561D01*
X68729Y-66578D01*
X68724Y-66584D01*
X68718D01*
X68624Y-66617D01*
X68524Y-66639D01*
X68435Y-66661D01*
X68346Y-66672D01*
X68274Y-66678D01*
X68213Y-66683D01*
X68191D01*
X68174D01*
X68169D01*
X68163D01*
X68047Y-66678D01*
X67936Y-66656D01*
X67830Y-66628D01*
X67736Y-66595D01*
X67658Y-66561D01*
X67597Y-66533D01*
X67575Y-66522D01*
X67558Y-66511D01*
X67553Y-66506D01*
X67547D01*
X67442Y-66434D01*
X67347Y-66350D01*
X67259Y-66267D01*
X67192Y-66189D01*
X67137Y-66117D01*
X67092Y-66062D01*
X67081Y-66040D01*
X67070Y-66023D01*
X67059Y-66017D01*
Y-66012D01*
X66515Y-65113D01*
X66476Y-65057D01*
X66443Y-65007D01*
X66409Y-64968D01*
X66376Y-64935D01*
X66354Y-64907D01*
X66332Y-64891D01*
X66321Y-64880D01*
X66315Y-64874D01*
X66282Y-64846D01*
X66249Y-64824D01*
X66215Y-64813D01*
X66187Y-64802D01*
X66160Y-64796D01*
X66143Y-64791D01*
X66132D01*
X66126D01*
X66088Y-64796D01*
X66054Y-64802D01*
X65999Y-64830D01*
X65965Y-64857D01*
X65960Y-64863D01*
X65954Y-64868D01*
X65938Y-64902D01*
X65921Y-64935D01*
X65904Y-65007D01*
Y-65040D01*
X65899Y-65068D01*
Y-66700D01*
X64783D01*
Y-65240D01*
X64789Y-65146D01*
Y-65057D01*
X64794Y-64974D01*
X64800Y-64902D01*
X64805Y-64830D01*
X64811Y-64769D01*
X64816Y-64713D01*
X64822Y-64669D01*
X64828Y-64624D01*
Y-64591D01*
X64833Y-64563D01*
X64839Y-64541D01*
X64844Y-64524D01*
Y-64513D01*
X64872Y-64419D01*
X64905Y-64330D01*
X64939Y-64252D01*
X64972Y-64180D01*
X65005Y-64125D01*
X65033Y-64080D01*
X65050Y-64058D01*
X65055Y-64047D01*
X65122Y-63964D01*
X65194Y-63886D01*
X65266Y-63825D01*
X65338Y-63770D01*
X65399Y-63731D01*
X65449Y-63697D01*
X65483Y-63681D01*
X65488Y-63675D01*
X65494D01*
X65599Y-63631D01*
X65699Y-63598D01*
X65799Y-63570D01*
X65888Y-63553D01*
X65965Y-63542D01*
X66026Y-63537D01*
X66049D01*
X66065D01*
X66076D01*
X66082D01*
X66215Y-63548D01*
D02*
G37*
G36*
X-65148Y65086D02*
X-65244Y65032D01*
X-65335Y64969D01*
X-65422Y64899D01*
X-65497Y64828D01*
X-65568Y64766D01*
X-65593Y64736D01*
X-65618Y64716D01*
X-65639Y64695D01*
X-65651Y64678D01*
X-65659Y64670D01*
X-65664Y64666D01*
X-65759Y64553D01*
X-65843Y64433D01*
X-65922Y64316D01*
X-65988Y64208D01*
X-66013Y64162D01*
X-66038Y64117D01*
X-66063Y64075D01*
X-66080Y64042D01*
X-66092Y64013D01*
X-66105Y63992D01*
X-66109Y63979D01*
X-66113Y63975D01*
X-66566D01*
X-66533Y64058D01*
X-66496Y64146D01*
X-66454Y64229D01*
X-66417Y64304D01*
X-66379Y64370D01*
X-66367Y64399D01*
X-66350Y64425D01*
X-66342Y64445D01*
X-66333Y64458D01*
X-66325Y64466D01*
Y64470D01*
X-66263Y64570D01*
X-66205Y64657D01*
X-66150Y64736D01*
X-66101Y64799D01*
X-66059Y64853D01*
X-66030Y64890D01*
X-66009Y64911D01*
X-66001Y64920D01*
X-69000D01*
Y65390D01*
X-65148D01*
Y65086D01*
D02*
G37*
G36*
X-68463Y62390D02*
X-69000D01*
Y62927D01*
X-68463D01*
Y62390D01*
D02*
G37*
G36*
X-65148Y60614D02*
X-65244Y60560D01*
X-65335Y60497D01*
X-65422Y60427D01*
X-65497Y60356D01*
X-65568Y60294D01*
X-65593Y60264D01*
X-65618Y60244D01*
X-65639Y60223D01*
X-65651Y60206D01*
X-65659Y60198D01*
X-65664Y60194D01*
X-65759Y60081D01*
X-65843Y59961D01*
X-65922Y59844D01*
X-65988Y59736D01*
X-66013Y59690D01*
X-66038Y59645D01*
X-66063Y59603D01*
X-66080Y59570D01*
X-66092Y59541D01*
X-66105Y59520D01*
X-66109Y59507D01*
X-66113Y59503D01*
X-66566D01*
X-66533Y59586D01*
X-66496Y59674D01*
X-66454Y59757D01*
X-66417Y59832D01*
X-66379Y59898D01*
X-66367Y59927D01*
X-66350Y59952D01*
X-66342Y59973D01*
X-66333Y59986D01*
X-66325Y59994D01*
Y59998D01*
X-66263Y60098D01*
X-66205Y60185D01*
X-66150Y60264D01*
X-66101Y60327D01*
X-66059Y60381D01*
X-66030Y60418D01*
X-66009Y60439D01*
X-66001Y60448D01*
X-69000D01*
Y60918D01*
X-65148D01*
Y60614D01*
D02*
G37*
G36*
X-66217Y58372D02*
X-67918Y57752D01*
X-68031Y57710D01*
X-68131Y57677D01*
X-68222Y57648D01*
X-68297Y57623D01*
X-68359Y57602D01*
X-68384Y57594D01*
X-68409Y57590D01*
X-68426Y57585D01*
X-68438Y57581D01*
X-68443Y57577D01*
X-68447D01*
X-68339Y57544D01*
X-68235Y57515D01*
X-68139Y57486D01*
X-68056Y57456D01*
X-67985Y57432D01*
X-67956Y57423D01*
X-67931Y57415D01*
X-67910Y57407D01*
X-67898Y57402D01*
X-67889Y57398D01*
X-67885D01*
X-66217Y56799D01*
Y56300D01*
X-69000Y57353D01*
Y57802D01*
X-66217Y58858D01*
Y58372D01*
D02*
G37*
%LPC*%
G36*
X65240Y61473D02*
X64772D01*
X64699Y61389D01*
X64640Y61311D01*
X64586Y61237D01*
X64541Y61173D01*
X64512Y61119D01*
X64487Y61079D01*
X64472Y61055D01*
X64467Y61045D01*
X64438Y60971D01*
X64413Y60902D01*
X64398Y60843D01*
X64384Y60789D01*
X64379Y60745D01*
X64374Y60715D01*
Y60686D01*
X64379Y60602D01*
X64384Y60568D01*
X64389Y60538D01*
X64394Y60514D01*
X64398Y60494D01*
X64403Y60484D01*
Y60479D01*
X64433Y60420D01*
X64463Y60381D01*
X64482Y60351D01*
X64492Y60346D01*
Y60341D01*
X64536Y60307D01*
X64576Y60287D01*
X64605Y60273D01*
X64610Y60268D01*
X64615D01*
X64664Y60253D01*
X64713Y60248D01*
X64733Y60243D01*
X64743D01*
X64753D01*
X64758D01*
X64836Y60248D01*
X64871Y60258D01*
X64900Y60263D01*
X64925Y60273D01*
X64945Y60277D01*
X64955Y60282D01*
X64959D01*
X65018Y60317D01*
X65068Y60356D01*
X65097Y60386D01*
X65102Y60395D01*
X65107Y60400D01*
X65151Y60464D01*
X65181Y60533D01*
X65191Y60558D01*
X65201Y60582D01*
X65205Y60597D01*
Y60602D01*
X65225Y60701D01*
X65230Y60750D01*
X65235Y60794D01*
X65240Y60833D01*
Y61473D01*
D02*
G37*
G36*
X65668Y52725D02*
X65624D01*
X65589D01*
X65570D01*
X65560D01*
Y51343D01*
X65624Y51348D01*
X65688Y51357D01*
X65742Y51367D01*
X65791Y51377D01*
X65830Y51387D01*
X65860Y51397D01*
X65879Y51407D01*
X65884D01*
X65939Y51431D01*
X65988Y51456D01*
X66027Y51480D01*
X66066Y51505D01*
X66096Y51525D01*
X66116Y51539D01*
X66130Y51549D01*
X66135Y51554D01*
X66204Y51623D01*
X66253Y51692D01*
X66273Y51722D01*
X66288Y51746D01*
X66293Y51761D01*
X66298Y51766D01*
X66317Y51815D01*
X66332Y51859D01*
X66342Y51904D01*
X66352Y51948D01*
Y51982D01*
X66357Y52012D01*
Y52100D01*
X66347Y52159D01*
X66337Y52209D01*
X66327Y52258D01*
X66317Y52292D01*
X66307Y52317D01*
X66303Y52337D01*
X66298Y52341D01*
X66273Y52391D01*
X66248Y52430D01*
X66219Y52469D01*
X66194Y52504D01*
X66170Y52528D01*
X66150Y52548D01*
X66135Y52558D01*
X66130Y52563D01*
X66047Y52622D01*
X65968Y52661D01*
X65934Y52676D01*
X65904Y52686D01*
X65884Y52691D01*
X65879D01*
X65825Y52706D01*
X65771Y52715D01*
X65717Y52720D01*
X65668Y52725D01*
D02*
G37*
G36*
X66219Y46713D02*
X64999D01*
X64890Y46634D01*
X64797Y46560D01*
X64718Y46492D01*
X64654Y46433D01*
X64600Y46383D01*
X64566Y46344D01*
X64546Y46319D01*
X64536Y46310D01*
X64487Y46241D01*
X64448Y46172D01*
X64423Y46108D01*
X64403Y46054D01*
X64394Y46009D01*
X64389Y45975D01*
X64384Y45955D01*
Y45945D01*
X64389Y45896D01*
X64394Y45852D01*
X64423Y45773D01*
X64458Y45704D01*
X64502Y45645D01*
X64546Y45601D01*
X64586Y45567D01*
X64610Y45547D01*
X64615Y45542D01*
X64620D01*
X64669Y45517D01*
X64718Y45498D01*
X64832Y45463D01*
X64950Y45439D01*
X65068Y45424D01*
X65171Y45414D01*
X65215Y45409D01*
X65255Y45404D01*
X65289D01*
X65314D01*
X65328D01*
X65333D01*
X65427Y45409D01*
X65510Y45414D01*
X65594Y45424D01*
X65668Y45439D01*
X65737Y45453D01*
X65796Y45468D01*
X65850Y45488D01*
X65904Y45508D01*
X65943Y45527D01*
X65983Y45547D01*
X66012Y45562D01*
X66042Y45576D01*
X66062Y45591D01*
X66076Y45601D01*
X66081Y45611D01*
X66086D01*
X66130Y45650D01*
X66165Y45695D01*
X66199Y45744D01*
X66224Y45793D01*
X66268Y45891D01*
X66298Y45985D01*
X66312Y46068D01*
X66322Y46103D01*
Y46132D01*
X66327Y46162D01*
Y46196D01*
X66322Y46295D01*
X66317Y46339D01*
X66312Y46378D01*
X66307Y46413D01*
X66303Y46437D01*
X66298Y46457D01*
Y46462D01*
X66273Y46560D01*
X66263Y46600D01*
X66248Y46639D01*
X66239Y46669D01*
X66229Y46693D01*
X66224Y46708D01*
X66219Y46713D01*
D02*
G37*
G36*
X65850Y41070D02*
X65820D01*
X65796D01*
X65771D01*
X65756D01*
X65747D01*
X65742D01*
X65638D01*
X65545Y41060D01*
X65456Y41055D01*
X65378Y41045D01*
X65314Y41035D01*
X65264Y41030D01*
X65245Y41025D01*
X65230Y41021D01*
X65225D01*
X65220D01*
X65132Y41001D01*
X65053Y40976D01*
X64979Y40952D01*
X64920Y40927D01*
X64866Y40902D01*
X64832Y40883D01*
X64807Y40873D01*
X64797Y40868D01*
X64733Y40829D01*
X64674Y40784D01*
X64625Y40740D01*
X64586Y40696D01*
X64551Y40661D01*
X64526Y40632D01*
X64512Y40607D01*
X64507Y40602D01*
X64472Y40543D01*
X64443Y40479D01*
X64423Y40415D01*
X64413Y40356D01*
X64403Y40302D01*
X64398Y40263D01*
Y40224D01*
X64403Y40145D01*
X64413Y40071D01*
X64428Y40007D01*
X64448Y39948D01*
X64467Y39904D01*
X64482Y39869D01*
X64492Y39850D01*
X64497Y39840D01*
X64541Y39786D01*
X64586Y39731D01*
X64630Y39687D01*
X64674Y39653D01*
X64718Y39618D01*
X64748Y39599D01*
X64767Y39584D01*
X64777Y39579D01*
X64846Y39544D01*
X64920Y39515D01*
X64994Y39490D01*
X65063Y39471D01*
X65122Y39451D01*
X65166Y39441D01*
X65186Y39436D01*
X65201D01*
X65205Y39431D01*
X65210D01*
X65309Y39417D01*
X65402Y39402D01*
X65496Y39392D01*
X65584Y39387D01*
X65658D01*
X65688Y39382D01*
X65717D01*
X65737D01*
X65751D01*
X65761D01*
X65766D01*
X65865D01*
X65963Y39392D01*
X66047Y39397D01*
X66125Y39407D01*
X66189Y39417D01*
X66239Y39421D01*
X66258Y39426D01*
X66273Y39431D01*
X66278D01*
X66283D01*
X66371Y39456D01*
X66455Y39481D01*
X66529Y39505D01*
X66588Y39530D01*
X66642Y39549D01*
X66676Y39569D01*
X66701Y39579D01*
X66711Y39584D01*
X66775Y39623D01*
X66834Y39667D01*
X66883Y39712D01*
X66922Y39751D01*
X66952Y39790D01*
X66977Y39820D01*
X66991Y39840D01*
X66996Y39845D01*
X67031Y39909D01*
X67060Y39973D01*
X67080Y40036D01*
X67090Y40096D01*
X67100Y40145D01*
X67105Y40189D01*
Y40224D01*
X67100Y40307D01*
X67090Y40381D01*
X67075Y40450D01*
X67055Y40504D01*
X67036Y40548D01*
X67021Y40583D01*
X67011Y40607D01*
X67006Y40612D01*
X66967Y40671D01*
X66922Y40720D01*
X66873Y40770D01*
X66829Y40804D01*
X66790Y40839D01*
X66755Y40858D01*
X66736Y40873D01*
X66726Y40878D01*
X66657Y40912D01*
X66583Y40947D01*
X66509Y40971D01*
X66440Y40991D01*
X66381Y41006D01*
X66337Y41016D01*
X66317Y41021D01*
X66303Y41025D01*
X66298D01*
X66293D01*
X66199Y41040D01*
X66101Y41050D01*
X66012Y41060D01*
X65924Y41065D01*
X65850Y41070D01*
D02*
G37*
G36*
X72711Y58424D02*
X72681D01*
X72676D01*
X72672D01*
X72598Y58419D01*
X72534Y58404D01*
X72475Y58380D01*
X72426Y58355D01*
X72381Y58326D01*
X72352Y58306D01*
X72327Y58286D01*
X72322Y58281D01*
X72268Y58222D01*
X72214Y58154D01*
X72165Y58080D01*
X72120Y58006D01*
X72086Y57942D01*
X72057Y57888D01*
X72047Y57868D01*
X72037Y57853D01*
X72032Y57844D01*
Y57839D01*
X72062Y57780D01*
X72091Y57721D01*
X72116Y57671D01*
X72140Y57632D01*
X72155Y57598D01*
X72170Y57568D01*
X72180Y57553D01*
X72184Y57548D01*
X72239Y57465D01*
X72263Y57430D01*
X72288Y57401D01*
X72303Y57376D01*
X72317Y57357D01*
X72327Y57347D01*
X72332Y57342D01*
X72391Y57288D01*
X72445Y57248D01*
X72465Y57234D01*
X72480Y57229D01*
X72490Y57219D01*
X72494D01*
X72563Y57194D01*
X72622Y57184D01*
X72647Y57179D01*
X72667D01*
X72676D01*
X72681D01*
X72760Y57184D01*
X72829Y57204D01*
X72888Y57229D01*
X72937Y57263D01*
X72972Y57293D01*
X73001Y57317D01*
X73016Y57337D01*
X73021Y57342D01*
X73060Y57411D01*
X73085Y57484D01*
X73105Y57558D01*
X73119Y57632D01*
X73129Y57701D01*
X73134Y57750D01*
Y57799D01*
X73129Y57908D01*
X73114Y57996D01*
X73100Y58080D01*
X73080Y58144D01*
X73055Y58193D01*
X73041Y58232D01*
X73026Y58252D01*
X73021Y58262D01*
X72972Y58316D01*
X72918Y58355D01*
X72859Y58385D01*
X72804Y58404D01*
X72750Y58414D01*
X72711Y58424D01*
D02*
G37*
G36*
X70900Y58473D02*
X70881D01*
X70871D01*
X70866D01*
X70822D01*
X70782Y58464D01*
X70743Y58459D01*
X70713Y58449D01*
X70684Y58439D01*
X70664Y58429D01*
X70654Y58424D01*
X70649Y58419D01*
X70590Y58375D01*
X70541Y58326D01*
X70526Y58306D01*
X70512Y58291D01*
X70507Y58281D01*
X70502Y58277D01*
X70463Y58208D01*
X70438Y58139D01*
X70428Y58109D01*
X70418Y58085D01*
X70413Y58070D01*
Y58065D01*
X70398Y57972D01*
X70389Y57927D01*
Y57888D01*
X70384Y57853D01*
Y57799D01*
X70389Y57696D01*
X70394Y57652D01*
X70398Y57612D01*
X70403Y57578D01*
X70408Y57553D01*
X70413Y57539D01*
Y57534D01*
X70443Y57450D01*
X70458Y57411D01*
X70477Y57381D01*
X70492Y57357D01*
X70502Y57337D01*
X70507Y57327D01*
X70512Y57322D01*
X70561Y57263D01*
X70610Y57219D01*
X70635Y57199D01*
X70649Y57189D01*
X70659Y57184D01*
X70664Y57179D01*
X70733Y57150D01*
X70802Y57135D01*
X70827D01*
X70851Y57130D01*
X70866D01*
X70871D01*
X70950Y57135D01*
X70984Y57140D01*
X71013Y57145D01*
X71038Y57150D01*
X71058Y57155D01*
X71068Y57160D01*
X71073D01*
X71141Y57189D01*
X71201Y57229D01*
X71220Y57243D01*
X71240Y57258D01*
X71250Y57263D01*
X71255Y57268D01*
X71319Y57332D01*
X71373Y57396D01*
X71397Y57420D01*
X71412Y57445D01*
X71422Y57460D01*
X71427Y57465D01*
X71456Y57514D01*
X71491Y57563D01*
X71520Y57612D01*
X71545Y57662D01*
X71565Y57701D01*
X71584Y57735D01*
X71594Y57755D01*
X71599Y57765D01*
X71565Y57839D01*
X71530Y57908D01*
X71501Y57967D01*
X71471Y58016D01*
X71451Y58055D01*
X71432Y58085D01*
X71422Y58104D01*
X71417Y58109D01*
X71382Y58158D01*
X71353Y58203D01*
X71319Y58237D01*
X71294Y58272D01*
X71269Y58291D01*
X71250Y58311D01*
X71240Y58321D01*
X71235Y58326D01*
X71201Y58355D01*
X71171Y58380D01*
X71112Y58414D01*
X71087Y58424D01*
X71068Y58434D01*
X71058Y58439D01*
X71053D01*
X70989Y58459D01*
X70925Y58468D01*
X70900Y58473D01*
D02*
G37*
G36*
X71791Y55634D02*
X71771D01*
X71751D01*
X71742D01*
X71737D01*
X71619D01*
X71505Y55625D01*
X71407Y55615D01*
X71319Y55605D01*
X71250Y55595D01*
X71220Y55590D01*
X71196Y55585D01*
X71176Y55580D01*
X71161D01*
X71156Y55576D01*
X71151D01*
X71063Y55551D01*
X70979Y55526D01*
X70905Y55502D01*
X70846Y55477D01*
X70797Y55453D01*
X70758Y55433D01*
X70738Y55423D01*
X70728Y55418D01*
X70669Y55379D01*
X70615Y55339D01*
X70571Y55295D01*
X70531Y55261D01*
X70507Y55226D01*
X70482Y55197D01*
X70472Y55177D01*
X70467Y55172D01*
X70438Y55118D01*
X70418Y55059D01*
X70403Y55005D01*
X70394Y54956D01*
X70389Y54911D01*
X70384Y54877D01*
Y54847D01*
X70389Y54749D01*
X70398Y54710D01*
X70408Y54675D01*
X70413Y54641D01*
X70423Y54621D01*
X70428Y54606D01*
Y54601D01*
X70467Y54527D01*
X70492Y54493D01*
X70512Y54464D01*
X70526Y54439D01*
X70541Y54419D01*
X70551Y54409D01*
X70556Y54404D01*
X70620Y54346D01*
X70684Y54301D01*
X70713Y54286D01*
X70733Y54272D01*
X70748Y54267D01*
X70753Y54262D01*
X70841Y54223D01*
X70886Y54203D01*
X70925Y54193D01*
X70959Y54178D01*
X70984Y54168D01*
X71004Y54163D01*
X71009D01*
X72086Y55610D01*
X72022Y55615D01*
X71968Y55620D01*
X71948Y55625D01*
X71929D01*
X71919D01*
X71914D01*
X71850Y55630D01*
X71791Y55634D01*
D02*
G37*
G36*
X72524Y55526D02*
X72519D01*
X71451Y54075D01*
X71505Y54070D01*
X71555D01*
X71574Y54065D01*
X71589D01*
X71599D01*
X71604D01*
X71668D01*
X71717D01*
X71742D01*
X71756D01*
X71766D01*
X71771D01*
X71889Y54070D01*
X72002Y54075D01*
X72101Y54085D01*
X72184Y54095D01*
X72253Y54104D01*
X72307Y54109D01*
X72327Y54114D01*
X72342Y54119D01*
X72347D01*
X72352D01*
X72445Y54144D01*
X72529Y54168D01*
X72598Y54193D01*
X72662Y54223D01*
X72711Y54242D01*
X72750Y54262D01*
X72770Y54272D01*
X72780Y54277D01*
X72839Y54316D01*
X72893Y54360D01*
X72937Y54400D01*
X72972Y54439D01*
X73001Y54473D01*
X73021Y54498D01*
X73031Y54518D01*
X73036Y54523D01*
X73065Y54577D01*
X73085Y54636D01*
X73105Y54690D01*
X73114Y54739D01*
X73119Y54783D01*
X73124Y54818D01*
Y54847D01*
X73119Y54946D01*
X73109Y54985D01*
X73105Y55019D01*
X73095Y55049D01*
X73085Y55069D01*
X73080Y55084D01*
Y55088D01*
X73041Y55162D01*
X73021Y55197D01*
X73001Y55226D01*
X72982Y55246D01*
X72967Y55265D01*
X72957Y55275D01*
X72952Y55280D01*
X72888Y55339D01*
X72829Y55384D01*
X72804Y55398D01*
X72785Y55413D01*
X72770Y55418D01*
X72765Y55423D01*
X72681Y55467D01*
X72642Y55482D01*
X72603Y55497D01*
X72568Y55511D01*
X72544Y55521D01*
X72524Y55526D01*
D02*
G37*
G36*
X71791Y43826D02*
X71771D01*
X71751D01*
X71742D01*
X71737D01*
X71619D01*
X71505Y43817D01*
X71407Y43807D01*
X71319Y43797D01*
X71250Y43787D01*
X71220Y43782D01*
X71196Y43777D01*
X71176Y43772D01*
X71161D01*
X71156Y43767D01*
X71151D01*
X71063Y43743D01*
X70979Y43718D01*
X70905Y43694D01*
X70846Y43669D01*
X70797Y43644D01*
X70758Y43625D01*
X70738Y43615D01*
X70728Y43610D01*
X70669Y43571D01*
X70615Y43531D01*
X70571Y43487D01*
X70531Y43453D01*
X70507Y43418D01*
X70482Y43389D01*
X70472Y43369D01*
X70467Y43364D01*
X70438Y43310D01*
X70418Y43251D01*
X70403Y43197D01*
X70394Y43148D01*
X70389Y43103D01*
X70384Y43069D01*
Y43039D01*
X70389Y42941D01*
X70398Y42902D01*
X70408Y42867D01*
X70413Y42833D01*
X70423Y42813D01*
X70428Y42798D01*
Y42793D01*
X70467Y42720D01*
X70492Y42685D01*
X70512Y42656D01*
X70526Y42631D01*
X70541Y42611D01*
X70551Y42601D01*
X70556Y42597D01*
X70620Y42538D01*
X70684Y42493D01*
X70713Y42478D01*
X70733Y42464D01*
X70748Y42459D01*
X70753Y42454D01*
X70841Y42415D01*
X70886Y42395D01*
X70925Y42385D01*
X70959Y42370D01*
X70984Y42360D01*
X71004Y42355D01*
X71009D01*
X72086Y43802D01*
X72022Y43807D01*
X71968Y43812D01*
X71948Y43817D01*
X71929D01*
X71919D01*
X71914D01*
X71850Y43822D01*
X71791Y43826D01*
D02*
G37*
G36*
X72524Y43718D02*
X72519D01*
X71451Y42267D01*
X71505Y42262D01*
X71555D01*
X71574Y42257D01*
X71589D01*
X71599D01*
X71604D01*
X71668D01*
X71717D01*
X71742D01*
X71756D01*
X71766D01*
X71771D01*
X71889Y42262D01*
X72002Y42267D01*
X72101Y42277D01*
X72184Y42287D01*
X72253Y42296D01*
X72307Y42301D01*
X72327Y42306D01*
X72342Y42311D01*
X72347D01*
X72352D01*
X72445Y42336D01*
X72529Y42360D01*
X72598Y42385D01*
X72662Y42415D01*
X72711Y42434D01*
X72750Y42454D01*
X72770Y42464D01*
X72780Y42469D01*
X72839Y42508D01*
X72893Y42552D01*
X72937Y42592D01*
X72972Y42631D01*
X73001Y42665D01*
X73021Y42690D01*
X73031Y42710D01*
X73036Y42715D01*
X73065Y42769D01*
X73085Y42828D01*
X73105Y42882D01*
X73114Y42931D01*
X73119Y42975D01*
X73124Y43010D01*
Y43039D01*
X73119Y43138D01*
X73109Y43177D01*
X73105Y43211D01*
X73095Y43241D01*
X73085Y43261D01*
X73080Y43275D01*
Y43280D01*
X73041Y43354D01*
X73021Y43389D01*
X73001Y43418D01*
X72982Y43438D01*
X72967Y43457D01*
X72957Y43467D01*
X72952Y43472D01*
X72888Y43531D01*
X72829Y43576D01*
X72804Y43590D01*
X72785Y43605D01*
X72770Y43610D01*
X72765Y43615D01*
X72681Y43659D01*
X72642Y43674D01*
X72603Y43689D01*
X72568Y43703D01*
X72544Y43713D01*
X72524Y43718D01*
D02*
G37*
G36*
X67941Y-39699D02*
X67908D01*
X67902D01*
X67897D01*
X66354D01*
X66260Y-39705D01*
X66176Y-39727D01*
X66099Y-39749D01*
X66037Y-39783D01*
X65988Y-39810D01*
X65949Y-39838D01*
X65921Y-39860D01*
X65915Y-39866D01*
X65860Y-39927D01*
X65816Y-39993D01*
X65788Y-40060D01*
X65766Y-40127D01*
X65754Y-40182D01*
X65749Y-40227D01*
X65743Y-40254D01*
Y-40265D01*
X65749Y-40349D01*
X65771Y-40426D01*
X65799Y-40493D01*
X65832Y-40554D01*
X65860Y-40598D01*
X65888Y-40632D01*
X65910Y-40654D01*
X65915Y-40659D01*
X65982Y-40709D01*
X66054Y-40748D01*
X66132Y-40776D01*
X66198Y-40793D01*
X66260Y-40804D01*
X66309Y-40815D01*
X66343D01*
X66348D01*
X66354D01*
X67897D01*
X67991Y-40809D01*
X68080Y-40793D01*
X68152Y-40765D01*
X68219Y-40737D01*
X68269Y-40709D01*
X68308Y-40682D01*
X68335Y-40665D01*
X68341Y-40659D01*
X68402Y-40598D01*
X68446Y-40532D01*
X68474Y-40465D01*
X68496Y-40404D01*
X68507Y-40349D01*
X68518Y-40304D01*
Y-40265D01*
X68513Y-40182D01*
X68491Y-40104D01*
X68463Y-40032D01*
X68430Y-39977D01*
X68396Y-39927D01*
X68369Y-39893D01*
X68346Y-39871D01*
X68341Y-39866D01*
X68274Y-39810D01*
X68196Y-39771D01*
X68124Y-39738D01*
X68052Y-39721D01*
X67991Y-39710D01*
X67941Y-39699D01*
D02*
G37*
G36*
X67175Y-56133D02*
X67148D01*
X67131D01*
X67125D01*
X67031Y-56138D01*
X66937Y-56150D01*
X66848Y-56166D01*
X66765Y-56188D01*
X66687Y-56216D01*
X66609Y-56244D01*
X66543Y-56277D01*
X66482Y-56310D01*
X66426Y-56344D01*
X66376Y-56377D01*
X66332Y-56405D01*
X66298Y-56432D01*
X66271Y-56455D01*
X66249Y-56471D01*
X66237Y-56482D01*
X66232Y-56488D01*
X66165Y-56555D01*
X66110Y-56627D01*
X66060Y-56693D01*
X66021Y-56766D01*
X65982Y-56838D01*
X65954Y-56910D01*
X65910Y-57043D01*
X65899Y-57104D01*
X65888Y-57160D01*
X65877Y-57209D01*
X65871Y-57254D01*
X65865Y-57287D01*
Y-57337D01*
X65871Y-57426D01*
X65882Y-57515D01*
X65899Y-57598D01*
X65921Y-57676D01*
X65982Y-57820D01*
X66015Y-57887D01*
X66049Y-57948D01*
X66082Y-57998D01*
X66115Y-58048D01*
X66149Y-58086D01*
X66176Y-58125D01*
X66198Y-58148D01*
X66215Y-58170D01*
X66226Y-58181D01*
X66232Y-58186D01*
X66304Y-58247D01*
X66376Y-58303D01*
X66448Y-58353D01*
X66526Y-58392D01*
X66604Y-58425D01*
X66676Y-58453D01*
X66815Y-58497D01*
X66881Y-58514D01*
X66937Y-58525D01*
X66992Y-58530D01*
X67036Y-58536D01*
X67075Y-58542D01*
X67103D01*
X67120D01*
X67125D01*
X67220Y-58536D01*
X67314Y-58525D01*
X67403Y-58508D01*
X67486Y-58486D01*
X67564Y-58458D01*
X67642Y-58430D01*
X67708Y-58397D01*
X67769Y-58364D01*
X67825Y-58336D01*
X67875Y-58303D01*
X67919Y-58275D01*
X67952Y-58247D01*
X67980Y-58225D01*
X68002Y-58209D01*
X68013Y-58197D01*
X68019Y-58192D01*
X68085Y-58125D01*
X68141Y-58053D01*
X68191Y-57981D01*
X68230Y-57909D01*
X68269Y-57837D01*
X68296Y-57770D01*
X68341Y-57631D01*
X68357Y-57570D01*
X68369Y-57515D01*
X68374Y-57465D01*
X68380Y-57420D01*
X68385Y-57387D01*
Y-57337D01*
X68380Y-57243D01*
X68369Y-57154D01*
X68352Y-57071D01*
X68330Y-56993D01*
X68269Y-56843D01*
X68235Y-56782D01*
X68202Y-56721D01*
X68169Y-56666D01*
X68135Y-56621D01*
X68102Y-56577D01*
X68074Y-56543D01*
X68052Y-56516D01*
X68036Y-56499D01*
X68024Y-56488D01*
X68019Y-56482D01*
X67947Y-56421D01*
X67875Y-56366D01*
X67802Y-56322D01*
X67725Y-56283D01*
X67647Y-56244D01*
X67575Y-56216D01*
X67436Y-56177D01*
X67370Y-56161D01*
X67314Y-56150D01*
X67259Y-56144D01*
X67214Y-56138D01*
X67175Y-56133D01*
D02*
G37*
%LPD*%
D15*
X15157Y28256D02*
Y29043D01*
X15945Y28256D01*
X14370D02*
X15157Y29043D01*
X14370Y28256D02*
X15945D01*
D16*
X-71400Y-60850D02*
X-69500Y-56450D01*
X-66000Y-60050D01*
X-70000Y-59750D02*
X-66000Y-60050D01*
X-70000Y-59750D02*
X-66400Y-56150D01*
X-69700Y-55850D02*
X-66400Y-56150D01*
X-69700Y-55850D02*
X-67400Y-47850D01*
X-64900Y-60850D01*
D17*
X18216Y32610D02*
X22941D01*
X-22941D02*
X-18217D01*
X-22941D02*
Y39303D01*
X-54567Y-54567D02*
X54567D01*
X-54567D02*
Y54567D01*
X54567Y-54567D02*
Y54567D01*
X-54567D02*
X54567D01*
X-62047Y-60276D02*
X62047D01*
X-62047D02*
X-62047Y72480D01*
X62047Y-60276D02*
X62047Y72480D01*
X-62047D02*
X62047D01*
X-22441Y76417D02*
X22441D01*
X22941Y32610D02*
Y39303D01*
D84*
X19685Y43358D02*
Y55169D01*
X-19685Y43358D02*
Y55169D01*
M02*
