G04*
G04 #@! TF.GenerationSoftware,Altium Limited,Altium Designer,19.1.5 (86)*
G04*
G04 Layer_Physical_Order=1*
G04 Layer_Color=255*
%FSLAX25Y25*%
%MOIN*%
G70*
G01*
G75*
%ADD14C,0.01500*%
%ADD15C,0.00600*%
%ADD17C,0.01000*%
G04:AMPARAMS|DCode=21|XSize=7.87mil|YSize=20.67mil|CornerRadius=1.97mil|HoleSize=0mil|Usage=FLASHONLY|Rotation=90.000|XOffset=0mil|YOffset=0mil|HoleType=Round|Shape=RoundedRectangle|*
%AMROUNDEDRECTD21*
21,1,0.00787,0.01673,0,0,90.0*
21,1,0.00394,0.02067,0,0,90.0*
1,1,0.00394,0.00837,0.00197*
1,1,0.00394,0.00837,-0.00197*
1,1,0.00394,-0.00837,-0.00197*
1,1,0.00394,-0.00837,0.00197*
%
%ADD21ROUNDEDRECTD21*%
G04:AMPARAMS|DCode=22|XSize=15.75mil|YSize=20.67mil|CornerRadius=3.94mil|HoleSize=0mil|Usage=FLASHONLY|Rotation=90.000|XOffset=0mil|YOffset=0mil|HoleType=Round|Shape=RoundedRectangle|*
%AMROUNDEDRECTD22*
21,1,0.01575,0.01280,0,0,90.0*
21,1,0.00787,0.02067,0,0,90.0*
1,1,0.00787,0.00640,0.00394*
1,1,0.00787,0.00640,-0.00394*
1,1,0.00787,-0.00640,-0.00394*
1,1,0.00787,-0.00640,0.00394*
%
%ADD22ROUNDEDRECTD22*%
G04:AMPARAMS|DCode=23|XSize=35.43mil|YSize=31.5mil|CornerRadius=3.94mil|HoleSize=0mil|Usage=FLASHONLY|Rotation=90.000|XOffset=0mil|YOffset=0mil|HoleType=Round|Shape=RoundedRectangle|*
%AMROUNDEDRECTD23*
21,1,0.03543,0.02362,0,0,90.0*
21,1,0.02756,0.03150,0,0,90.0*
1,1,0.00787,0.01181,0.01378*
1,1,0.00787,0.01181,-0.01378*
1,1,0.00787,-0.01181,-0.01378*
1,1,0.00787,-0.01181,0.01378*
%
%ADD23ROUNDEDRECTD23*%
G04:AMPARAMS|DCode=24|XSize=35mil|YSize=35mil|CornerRadius=4.38mil|HoleSize=0mil|Usage=FLASHONLY|Rotation=270.000|XOffset=0mil|YOffset=0mil|HoleType=Round|Shape=RoundedRectangle|*
%AMROUNDEDRECTD24*
21,1,0.03500,0.02625,0,0,270.0*
21,1,0.02625,0.03500,0,0,270.0*
1,1,0.00875,-0.01313,-0.01313*
1,1,0.00875,-0.01313,0.01313*
1,1,0.00875,0.01313,0.01313*
1,1,0.00875,0.01313,-0.01313*
%
%ADD24ROUNDEDRECTD24*%
G04:AMPARAMS|DCode=25|XSize=27.56mil|YSize=35.43mil|CornerRadius=6.89mil|HoleSize=0mil|Usage=FLASHONLY|Rotation=90.000|XOffset=0mil|YOffset=0mil|HoleType=Round|Shape=RoundedRectangle|*
%AMROUNDEDRECTD25*
21,1,0.02756,0.02165,0,0,90.0*
21,1,0.01378,0.03543,0,0,90.0*
1,1,0.01378,0.01083,0.00689*
1,1,0.01378,0.01083,-0.00689*
1,1,0.01378,-0.01083,-0.00689*
1,1,0.01378,-0.01083,0.00689*
%
%ADD25ROUNDEDRECTD25*%
G04:AMPARAMS|DCode=26|XSize=35mil|YSize=35mil|CornerRadius=4.38mil|HoleSize=0mil|Usage=FLASHONLY|Rotation=180.000|XOffset=0mil|YOffset=0mil|HoleType=Round|Shape=RoundedRectangle|*
%AMROUNDEDRECTD26*
21,1,0.03500,0.02625,0,0,180.0*
21,1,0.02625,0.03500,0,0,180.0*
1,1,0.00875,-0.01313,0.01313*
1,1,0.00875,0.01313,0.01313*
1,1,0.00875,0.01313,-0.01313*
1,1,0.00875,-0.01313,-0.01313*
%
%ADD26ROUNDEDRECTD26*%
%ADD27O,0.01417X0.04961*%
%ADD28O,0.05709X0.02362*%
G04:AMPARAMS|DCode=29|XSize=23.62mil|YSize=39.37mil|CornerRadius=5.91mil|HoleSize=0mil|Usage=FLASHONLY|Rotation=90.000|XOffset=0mil|YOffset=0mil|HoleType=Round|Shape=RoundedRectangle|*
%AMROUNDEDRECTD29*
21,1,0.02362,0.02756,0,0,90.0*
21,1,0.01181,0.03937,0,0,90.0*
1,1,0.01181,0.01378,0.00591*
1,1,0.01181,0.01378,-0.00591*
1,1,0.01181,-0.01378,-0.00591*
1,1,0.01181,-0.01378,0.00591*
%
%ADD29ROUNDEDRECTD29*%
%ADD30R,0.02756X0.01102*%
%ADD31R,0.01102X0.02756*%
G04:AMPARAMS|DCode=32|XSize=23.62mil|YSize=39.37mil|CornerRadius=5.91mil|HoleSize=0mil|Usage=FLASHONLY|Rotation=180.000|XOffset=0mil|YOffset=0mil|HoleType=Round|Shape=RoundedRectangle|*
%AMROUNDEDRECTD32*
21,1,0.02362,0.02756,0,0,180.0*
21,1,0.01181,0.03937,0,0,180.0*
1,1,0.01181,-0.00591,0.01378*
1,1,0.01181,0.00591,0.01378*
1,1,0.01181,0.00591,-0.01378*
1,1,0.01181,-0.00591,-0.01378*
%
%ADD32ROUNDEDRECTD32*%
G04:AMPARAMS|DCode=33|XSize=59.06mil|YSize=11.81mil|CornerRadius=2.95mil|HoleSize=0mil|Usage=FLASHONLY|Rotation=270.000|XOffset=0mil|YOffset=0mil|HoleType=Round|Shape=RoundedRectangle|*
%AMROUNDEDRECTD33*
21,1,0.05906,0.00591,0,0,270.0*
21,1,0.05315,0.01181,0,0,270.0*
1,1,0.00591,-0.00295,-0.02657*
1,1,0.00591,-0.00295,0.02657*
1,1,0.00591,0.00295,0.02657*
1,1,0.00591,0.00295,-0.02657*
%
%ADD33ROUNDEDRECTD33*%
G04:AMPARAMS|DCode=34|XSize=66.93mil|YSize=122.05mil|CornerRadius=16.73mil|HoleSize=0mil|Usage=FLASHONLY|Rotation=180.000|XOffset=0mil|YOffset=0mil|HoleType=Round|Shape=RoundedRectangle|*
%AMROUNDEDRECTD34*
21,1,0.06693,0.08858,0,0,180.0*
21,1,0.03347,0.12205,0,0,180.0*
1,1,0.03346,-0.01673,0.04429*
1,1,0.03346,0.01673,0.04429*
1,1,0.03346,0.01673,-0.04429*
1,1,0.03346,-0.01673,-0.04429*
%
%ADD34ROUNDEDRECTD34*%
G04:AMPARAMS|DCode=35|XSize=47.24mil|YSize=23.62mil|CornerRadius=2.95mil|HoleSize=0mil|Usage=FLASHONLY|Rotation=180.000|XOffset=0mil|YOffset=0mil|HoleType=Round|Shape=RoundedRectangle|*
%AMROUNDEDRECTD35*
21,1,0.04724,0.01772,0,0,180.0*
21,1,0.04134,0.02362,0,0,180.0*
1,1,0.00591,-0.02067,0.00886*
1,1,0.00591,0.02067,0.00886*
1,1,0.00591,0.02067,-0.00886*
1,1,0.00591,-0.02067,-0.00886*
%
%ADD35ROUNDEDRECTD35*%
G04:AMPARAMS|DCode=36|XSize=31.5mil|YSize=35.43mil|CornerRadius=3.94mil|HoleSize=0mil|Usage=FLASHONLY|Rotation=180.000|XOffset=0mil|YOffset=0mil|HoleType=Round|Shape=RoundedRectangle|*
%AMROUNDEDRECTD36*
21,1,0.03150,0.02756,0,0,180.0*
21,1,0.02362,0.03543,0,0,180.0*
1,1,0.00787,-0.01181,0.01378*
1,1,0.00787,0.01181,0.01378*
1,1,0.00787,0.01181,-0.01378*
1,1,0.00787,-0.01181,-0.01378*
%
%ADD36ROUNDEDRECTD36*%
G04:AMPARAMS|DCode=37|XSize=23.62mil|YSize=23.62mil|CornerRadius=2.36mil|HoleSize=0mil|Usage=FLASHONLY|Rotation=270.000|XOffset=0mil|YOffset=0mil|HoleType=Round|Shape=RoundedRectangle|*
%AMROUNDEDRECTD37*
21,1,0.02362,0.01890,0,0,270.0*
21,1,0.01890,0.02362,0,0,270.0*
1,1,0.00472,-0.00945,-0.00945*
1,1,0.00472,-0.00945,0.00945*
1,1,0.00472,0.00945,0.00945*
1,1,0.00472,0.00945,-0.00945*
%
%ADD37ROUNDEDRECTD37*%
G04:AMPARAMS|DCode=38|XSize=42.5mil|YSize=55mil|CornerRadius=4.25mil|HoleSize=0mil|Usage=FLASHONLY|Rotation=180.000|XOffset=0mil|YOffset=0mil|HoleType=Round|Shape=RoundedRectangle|*
%AMROUNDEDRECTD38*
21,1,0.04250,0.04650,0,0,180.0*
21,1,0.03400,0.05500,0,0,180.0*
1,1,0.00850,-0.01700,0.02325*
1,1,0.00850,0.01700,0.02325*
1,1,0.00850,0.01700,-0.02325*
1,1,0.00850,-0.01700,-0.02325*
%
%ADD38ROUNDEDRECTD38*%
G04:AMPARAMS|DCode=39|XSize=31.5mil|YSize=11.81mil|CornerRadius=2.95mil|HoleSize=0mil|Usage=FLASHONLY|Rotation=270.000|XOffset=0mil|YOffset=0mil|HoleType=Round|Shape=RoundedRectangle|*
%AMROUNDEDRECTD39*
21,1,0.03150,0.00591,0,0,270.0*
21,1,0.02559,0.01181,0,0,270.0*
1,1,0.00591,-0.00295,-0.01280*
1,1,0.00591,-0.00295,0.01280*
1,1,0.00591,0.00295,0.01280*
1,1,0.00591,0.00295,-0.01280*
%
%ADD39ROUNDEDRECTD39*%
G04:AMPARAMS|DCode=40|XSize=31.5mil|YSize=11.81mil|CornerRadius=2.95mil|HoleSize=0mil|Usage=FLASHONLY|Rotation=180.000|XOffset=0mil|YOffset=0mil|HoleType=Round|Shape=RoundedRectangle|*
%AMROUNDEDRECTD40*
21,1,0.03150,0.00591,0,0,180.0*
21,1,0.02559,0.01181,0,0,180.0*
1,1,0.00591,-0.01280,0.00295*
1,1,0.00591,0.01280,0.00295*
1,1,0.00591,0.01280,-0.00295*
1,1,0.00591,-0.01280,-0.00295*
%
%ADD40ROUNDEDRECTD40*%
G04:AMPARAMS|DCode=41|XSize=23.62mil|YSize=23.62mil|CornerRadius=2.36mil|HoleSize=0mil|Usage=FLASHONLY|Rotation=180.000|XOffset=0mil|YOffset=0mil|HoleType=Round|Shape=RoundedRectangle|*
%AMROUNDEDRECTD41*
21,1,0.02362,0.01890,0,0,180.0*
21,1,0.01890,0.02362,0,0,180.0*
1,1,0.00472,-0.00945,0.00945*
1,1,0.00472,0.00945,0.00945*
1,1,0.00472,0.00945,-0.00945*
1,1,0.00472,-0.00945,-0.00945*
%
%ADD41ROUNDEDRECTD41*%
G04:AMPARAMS|DCode=42|XSize=42.5mil|YSize=55mil|CornerRadius=4.25mil|HoleSize=0mil|Usage=FLASHONLY|Rotation=270.000|XOffset=0mil|YOffset=0mil|HoleType=Round|Shape=RoundedRectangle|*
%AMROUNDEDRECTD42*
21,1,0.04250,0.04650,0,0,270.0*
21,1,0.03400,0.05500,0,0,270.0*
1,1,0.00850,-0.02325,-0.01700*
1,1,0.00850,-0.02325,0.01700*
1,1,0.00850,0.02325,0.01700*
1,1,0.00850,0.02325,-0.01700*
%
%ADD42ROUNDEDRECTD42*%
%ADD43C,0.03937*%
G04:AMPARAMS|DCode=71|XSize=220.47mil|YSize=220.47mil|CornerRadius=5.51mil|HoleSize=0mil|Usage=FLASHONLY|Rotation=0.000|XOffset=0mil|YOffset=0mil|HoleType=Round|Shape=RoundedRectangle|*
%AMROUNDEDRECTD71*
21,1,0.22047,0.20945,0,0,0.0*
21,1,0.20945,0.22047,0,0,0.0*
1,1,0.01102,0.10472,-0.10472*
1,1,0.01102,-0.10472,-0.10472*
1,1,0.01102,-0.10472,0.10472*
1,1,0.01102,0.10472,0.10472*
%
%ADD71ROUNDEDRECTD71*%
%ADD72C,0.01968*%
%ADD73C,0.01200*%
%ADD74C,0.02400*%
%ADD75C,0.01300*%
%ADD76C,0.00900*%
%ADD77O,0.03937X0.06299*%
%ADD78O,0.03937X0.08268*%
%ADD79C,0.02559*%
%ADD80C,0.02362*%
%ADD81C,0.01968*%
G36*
X59552Y73282D02*
X61760Y72691D01*
X63872Y71816D01*
X65852Y70673D01*
X67665Y69282D01*
X69282Y67665D01*
X70673Y65852D01*
X71816Y63872D01*
X72691Y61760D01*
X73282Y59552D01*
X73580Y57285D01*
X73580Y56142D01*
X73580Y56142D01*
X73580Y56142D01*
X73580Y35310D01*
X72328Y34059D01*
X71786Y34223D01*
X71772Y34290D01*
X71575Y34586D01*
X71278Y34784D01*
X70929Y34854D01*
X66795D01*
X66446Y34784D01*
X66150Y34586D01*
X65952Y34290D01*
X65882Y33941D01*
Y32169D01*
X65952Y31820D01*
X66150Y31524D01*
X66446Y31326D01*
X66795Y31256D01*
X70929D01*
X71276Y30971D01*
Y17029D01*
X70929Y16744D01*
X66795D01*
X66446Y16674D01*
X66150Y16476D01*
X65952Y16180D01*
X65882Y15831D01*
Y14059D01*
X65952Y13710D01*
X66150Y13414D01*
X66446Y13216D01*
X66795Y13146D01*
X70929D01*
X71276Y12861D01*
Y-12861D01*
X70929Y-13146D01*
X66795D01*
X66446Y-13216D01*
X66150Y-13414D01*
X65952Y-13710D01*
X65882Y-14059D01*
Y-15831D01*
X65952Y-16180D01*
X66150Y-16476D01*
X66446Y-16674D01*
X66795Y-16744D01*
X70929D01*
X71276Y-17029D01*
Y-30971D01*
X70929Y-31256D01*
X66795D01*
X66446Y-31326D01*
X66150Y-31524D01*
X65952Y-31820D01*
X65882Y-32169D01*
Y-33941D01*
X65952Y-34290D01*
X66150Y-34586D01*
X66324Y-34703D01*
X66181Y-35203D01*
X65532D01*
X64180Y-33851D01*
X63883Y-33652D01*
X63532Y-33582D01*
X62809D01*
X62718Y-33455D01*
X62714Y-33442D01*
X62866Y-32800D01*
X62886Y-32787D01*
X63105Y-32459D01*
X63182Y-32071D01*
Y-29315D01*
X63105Y-28927D01*
X62886Y-28598D01*
X62557Y-28379D01*
X62169Y-28302D01*
X59807D01*
X59419Y-28379D01*
X59091Y-28598D01*
X58871Y-28927D01*
X58794Y-29315D01*
Y-32071D01*
X58871Y-32459D01*
X59091Y-32787D01*
X59419Y-33007D01*
X59521Y-33027D01*
X59714Y-33574D01*
X59508Y-33882D01*
X59385Y-34500D01*
X59508Y-35118D01*
X59858Y-35642D01*
X60382Y-35992D01*
X61000Y-36115D01*
X61618Y-35992D01*
X62142Y-35642D01*
X62292Y-35418D01*
X63151D01*
X64234Y-36500D01*
Y-37945D01*
X64299Y-38271D01*
X64452Y-38500D01*
X64397Y-38724D01*
X64261Y-39000D01*
X62099D01*
X61876Y-38908D01*
X61700Y-38872D01*
X61528Y-38820D01*
X61144Y-38782D01*
X61083Y-38788D01*
X61024Y-38776D01*
X48046D01*
X47894Y-38276D01*
X48312Y-37997D01*
X48815Y-37245D01*
X48991Y-36358D01*
Y-27500D01*
X48815Y-26613D01*
X48312Y-25861D01*
X47587Y-25376D01*
X47581Y-25339D01*
X47798Y-24876D01*
X48359D01*
X48452Y-25016D01*
X48729Y-25201D01*
X49055Y-25266D01*
X50945D01*
X51271Y-25201D01*
X51548Y-25016D01*
X51641Y-24876D01*
X60500D01*
X61027Y-24772D01*
X61473Y-24473D01*
X61764Y-24039D01*
X64201Y-21601D01*
X64816Y-21693D01*
X65074Y-22080D01*
X65728Y-22517D01*
X66500Y-22670D01*
X67272Y-22517D01*
X67926Y-22080D01*
X68363Y-21425D01*
X68517Y-20653D01*
X68363Y-19882D01*
X67926Y-19228D01*
X67272Y-18790D01*
X66500Y-18637D01*
X65728Y-18790D01*
X65529Y-18924D01*
X65087Y-18688D01*
Y18688D01*
X65529Y18924D01*
X65728Y18790D01*
X66500Y18637D01*
X67272Y18790D01*
X67926Y19228D01*
X68363Y19882D01*
X68517Y20653D01*
X68363Y21425D01*
X67926Y22080D01*
X67272Y22517D01*
X66500Y22670D01*
X65728Y22517D01*
X65529Y22383D01*
X65087Y22619D01*
Y25381D01*
X65529Y25617D01*
X65728Y25483D01*
X66500Y25330D01*
X67272Y25483D01*
X67926Y25920D01*
X68363Y26575D01*
X68517Y27347D01*
X68363Y28118D01*
X67926Y28773D01*
X67272Y29210D01*
X66500Y29363D01*
X65728Y29210D01*
X65529Y29076D01*
X65087Y29312D01*
Y33187D01*
X64991Y33675D01*
X64714Y34088D01*
X63901Y34901D01*
X63746Y35005D01*
X63554Y35379D01*
X63637Y35633D01*
X63701Y35729D01*
X63766Y36055D01*
Y37945D01*
X63701Y38271D01*
X63516Y38548D01*
X63275Y38709D01*
Y39262D01*
X63303Y39267D01*
X63579Y39452D01*
X63764Y39729D01*
X63829Y40055D01*
Y41945D01*
X63764Y42271D01*
X63579Y42548D01*
X63303Y42733D01*
X63290Y42735D01*
Y43500D01*
X63449Y43606D01*
X63592Y43821D01*
X63594Y43821D01*
X64147D01*
X64148Y43821D01*
X64291Y43606D01*
X64685Y43343D01*
X65150Y43251D01*
X66331D01*
X66795Y43343D01*
X67189Y43606D01*
X67452Y44000D01*
X67545Y44465D01*
Y46632D01*
X68430Y47517D01*
X68452Y47515D01*
X68729Y47330D01*
X69055Y47265D01*
X70945D01*
X71271Y47330D01*
X71548Y47515D01*
X71733Y47792D01*
X71798Y48118D01*
Y50008D01*
X71733Y50334D01*
X71548Y50611D01*
X71315Y50766D01*
X71291Y51032D01*
X71315Y51297D01*
X71548Y51452D01*
X71733Y51729D01*
X71798Y52055D01*
Y53945D01*
X71733Y54271D01*
X71548Y54548D01*
X71271Y54733D01*
X70945Y54798D01*
X69055D01*
X68729Y54733D01*
X68452Y54548D01*
X68267Y54271D01*
X68256Y54214D01*
X64200D01*
X63791Y54713D01*
X63804Y54779D01*
Y57535D01*
X63712Y58000D01*
X63449Y58394D01*
X63275Y58510D01*
Y59234D01*
X63945D01*
X64271Y59299D01*
X64548Y59484D01*
X64733Y59760D01*
X64798Y60087D01*
Y61976D01*
X64733Y62303D01*
X64548Y62579D01*
X64315Y62735D01*
X64291Y63000D01*
X64315Y63265D01*
X64548Y63421D01*
X64730Y63694D01*
X65270D01*
X65452Y63421D01*
X65729Y63236D01*
X66055Y63171D01*
X67945D01*
X68271Y63236D01*
X68548Y63421D01*
X68733Y63697D01*
X68797Y64024D01*
Y65913D01*
X68733Y66240D01*
X68548Y66516D01*
X68271Y66701D01*
X67945Y66766D01*
X66055D01*
X65729Y66701D01*
X65452Y66516D01*
X65270Y66243D01*
X64730D01*
X64548Y66516D01*
X64271Y66701D01*
X63945Y66766D01*
X62055D01*
X61729Y66701D01*
X61452Y66516D01*
X61270Y66243D01*
X59969D01*
X59481Y66146D01*
X59067Y65870D01*
X57011Y63814D01*
X56413Y64412D01*
X56344Y64459D01*
X55797Y65005D01*
Y65913D01*
X55733Y66240D01*
X55548Y66516D01*
X55271Y66701D01*
X54945Y66766D01*
X54000D01*
Y73580D01*
X56142D01*
X56142Y73580D01*
X56142Y73580D01*
X57285Y73580D01*
X59552Y73282D01*
D02*
G37*
G36*
X-56142Y73580D02*
X-56142Y73580D01*
X-56142Y73580D01*
X53351Y73580D01*
Y66766D01*
X53055D01*
X52729Y66701D01*
X52452Y66516D01*
X52267Y66240D01*
X52202Y65913D01*
Y64024D01*
X52267Y63697D01*
X52452Y63421D01*
X52685Y63265D01*
X52709Y63000D01*
X52685Y62735D01*
X52452Y62579D01*
X51880Y62617D01*
X51797Y62676D01*
Y62976D01*
X51733Y63303D01*
X51548Y63579D01*
X51271Y63764D01*
X50945Y63829D01*
X49228D01*
X47545Y65512D01*
Y67535D01*
X47452Y68000D01*
X47189Y68394D01*
X46795Y68657D01*
X46331Y68749D01*
X45150D01*
X44685Y68657D01*
X44291Y68394D01*
X44028Y68000D01*
X43936Y67535D01*
Y64780D01*
X44028Y64315D01*
X44291Y63921D01*
X44685Y63658D01*
X44800Y63635D01*
X44750Y63135D01*
X39250D01*
X39200Y63635D01*
X39315Y63658D01*
X39709Y63921D01*
X39972Y64315D01*
X40064Y64780D01*
Y67535D01*
X39972Y68000D01*
X39709Y68394D01*
X39369Y68621D01*
Y69312D01*
X39579Y69452D01*
X39764Y69729D01*
X39829Y70055D01*
Y71945D01*
X39764Y72271D01*
X39579Y72548D01*
X39303Y72733D01*
X38976Y72798D01*
X37087D01*
X36760Y72733D01*
X36484Y72548D01*
X36299Y72271D01*
X35808Y72365D01*
X35618Y72492D01*
X35000Y72615D01*
X34382Y72492D01*
X33858Y72142D01*
X33508Y71618D01*
X33385Y71000D01*
X33508Y70382D01*
X33858Y69858D01*
X34382Y69508D01*
X35000Y69385D01*
X35618Y69508D01*
X35808Y69634D01*
X36299Y69729D01*
X36484Y69452D01*
X36760Y69267D01*
X36922Y69235D01*
Y68468D01*
X36811Y68394D01*
X36548Y68000D01*
X36455Y67535D01*
Y64780D01*
X36548Y64315D01*
X36811Y63921D01*
X37205Y63658D01*
X37669Y63566D01*
X37901D01*
X37950Y63066D01*
X37598Y62996D01*
X37002Y62598D01*
X33631Y59226D01*
X33170Y59473D01*
X33194Y59595D01*
Y62350D01*
X33117Y62738D01*
X32897Y63067D01*
X32696Y63202D01*
X32696Y63202D01*
X32298Y63798D01*
X30798Y65298D01*
X30202Y65696D01*
X29500Y65835D01*
X25211D01*
X25060Y66061D01*
X24717Y66290D01*
X24313Y66370D01*
X21688D01*
X21283Y66290D01*
X20940Y66061D01*
X20710Y65717D01*
X20630Y65312D01*
Y62687D01*
X20710Y62283D01*
X20940Y61940D01*
X21283Y61710D01*
X21688Y61630D01*
X24313D01*
X24717Y61710D01*
X25060Y61940D01*
X25211Y62165D01*
X28740D01*
X28806Y62099D01*
Y61266D01*
X26900D01*
X26197Y61127D01*
X25705Y60798D01*
X25524D01*
X25197Y60733D01*
X24921Y60548D01*
X24736Y60271D01*
X24671Y59945D01*
Y59190D01*
X24633Y59000D01*
Y55000D01*
X24671Y54810D01*
Y54055D01*
X24736Y53729D01*
X24921Y53452D01*
X25197Y53267D01*
X25524Y53202D01*
X26279D01*
X26469Y53165D01*
X30511D01*
X30687Y53130D01*
X33312D01*
X33717Y53210D01*
X34060Y53439D01*
X34290Y53783D01*
X34370Y54188D01*
Y54775D01*
X35993Y56398D01*
X36455Y56207D01*
Y54465D01*
X36548Y54000D01*
X36769Y53669D01*
Y52734D01*
X36760Y52733D01*
X36484Y52548D01*
X36369Y52376D01*
X33500D01*
X32973Y52272D01*
X32527Y51973D01*
X32424Y51870D01*
X30687D01*
X30283Y51790D01*
X29939Y51561D01*
X29710Y51217D01*
X29630Y50813D01*
Y48188D01*
X29710Y47783D01*
X29939Y47440D01*
X30283Y47210D01*
X30687Y47130D01*
X33312D01*
X33717Y47210D01*
X34060Y47440D01*
X34290Y47783D01*
X34370Y48188D01*
Y49624D01*
X36369D01*
X36484Y49452D01*
X36760Y49267D01*
X37087Y49202D01*
X38976D01*
X39303Y49267D01*
X39579Y49452D01*
X39764Y49729D01*
X39829Y50055D01*
Y51945D01*
X39764Y52271D01*
X39579Y52548D01*
X39522Y52586D01*
Y53482D01*
X39709Y53606D01*
X39972Y54000D01*
X40064Y54465D01*
Y56978D01*
X40965Y57878D01*
X43035D01*
X43936Y56978D01*
Y54465D01*
X44028Y54000D01*
X44291Y53606D01*
X44685Y53343D01*
X45150Y53251D01*
X45625D01*
X45832Y52751D01*
X43186Y50104D01*
X43161Y50043D01*
X43105Y50006D01*
X43048Y49920D01*
X42963Y49863D01*
X42926Y49808D01*
X42864Y49782D01*
X40698Y47616D01*
X40637Y47469D01*
X40536Y47346D01*
X40545Y47248D01*
X40508Y47157D01*
X40546Y47065D01*
X40486Y46927D01*
X40278Y46719D01*
X40139Y46659D01*
X40047Y46697D01*
X39957Y46659D01*
X39859Y46669D01*
X39736Y46568D01*
X39588Y46507D01*
X33541Y40459D01*
X33351Y40000D01*
X33351Y36269D01*
X28082Y31000D01*
X22500D01*
X15500Y24000D01*
X-14414Y24000D01*
X-17496Y27082D01*
X-17289Y27582D01*
X-13500D01*
X-13152Y27652D01*
X-203D01*
X168Y27168D01*
X705Y26756D01*
X1330Y26498D01*
X2000Y26409D01*
X2671Y26498D01*
X3295Y26756D01*
X3832Y27168D01*
X4244Y27705D01*
X4502Y28330D01*
X4591Y29000D01*
X4502Y29671D01*
X4244Y30295D01*
X3832Y30832D01*
X3295Y31244D01*
X2671Y31502D01*
X2000Y31591D01*
X1330Y31502D01*
X705Y31244D01*
X168Y30832D01*
X-244Y30295D01*
X-502Y29671D01*
X-527Y29487D01*
X-2062D01*
X-2253Y29949D01*
X952Y33154D01*
X1330Y32998D01*
X2000Y32909D01*
X2671Y32998D01*
X3295Y33256D01*
X3832Y33668D01*
X4244Y34205D01*
X4502Y34830D01*
X4591Y35500D01*
X4502Y36171D01*
X4244Y36795D01*
X3832Y37332D01*
X3295Y37744D01*
X2671Y38002D01*
X2000Y38091D01*
X1534Y38029D01*
X1301Y38503D01*
X3504Y40706D01*
X3888Y40599D01*
X4004Y40517D01*
Y38803D01*
X4073Y38452D01*
X4272Y38154D01*
X6582Y35844D01*
Y34766D01*
X6555D01*
X6229Y34701D01*
X5952Y34516D01*
X5767Y34240D01*
X5703Y33913D01*
Y32024D01*
X5767Y31697D01*
X5952Y31421D01*
X6229Y31236D01*
X6555Y31171D01*
X8445D01*
X8771Y31236D01*
X9048Y31421D01*
X9233Y31697D01*
X9297Y32024D01*
Y33913D01*
X9233Y34240D01*
X9048Y34516D01*
X8876Y34631D01*
X8861Y34738D01*
X8929Y34878D01*
X9248Y35203D01*
X10976D01*
X11303Y35267D01*
X11579Y35452D01*
X11764Y35729D01*
X11829Y36055D01*
Y37945D01*
X11764Y38271D01*
X11579Y38548D01*
X11303Y38733D01*
X11217Y39259D01*
X11265Y39500D01*
X11142Y40118D01*
X10887Y40500D01*
X10804Y40672D01*
X10980Y41118D01*
X10980Y41118D01*
X11178Y41414D01*
X11248Y41764D01*
Y46085D01*
X11265Y46174D01*
Y48077D01*
X11257Y48121D01*
X11666Y48625D01*
X12111Y48714D01*
X12733Y49129D01*
X13148Y49751D01*
X13294Y50484D01*
X13148Y51218D01*
X12733Y51839D01*
X12111Y52255D01*
X11378Y52401D01*
X10645Y52255D01*
X10575Y52208D01*
X10279Y52366D01*
X10134Y52515D01*
Y65538D01*
X12760Y68165D01*
X15445D01*
X15704Y67718D01*
X15701Y67665D01*
X15196Y67277D01*
X14784Y66740D01*
X14525Y66115D01*
X14437Y65445D01*
Y63083D01*
X14525Y62412D01*
X14784Y61787D01*
X15196Y61251D01*
X15651Y60901D01*
Y52862D01*
X15196Y52513D01*
X14784Y51976D01*
X14525Y51352D01*
X14437Y50681D01*
Y46350D01*
X14525Y45680D01*
X14784Y45055D01*
X15196Y44519D01*
X15732Y44107D01*
X16357Y43848D01*
X17028Y43760D01*
X17698Y43848D01*
X18323Y44107D01*
X18859Y44519D01*
X19271Y45055D01*
X19530Y45680D01*
X19618Y46350D01*
Y50681D01*
X19530Y51352D01*
X19271Y51976D01*
X18859Y52513D01*
X18404Y52862D01*
Y60901D01*
X18859Y61251D01*
X19271Y61787D01*
X19530Y62412D01*
X19618Y63083D01*
Y65445D01*
X19530Y66115D01*
X19271Y66740D01*
X18859Y67277D01*
X18354Y67665D01*
X18351Y67718D01*
X18610Y68165D01*
X20789D01*
X20940Y67940D01*
X21283Y67710D01*
X21688Y67630D01*
X24313D01*
X24717Y67710D01*
X25060Y67940D01*
X25290Y68283D01*
X25370Y68687D01*
Y71312D01*
X25290Y71717D01*
X25060Y72061D01*
X24717Y72290D01*
X24313Y72370D01*
X21688D01*
X21283Y72290D01*
X20940Y72061D01*
X20789Y71835D01*
X12000D01*
X11298Y71696D01*
X10702Y71298D01*
X7001Y67596D01*
X6724Y67181D01*
X6224Y67333D01*
Y69980D01*
X6492Y70382D01*
X6615Y71000D01*
X6492Y71618D01*
X6142Y72142D01*
X5618Y72492D01*
X5000Y72615D01*
X4382Y72492D01*
X3858Y72142D01*
X3508Y71618D01*
X3385Y71000D01*
X3508Y70382D01*
X3777Y69980D01*
Y59654D01*
X3277Y59386D01*
X3118Y59492D01*
X2500Y59615D01*
X1882Y59492D01*
X1358Y59142D01*
X1344Y59122D01*
X-3344D01*
X-3358Y59142D01*
X-3882Y59492D01*
X-4500Y59615D01*
X-5118Y59492D01*
X-5642Y59142D01*
X-5992Y58618D01*
X-6115Y58000D01*
X-5992Y57382D01*
X-5642Y56858D01*
X-5118Y56508D01*
X-4500Y56385D01*
X-3882Y56508D01*
X-3358Y56858D01*
X-3344Y56878D01*
X1344D01*
X1358Y56858D01*
X1882Y56508D01*
X2500Y56385D01*
X2970Y56478D01*
X3317Y56222D01*
X3404Y56097D01*
X3385Y56000D01*
X3508Y55382D01*
X3858Y54858D01*
X3892Y54835D01*
X3740Y54335D01*
X-4727D01*
X-5429Y54196D01*
X-6025Y53798D01*
X-9016Y50806D01*
X-9558Y50971D01*
X-9607Y51218D01*
X-10023Y51839D01*
X-10645Y52255D01*
X-11378Y52401D01*
X-12111Y52255D01*
X-12733Y51839D01*
X-13148Y51218D01*
X-13294Y50484D01*
X-13148Y49751D01*
X-12733Y49129D01*
X-12111Y48714D01*
X-11575Y48607D01*
X-11556Y48603D01*
X-11241Y48189D01*
X-11206Y48092D01*
X-11265Y47797D01*
Y46174D01*
X-11248Y46085D01*
Y41764D01*
X-11178Y41414D01*
X-10980Y41118D01*
X-10684Y40920D01*
X-10335Y40851D01*
X-9744D01*
X-9449Y40910D01*
X-9154Y40851D01*
X-8925D01*
X-8718Y40351D01*
X-9123Y39946D01*
X-10311D01*
X-10622Y39884D01*
X-10667Y39855D01*
X-11333D01*
X-11378Y39884D01*
X-11689Y39946D01*
X-12877D01*
X-14799Y41868D01*
X-15097Y42067D01*
X-15448Y42137D01*
X-20366D01*
X-20717Y42067D01*
X-20981Y42486D01*
X-21008Y42618D01*
X-21358Y43142D01*
X-21882Y43492D01*
X-22500Y43615D01*
X-22765Y43563D01*
X-23741Y44539D01*
X-24039Y44738D01*
X-24390Y44807D01*
X-25280D01*
X-25295Y44831D01*
X-25591Y45028D01*
X-25940Y45098D01*
X-28429D01*
X-28598Y45268D01*
X-29583Y45268D01*
X-29976Y44874D01*
X-29976Y26665D01*
X-30665Y25976D01*
X-31157Y25976D01*
X-31551Y25583D01*
Y24598D01*
X-31453Y24500D01*
X-31554Y24000D01*
X-32730D01*
X-32831Y24500D01*
X-32732Y24598D01*
X-32732Y25583D01*
X-33126Y25976D01*
X-51335Y25976D01*
X-52024Y26665D01*
Y34024D01*
Y47335D01*
X-51335Y48024D01*
X-50842Y48024D01*
X-50449Y48417D01*
Y49402D01*
X-50619Y49572D01*
Y49737D01*
X-50603Y49814D01*
Y50780D01*
X-50613Y50827D01*
Y54345D01*
X-50452Y54452D01*
X-50267Y54729D01*
X-50203Y55055D01*
Y56945D01*
X-50267Y57271D01*
X-50452Y57548D01*
X-50729Y57733D01*
X-50776Y57742D01*
Y58234D01*
X-50024D01*
X-49697Y58299D01*
X-49421Y58484D01*
X-49236Y58760D01*
X-49171Y59087D01*
Y59477D01*
X-48671Y59684D01*
X-48343Y59356D01*
X-48045Y59157D01*
X-47694Y59087D01*
X-47077D01*
X-46618Y58628D01*
Y55247D01*
X-48539Y53325D01*
X-48738Y53027D01*
X-48798Y52727D01*
X-48831Y52705D01*
X-49029Y52408D01*
X-49098Y52059D01*
Y49571D01*
X-49268Y49402D01*
X-49268Y48417D01*
X-48874Y48024D01*
X-30665Y48024D01*
X-29976Y47335D01*
X-29976Y46843D01*
X-29583Y46449D01*
X-28598D01*
X-28429Y46619D01*
X-27298D01*
X-27220Y46603D01*
X-25239D01*
X-24770Y46696D01*
X-24374Y46962D01*
X-23094Y48241D01*
X-22829Y48638D01*
X-22736Y49106D01*
Y51251D01*
X-22829Y51719D01*
X-22915Y51848D01*
X-22885Y52000D01*
X-23008Y52618D01*
X-23277Y53021D01*
Y53531D01*
X-23370Y54000D01*
X-23635Y54397D01*
X-24171Y54933D01*
Y55945D01*
X-24236Y56271D01*
X-24421Y56548D01*
X-24697Y56733D01*
X-24760Y56745D01*
Y57255D01*
X-24697Y57267D01*
X-24421Y57452D01*
X-24236Y57729D01*
X-24171Y58055D01*
Y59945D01*
X-24236Y60271D01*
X-24421Y60548D01*
X-24697Y60733D01*
X-24776Y60748D01*
Y61258D01*
X-24729Y61267D01*
X-24452Y61452D01*
X-24267Y61729D01*
X-24203Y62055D01*
Y63945D01*
X-24267Y64271D01*
X-24452Y64548D01*
X-24729Y64733D01*
X-25055Y64798D01*
X-26945D01*
X-27271Y64733D01*
X-27548Y64548D01*
X-27641Y64408D01*
X-28905D01*
X-29106Y64709D01*
X-29500Y64972D01*
X-29965Y65064D01*
X-32204D01*
X-34358Y67218D01*
X-34755Y67483D01*
X-35223Y67576D01*
X-35314D01*
X-35358Y67642D01*
X-35882Y67992D01*
X-36500Y68115D01*
X-37118Y67992D01*
X-37371Y67823D01*
X-37871Y68090D01*
Y68659D01*
X-37941Y69010D01*
X-38140Y69308D01*
X-39066Y70234D01*
Y71331D01*
X-39158Y71795D01*
X-39421Y72189D01*
X-39815Y72452D01*
X-40279Y72545D01*
X-43035D01*
X-43500Y72452D01*
X-43894Y72189D01*
X-44157Y71795D01*
X-44184Y71658D01*
X-44703D01*
Y71913D01*
X-44767Y72240D01*
X-44952Y72516D01*
X-45229Y72701D01*
X-45555Y72766D01*
X-47445D01*
X-47771Y72701D01*
X-48048Y72516D01*
X-48233Y72240D01*
X-48298Y71913D01*
Y70469D01*
X-51349Y67418D01*
X-52708D01*
X-52858Y67642D01*
X-53382Y67992D01*
X-54000Y68115D01*
X-54618Y67992D01*
X-55142Y67642D01*
X-55492Y67118D01*
X-55615Y66500D01*
X-55492Y65882D01*
X-55142Y65358D01*
X-54786Y65120D01*
X-54937Y64620D01*
X-56205D01*
X-56412Y65034D01*
X-56412Y65120D01*
Y68990D01*
X-58714D01*
Y65436D01*
X-59214Y65058D01*
X-59500Y65115D01*
X-59849Y65046D01*
X-60328Y65379D01*
X-60349Y65417D01*
Y68990D01*
X-62651D01*
Y65034D01*
X-62418D01*
Y62746D01*
X-62918Y62697D01*
X-62964Y62929D01*
X-63207Y63293D01*
X-63207Y63293D01*
X-64124Y64210D01*
X-64488Y64454D01*
X-64647Y64485D01*
X-64664Y64534D01*
X-64305Y65034D01*
X-64286D01*
Y68990D01*
X-66588D01*
Y65120D01*
X-66588Y65034D01*
X-66795Y64620D01*
X-68990D01*
Y62317D01*
Y58380D01*
X-66795D01*
X-66588Y57966D01*
Y54010D01*
X-66507D01*
Y53354D01*
X-66507Y53354D01*
X-66798Y53000D01*
X-73580D01*
Y56142D01*
X-73580Y56142D01*
X-73580Y56142D01*
X-73580Y57285D01*
X-73282Y59552D01*
X-72691Y61760D01*
X-71816Y63872D01*
X-70673Y65852D01*
X-69282Y67665D01*
X-67665Y69282D01*
X-65852Y70673D01*
X-63872Y71816D01*
X-61760Y72691D01*
X-59552Y73282D01*
X-57285Y73580D01*
X-56142Y73580D01*
D02*
G37*
G36*
X-57966Y61625D02*
Y58380D01*
X-54010D01*
Y58380D01*
X-53661Y58496D01*
X-53224Y58184D01*
Y57742D01*
X-53271Y57733D01*
X-53548Y57548D01*
X-53733Y57271D01*
X-54215Y57381D01*
X-54382Y57492D01*
X-55000Y57615D01*
X-55618Y57492D01*
X-56142Y57142D01*
X-56492Y56618D01*
X-56615Y56000D01*
X-56492Y55382D01*
X-56223Y54979D01*
Y51918D01*
X-57102Y51039D01*
X-58714D01*
X-59154Y51478D01*
X-59551Y51744D01*
X-60019Y51837D01*
X-61203D01*
Y51913D01*
X-61267Y52240D01*
X-61452Y52516D01*
X-61729Y52701D01*
X-62055Y52766D01*
X-63211D01*
X-63956Y53510D01*
X-63749Y54010D01*
X-58380D01*
Y57966D01*
X-58582D01*
Y61797D01*
X-58466Y61881D01*
X-57966Y61625D01*
D02*
G37*
G36*
X-60086Y48951D02*
X-59689Y48685D01*
X-59221Y48592D01*
X-57377D01*
X-56971Y48122D01*
Y47532D01*
X-56902Y47182D01*
X-56726Y46843D01*
X-56902Y46503D01*
X-56971Y46154D01*
Y45563D01*
X-56959Y45500D01*
X-57315Y45000D01*
X-62000Y45000D01*
X-64164Y47164D01*
Y48550D01*
X-64196Y48711D01*
X-64078Y48927D01*
X-63917Y49106D01*
X-63816Y49171D01*
X-62055D01*
X-61729Y49236D01*
X-61498Y49390D01*
X-60526D01*
X-60086Y48951D01*
D02*
G37*
G36*
X48202Y53495D02*
Y52087D01*
X48267Y51760D01*
X48452Y51484D01*
X48608Y51380D01*
Y50673D01*
X48421Y50548D01*
X48236Y50271D01*
X48171Y49945D01*
Y48055D01*
X48236Y47729D01*
X48421Y47452D01*
X48592Y47338D01*
Y46595D01*
X48291Y46394D01*
X48028Y46000D01*
X47936Y45535D01*
Y42779D01*
X48028Y42315D01*
X48291Y41921D01*
X48619Y41702D01*
Y39705D01*
X47535Y38622D01*
X44465D01*
X43381Y39705D01*
Y41702D01*
X43709Y41921D01*
X43972Y42315D01*
X44064Y42779D01*
Y45535D01*
X43972Y46000D01*
X43709Y46394D01*
X43315Y46657D01*
X42850Y46749D01*
X41669D01*
X41404Y46696D01*
X41157Y47157D01*
X43323Y49323D01*
X43516Y49452D01*
X43645Y49645D01*
X46000Y52000D01*
X47703Y53702D01*
X48202Y53495D01*
D02*
G37*
G36*
X-69233Y36260D02*
X-69048Y35984D01*
X-68771Y35799D01*
X-68445Y35734D01*
X-66555D01*
X-66229Y35799D01*
X-65952Y35984D01*
X-65767Y36260D01*
X-65761Y36292D01*
X-65245D01*
X-65233Y36229D01*
X-65048Y35952D01*
X-64771Y35767D01*
X-64445Y35702D01*
X-63433D01*
X-61276Y33546D01*
X-61468Y33084D01*
X-62169D01*
X-62557Y33007D01*
X-62886Y32787D01*
X-63105Y32459D01*
X-63182Y32071D01*
Y29599D01*
X-64112Y28670D01*
X-64258Y28451D01*
X-64601Y28382D01*
X-64817Y28389D01*
X-65074Y28773D01*
X-65728Y29210D01*
X-66500Y29363D01*
X-67272Y29210D01*
X-67926Y28773D01*
X-68363Y28118D01*
X-68517Y27347D01*
X-68363Y26575D01*
X-67926Y25920D01*
X-67272Y25483D01*
X-66500Y25330D01*
X-65728Y25483D01*
X-65074Y25920D01*
X-64881Y26210D01*
X-64381Y26058D01*
Y21942D01*
X-64881Y21790D01*
X-65074Y22080D01*
X-65728Y22517D01*
X-66500Y22670D01*
X-67272Y22517D01*
X-67926Y22080D01*
X-68363Y21425D01*
X-68517Y20653D01*
X-68363Y19882D01*
X-67926Y19228D01*
X-67272Y18790D01*
X-66500Y18637D01*
X-65728Y18790D01*
X-65074Y19228D01*
X-64881Y19517D01*
X-64381Y19365D01*
Y14963D01*
X-64311Y14612D01*
X-64112Y14314D01*
X-63342Y13544D01*
X-63044Y13345D01*
X-62693Y13276D01*
X-62105D01*
X-61329Y12500D01*
Y11055D01*
X-61264Y10729D01*
X-61079Y10452D01*
X-60803Y10267D01*
X-60476Y10203D01*
X-59626D01*
X-59435Y9741D01*
X-60092Y9084D01*
X-62169D01*
X-62557Y9007D01*
X-62886Y8787D01*
X-63105Y8459D01*
X-63121Y8379D01*
X-63180Y8309D01*
X-63628Y8043D01*
X-63683Y8040D01*
X-64061Y8115D01*
X-64679Y7992D01*
X-65203Y7642D01*
X-65553Y7118D01*
X-65676Y6500D01*
X-65553Y5882D01*
X-65327Y5543D01*
X-65687Y5182D01*
X-65728Y5210D01*
X-66500Y5363D01*
X-67272Y5210D01*
X-67926Y4772D01*
X-68363Y4118D01*
X-68517Y3347D01*
X-68363Y2575D01*
X-67926Y1920D01*
X-67272Y1483D01*
X-66500Y1330D01*
X-65728Y1483D01*
X-65479Y1650D01*
X-64979Y1383D01*
Y-1383D01*
X-65479Y-1650D01*
X-65728Y-1483D01*
X-66500Y-1330D01*
X-67272Y-1483D01*
X-67926Y-1920D01*
X-68363Y-2575D01*
X-68517Y-3347D01*
X-68363Y-4118D01*
X-67926Y-4772D01*
X-67272Y-5210D01*
X-66500Y-5363D01*
X-65728Y-5210D01*
X-65479Y-5043D01*
X-64979Y-5310D01*
Y-8439D01*
X-64909Y-8790D01*
X-64710Y-9088D01*
X-63454Y-10344D01*
X-63156Y-10543D01*
X-62805Y-10612D01*
X-62217D01*
X-61329Y-11500D01*
Y-12945D01*
X-61264Y-13271D01*
X-61079Y-13548D01*
X-60803Y-13733D01*
X-60476Y-13798D01*
X-59626D01*
X-59435Y-14259D01*
X-60092Y-14916D01*
X-62169D01*
X-62557Y-14993D01*
X-62886Y-15213D01*
X-63105Y-15541D01*
X-63182Y-15929D01*
Y-18401D01*
X-64287Y-19505D01*
X-64381Y-19540D01*
X-64895Y-19495D01*
X-65074Y-19228D01*
X-65728Y-18790D01*
X-66500Y-18637D01*
X-67272Y-18790D01*
X-67926Y-19228D01*
X-68363Y-19882D01*
X-68517Y-20653D01*
X-68363Y-21425D01*
X-67926Y-22080D01*
X-67272Y-22517D01*
X-66500Y-22670D01*
X-65728Y-22517D01*
X-65095Y-22094D01*
X-64972Y-22119D01*
X-64595Y-22263D01*
Y-25737D01*
X-64972Y-25881D01*
X-65095Y-25906D01*
X-65728Y-25483D01*
X-66500Y-25330D01*
X-67272Y-25483D01*
X-67926Y-25920D01*
X-68363Y-26575D01*
X-68517Y-27347D01*
X-68363Y-28118D01*
X-67926Y-28773D01*
X-67272Y-29210D01*
X-66500Y-29363D01*
X-65728Y-29210D01*
X-65095Y-28787D01*
X-64972Y-28812D01*
X-64595Y-28956D01*
Y-34266D01*
X-65532Y-35203D01*
X-66181D01*
X-66324Y-34703D01*
X-66150Y-34586D01*
X-65952Y-34290D01*
X-65882Y-33941D01*
Y-32169D01*
X-65952Y-31820D01*
X-66150Y-31524D01*
X-66446Y-31326D01*
X-66795Y-31256D01*
X-70929D01*
X-71276Y-30971D01*
Y-17029D01*
X-70929Y-16744D01*
X-66795D01*
X-66446Y-16674D01*
X-66150Y-16476D01*
X-65952Y-16180D01*
X-65882Y-15831D01*
Y-14059D01*
X-65952Y-13710D01*
X-66150Y-13414D01*
X-66446Y-13216D01*
X-66795Y-13146D01*
X-70929D01*
X-71276Y-12861D01*
Y-11139D01*
X-70929Y-10854D01*
X-66795D01*
X-66446Y-10784D01*
X-66150Y-10586D01*
X-65952Y-10290D01*
X-65882Y-9941D01*
Y-8169D01*
X-65952Y-7820D01*
X-66150Y-7524D01*
X-66446Y-7326D01*
X-66795Y-7256D01*
X-70929D01*
X-71276Y-6971D01*
Y6971D01*
X-70929Y7256D01*
X-66795D01*
X-66446Y7326D01*
X-66150Y7524D01*
X-65952Y7820D01*
X-65882Y8169D01*
Y9941D01*
X-65952Y10290D01*
X-66150Y10586D01*
X-66446Y10784D01*
X-66795Y10854D01*
X-70929D01*
X-71276Y11139D01*
Y12861D01*
X-70929Y13146D01*
X-66795D01*
X-66446Y13216D01*
X-66150Y13414D01*
X-65952Y13710D01*
X-65882Y14059D01*
Y15831D01*
X-65952Y16180D01*
X-66150Y16476D01*
X-66446Y16674D01*
X-66795Y16744D01*
X-70929D01*
X-71276Y17029D01*
Y30971D01*
X-70929Y31256D01*
X-66795D01*
X-66446Y31326D01*
X-66150Y31524D01*
X-65952Y31820D01*
X-65882Y32169D01*
Y33941D01*
X-65952Y34290D01*
X-66150Y34586D01*
X-66446Y34784D01*
X-66795Y34854D01*
X-70929D01*
X-71278Y34784D01*
X-71575Y34586D01*
X-71772Y34290D01*
X-71786Y34223D01*
X-72328Y34059D01*
X-73580Y35310D01*
Y35880D01*
X-73080Y36031D01*
X-73048Y35984D01*
X-72771Y35799D01*
X-72445Y35734D01*
X-70555D01*
X-70229Y35799D01*
X-69952Y35984D01*
X-69767Y36260D01*
X-69758Y36308D01*
X-69242D01*
X-69233Y36260D01*
D02*
G37*
G36*
X-14152Y36657D02*
X-14113Y36461D01*
X-13937Y36197D01*
X-13673Y36021D01*
X-13362Y35959D01*
X-11689D01*
X-11378Y36021D01*
X-11333Y36051D01*
X-10667D01*
X-10622Y36021D01*
X-10311Y35959D01*
X-8638D01*
X-8327Y36021D01*
X-8063Y36197D01*
X-7887Y36461D01*
X-7848Y36657D01*
X-6380Y38126D01*
X-3687D01*
X-3618Y38140D01*
X-3132Y37796D01*
X-3118Y37768D01*
Y36732D01*
X-5900Y33949D01*
X-8282D01*
X-8327Y33979D01*
X-8638Y34041D01*
X-10311D01*
X-10622Y33979D01*
X-10667Y33949D01*
X-11333D01*
X-11378Y33979D01*
X-11689Y34041D01*
X-13362D01*
X-13673Y33979D01*
X-13718Y33949D01*
X-15470D01*
X-16837Y35317D01*
X-16858Y35858D01*
X-16508Y36382D01*
X-16385Y37000D01*
X-16508Y37618D01*
X-16708Y37918D01*
X-16441Y38418D01*
X-15912D01*
X-14152Y36657D01*
D02*
G37*
G36*
X-65929Y45265D02*
X-65730Y44967D01*
X-63632Y42869D01*
X-63334Y42670D01*
X-62983Y42601D01*
X-62465D01*
X-59918Y40053D01*
Y38940D01*
X-59848Y38589D01*
X-59649Y38291D01*
X-56945Y35587D01*
X-56902Y35371D01*
X-56704Y35075D01*
X-56408Y34877D01*
X-56059Y34808D01*
X-53571D01*
X-53061Y34297D01*
X-53061Y33797D01*
X-53571Y33287D01*
X-54663D01*
X-54789Y33312D01*
X-57064D01*
X-58282Y34530D01*
X-58679Y34795D01*
X-59147Y34888D01*
X-59158D01*
X-61703Y37433D01*
Y38445D01*
X-61767Y38771D01*
X-61952Y39048D01*
X-62229Y39233D01*
X-62555Y39298D01*
X-64445D01*
X-64771Y39233D01*
X-65048Y39048D01*
X-65233Y38771D01*
X-65239Y38739D01*
X-65755D01*
X-65767Y38803D01*
X-65952Y39079D01*
X-66229Y39264D01*
X-66555Y39329D01*
X-68445D01*
X-68771Y39264D01*
X-69048Y39079D01*
X-69233Y38803D01*
X-69242Y38755D01*
X-69758D01*
X-69767Y38803D01*
X-69952Y39079D01*
X-70185Y39235D01*
X-70209Y39500D01*
X-70185Y39765D01*
X-69952Y39921D01*
X-69767Y40197D01*
X-69703Y40524D01*
Y42413D01*
X-69713Y42467D01*
Y43074D01*
X-69508Y43382D01*
X-69385Y44000D01*
X-69508Y44618D01*
X-69713Y44926D01*
Y45500D01*
X-65976D01*
X-65929Y45265D01*
D02*
G37*
G36*
X52267Y47697D02*
X52452Y47421D01*
X52729Y47236D01*
X53055Y47171D01*
X54945D01*
X55271Y47236D01*
X55548Y47421D01*
X55656Y47431D01*
X56455Y46632D01*
Y45840D01*
X55599Y44984D01*
X55322Y44570D01*
X55225Y44083D01*
Y38532D01*
X55322Y38044D01*
X55599Y37630D01*
X56234Y36995D01*
Y36055D01*
X56299Y35729D01*
X56484Y35452D01*
X56757Y35270D01*
Y34969D01*
X56854Y34481D01*
X57130Y34067D01*
X58099Y33099D01*
X58512Y32822D01*
X58513Y32822D01*
X58585Y32749D01*
X58829Y32250D01*
X58794Y32071D01*
Y30248D01*
X58063Y29518D01*
X55568Y32013D01*
X55733Y32260D01*
X55797Y32587D01*
Y34476D01*
X55733Y34803D01*
X55548Y35079D01*
X55271Y35264D01*
X54945Y35329D01*
X53055D01*
X52729Y35264D01*
X52452Y35079D01*
X52442Y35063D01*
X51545D01*
Y35221D01*
X51452Y35685D01*
X51189Y36079D01*
X50795Y36342D01*
X50331Y36434D01*
X49228D01*
X49092Y36620D01*
X49001Y36915D01*
X50533Y38447D01*
X50533Y38447D01*
X50776Y38811D01*
X50862Y39240D01*
Y41702D01*
X51189Y41921D01*
X51452Y42315D01*
X51545Y42779D01*
Y45535D01*
X51452Y46000D01*
X51345Y46160D01*
Y47338D01*
X51516Y47452D01*
X51701Y47729D01*
X51726Y47855D01*
X52236D01*
X52267Y47697D01*
D02*
G37*
G36*
X40508Y45801D02*
X40455Y45535D01*
Y42779D01*
X40548Y42315D01*
X40811Y41921D01*
X41138Y41702D01*
Y39240D01*
X41138Y39240D01*
X41224Y38811D01*
X41467Y38447D01*
X42999Y36915D01*
X42908Y36620D01*
X42772Y36434D01*
X41669D01*
X41205Y36342D01*
X40811Y36079D01*
X40548Y35685D01*
X40455Y35221D01*
Y35063D01*
X39558D01*
X39548Y35079D01*
X39271Y35264D01*
X38945Y35329D01*
X37055D01*
X36729Y35264D01*
X36452Y35079D01*
X36267Y34803D01*
X36202Y34476D01*
Y32587D01*
X36267Y32260D01*
X36452Y31984D01*
X36729Y31799D01*
X37055Y31734D01*
X38945D01*
X39271Y31799D01*
X39548Y31984D01*
X39733Y32260D01*
X39743Y32311D01*
X40486D01*
X40548Y32000D01*
X40811Y31606D01*
X41205Y31343D01*
X41669Y31251D01*
X42850D01*
X43315Y31343D01*
X43709Y31606D01*
X43972Y32000D01*
X44064Y32465D01*
Y35221D01*
X43972Y35685D01*
X43826Y35903D01*
X43914Y36143D01*
X44092Y36378D01*
X47908D01*
X48086Y36143D01*
X48174Y35903D01*
X48028Y35685D01*
X47936Y35221D01*
Y32465D01*
X48028Y32000D01*
X48291Y31606D01*
X48685Y31343D01*
X49150Y31251D01*
X50331D01*
X50795Y31343D01*
X51189Y31606D01*
X51452Y32000D01*
X51514Y32311D01*
X52257D01*
X52267Y32260D01*
X52452Y31984D01*
X52624Y31869D01*
Y31635D01*
X52728Y31108D01*
X53027Y30661D01*
X56687Y27001D01*
Y22891D01*
X56463Y22817D01*
X56187Y22808D01*
X56048Y23016D01*
X55771Y23201D01*
X55622Y23231D01*
Y23448D01*
X55536Y23877D01*
X55293Y24241D01*
X55293Y24241D01*
X50341Y29193D01*
X49977Y29436D01*
X49548Y29522D01*
X49547Y29522D01*
X28052D01*
X28022Y30022D01*
X34000Y36000D01*
X34000Y40000D01*
X40047Y46047D01*
X40508Y45801D01*
D02*
G37*
G36*
X48913Y24356D02*
X49008Y23882D01*
X49112Y23725D01*
X49196Y23242D01*
X48982Y23089D01*
X48921Y23048D01*
X48736Y22771D01*
X48671Y22445D01*
Y20555D01*
X48736Y20229D01*
X48921Y19952D01*
X49197Y19767D01*
X49363Y19735D01*
Y19228D01*
X49229Y19201D01*
X48952Y19016D01*
X48767Y18740D01*
X48702Y18413D01*
Y16524D01*
X48767Y16197D01*
X48952Y15921D01*
X49185Y15765D01*
X49209Y15500D01*
X49185Y15235D01*
X48952Y15079D01*
X48767Y14803D01*
X48731Y14622D01*
X48256D01*
X48233Y14740D01*
X48048Y15016D01*
X47841Y15155D01*
X47992Y15382D01*
X48115Y16000D01*
X47992Y16618D01*
X47642Y17142D01*
X47118Y17492D01*
X46500Y17615D01*
X45882Y17492D01*
X45358Y17142D01*
X45008Y16618D01*
X44885Y16000D01*
X45008Y15382D01*
X45159Y15155D01*
X44952Y15016D01*
X44767Y14740D01*
X44738Y14590D01*
X44262D01*
X44233Y14740D01*
X44048Y15016D01*
X43771Y15201D01*
X43445Y15266D01*
X41555D01*
X41229Y15201D01*
X40952Y15016D01*
X40767Y14740D01*
X40703Y14413D01*
Y13257D01*
X39984Y12539D01*
X39011D01*
Y13189D01*
X38910Y13700D01*
X38620Y14132D01*
X38188Y14422D01*
X37677Y14523D01*
X37166Y14422D01*
X36733Y14132D01*
X36698Y14080D01*
X36154D01*
X35926Y14370D01*
X36014Y14909D01*
X36079Y14952D01*
X36264Y15229D01*
X36329Y15555D01*
Y17445D01*
X36264Y17771D01*
X36079Y18048D01*
X35803Y18233D01*
X35653Y18262D01*
Y18738D01*
X35803Y18767D01*
X36079Y18952D01*
X36235Y19185D01*
X36500Y19209D01*
X36765Y19185D01*
X36921Y18952D01*
X37197Y18767D01*
X37524Y18702D01*
X39413D01*
X39740Y18767D01*
X40016Y18952D01*
X40052Y19006D01*
X40239Y19221D01*
X40692Y19135D01*
X40882Y19008D01*
X41500Y18885D01*
X42118Y19008D01*
X42642Y19358D01*
X42992Y19882D01*
X43115Y20500D01*
X42992Y21118D01*
X42642Y21642D01*
X42118Y21992D01*
X41500Y22115D01*
X40882Y21992D01*
X40692Y21866D01*
X40239Y21779D01*
X40052Y21994D01*
X40016Y22048D01*
X39740Y22233D01*
X39413Y22298D01*
X38257D01*
X35540Y25014D01*
X35731Y25477D01*
X47793D01*
X48913Y24356D01*
D02*
G37*
G36*
X19734Y20240D02*
Y19555D01*
X19799Y19229D01*
X19984Y18952D01*
X20260Y18767D01*
X20587Y18702D01*
X22476D01*
X22803Y18767D01*
X23079Y18952D01*
X23235Y19185D01*
X23500Y19209D01*
X23765Y19185D01*
X23921Y18952D01*
X24197Y18767D01*
X24347Y18738D01*
Y18262D01*
X24197Y18233D01*
X23921Y18048D01*
X23736Y17771D01*
X23671Y17445D01*
Y15555D01*
X23736Y15229D01*
X23921Y14952D01*
X23986Y14909D01*
X24074Y14370D01*
X23845Y14080D01*
X23302D01*
X23266Y14132D01*
X22833Y14422D01*
X22323Y14523D01*
X21812Y14422D01*
X21379Y14132D01*
X21090Y13700D01*
X20988Y13189D01*
Y12605D01*
X20488Y12566D01*
X19297Y13757D01*
Y14913D01*
X19233Y15240D01*
X19048Y15516D01*
X18771Y15701D01*
X18445Y15766D01*
X16555D01*
X16229Y15701D01*
X15952Y15516D01*
X15767Y15240D01*
X15738Y15090D01*
X15262D01*
X15233Y15240D01*
X15048Y15516D01*
X14771Y15701D01*
X14445Y15766D01*
X12555D01*
X12229Y15701D01*
X11952Y15516D01*
X11767Y15240D01*
X11741Y15106D01*
X11234D01*
X11201Y15271D01*
X11016Y15548D01*
X10740Y15733D01*
X10708Y15739D01*
Y16249D01*
X10803Y16267D01*
X11079Y16452D01*
X11264Y16729D01*
X11329Y17055D01*
Y18945D01*
X11503Y19158D01*
X17492D01*
X17960Y19251D01*
X18357Y19516D01*
X19272Y20431D01*
X19734Y20240D01*
D02*
G37*
G36*
X31615Y8702D02*
X32048Y8413D01*
X32559Y8311D01*
X33070Y8413D01*
X33502Y8702D01*
X33538Y8755D01*
X34139D01*
X34174Y8702D01*
X34607Y8413D01*
X34804Y8374D01*
X36471Y6707D01*
X36471Y6707D01*
X36835Y6464D01*
X37264Y6379D01*
X40004D01*
X40703Y5680D01*
Y4524D01*
X40767Y4197D01*
X40952Y3921D01*
X41185Y3765D01*
X41209Y3500D01*
X41185Y3235D01*
X40952Y3079D01*
X40767Y2803D01*
X40703Y2476D01*
Y587D01*
X40767Y260D01*
X40952Y-16D01*
X41229Y-201D01*
X41555Y-266D01*
X43445D01*
X43771Y-201D01*
X44048Y-16D01*
X44233Y260D01*
X44262Y410D01*
X44738D01*
X44767Y260D01*
X44952Y-16D01*
X45229Y-201D01*
X45555Y-266D01*
X47445D01*
X47771Y-201D01*
X48048Y-16D01*
X48233Y260D01*
X48259Y394D01*
X48766D01*
X48799Y229D01*
X48984Y-48D01*
X49260Y-233D01*
X49587Y-298D01*
X51476D01*
X51803Y-233D01*
X52079Y-48D01*
X52235Y185D01*
X52500Y209D01*
X52765Y185D01*
X52921Y-48D01*
X53197Y-233D01*
X53524Y-298D01*
X55413D01*
X55740Y-233D01*
X56016Y-48D01*
X56131Y124D01*
X56687D01*
Y-13812D01*
X55375Y-15124D01*
X42792D01*
X42618Y-15008D01*
X42000Y-14885D01*
X41382Y-15008D01*
X41208Y-15124D01*
X41131D01*
X41016Y-14952D01*
X40740Y-14767D01*
X40413Y-14703D01*
X38667D01*
X38503Y-14211D01*
X38620Y-14132D01*
X38910Y-13700D01*
X38984Y-13328D01*
X39144Y-13192D01*
X39319Y-13084D01*
X39511Y-13018D01*
X40000Y-13115D01*
X40618Y-12992D01*
X41142Y-12642D01*
X41492Y-12118D01*
X41615Y-11500D01*
X41492Y-10882D01*
X41142Y-10358D01*
X40618Y-10008D01*
X40000Y-9885D01*
X39511Y-9982D01*
X39011Y-9700D01*
Y-9646D01*
X38910Y-9135D01*
X38620Y-8702D01*
X38188Y-8413D01*
X37677Y-8311D01*
X37166Y-8413D01*
X36733Y-8702D01*
X36698Y-8755D01*
X36097D01*
X36061Y-8702D01*
X35629Y-8413D01*
X35118Y-8311D01*
X34607Y-8413D01*
X34174Y-8702D01*
X34139Y-8755D01*
X33538D01*
X33502Y-8702D01*
X33070Y-8413D01*
X32559Y-8311D01*
X32048Y-8413D01*
X31615Y-8702D01*
X31580Y-8755D01*
X30979D01*
X30943Y-8702D01*
X30510Y-8413D01*
X30000Y-8311D01*
X29489Y-8413D01*
X29056Y-8702D01*
X29021Y-8755D01*
X28420D01*
X28384Y-8702D01*
X27951Y-8413D01*
X27441Y-8311D01*
X26930Y-8413D01*
X26497Y-8702D01*
X26462Y-8755D01*
X25861D01*
X25825Y-8702D01*
X25392Y-8413D01*
X25196Y-8374D01*
X23866Y-7044D01*
X23502Y-6801D01*
X23073Y-6715D01*
X23073Y-6715D01*
X20159D01*
X19266Y-5822D01*
Y-5055D01*
X19201Y-4729D01*
X19016Y-4452D01*
X18740Y-4267D01*
X18413Y-4202D01*
X16524D01*
X16197Y-4267D01*
X15921Y-4452D01*
X15765Y-4685D01*
X15500Y-4709D01*
X15235Y-4685D01*
X15079Y-4452D01*
X14803Y-4267D01*
X14653Y-4238D01*
Y-3762D01*
X14803Y-3733D01*
X15079Y-3548D01*
X15264Y-3271D01*
X15329Y-2945D01*
Y-1055D01*
X15264Y-729D01*
X15079Y-452D01*
X14803Y-267D01*
X14740Y-255D01*
Y255D01*
X14803Y267D01*
X15079Y452D01*
X15264Y729D01*
X15329Y1055D01*
Y2945D01*
X15264Y3271D01*
X15079Y3548D01*
X14803Y3733D01*
X14653Y3762D01*
Y4238D01*
X14803Y4267D01*
X15079Y4452D01*
X15235Y4685D01*
X15500Y4709D01*
X15765Y4685D01*
X15921Y4452D01*
X16197Y4267D01*
X16524Y4202D01*
X18413D01*
X18740Y4267D01*
X19016Y4452D01*
X19201Y4729D01*
X19266Y5055D01*
Y5822D01*
X20159Y6715D01*
X23072D01*
X23072Y6715D01*
X23501Y6801D01*
X23865Y7044D01*
X25195Y8374D01*
X25392Y8413D01*
X25825Y8702D01*
X25861Y8755D01*
X26462D01*
X26497Y8702D01*
X26930Y8413D01*
X27441Y8311D01*
X27951Y8413D01*
X28384Y8702D01*
X28420Y8755D01*
X29021D01*
X29056Y8702D01*
X29489Y8413D01*
X30000Y8311D01*
X30510Y8413D01*
X30943Y8702D01*
X30979Y8755D01*
X31580D01*
X31615Y8702D01*
D02*
G37*
G36*
X48799Y8229D02*
X48984Y7952D01*
X49260Y7767D01*
X49587Y7702D01*
X51476D01*
X51803Y7767D01*
X52079Y7952D01*
X52235Y8185D01*
X52500Y8209D01*
X52765Y8185D01*
X52921Y7952D01*
X53197Y7767D01*
X53524Y7702D01*
X55413D01*
X55740Y7767D01*
X56016Y7952D01*
X56187Y8208D01*
X56224Y8215D01*
X56687Y8068D01*
Y2877D01*
X56131D01*
X56016Y3048D01*
X55740Y3233D01*
X55413Y3297D01*
X53524D01*
X53197Y3233D01*
X52921Y3048D01*
X52765Y2815D01*
X52500Y2791D01*
X52235Y2815D01*
X52079Y3048D01*
X51803Y3233D01*
X51476Y3297D01*
X49587D01*
X49260Y3233D01*
X48984Y3048D01*
X48799Y2771D01*
X48772Y2637D01*
X48265D01*
X48233Y2803D01*
X48048Y3079D01*
X47771Y3264D01*
X47445Y3329D01*
X45555D01*
X45229Y3264D01*
X44952Y3079D01*
X44767Y2803D01*
X44738Y2653D01*
X44262D01*
X44233Y2803D01*
X44048Y3079D01*
X43815Y3235D01*
X43791Y3500D01*
X43815Y3765D01*
X44048Y3921D01*
X44233Y4197D01*
X44298Y4524D01*
Y6413D01*
X44233Y6740D01*
X44048Y7016D01*
X43771Y7201D01*
X43550Y7245D01*
Y7755D01*
X43771Y7799D01*
X44048Y7984D01*
X44233Y8260D01*
X44262Y8410D01*
X44738D01*
X44767Y8260D01*
X44952Y7984D01*
X45229Y7799D01*
X45555Y7734D01*
X47445D01*
X47771Y7799D01*
X48048Y7984D01*
X48233Y8260D01*
X48262Y8410D01*
X48763D01*
X48799Y8229D01*
D02*
G37*
G36*
X-201Y16729D02*
X-16Y16452D01*
X1Y16440D01*
X250Y16232D01*
X129Y15800D01*
X8Y15618D01*
X-115Y15000D01*
X8Y14382D01*
X358Y13858D01*
X882Y13508D01*
X1500Y13385D01*
X2118Y13508D01*
X2642Y13858D01*
X2992Y14382D01*
X3115Y15000D01*
X2992Y15618D01*
X2888Y15775D01*
X2804Y16258D01*
X3018Y16411D01*
X3079Y16452D01*
X3235Y16685D01*
X3500Y16709D01*
X3765Y16685D01*
X3921Y16452D01*
X4197Y16267D01*
X4378Y16231D01*
Y15756D01*
X4260Y15733D01*
X3984Y15548D01*
X3799Y15271D01*
X3734Y14945D01*
Y13055D01*
X3799Y12729D01*
X3984Y12452D01*
X4260Y12267D01*
X4587Y12202D01*
X6476D01*
X6803Y12267D01*
X7079Y12452D01*
X7235Y12685D01*
X7500Y12709D01*
X7765Y12685D01*
X7921Y12452D01*
X8197Y12267D01*
X8378Y12231D01*
Y10656D01*
X8358Y10642D01*
X8008Y10118D01*
X7885Y9500D01*
X8008Y8882D01*
X8358Y8358D01*
X8477Y8278D01*
X8477Y8275D01*
X8349Y7763D01*
X8197Y7733D01*
X7921Y7548D01*
X7765Y7315D01*
X7500Y7291D01*
X7235Y7315D01*
X7079Y7548D01*
X6803Y7733D01*
X6476Y7797D01*
X4587D01*
X4260Y7733D01*
X3984Y7548D01*
X3799Y7271D01*
X3772Y7137D01*
X3266D01*
X3233Y7303D01*
X3048Y7579D01*
X2771Y7764D01*
X2445Y7829D01*
X555D01*
X229Y7764D01*
X-48Y7579D01*
X-233Y7303D01*
X-262Y7153D01*
X-738D01*
X-767Y7303D01*
X-952Y7579D01*
X-1185Y7735D01*
X-1209Y8000D01*
X-1185Y8265D01*
X-952Y8421D01*
X-767Y8697D01*
X-703Y9024D01*
Y10913D01*
X-767Y11240D01*
X-952Y11516D01*
X-1229Y11701D01*
X-1387Y11733D01*
Y12242D01*
X-1260Y12267D01*
X-984Y12452D01*
X-799Y12729D01*
X-734Y13055D01*
Y14945D01*
X-799Y15271D01*
X-984Y15548D01*
X-1260Y15733D01*
X-1308Y15742D01*
Y16258D01*
X-1260Y16267D01*
X-984Y16452D01*
X-799Y16729D01*
X-755Y16950D01*
X-245D01*
X-201Y16729D01*
D02*
G37*
G36*
X-51235Y16185D02*
X-51079Y15952D01*
X-50803Y15767D01*
X-50653Y15738D01*
Y15262D01*
X-50803Y15233D01*
X-51079Y15048D01*
X-51264Y14771D01*
X-51329Y14445D01*
Y12555D01*
X-51264Y12229D01*
X-51079Y11952D01*
X-51036Y11923D01*
X-50804Y11761D01*
X-50909Y11283D01*
X-51008Y11134D01*
X-51131Y10516D01*
X-51008Y9898D01*
X-50658Y9374D01*
X-50134Y9023D01*
X-49516Y8901D01*
X-48898Y9023D01*
X-48374Y9374D01*
X-48023Y9898D01*
X-47901Y10516D01*
X-48023Y11134D01*
X-48133Y11297D01*
X-48255Y11748D01*
X-48005Y11938D01*
X-47984Y11952D01*
X-47799Y12229D01*
X-47774Y12355D01*
X-47264D01*
X-47233Y12197D01*
X-47048Y11921D01*
X-46815Y11765D01*
X-46791Y11500D01*
X-46815Y11235D01*
X-47048Y11079D01*
X-47233Y10803D01*
X-47297Y10476D01*
Y8587D01*
X-47233Y8260D01*
X-47149Y8135D01*
Y5316D01*
X-49402D01*
X-50096Y5178D01*
X-50686Y4784D01*
X-50871Y4507D01*
X-52083D01*
X-52512Y4422D01*
X-52876Y4179D01*
X-52876Y4179D01*
X-53289Y3766D01*
X-54445D01*
X-54771Y3701D01*
X-55048Y3516D01*
X-55233Y3240D01*
X-55262Y3090D01*
X-55738D01*
X-55767Y3240D01*
X-55952Y3516D01*
X-56229Y3701D01*
X-56555Y3766D01*
X-57576D01*
X-57767Y4228D01*
X-55110Y6885D01*
X-54911Y7183D01*
X-54841Y7534D01*
Y15280D01*
X-54413Y15702D01*
X-52524D01*
X-52197Y15767D01*
X-51921Y15952D01*
X-51765Y16185D01*
X-51500Y16209D01*
X-51235Y16185D01*
D02*
G37*
G36*
X-40753Y5457D02*
X-40753Y5457D01*
X-40389Y5213D01*
X-39960Y5128D01*
X-39960Y5128D01*
X-29546D01*
X-29333Y4628D01*
X-29623Y4195D01*
X-29761Y3500D01*
X-29623Y2805D01*
X-29229Y2216D01*
X-28640Y1822D01*
X-27945Y1684D01*
X-24598D01*
X-23903Y1822D01*
X-23314Y2216D01*
X-23266Y2289D01*
X-22350D01*
X-22271Y2236D01*
X-21945Y2171D01*
X-20620D01*
X-20569Y2161D01*
X-20569Y2161D01*
X-20234D01*
X-19501Y1428D01*
X-19492Y1382D01*
X-19142Y858D01*
X-18618Y508D01*
X-18000Y385D01*
X-17382Y508D01*
X-17298Y564D01*
X-16797Y297D01*
Y-180D01*
X-17793Y-1175D01*
X-18036Y-1539D01*
X-18122Y-1969D01*
X-18271Y-2299D01*
X-18548Y-2484D01*
X-18733Y-2760D01*
X-18762Y-2910D01*
X-19238D01*
X-19267Y-2760D01*
X-19452Y-2484D01*
X-19729Y-2299D01*
X-20055Y-2234D01*
X-21211D01*
X-22738Y-707D01*
X-23102Y-464D01*
X-23156Y-453D01*
X-23314Y-216D01*
X-23903Y178D01*
X-24598Y316D01*
X-27945D01*
X-28640Y178D01*
X-29229Y-216D01*
X-29623Y-805D01*
X-29761Y-1500D01*
X-29623Y-2195D01*
X-29229Y-2784D01*
X-28640Y-3178D01*
X-27945Y-3316D01*
X-24598D01*
X-23903Y-3178D01*
X-23626Y-2992D01*
X-22797Y-3820D01*
Y-4976D01*
X-22765Y-5137D01*
X-23236Y-5333D01*
X-23314Y-5216D01*
X-23903Y-4822D01*
X-24598Y-4684D01*
X-27945D01*
X-28640Y-4822D01*
X-29229Y-5216D01*
X-29623Y-5805D01*
X-29761Y-6500D01*
X-29623Y-7195D01*
X-29229Y-7784D01*
X-28640Y-8178D01*
X-27945Y-8316D01*
X-24598D01*
X-23903Y-8178D01*
X-23461Y-7882D01*
X-22797D01*
Y-8913D01*
X-22733Y-9240D01*
X-22548Y-9516D01*
X-22271Y-9701D01*
X-22106Y-9734D01*
Y-10241D01*
X-22240Y-10267D01*
X-22516Y-10452D01*
X-22536Y-10481D01*
X-23126Y-10498D01*
X-23314Y-10216D01*
X-23903Y-9822D01*
X-24598Y-9684D01*
X-27945D01*
X-28640Y-9822D01*
X-29229Y-10216D01*
X-29623Y-10805D01*
X-29761Y-11500D01*
X-29662Y-11999D01*
X-29825Y-12162D01*
X-30068Y-12526D01*
X-30153Y-12955D01*
X-30153Y-12955D01*
Y-14238D01*
X-30303Y-14267D01*
X-30579Y-14452D01*
X-30764Y-14729D01*
X-30829Y-15055D01*
Y-16945D01*
X-30764Y-17271D01*
X-30579Y-17548D01*
X-30303Y-17733D01*
X-30153Y-17762D01*
Y-18238D01*
X-30303Y-18267D01*
X-30579Y-18452D01*
X-30764Y-18729D01*
X-30829Y-19055D01*
Y-20945D01*
X-31001Y-21155D01*
X-42999D01*
X-43171Y-20945D01*
Y-19055D01*
X-43236Y-18729D01*
X-43421Y-18452D01*
X-43697Y-18267D01*
X-43847Y-18238D01*
Y-17762D01*
X-43697Y-17733D01*
X-43421Y-17548D01*
X-43236Y-17271D01*
X-43171Y-16945D01*
Y-15789D01*
X-42707Y-15325D01*
X-42707Y-15325D01*
X-42464Y-14961D01*
X-42378Y-14532D01*
Y-9055D01*
X-42378Y-9055D01*
X-42464Y-8626D01*
X-42707Y-8262D01*
X-42707Y-8262D01*
X-44277Y-6692D01*
X-44239Y-6500D01*
X-44377Y-5805D01*
X-44771Y-5216D01*
X-45360Y-4822D01*
X-46055Y-4684D01*
X-49402D01*
X-50096Y-4822D01*
X-50686Y-5216D01*
X-51079Y-5805D01*
X-51202Y-6424D01*
X-51702Y-6375D01*
Y-5087D01*
X-51767Y-4760D01*
X-51952Y-4484D01*
X-52229Y-4299D01*
X-52378Y-4269D01*
Y-3731D01*
X-52229Y-3701D01*
X-51952Y-3516D01*
X-51767Y-3240D01*
X-51702Y-2913D01*
Y-2856D01*
X-50578D01*
X-50096Y-3178D01*
X-49402Y-3316D01*
X-46055D01*
X-45360Y-3178D01*
X-44771Y-2784D01*
X-44377Y-2195D01*
X-44239Y-1500D01*
X-44377Y-805D01*
X-44771Y-216D01*
X-45360Y178D01*
X-46055Y316D01*
X-49402D01*
X-50096Y178D01*
X-50686Y-216D01*
X-50951Y-613D01*
X-51824D01*
X-51952Y-421D01*
X-52185Y-265D01*
X-52209Y0D01*
X-52185Y265D01*
X-51952Y421D01*
X-51767Y697D01*
X-51702Y1024D01*
Y2180D01*
X-51618Y2264D01*
X-50718D01*
X-50686Y2216D01*
X-50096Y1822D01*
X-49402Y1684D01*
X-46055D01*
X-45360Y1822D01*
X-44771Y2216D01*
X-44377Y2805D01*
X-44239Y3500D01*
X-44377Y4195D01*
X-44771Y4784D01*
X-44906Y4874D01*
Y7734D01*
X-44555D01*
X-44229Y7799D01*
X-43952Y7984D01*
X-43340Y8043D01*
X-40753Y5457D01*
D02*
G37*
G36*
X11734Y-2945D02*
X11799Y-3271D01*
X11984Y-3548D01*
X12260Y-3733D01*
X12410Y-3762D01*
Y-4238D01*
X12260Y-4267D01*
X11984Y-4452D01*
X11799Y-4729D01*
X11734Y-5055D01*
Y-6945D01*
X11799Y-7271D01*
X11984Y-7548D01*
X12260Y-7733D01*
X12387Y-7758D01*
Y-8268D01*
X12229Y-8299D01*
X11952Y-8484D01*
X11767Y-8760D01*
X11741Y-8894D01*
X11234D01*
X11201Y-8729D01*
X11016Y-8452D01*
X10740Y-8267D01*
X10413Y-8202D01*
X8524D01*
X8197Y-8267D01*
X7921Y-8452D01*
X7765Y-8685D01*
X7500Y-8709D01*
X7235Y-8685D01*
X7079Y-8452D01*
X6803Y-8267D01*
X6653Y-8238D01*
Y-7762D01*
X6803Y-7733D01*
X7079Y-7548D01*
X7264Y-7271D01*
X7329Y-6945D01*
Y-5055D01*
X7264Y-4729D01*
X7079Y-4452D01*
X7117Y-3880D01*
X7176Y-3797D01*
X7413D01*
X7740Y-3733D01*
X8016Y-3548D01*
X8201Y-3271D01*
X8266Y-2945D01*
Y-2537D01*
X11734D01*
Y-2945D01*
D02*
G37*
G36*
X-51079Y-7195D02*
X-50686Y-7784D01*
X-50096Y-8178D01*
X-49402Y-8316D01*
X-46055D01*
X-45863Y-8278D01*
X-44622Y-9520D01*
Y-14067D01*
X-44757Y-14202D01*
X-45913D01*
X-46240Y-14267D01*
X-46516Y-14452D01*
X-46701Y-14729D01*
X-46734Y-14894D01*
X-47241D01*
X-47267Y-14760D01*
X-47452Y-14484D01*
X-47729Y-14299D01*
X-48055Y-14234D01*
X-49945D01*
X-50271Y-14299D01*
X-50548Y-14484D01*
X-50733Y-14760D01*
X-50797Y-15087D01*
Y-16976D01*
X-50733Y-17303D01*
X-50548Y-17579D01*
X-50315Y-17735D01*
X-50291Y-18000D01*
X-50315Y-18265D01*
X-50548Y-18421D01*
X-50673Y-18608D01*
X-50732D01*
X-50882Y-18508D01*
X-51500Y-18385D01*
X-52118Y-18508D01*
X-52642Y-18858D01*
X-52992Y-19382D01*
X-53115Y-20000D01*
X-52992Y-20618D01*
X-52642Y-21142D01*
X-52118Y-21492D01*
X-51500Y-21615D01*
X-50882Y-21492D01*
X-50685Y-21361D01*
X-50652D01*
X-50548Y-21516D01*
X-50271Y-21701D01*
X-50137Y-21728D01*
X-49973Y-21973D01*
X-48442Y-23504D01*
X-47996Y-23803D01*
X-47469Y-23908D01*
X-31974D01*
X-31782Y-24370D01*
X-32717Y-25304D01*
X-33327Y-25182D01*
X-36673D01*
X-37560Y-25359D01*
X-38312Y-25861D01*
X-38815Y-26613D01*
X-38991Y-27500D01*
Y-36358D01*
X-38815Y-37245D01*
X-38312Y-37997D01*
X-37894Y-38276D01*
X-38046Y-38776D01*
X-51954D01*
X-52106Y-38276D01*
X-51688Y-37997D01*
X-51185Y-37245D01*
X-51009Y-36358D01*
Y-27500D01*
X-51185Y-26613D01*
X-51688Y-25861D01*
X-52440Y-25359D01*
X-53327Y-25182D01*
X-53878D01*
Y-11933D01*
X-53711Y-11766D01*
X-52555D01*
X-52229Y-11701D01*
X-51952Y-11516D01*
X-51767Y-11240D01*
X-51702Y-10913D01*
Y-9024D01*
X-51767Y-8697D01*
X-51952Y-8421D01*
X-52185Y-8265D01*
X-52209Y-8000D01*
X-52185Y-7735D01*
X-51952Y-7579D01*
X-51767Y-7303D01*
X-51702Y-6976D01*
Y-6625D01*
X-51202Y-6576D01*
X-51079Y-7195D01*
D02*
G37*
G36*
X60055Y7671D02*
X61945D01*
X62038Y7690D01*
X62538Y7359D01*
Y-14613D01*
X62169Y-14916D01*
X60544D01*
X59440Y-13812D01*
Y1500D01*
Y7328D01*
X59499Y7412D01*
X59940Y7694D01*
X60055Y7671D01*
D02*
G37*
G36*
X24074Y-14370D02*
X23986Y-14909D01*
X23921Y-14952D01*
X23736Y-15229D01*
X23671Y-15555D01*
Y-17445D01*
X23736Y-17771D01*
X23921Y-18048D01*
X24197Y-18233D01*
X24347Y-18262D01*
Y-18738D01*
X24197Y-18767D01*
X23921Y-18952D01*
X23765Y-19185D01*
X23500Y-19209D01*
X23235Y-19185D01*
X23079Y-18952D01*
X22803Y-18767D01*
X22476Y-18702D01*
X20587D01*
X20260Y-18767D01*
X19984Y-18952D01*
X19799Y-19229D01*
X19734Y-19555D01*
Y-21445D01*
X19799Y-21771D01*
X19984Y-22048D01*
X20260Y-22233D01*
X20587Y-22298D01*
X21743D01*
X23238Y-23793D01*
X23238Y-23793D01*
X23602Y-24036D01*
X24032Y-24122D01*
X26344D01*
X26358Y-24142D01*
X26882Y-24492D01*
X27500Y-24615D01*
X28118Y-24492D01*
X28642Y-24142D01*
X28992Y-23618D01*
X29115Y-23000D01*
X28992Y-22382D01*
X28642Y-21858D01*
X28118Y-21508D01*
X27500Y-21385D01*
X27266Y-21193D01*
Y-19555D01*
X27201Y-19229D01*
X27016Y-18952D01*
X26740Y-18767D01*
X26590Y-18738D01*
Y-18262D01*
X26740Y-18233D01*
X27016Y-18048D01*
X27201Y-17771D01*
X27266Y-17445D01*
Y-16289D01*
X27703Y-15852D01*
X28203Y-16059D01*
Y-17476D01*
X28267Y-17803D01*
X28452Y-18079D01*
X28729Y-18264D01*
X29055Y-18329D01*
X30945D01*
X31124Y-18293D01*
X31523Y-18526D01*
X31624Y-18630D01*
Y-22500D01*
X31728Y-23027D01*
X32027Y-23473D01*
X33027Y-24473D01*
X33027Y-24473D01*
X33473Y-24772D01*
X34000Y-24876D01*
X42202D01*
X42419Y-25339D01*
X42413Y-25376D01*
X41688Y-25861D01*
X41185Y-26613D01*
X41009Y-27500D01*
Y-36358D01*
X41185Y-37245D01*
X41688Y-37997D01*
X42106Y-38276D01*
X41954Y-38776D01*
X28046D01*
X27894Y-38276D01*
X28312Y-37997D01*
X28815Y-37245D01*
X28991Y-36358D01*
Y-27500D01*
X28815Y-26613D01*
X28312Y-25861D01*
X27560Y-25359D01*
X26673Y-25182D01*
X23327D01*
X22716Y-25304D01*
X21347Y-23934D01*
X20983Y-23691D01*
X20553Y-23605D01*
X20553Y-23605D01*
X16723D01*
X15297Y-22180D01*
Y-21024D01*
X15233Y-20697D01*
X15048Y-20421D01*
X14815Y-20265D01*
X14791Y-20000D01*
X14815Y-19735D01*
X15048Y-19579D01*
X15233Y-19303D01*
X15297Y-18976D01*
Y-17087D01*
X15233Y-16760D01*
X15048Y-16484D01*
X14771Y-16299D01*
X14622Y-16269D01*
Y-15731D01*
X14771Y-15701D01*
X15048Y-15516D01*
X15233Y-15240D01*
X15262Y-15090D01*
X15738D01*
X15767Y-15240D01*
X15952Y-15516D01*
X16229Y-15701D01*
X16555Y-15766D01*
X18445D01*
X18771Y-15701D01*
X19048Y-15516D01*
X19233Y-15240D01*
X19262Y-15090D01*
X21430D01*
X21430Y-15090D01*
X21859Y-15005D01*
X22223Y-14762D01*
X22496Y-14489D01*
X22833Y-14422D01*
X23266Y-14132D01*
X23302Y-14080D01*
X23845D01*
X24074Y-14370D01*
D02*
G37*
G36*
X58794Y-17059D02*
Y-18685D01*
X58871Y-19073D01*
X59091Y-19401D01*
X59419Y-19621D01*
X59807Y-19698D01*
X61792D01*
X61999Y-20198D01*
X60074Y-22124D01*
X51683D01*
X51548Y-21921D01*
X51271Y-21736D01*
X50945Y-21671D01*
X49055D01*
X48729Y-21736D01*
X48452Y-21921D01*
X48317Y-22124D01*
X37630D01*
X37526Y-22023D01*
X37293Y-21623D01*
X37329Y-21445D01*
Y-19555D01*
X37264Y-19229D01*
X37079Y-18952D01*
X36803Y-18767D01*
X36653Y-18738D01*
Y-18262D01*
X36803Y-18233D01*
X37079Y-18048D01*
X37235Y-17815D01*
X37500Y-17791D01*
X37765Y-17815D01*
X37921Y-18048D01*
X38197Y-18233D01*
X38524Y-18297D01*
X40413D01*
X40740Y-18233D01*
X41016Y-18048D01*
X41131Y-17876D01*
X41208D01*
X41382Y-17992D01*
X42000Y-18115D01*
X42618Y-17992D01*
X42792Y-17876D01*
X55946D01*
X56472Y-17772D01*
X56919Y-17473D01*
X58063Y-16329D01*
X58794Y-17059D01*
D02*
G37*
G36*
X11767Y-19303D02*
X11952Y-19579D01*
X12185Y-19735D01*
X12209Y-20000D01*
X12185Y-20265D01*
X11952Y-20421D01*
X11767Y-20697D01*
X11703Y-21024D01*
Y-22913D01*
X11767Y-23240D01*
X11952Y-23516D01*
X12229Y-23701D01*
X12555Y-23766D01*
X13711D01*
X15465Y-25520D01*
X15465Y-25520D01*
X15829Y-25763D01*
X16258Y-25848D01*
X20089D01*
X21130Y-26890D01*
X21009Y-27500D01*
Y-36358D01*
X21185Y-37245D01*
X21688Y-37997D01*
X22106Y-38276D01*
X21954Y-38776D01*
X8046D01*
X7894Y-38276D01*
X8312Y-37997D01*
X8815Y-37245D01*
X8991Y-36358D01*
Y-36287D01*
X9491Y-36014D01*
X10000Y-36115D01*
X10618Y-35992D01*
X11142Y-35642D01*
X11492Y-35118D01*
X11615Y-34500D01*
X11492Y-33882D01*
X11142Y-33358D01*
X10918Y-33208D01*
Y-26500D01*
X10848Y-26149D01*
X10649Y-25851D01*
X8649Y-23851D01*
X8351Y-23652D01*
X8000Y-23582D01*
X7658D01*
X7568Y-23511D01*
X7302Y-23082D01*
X7329Y-22945D01*
Y-21055D01*
X7264Y-20729D01*
X7079Y-20452D01*
X6803Y-20267D01*
X6653Y-20238D01*
Y-19762D01*
X6803Y-19733D01*
X7079Y-19548D01*
X7235Y-19315D01*
X7500Y-19291D01*
X7765Y-19315D01*
X7921Y-19548D01*
X8197Y-19733D01*
X8524Y-19797D01*
X10413D01*
X10740Y-19733D01*
X11016Y-19548D01*
X11201Y-19271D01*
X11228Y-19137D01*
X11734D01*
X11767Y-19303D01*
D02*
G37*
G36*
X-15621Y-19122D02*
Y-25182D01*
X-16673D01*
X-17560Y-25359D01*
X-18312Y-25861D01*
X-18815Y-26613D01*
X-18991Y-27500D01*
Y-36358D01*
X-18815Y-37245D01*
X-18312Y-37997D01*
X-17894Y-38276D01*
X-18046Y-38776D01*
X-31954D01*
X-32106Y-38276D01*
X-31688Y-37997D01*
X-31185Y-37245D01*
X-31009Y-36358D01*
Y-27500D01*
X-31130Y-26890D01*
X-29743Y-25503D01*
X-23060D01*
X-23060Y-25503D01*
X-22631Y-25417D01*
X-22267Y-25174D01*
X-16239Y-19145D01*
X-16238Y-19145D01*
X-16122Y-18970D01*
X-15621Y-19122D01*
D02*
G37*
G36*
X-2348Y-25351D02*
X-2149Y-25649D01*
X-918Y-26880D01*
Y-33208D01*
X-1142Y-33358D01*
X-1492Y-33882D01*
X-1615Y-34500D01*
X-1492Y-35118D01*
X-1142Y-35642D01*
X-618Y-35992D01*
X0Y-36115D01*
X509Y-36014D01*
X1009Y-36287D01*
Y-36358D01*
X1185Y-37245D01*
X1688Y-37997D01*
X2106Y-38276D01*
X1954Y-38776D01*
X-11954D01*
X-12106Y-38276D01*
X-11688Y-37997D01*
X-11185Y-37245D01*
X-11009Y-36358D01*
Y-27500D01*
X-11185Y-26613D01*
X-11533Y-26093D01*
X-11530Y-26052D01*
X-11287Y-25573D01*
X-10882Y-25492D01*
X-10708Y-25376D01*
X-4292D01*
X-4118Y-25492D01*
X-3500Y-25615D01*
X-2882Y-25492D01*
X-2547Y-25269D01*
X-2348Y-25351D01*
D02*
G37*
%LPC*%
G36*
X66500Y-25330D02*
X65728Y-25483D01*
X65074Y-25920D01*
X64637Y-26575D01*
X64483Y-27347D01*
X64637Y-28118D01*
X65074Y-28773D01*
X65728Y-29210D01*
X66500Y-29363D01*
X67272Y-29210D01*
X67926Y-28773D01*
X68363Y-28118D01*
X68517Y-27347D01*
X68363Y-26575D01*
X67926Y-25920D01*
X67272Y-25483D01*
X66500Y-25330D01*
D02*
G37*
G36*
X-25055Y72766D02*
X-26945D01*
X-27271Y72701D01*
X-27548Y72516D01*
X-27733Y72240D01*
X-27797Y71913D01*
Y70024D01*
X-27733Y69697D01*
X-27548Y69421D01*
X-27271Y69236D01*
X-26945Y69171D01*
X-25055D01*
X-24729Y69236D01*
X-24452Y69421D01*
X-24348Y69576D01*
X-23673D01*
X-23548Y69389D01*
X-23271Y69204D01*
X-22945Y69139D01*
X-21586D01*
X-19234Y66788D01*
X-19271Y66740D01*
X-19530Y66115D01*
X-19618Y65445D01*
Y63083D01*
X-19530Y62412D01*
X-19271Y61787D01*
X-18859Y61251D01*
X-18404Y60901D01*
Y52862D01*
X-18859Y52513D01*
X-19271Y51976D01*
X-19530Y51352D01*
X-19618Y50681D01*
Y46350D01*
X-19530Y45680D01*
X-19271Y45055D01*
X-18859Y44519D01*
X-18323Y44107D01*
X-17698Y43848D01*
X-17028Y43760D01*
X-16357Y43848D01*
X-15732Y44107D01*
X-15196Y44519D01*
X-14784Y45055D01*
X-14525Y45680D01*
X-14437Y46350D01*
Y50681D01*
X-14525Y51352D01*
X-14784Y51976D01*
X-15196Y52513D01*
X-15651Y52862D01*
Y60901D01*
X-15196Y61251D01*
X-14784Y61787D01*
X-14525Y62412D01*
X-14437Y63083D01*
Y65445D01*
X-14525Y66115D01*
X-14784Y66740D01*
X-15196Y67277D01*
X-15732Y67689D01*
X-16357Y67947D01*
X-16522Y67969D01*
X-20202Y71649D01*
Y71882D01*
X-20267Y72208D01*
X-20452Y72485D01*
X-20729Y72670D01*
X-21055Y72734D01*
X-22945D01*
X-23271Y72670D01*
X-23548Y72485D01*
X-23652Y72329D01*
X-24327D01*
X-24452Y72516D01*
X-24729Y72701D01*
X-25055Y72766D01*
D02*
G37*
G36*
X22976Y50797D02*
X21087D01*
X20760Y50733D01*
X20484Y50548D01*
X20299Y50271D01*
X20234Y49945D01*
Y48055D01*
X20299Y47729D01*
X20484Y47452D01*
X20760Y47267D01*
X21087Y47203D01*
X21274D01*
Y46482D01*
X21174Y46462D01*
X20748Y46177D01*
X20463Y45751D01*
X20363Y45248D01*
Y44520D01*
X20000Y44115D01*
X19382Y43992D01*
X18858Y43642D01*
X18508Y43118D01*
X18385Y42500D01*
X18508Y41882D01*
X18858Y41358D01*
X19382Y41008D01*
X20000Y40885D01*
X20618Y41008D01*
X21142Y41358D01*
X21492Y41882D01*
X21572Y42281D01*
X21847Y42556D01*
X23843D01*
X24345Y42656D01*
X24772Y42941D01*
X25057Y43367D01*
X25157Y43870D01*
Y45248D01*
X25057Y45751D01*
X24772Y46177D01*
X24345Y46462D01*
X23843Y46562D01*
X23517D01*
Y47411D01*
X23579Y47452D01*
X23764Y47729D01*
X23829Y48055D01*
Y49945D01*
X23764Y50271D01*
X23579Y50548D01*
X23303Y50733D01*
X22976Y50797D01*
D02*
G37*
G36*
X20312Y36870D02*
X17687D01*
X17283Y36790D01*
X16939Y36560D01*
X16710Y36217D01*
X16630Y35813D01*
Y34076D01*
X15950Y33396D01*
X13196D01*
X13022Y33512D01*
X12404Y33635D01*
X11786Y33512D01*
X11262Y33162D01*
X10912Y32638D01*
X10789Y32020D01*
X10912Y31402D01*
X11262Y30878D01*
X11786Y30527D01*
X12404Y30404D01*
X13022Y30527D01*
X13196Y30643D01*
X16520D01*
X17047Y30748D01*
X17493Y31046D01*
X18576Y32130D01*
X20312D01*
X20717Y32210D01*
X21061Y32440D01*
X21290Y32783D01*
X21370Y33187D01*
Y35813D01*
X21290Y36217D01*
X21061Y36560D01*
X20717Y36790D01*
X20312Y36870D01*
D02*
G37*
G36*
X31323Y44003D02*
X29158D01*
X28655Y43903D01*
X28228Y43618D01*
X27943Y43192D01*
X27843Y42689D01*
Y41311D01*
X27943Y40808D01*
X28228Y40382D01*
X28324Y40317D01*
X28373Y39820D01*
X25424Y36870D01*
X23687D01*
X23283Y36790D01*
X22940Y36560D01*
X22710Y36217D01*
X22630Y35813D01*
Y33187D01*
X22710Y32783D01*
X22940Y32440D01*
X23283Y32210D01*
X23687Y32130D01*
X26313D01*
X26717Y32210D01*
X27060Y32440D01*
X27290Y32783D01*
X27370Y33187D01*
Y34924D01*
X31214Y38767D01*
X31512Y39213D01*
X31617Y39740D01*
Y40055D01*
X31826Y40097D01*
X32252Y40382D01*
X32537Y40808D01*
X32637Y41311D01*
Y42689D01*
X32537Y43192D01*
X32252Y43618D01*
X31826Y43903D01*
X31323Y44003D01*
D02*
G37*
%LPD*%
D14*
X30240Y39740D02*
Y42000D01*
X25000Y34500D02*
X30240Y39740D01*
X32000Y49500D02*
X33500Y51000D01*
X38032D01*
X38146Y51114D01*
X-6469Y18531D02*
X-5000Y20000D01*
X-6469Y18000D02*
Y18531D01*
X29500Y16532D02*
X30000Y16032D01*
Y11417D02*
Y16032D01*
X49079Y62032D02*
X50000D01*
X45740Y65370D02*
X49079Y62032D01*
X45740Y65370D02*
Y66158D01*
X61000Y2000D02*
Y5531D01*
X-21500Y71000D02*
X-17028Y66528D01*
X-21937Y71000D02*
X-21500D01*
X-22000Y70937D02*
X-21937Y71000D01*
X-17028Y64264D02*
Y66528D01*
Y48516D02*
Y64264D01*
X-22016Y70953D02*
X-22000Y70937D01*
X-26000Y70969D02*
X-25984Y70953D01*
X-22016D01*
X-25032Y-20000D02*
X-21627D01*
X17028Y48516D02*
Y64264D01*
X-67500Y44000D02*
Y47000D01*
X-71090Y44090D02*
X-71000Y44000D01*
X-71090Y44090D02*
Y46621D01*
X-71500Y47032D02*
X-71090Y46621D01*
X16520Y32020D02*
X19000Y34500D01*
X12404Y32020D02*
X16520D01*
X38146Y55728D02*
X38260Y55843D01*
X38146Y51114D02*
Y55728D01*
X49968Y44386D02*
Y49000D01*
X49740Y44157D02*
X49968Y44386D01*
X49984Y53016D02*
X50000Y53031D01*
X49984Y49016D02*
Y53016D01*
X49968Y49000D02*
X49984Y49016D01*
X46016Y48984D02*
X46031Y49000D01*
X46016Y44173D02*
Y48984D01*
X46000Y44157D02*
X46016Y44173D01*
X-71090Y43910D02*
X-71000Y44000D01*
X-71090Y41879D02*
Y43910D01*
X-71500Y41469D02*
X-71090Y41879D01*
X50000Y-23500D02*
X60500D01*
X34000D02*
X50000D01*
X42104Y33687D02*
X42260Y33843D01*
X38155Y33687D02*
X42104D01*
X38000Y33531D02*
X38155Y33687D01*
X50000Y-23500D02*
Y-23469D01*
X-61500Y-3500D02*
X-61410Y-3590D01*
Y-6271D02*
Y-3590D01*
Y-6271D02*
X-60988Y-6693D01*
X33000Y-22500D02*
X34000Y-23500D01*
X33000Y-22500D02*
Y-17500D01*
X-11500Y-24000D02*
X-3500D01*
X2500Y500D02*
X4031D01*
X5531Y2000D01*
X-26272Y3500D02*
X-26107Y3665D01*
X-21304D01*
X-19664Y3537D02*
X-18127Y2000D01*
X-20569Y3537D02*
X-19664D01*
X-21000Y3968D02*
X-20569Y3537D01*
X-21304Y3665D02*
X-21000Y3968D01*
X-18127Y2000D02*
X-18000D01*
X-47469Y-22531D02*
X-26531D01*
X-49000Y-21000D02*
X-47469Y-22531D01*
X-26531D02*
X-25032Y-21032D01*
Y-20000D02*
X-25000Y-19969D01*
X-25032Y-21032D02*
Y-20000D01*
X-49000Y-21000D02*
Y-19969D01*
X-51500Y-20000D02*
X-51484Y-19984D01*
X2500Y500D02*
X2516Y484D01*
Y-1984D02*
Y484D01*
X46000Y40500D02*
X46000Y40500D01*
X46000Y40500D02*
Y44157D01*
X38000Y37468D02*
Y40000D01*
X53844Y33687D02*
X54000Y33531D01*
X49896Y33687D02*
X53844D01*
X49740Y33843D02*
X49896Y33687D01*
X54000Y37468D02*
Y40500D01*
Y45031D01*
X68910Y56410D02*
X69000Y56500D01*
X65993Y56410D02*
X68910D01*
X65740Y56157D02*
X65993Y56410D01*
X69000Y56500D02*
Y59031D01*
X67000Y61032D02*
X69000Y59031D01*
X65969Y41000D02*
X69000D01*
X54000Y31635D02*
Y33531D01*
Y31635D02*
X58063Y27571D01*
X-51500Y-13500D02*
X-51451D01*
X-49451Y-11500D01*
X-47728D01*
X-51484Y-19984D02*
X-49016D01*
X-49000Y-19969D01*
X2516Y-1984D02*
X2531Y-2000D01*
X42000Y-16500D02*
X55946D01*
X39469D02*
X42000D01*
X55946D02*
X58063Y-14382D01*
X32000Y-16500D02*
X33000Y-17500D01*
X30031Y-16500D02*
X32000D01*
X58063Y1500D02*
Y27571D01*
Y-14382D02*
Y1500D01*
X54469D02*
X58063D01*
Y27571D02*
X60988Y30496D01*
Y30693D01*
X58063Y-14382D02*
X60988Y-17307D01*
X30000Y-16532D02*
X30031Y-16500D01*
X30000Y-11417D02*
X30000Y-11417D01*
Y-16531D02*
Y-11417D01*
Y-16531D02*
X30000Y-16532D01*
X39469Y-20500D02*
X42000D01*
X-60016Y47016D02*
X-60000Y47000D01*
X-62984Y47016D02*
X-60016D01*
X-63000Y47032D02*
X-62984Y47016D01*
X-61000Y-30681D02*
X-60988Y-30693D01*
X-61000Y-30681D02*
Y-27000D01*
Y21000D02*
X-60994Y20994D01*
Y17313D02*
Y20994D01*
Y17313D02*
X-60988Y17307D01*
X-67500Y41469D02*
Y44000D01*
D15*
X-46697Y60005D02*
X-45723Y59030D01*
X-48384Y60695D02*
X-47694Y60005D01*
X-45700D01*
Y54866D02*
Y60005D01*
X-48384Y60695D02*
Y61384D01*
X-44384Y54485D02*
Y58280D01*
X-42498Y60166D01*
X-42500Y57500D02*
X-40616Y55616D01*
X-42498Y60166D02*
X-40675D01*
X-45700Y60005D02*
X-42445Y63260D01*
X-41658D01*
X-13431Y28569D02*
X1569D01*
X2000Y29000D01*
X-3731Y29769D02*
X2000Y35500D01*
X-16769Y29769D02*
X-3731D01*
X-24984Y37984D02*
X-16769Y29769D01*
X-27220Y37984D02*
X-24984D01*
X-15925Y31063D02*
X-12526D01*
X-24815Y39953D02*
X-15925Y31063D01*
X-23280Y40116D02*
X-21470D01*
X-25086Y41921D02*
X-23280Y40116D01*
X-17500Y28500D02*
X-13500D01*
X-25016Y36016D02*
X-17500Y28500D01*
X-27220Y36016D02*
X-25016D01*
X-13500Y28500D02*
X-13431Y28569D01*
X-17934Y35116D02*
X-15850Y33031D01*
X-17934Y35116D02*
Y36934D01*
X-15850Y33031D02*
X-12526D01*
X-27220Y39953D02*
X-24815D01*
X-2200Y38300D02*
X984Y41484D01*
X-2200Y36352D02*
Y38300D01*
X-5520Y33031D02*
X-2200Y36352D01*
X-9474Y33031D02*
X-5520D01*
X-1000Y37500D02*
X2953Y41453D01*
X-1000Y35768D02*
Y37500D01*
X-5705Y31063D02*
X-1000Y35768D01*
X2953Y41453D02*
Y44421D01*
X-12526Y33031D02*
X-9474D01*
X984Y41484D02*
Y44421D01*
X-984Y41747D02*
Y44421D01*
X-3687Y39043D02*
X-984Y41747D01*
X-6760Y39043D02*
X-3687D01*
X-2953Y41747D02*
Y44421D01*
X-4456Y40243D02*
X-2953Y41747D01*
X-7528Y40243D02*
X-4456D01*
X-39000Y53638D02*
Y56324D01*
X-40016Y52622D02*
X-39000Y53638D01*
X-40616Y53720D02*
Y55616D01*
X-41984Y52351D02*
X-40616Y53720D01*
X-40016Y50780D02*
Y52622D01*
X-38047Y52801D02*
X-36500Y54348D01*
X-38047Y50780D02*
Y52801D01*
X-34110Y52077D02*
X-33384Y52802D01*
X-34110Y50780D02*
Y52077D01*
X-33384Y52802D02*
Y54781D01*
X-41984Y50780D02*
Y52351D01*
X-43953Y53047D02*
X-42500Y54500D01*
X-43953Y50780D02*
Y53047D01*
X-41658Y70740D02*
X-40870D01*
X-46272D02*
X-41658D01*
X-45921Y52948D02*
X-44384Y54485D01*
X-45921Y50780D02*
Y52948D01*
X-47890Y52676D02*
X-45700Y54866D01*
X-47890Y50780D02*
Y52676D01*
X-56076Y36016D02*
X-54779D01*
X-59000Y38940D02*
X-56076Y36016D01*
Y28142D02*
X-54779D01*
X-57450Y26767D02*
X-56076Y28142D01*
X-9474Y31063D02*
X-5705D01*
X-12526D02*
X-9474D01*
X-27220Y41921D02*
X-25086D01*
X-9474Y36968D02*
X-8835D01*
X-12526D02*
X-9474D01*
X-13165D02*
X-12526D01*
X-8835D02*
X-6760Y39043D01*
X-9474Y38937D02*
X-8835D01*
X-12526D02*
X-9474D01*
X-13165D02*
X-12526D01*
X-7000Y46986D02*
X-4486Y49500D01*
X-7000Y44532D02*
Y46986D01*
Y44532D02*
X-6890Y44421D01*
X-19335Y39335D02*
X-15532D01*
X-13165Y36968D01*
X-9474Y33031D02*
X-9474Y33031D01*
X-18000Y37000D02*
X-17934Y36934D01*
X-8835Y38937D02*
X-7528Y40243D01*
X-15448Y41219D02*
X-13165Y38937D01*
X-20366Y41219D02*
X-15448D01*
X-21470Y40116D02*
X-20366Y41219D01*
X-62085Y43518D02*
X-59000Y40434D01*
X-62983Y43518D02*
X-62085D01*
X-65081Y45616D02*
X-62983Y43518D01*
X-65081Y45616D02*
Y48550D01*
X-67500Y50968D02*
X-65081Y48550D01*
X-59000Y38940D02*
Y40434D01*
X-28500Y61000D02*
X-28238Y60738D01*
X-27707D01*
X-25969Y59000D01*
X-38789Y62052D02*
Y68659D01*
X-40675Y60166D02*
X-38789Y62052D01*
X-59500Y56019D02*
Y63500D01*
X-59531Y55988D02*
X-59500Y56019D01*
X-39000Y56324D02*
X-34228Y61096D01*
X-36500Y54348D02*
Y54500D01*
X-34228Y61096D02*
Y61101D01*
X-28011Y50011D02*
X-26143D01*
X-28780Y50780D02*
X-28011Y50011D01*
X-30173Y50780D02*
X-28780D01*
X-32142D02*
Y52076D01*
X-31500Y52718D02*
Y54000D01*
X-32142Y52076D02*
X-31500Y52718D01*
X-36079Y52256D02*
X-34616Y53720D01*
X-36079Y50780D02*
Y52256D01*
X-50968Y66500D02*
X-46500Y70969D01*
X-54000Y66500D02*
X-50968D01*
X-46500Y70969D02*
X-46272Y70740D01*
X-40870D02*
X-38789Y68659D01*
X-53176Y60324D02*
Y61760D01*
X-53969Y59531D02*
X-53176Y60324D01*
X-55988Y59531D02*
X-53969D01*
X-53176Y61760D02*
X-50968Y63968D01*
X-48384Y61384D01*
X-35000Y56630D02*
Y57000D01*
Y56630D02*
X-34616Y56245D01*
Y53720D02*
Y56245D01*
X-32049Y57951D02*
X-32000Y58000D01*
X-32049Y56116D02*
Y57951D01*
X-33384Y54781D02*
X-32049Y56116D01*
X63532Y-34500D02*
X66031Y-37000D01*
X61000Y-34500D02*
X63532D01*
X-24390Y43890D02*
X-22500Y42000D01*
X-61500Y59500D02*
Y67012D01*
X-4486Y49500D02*
X-2993D01*
X4921Y38803D02*
Y44421D01*
X7500Y32969D02*
Y36224D01*
X4921Y38803D02*
X7500Y36224D01*
X-60988Y-17504D02*
Y-17110D01*
X-55468Y26173D02*
X-54779D01*
X-55759Y25883D02*
X-55468Y26173D01*
X-55759Y7534D02*
Y25883D01*
X-59581Y3711D02*
X-55759Y7534D01*
X-59581Y-3711D02*
X-57450Y-5842D01*
Y-13573D02*
Y-5842D01*
X-60988Y-17110D02*
X-57450Y-13573D01*
Y10428D02*
Y26767D01*
X-61008Y6870D02*
X-57450Y10428D01*
X-61165Y6870D02*
X-61008D01*
X-59581Y-3711D02*
Y3711D01*
X-61342Y6693D02*
X-60988D01*
X-61535Y6500D02*
X-61342Y6693D01*
X-11316Y12513D02*
Y13940D01*
X-16400Y19025D02*
X-11316Y13940D01*
X-12516Y12016D02*
Y13443D01*
X-17600Y18528D02*
X-12516Y13443D01*
X-11316Y12513D02*
X-4667Y5864D01*
Y4702D02*
Y5864D01*
X-12516Y12016D02*
X-6000Y5500D01*
Y4000D02*
Y5500D01*
X-24208Y26173D02*
X-17600Y19565D01*
Y18528D02*
Y19565D01*
X-24480Y28142D02*
X-16400Y20062D01*
Y19025D02*
Y20062D01*
X-64061Y6500D02*
X-61535D01*
X-64061Y-8439D02*
Y6500D01*
X-62693Y14193D02*
X-61725D01*
X-63463Y14963D02*
X-62693Y14193D01*
X-63463Y14963D02*
Y28021D01*
X-60988Y30496D01*
X-62805Y-9695D02*
X-61837D01*
X-64061Y-8439D02*
X-62805Y-9695D01*
X61000Y-34500D02*
Y-30705D01*
X60988Y-30693D02*
X61000Y-30705D01*
X10000Y-34500D02*
Y-26500D01*
X-1500Y-25000D02*
X0Y-26500D01*
Y-34500D02*
Y-26500D01*
X4000Y-24500D02*
X8000D01*
X0Y-20500D02*
X4000Y-24500D01*
X-4273Y-20500D02*
X0D01*
X-2300Y-21700D02*
X-1500Y-22500D01*
Y-25000D02*
Y-22500D01*
X-4770Y-21700D02*
X-2300D01*
X350Y-3120D02*
Y2372D01*
X-1228Y3950D02*
X350Y2372D01*
X-1726Y2750D02*
X-850Y1875D01*
Y-2623D02*
Y1875D01*
X8000Y-24500D02*
X10000Y-26500D01*
X-7599Y-18871D02*
X-4770Y-21700D01*
X-6399Y-18374D02*
X-4273Y-20500D01*
X-6399Y-18374D02*
Y-11990D01*
X-8150Y-10239D02*
Y-5377D01*
X-7599Y-18871D02*
Y-12487D01*
X-9350Y-10736D02*
X-7599Y-12487D01*
X-8150Y-10239D02*
X-6399Y-11990D01*
X-9350Y-10736D02*
Y-4880D01*
X-7871Y-3401D01*
X-8150Y-5377D02*
X-7374Y-4601D01*
X-1131D01*
X350Y-3120D01*
X-3915Y3950D02*
X-1228D01*
X-7871Y-3401D02*
X-1628D01*
X-850Y-2623D01*
X-4750Y2750D02*
X-1726D01*
X-6000Y4000D02*
X-4750Y2750D01*
X-4667Y4702D02*
X-3915Y3950D01*
X-27220Y28142D02*
X-24480D01*
X-27220Y26173D02*
X-24208D01*
X-66031Y-37000D02*
X-63678Y-34646D01*
Y-20193D01*
X-60988Y-17504D01*
X61000Y9500D02*
Y13000D01*
Y17000D01*
X-61837Y-9695D02*
X-59531Y-12000D01*
X-71500Y50968D02*
X-67500D01*
X-60988Y30496D02*
Y30693D01*
X-61725Y14193D02*
X-59531Y12000D01*
X-60406Y30110D02*
X-54779D01*
X-60988Y30693D02*
X-60406Y30110D01*
X-27220Y43890D02*
X-24390D01*
D17*
X-18839Y7850D02*
X-17389Y6400D01*
X-13652D02*
X-12719Y5467D01*
X-17389Y6400D02*
X-13652D01*
X-12989Y8000D02*
X-11119Y6130D01*
X-16727Y8000D02*
X-12989D01*
X-18176Y9450D02*
X-16727Y8000D01*
X20000Y42500D02*
X20205D01*
X22264Y44559D01*
X22760D01*
X22396Y44923D02*
X22760Y44559D01*
X22396Y44923D02*
Y48636D01*
X22031Y49000D02*
X22396Y48636D01*
X49548Y28400D02*
X54500Y23448D01*
Y21468D02*
Y23448D01*
X-6916Y22084D02*
X16791D01*
X23107Y28400D01*
X-9500Y19500D02*
X-6916Y22084D01*
X23107Y28400D02*
X49548D01*
X-21250Y14250D02*
X-19656Y15844D01*
X-31040Y14250D02*
X-21250D01*
X-24468Y30110D02*
X-14600Y20242D01*
X-27220Y30110D02*
X-24468D01*
X-36079Y19288D02*
X-31040Y14250D01*
X-31703Y12650D02*
X-20350D01*
X-32366Y11050D02*
X-16050D01*
X-37950Y9450D02*
X-18176D01*
X-39297Y7850D02*
X-18839D01*
X-39960Y6250D02*
X-19502D01*
X-17681Y4429D01*
X-41984Y20668D02*
X-32366Y11050D01*
X-40016Y20963D02*
X-31703Y12650D01*
X-20350D02*
X-19500Y13500D01*
X-17500D01*
X-43100Y9390D02*
X-39960Y6250D01*
X-19656Y15844D02*
X-16896D01*
X-36079Y19288D02*
Y23221D01*
X-41984Y20668D02*
Y23221D01*
X-40016Y20963D02*
Y23221D01*
X-43953Y20374D02*
X-41500Y17921D01*
Y10052D02*
Y17921D01*
X-45921Y20079D02*
X-43100Y17258D01*
Y9390D02*
Y17258D01*
X-45500Y13468D02*
Y17248D01*
X-47890Y19638D02*
X-45500Y17248D01*
X-45921Y20079D02*
Y23221D01*
X-43953Y20374D02*
Y23221D01*
X-41500Y10052D02*
X-39297Y7850D01*
X-47890Y19638D02*
Y23221D01*
X-39000Y10500D02*
X-37950Y9450D01*
X38484Y20484D02*
X38500Y20500D01*
X37760Y-11500D02*
X40000D01*
X37677Y-11417D02*
X37760Y-11500D01*
X27441Y-14528D02*
Y-11417D01*
X25469Y-16500D02*
X27441Y-14528D01*
X25469Y16500D02*
X27441Y14527D01*
Y11417D02*
Y14527D01*
X46500Y9532D02*
X50532D01*
X35118Y9646D02*
Y11417D01*
X32559Y14528D02*
X34532Y16500D01*
X32559Y11417D02*
Y14528D01*
X-59531Y70500D02*
X-59516Y70485D01*
X-4500Y58000D02*
X2500D01*
X5469Y18000D02*
X9532D01*
X1500Y15000D02*
X1516Y15016D01*
Y17984D01*
X1531Y18000D01*
X5469D02*
X5500Y17968D01*
Y14031D02*
Y17968D01*
Y14031D02*
X5531Y14000D01*
X-17000Y-1969D02*
X-15000Y32D01*
X-17000Y-4031D02*
Y-1969D01*
X-57531Y52031D02*
X-57500Y52000D01*
X-57531Y52031D02*
Y55957D01*
X-57563Y55988D02*
X-57531Y55957D01*
X-63417Y69583D02*
X-62500Y70500D01*
X-59531D01*
X-63417Y67063D02*
Y69583D01*
X-63468Y67012D02*
X-63417Y67063D01*
X-59516Y67027D02*
Y70485D01*
X-59531Y67012D02*
X-59516Y67027D01*
X-64000Y59059D02*
Y62500D01*
X-65386Y57673D02*
X-64000Y59059D01*
X-65386Y56039D02*
Y57673D01*
X-65437Y55988D02*
X-65386Y56039D01*
X-64917Y63417D02*
X-64000Y62500D01*
X-66961Y63417D02*
X-64917D01*
X-67012Y63468D02*
X-66961Y63417D01*
X-65437Y55988D02*
X-65386Y55937D01*
Y53354D02*
Y55937D01*
Y53354D02*
X-63000Y50968D01*
X40500Y59000D02*
X43500D01*
X38260Y56760D02*
X40500Y59000D01*
X38260Y55843D02*
Y56760D01*
X43500Y59000D02*
X45740Y56760D01*
Y55843D02*
Y56760D01*
X49740Y39240D02*
Y44157D01*
X48000Y37500D02*
X49740Y39240D01*
X44000Y37500D02*
X48000D01*
X42260Y39240D02*
X44000Y37500D01*
X42260Y39240D02*
Y44157D01*
X500Y-24262D02*
Y-24000D01*
Y-24262D02*
X5000Y-28762D01*
Y-31929D02*
Y-28762D01*
X-7969Y15500D02*
X-6469Y14000D01*
X-8633Y15500D02*
X-7969D01*
X-9916Y13668D02*
X-6216Y9968D01*
X-9916Y13668D02*
Y14520D01*
X-14600Y19204D02*
X-9916Y14520D01*
X-13916Y11189D02*
Y12863D01*
X-16896Y15844D02*
X-13916Y12863D01*
X-6216Y9968D02*
X-2500D01*
X-13916Y11189D02*
X-8500Y5773D01*
Y3000D02*
Y5773D01*
X17469Y-2000D02*
Y2000D01*
X-843Y-7626D02*
X1500Y-9968D01*
X-4500Y-7626D02*
X-843D01*
X32Y-15500D02*
X1500Y-14031D01*
X-3374Y-15500D02*
X32D01*
X-13000Y19867D02*
Y21000D01*
X-24079Y32079D02*
X-13000Y21000D01*
X-27220Y32079D02*
X-24079D01*
X-13000Y19867D02*
X-8633Y15500D01*
X-12719Y1693D02*
Y5467D01*
X-53500Y10500D02*
X-53484Y10516D01*
X-55000Y-11468D02*
X-53500Y-9968D01*
X-55000Y-31929D02*
Y-11468D01*
X5032Y9968D02*
X6000Y9000D01*
X1500Y9968D02*
X5032D01*
X1500Y6032D02*
X1516Y6016D01*
X5516D01*
X5531Y6000D01*
X-2500Y6032D02*
X1500D01*
X9500Y9500D02*
Y13969D01*
X9484Y13984D02*
X9500Y13969D01*
X9469Y14000D02*
X9484Y13984D01*
X20051Y11417D02*
X22323D01*
X17500Y13969D02*
X20051Y11417D01*
X13500Y13969D02*
X17500D01*
X13484Y13984D02*
X13500Y13969D01*
X9484Y13984D02*
X13484D01*
X13500Y10031D02*
X17500D01*
X13532Y2000D02*
Y6000D01*
X9469Y2000D02*
X13532D01*
X9469Y6000D02*
X13500Y10031D01*
X11219Y-24219D02*
Y-23750D01*
X9469Y-22000D02*
X11219Y-23750D01*
Y-24219D02*
X11500Y-24500D01*
X-14500Y-31429D02*
Y-14500D01*
X24032Y-23000D02*
X27500D01*
X21531Y-20500D02*
X24032Y-23000D01*
X-15000Y-31929D02*
X-14500Y-31429D01*
X-23060Y-24381D02*
X-17031Y-18352D01*
Y-12000D01*
X-8389Y-374D02*
X-4500D01*
X-11119Y2356D02*
X-8389Y-374D01*
X-12719Y1693D02*
X-10719Y-307D01*
X-11119Y2356D02*
Y6130D01*
X-10719Y-15407D02*
X-10626Y-15500D01*
X-16050Y11050D02*
X-16000Y11000D01*
X-14600Y19204D02*
Y20242D01*
X-17681Y4429D02*
X-15461D01*
X-15000Y3968D01*
X-26272Y-1500D02*
X-23531D01*
X-26011Y-6761D02*
X-22208D01*
X-26272Y-6500D02*
X-26011Y-6761D01*
X-20984Y-11984D02*
Y-7984D01*
Y-11984D02*
X-20968Y-12000D01*
X-21000Y-4031D02*
X-17000D01*
X-23531Y-1500D02*
X-21000Y-4031D01*
X-22208Y-6761D02*
X-20984Y-7984D01*
X-21000Y-7969D02*
X-17000D01*
X-23000Y1000D02*
X-22738D01*
X-22451Y713D01*
X-21681D01*
X-21000Y32D01*
X-30208Y-24381D02*
X-23060D01*
X-35000Y-29173D02*
X-30208Y-24381D01*
X-35000Y-31929D02*
Y-29173D01*
X-13000Y-11000D02*
Y-8969D01*
X-46028Y9004D02*
X-45500Y9532D01*
X-46028Y4129D02*
Y9004D01*
X-46771Y3386D02*
X-46028Y4129D01*
X-53500Y-6032D02*
Y-1969D01*
X-57250Y-1719D02*
X-53750D01*
X-57500Y-1969D02*
X-57250Y-1719D01*
X-53500Y1969D02*
X-52083Y3386D01*
X-46771D01*
X-53500Y-1969D02*
X-53266Y-1734D01*
X-47963D01*
X-47728Y-1500D01*
X-57500Y1969D02*
X-53500D01*
X1500Y-17968D02*
X1516Y-17984D01*
X5516D01*
X5531Y-18000D01*
X1500Y-6032D02*
X1516Y-6016D01*
X5516D01*
X5531Y-6032D01*
Y-10000D02*
Y-6032D01*
X-44984Y-16016D02*
X-44969Y-16032D01*
X-46055Y-6500D02*
X-43500Y-9055D01*
Y-14532D02*
Y-9055D01*
X-44969Y-16000D02*
X-43500Y-14532D01*
X-29032Y-20000D02*
Y-16000D01*
X-25016Y-16016D02*
X-25000Y-16032D01*
X-29016Y-16016D02*
X-25016D01*
X-29032Y-16000D02*
X-29016Y-16016D01*
X-27576Y-11500D02*
X-26272D01*
X-29032Y-12955D02*
X-27576Y-11500D01*
X-29032Y-16000D02*
Y-12955D01*
X-44984Y-16016D02*
X-44969Y-16000D01*
Y-20000D02*
Y-16032D01*
X-49000D02*
X-48984Y-16016D01*
X-44984D01*
X-47728Y-6500D02*
X-46055D01*
X-49531Y13500D02*
Y17500D01*
X6469Y-2000D02*
X7053Y-1416D01*
X12947D01*
X13532Y-2000D01*
Y-6000D02*
Y-2000D01*
X9500Y-5968D02*
Y-3500D01*
X9469Y-6000D02*
X9500Y-5968D01*
X9469Y-10000D02*
X9484Y-10016D01*
X13484D01*
X13500Y-10031D01*
X49484Y5484D02*
X49500Y5500D01*
X46516Y5484D02*
X49484D01*
X46500Y5469D02*
X46516Y5484D01*
X50516Y1516D02*
X50532Y1500D01*
X46516Y1516D02*
X50516D01*
X46500Y1531D02*
X46516Y1516D01*
X42500Y1531D02*
X46500D01*
X44436Y18436D02*
Y19405D01*
X42500Y16500D02*
X44436Y18436D01*
Y19405D02*
X46532Y21500D01*
X50468D02*
X50484Y21484D01*
Y17484D02*
Y21484D01*
Y17484D02*
X50500Y17469D01*
X54469Y17500D02*
X54500Y17531D01*
X50532Y17500D02*
X54469D01*
X50500Y17469D02*
X50532Y17500D01*
X50468Y13500D02*
X50500Y13532D01*
X46532Y13500D02*
X50468D01*
X46500Y13468D02*
X46532Y13500D01*
X42500Y13468D02*
X46500D01*
X37677Y11417D02*
X40449D01*
X42500Y13468D01*
X29500Y20469D02*
Y21000D01*
X28000Y22500D02*
X29500Y21000D01*
X26032Y25000D02*
X33968D01*
X21531Y20500D02*
X26032Y25000D01*
X33968D02*
X38469Y20500D01*
X30000Y-26000D02*
Y-20469D01*
X21032Y-17000D02*
X21531Y-16500D01*
X18500Y-17000D02*
X21032D01*
X13500Y18000D02*
X17500D01*
X19000Y16500D02*
X21531D01*
X17500Y18000D02*
X19000Y16500D01*
X38469D02*
X42500D01*
X38500Y20500D02*
X41500D01*
X38469D02*
X38484Y20484D01*
X35118Y-11417D02*
X37677D01*
X37677D01*
X37264Y7500D02*
X40500D01*
X35118Y9646D02*
X37264Y7500D01*
X32559Y-13528D02*
X35531Y-16500D01*
X25469Y-20500D02*
Y-16500D01*
X34532Y16500D02*
Y20500D01*
X32559Y-13528D02*
Y-11417D01*
X42531Y9532D02*
X46500D01*
X40500Y7500D02*
Y7531D01*
Y7468D02*
Y7500D01*
Y7531D02*
X42500Y9532D01*
X46500Y13468D02*
Y16000D01*
X40500Y7468D02*
X42500Y5469D01*
X5531Y-22000D02*
Y-18000D01*
X13484Y-18016D02*
X13500Y-18032D01*
X9484Y-18016D02*
X13484D01*
X9469Y-18000D02*
X9484Y-18016D01*
X20553Y-24727D02*
X25000Y-29173D01*
X16258Y-24727D02*
X20553D01*
X13500Y-21969D02*
X16258Y-24727D01*
X25000Y-31929D02*
Y-29173D01*
X13500Y-18032D02*
Y-13969D01*
X22323Y-13076D02*
Y-11417D01*
X21430Y-13969D02*
X22323Y-13076D01*
X17500Y-13969D02*
X21430D01*
X13500D02*
X17500D01*
X17857Y-6000D02*
X19694Y-7837D01*
X17469Y-6000D02*
X17857D01*
X17500Y-10031D02*
X19694Y-7837D01*
X23073D01*
X24882Y-9646D01*
Y-11417D02*
Y-9646D01*
X19694Y7837D02*
X23072D01*
X17500Y10031D02*
X19694Y7837D01*
X17857Y6000D02*
X19694Y7837D01*
X17469Y6000D02*
X17857D01*
X23072Y7837D02*
X24882Y9647D01*
Y11417D01*
X35531Y-20500D02*
Y-16500D01*
X25469Y16500D02*
Y20500D01*
X13500Y-10031D02*
X17500D01*
X-53484Y10516D02*
Y13484D01*
X-53469Y13500D01*
X-49516Y10516D02*
Y13484D01*
X-49531Y13500D02*
X-49516Y13484D01*
X-49858Y21111D02*
Y23221D01*
X-53469Y17500D02*
X-49858Y21111D01*
D21*
X-12526Y33031D02*
D03*
Y31063D02*
D03*
X-9474Y38937D02*
D03*
Y36968D02*
D03*
X-12526Y38937D02*
D03*
Y36968D02*
D03*
X-9474Y31063D02*
D03*
Y33031D02*
D03*
D22*
X-12526Y35000D02*
D03*
X-9474D02*
D03*
D23*
X31000Y70028D02*
D03*
Y60972D02*
D03*
D24*
X23000Y64000D02*
D03*
Y70000D02*
D03*
X32000Y55500D02*
D03*
Y49500D02*
D03*
D25*
X30240Y42000D02*
D03*
X22760Y39441D02*
D03*
Y44559D02*
D03*
D26*
X19000Y34500D02*
D03*
X25000D02*
D03*
X51000Y70500D02*
D03*
X57000D02*
D03*
D27*
X22323Y-11417D02*
D03*
X24882D02*
D03*
X27441D02*
D03*
X30000D02*
D03*
X32559D02*
D03*
X35118D02*
D03*
X37677D02*
D03*
X22323Y11417D02*
D03*
X24882D02*
D03*
X27441D02*
D03*
X30000D02*
D03*
X32559D02*
D03*
X35118D02*
D03*
X37677D02*
D03*
D28*
X-26272Y-11500D02*
D03*
Y-6500D02*
D03*
Y-1500D02*
D03*
Y3500D02*
D03*
X-47728Y-11500D02*
D03*
Y-6500D02*
D03*
Y-1500D02*
D03*
Y3500D02*
D03*
D29*
X-31343Y70740D02*
D03*
Y63260D02*
D03*
X-41658D02*
D03*
Y67000D02*
D03*
Y70740D02*
D03*
D30*
X-67012Y59531D02*
D03*
Y61500D02*
D03*
Y63468D02*
D03*
X-55988D02*
D03*
Y61500D02*
D03*
Y59531D02*
D03*
D31*
X-65437Y67012D02*
D03*
X-63468D02*
D03*
X-61500D02*
D03*
X-59531D02*
D03*
X-57563D02*
D03*
Y55988D02*
D03*
X-59531D02*
D03*
X-61500D02*
D03*
X-63468D02*
D03*
X-65437D02*
D03*
D32*
X38260Y66158D02*
D03*
X45740D02*
D03*
Y55843D02*
D03*
X42000D02*
D03*
X38260D02*
D03*
X62000Y56157D02*
D03*
X58260Y45842D02*
D03*
X62000D02*
D03*
X65740D02*
D03*
Y56157D02*
D03*
X58260D02*
D03*
X49740Y44157D02*
D03*
X46000D02*
D03*
X42260D02*
D03*
Y33843D02*
D03*
X49740D02*
D03*
D33*
X13189Y44421D02*
D03*
X12008D02*
D03*
X10039D02*
D03*
X8858D02*
D03*
X6890D02*
D03*
X4921D02*
D03*
X2953D02*
D03*
X984D02*
D03*
X-984D02*
D03*
X-2953D02*
D03*
X-4921D02*
D03*
X-6890D02*
D03*
X-8858D02*
D03*
X-10039D02*
D03*
X-12008D02*
D03*
X-13189D02*
D03*
D34*
X-55000Y-31929D02*
D03*
X-45000D02*
D03*
X-35000D02*
D03*
X-25000D02*
D03*
X-15000D02*
D03*
X-5000D02*
D03*
X5000D02*
D03*
X15000D02*
D03*
X25000D02*
D03*
X35000D02*
D03*
X45000D02*
D03*
X55000D02*
D03*
D35*
X-68862Y33055D02*
D03*
Y14945D02*
D03*
Y-14945D02*
D03*
Y-33055D02*
D03*
Y9055D02*
D03*
Y-9055D02*
D03*
X68862Y-33055D02*
D03*
Y-14945D02*
D03*
Y14945D02*
D03*
Y33055D02*
D03*
D36*
X-60988Y30693D02*
D03*
Y17307D02*
D03*
Y-17307D02*
D03*
Y-30693D02*
D03*
Y6693D02*
D03*
Y-6693D02*
D03*
X60988Y-30693D02*
D03*
Y-17307D02*
D03*
Y17307D02*
D03*
Y30693D02*
D03*
D37*
X50000Y53031D02*
D03*
Y56968D02*
D03*
X-50968Y63968D02*
D03*
Y60031D02*
D03*
X46500Y9532D02*
D03*
Y13468D02*
D03*
X-57500Y-1969D02*
D03*
Y1969D02*
D03*
X13500Y-10031D02*
D03*
Y-13969D02*
D03*
X-17000Y-7969D02*
D03*
Y-4031D02*
D03*
X1500Y6032D02*
D03*
Y9968D02*
D03*
X46500Y1531D02*
D03*
Y5469D02*
D03*
X29500Y16532D02*
D03*
Y20469D02*
D03*
X-13000Y-5032D02*
D03*
Y-8969D02*
D03*
X-21000Y3968D02*
D03*
Y32D02*
D03*
X-63000Y47032D02*
D03*
Y50968D02*
D03*
X-22000Y67000D02*
D03*
Y70937D02*
D03*
X50000Y62032D02*
D03*
Y65969D02*
D03*
X54000Y33531D02*
D03*
Y37468D02*
D03*
X38000Y33531D02*
D03*
Y37468D02*
D03*
X70000Y49063D02*
D03*
Y53000D02*
D03*
X54000Y48968D02*
D03*
Y45031D02*
D03*
Y61032D02*
D03*
Y64969D02*
D03*
X-53500Y1969D02*
D03*
Y-1969D02*
D03*
X13500Y-21969D02*
D03*
Y-18032D02*
D03*
X1500Y-6032D02*
D03*
Y-9968D02*
D03*
Y-17968D02*
D03*
Y-14031D02*
D03*
X17500Y-13969D02*
D03*
Y-10031D02*
D03*
X-53500Y-6032D02*
D03*
Y-9968D02*
D03*
X-45500Y13468D02*
D03*
Y9532D02*
D03*
X-49000Y-16032D02*
D03*
Y-19969D02*
D03*
X-2500Y6032D02*
D03*
Y9968D02*
D03*
X-21000Y-4031D02*
D03*
Y-7969D02*
D03*
X-15000Y3968D02*
D03*
Y32D02*
D03*
X17500Y13969D02*
D03*
Y10031D02*
D03*
X-25000Y-16032D02*
D03*
Y-19969D02*
D03*
X50500Y13532D02*
D03*
Y17469D02*
D03*
X54500Y17531D02*
D03*
Y21468D02*
D03*
X42500Y5469D02*
D03*
Y1531D02*
D03*
Y13468D02*
D03*
Y9532D02*
D03*
X7500Y29032D02*
D03*
Y32969D02*
D03*
X-26000Y67032D02*
D03*
Y70969D02*
D03*
X-67500Y47032D02*
D03*
Y50968D02*
D03*
X-63500Y37500D02*
D03*
Y41437D02*
D03*
X-67500Y37532D02*
D03*
Y41469D02*
D03*
X-71500Y37532D02*
D03*
Y41469D02*
D03*
X61000Y5531D02*
D03*
Y9469D02*
D03*
X-71500Y50968D02*
D03*
Y47032D02*
D03*
X63000Y61032D02*
D03*
Y64969D02*
D03*
X-46500Y70969D02*
D03*
Y67032D02*
D03*
X-23500Y21969D02*
D03*
Y18032D02*
D03*
X67000Y64969D02*
D03*
Y61032D02*
D03*
X50000Y-23469D02*
D03*
Y-19532D02*
D03*
X30000Y-16532D02*
D03*
Y-20469D02*
D03*
X13500Y10031D02*
D03*
Y13969D02*
D03*
D38*
X-10626Y-15500D02*
D03*
X-3374D02*
D03*
D39*
X-51827Y50780D02*
D03*
X-49858D02*
D03*
X-47890D02*
D03*
X-45921D02*
D03*
X-43953D02*
D03*
X-41984D02*
D03*
X-40016D02*
D03*
X-38047D02*
D03*
X-36079D02*
D03*
X-34110D02*
D03*
X-32142D02*
D03*
X-30173D02*
D03*
Y23221D02*
D03*
X-32142D02*
D03*
X-34110D02*
D03*
X-36079D02*
D03*
X-38047D02*
D03*
X-40016D02*
D03*
X-41984D02*
D03*
X-43953D02*
D03*
X-45921D02*
D03*
X-47890D02*
D03*
X-49858D02*
D03*
X-51827D02*
D03*
D40*
X-27220Y47827D02*
D03*
Y45858D02*
D03*
Y43890D02*
D03*
Y41921D02*
D03*
Y39953D02*
D03*
Y37984D02*
D03*
Y36016D02*
D03*
Y34047D02*
D03*
Y32079D02*
D03*
Y30110D02*
D03*
Y28142D02*
D03*
Y26173D02*
D03*
X-54779D02*
D03*
Y28142D02*
D03*
Y30110D02*
D03*
Y32079D02*
D03*
Y34047D02*
D03*
Y36016D02*
D03*
Y37984D02*
D03*
Y39953D02*
D03*
Y41921D02*
D03*
Y43890D02*
D03*
Y45858D02*
D03*
Y47827D02*
D03*
D41*
X21531Y-16500D02*
D03*
X25469D02*
D03*
X-49531Y13500D02*
D03*
X-53469D02*
D03*
X5531Y-6000D02*
D03*
X9469D02*
D03*
X13532Y-2000D02*
D03*
X17469D02*
D03*
X-44969Y-16000D02*
D03*
X-41032D02*
D03*
X21531Y16500D02*
D03*
X25469D02*
D03*
X13532Y2000D02*
D03*
X17469D02*
D03*
X-29032Y-16000D02*
D03*
X-32969D02*
D03*
X38469Y16500D02*
D03*
X34532D02*
D03*
X-2531Y18000D02*
D03*
X-6469D02*
D03*
X61968Y37000D02*
D03*
X58031D02*
D03*
X-26000Y63000D02*
D03*
X-22063D02*
D03*
X10031Y37000D02*
D03*
X13969D02*
D03*
X26469Y55000D02*
D03*
X22532D02*
D03*
X26469Y59000D02*
D03*
X22532D02*
D03*
X38032Y51000D02*
D03*
X41969D02*
D03*
X38032Y71000D02*
D03*
X41969D02*
D03*
X49968Y49000D02*
D03*
X46031D02*
D03*
X62032Y41000D02*
D03*
X65969D02*
D03*
X25469Y-20500D02*
D03*
X21531D02*
D03*
X-49531Y17500D02*
D03*
X-53469D02*
D03*
X9469Y-10000D02*
D03*
X5531D02*
D03*
X9469Y-18000D02*
D03*
X5531D02*
D03*
X6469Y-2000D02*
D03*
X2531D02*
D03*
X17469Y-6000D02*
D03*
X13532D02*
D03*
X5531Y-22000D02*
D03*
X9469D02*
D03*
X-44969Y-20000D02*
D03*
X-41032D02*
D03*
X25469Y20500D02*
D03*
X21531D02*
D03*
X9469Y6000D02*
D03*
X5531D02*
D03*
X9469Y14000D02*
D03*
X5531D02*
D03*
X5469Y18000D02*
D03*
X1531D02*
D03*
X9469Y2000D02*
D03*
X5531D02*
D03*
X17469Y6000D02*
D03*
X13532D02*
D03*
X-20968Y-12000D02*
D03*
X-17031D02*
D03*
X9532Y18000D02*
D03*
X13468D02*
D03*
X-29032Y-20000D02*
D03*
X-32969D02*
D03*
X34532Y20500D02*
D03*
X38469D02*
D03*
X-2531Y14000D02*
D03*
X-6469D02*
D03*
X50532Y9500D02*
D03*
X54469D02*
D03*
X50532Y1500D02*
D03*
X54469D02*
D03*
X50468Y21500D02*
D03*
X46532D02*
D03*
X35531Y-16500D02*
D03*
X39469D02*
D03*
X35531Y-20500D02*
D03*
X39469D02*
D03*
X-25969Y59000D02*
D03*
X-22031D02*
D03*
X22031Y49000D02*
D03*
X25969D02*
D03*
X69968Y-37000D02*
D03*
X66031D02*
D03*
X-63468Y12000D02*
D03*
X-59531D02*
D03*
X-63468Y-12000D02*
D03*
X-59531D02*
D03*
X-69968Y-37000D02*
D03*
X-66031D02*
D03*
X-25969Y55000D02*
D03*
X-22031D02*
D03*
X-52000Y56000D02*
D03*
X-48063D02*
D03*
D42*
X-4500Y-7626D02*
D03*
Y-374D02*
D03*
D43*
X2000Y35500D02*
D03*
Y29000D02*
D03*
D71*
X-41000Y37000D02*
D03*
D72*
X69968Y-37000D02*
X72000D01*
X-72000D02*
X-69968D01*
D73*
X-24751Y51749D02*
X-24457D01*
X-31472Y63130D02*
X-31190Y62847D01*
X-46500Y62000D02*
Y67032D01*
X-150Y20381D02*
X17492D01*
X-2531Y18000D02*
X-150Y20381D01*
X17492D02*
X23811Y26700D01*
X48300D01*
X-32083Y71000D02*
X-31583Y70500D01*
X-56509Y34057D02*
X-54789D01*
X-60500Y38047D02*
X-56509Y34057D01*
X-60500Y38047D02*
Y38437D01*
X-63500Y41437D02*
X-60500Y38437D01*
X-63516Y37516D02*
X-59665Y33665D01*
X-59147D02*
X-57571Y32088D01*
X-59665Y33665D02*
X-59147D01*
X-57571Y32088D02*
X-54789D01*
X-28000Y55000D02*
X-25969D01*
X-29000Y56000D02*
X-28000Y55000D01*
X-29000Y56000D02*
Y58089D01*
X-25969Y55000D02*
X-24500Y53531D01*
Y52000D02*
Y53531D01*
X-31190Y60279D02*
X-29000Y58089D01*
X-22031Y48488D02*
Y55000D01*
X-24652Y45868D02*
X-22031Y48488D01*
X-27211Y45868D02*
X-24652D01*
X-24457Y51749D02*
X-23959Y51251D01*
Y49106D02*
Y51251D01*
X-27220Y47827D02*
X-25239D01*
X-23959Y49106D01*
X-27220Y47827D02*
X-27220Y47827D01*
X-27220Y45858D02*
X-27211Y45868D01*
X-31267Y63184D02*
X-26184D01*
X-23500Y18032D02*
X-22031Y19500D01*
X-21000D01*
X-36500Y71000D02*
X-32083D01*
X-43500Y67000D02*
Y67500D01*
Y67000D02*
X-43500Y67000D01*
X-52000Y59000D02*
X-50968Y60031D01*
X-52000Y56000D02*
Y59000D01*
X-28673Y18032D02*
X-23500D01*
X-48063Y56000D02*
Y56937D01*
X-31190Y60279D02*
Y62847D01*
X-36500Y66500D02*
X-36353Y66353D01*
X-35223D01*
X-32130Y63260D01*
X-31343D01*
X-43500Y67000D02*
X-41658D01*
X-26184Y63184D02*
X-26000Y63000D01*
X-31343Y63260D02*
X-31267Y63184D01*
X-71500Y37532D02*
X-67500D01*
X-67484Y37516D01*
X-63516D01*
X5000Y56000D02*
Y71000D01*
X-31583Y70500D02*
X-31343Y70740D01*
X35000Y71000D02*
X38032D01*
X-59221Y49816D02*
X-56595D01*
X-60019Y50613D02*
X-59221Y49816D01*
X-62645Y50613D02*
X-60019D01*
X-63000Y50968D02*
X-62645Y50613D01*
X-54779Y47827D02*
X-53814D01*
X-53804Y47836D01*
Y47837D01*
X-51827Y49814D01*
Y50780D01*
X-55000Y51411D02*
Y56000D01*
X-56595Y49816D02*
X-55000Y51411D01*
Y56000D02*
X-52000D01*
X-51837Y55836D01*
Y50789D02*
Y55836D01*
Y50789D02*
X-51827Y50780D01*
X-49858Y54205D02*
X-48063Y56000D01*
X-49858Y50780D02*
Y54205D01*
X-25032Y23500D02*
X-23500Y21969D01*
X-26500Y23500D02*
X-25032D01*
X9500Y39500D02*
X9647Y39353D01*
Y37385D02*
Y39353D01*
Y37385D02*
X10031Y37000D01*
X38032Y71000D02*
X38146Y70886D01*
Y66272D02*
Y70886D01*
Y66272D02*
X38260Y66158D01*
X41969Y51000D02*
X42000Y51032D01*
Y55843D01*
X48300Y26700D02*
X50500Y24500D01*
X-30173Y22173D02*
X-28500Y20500D01*
X-24969D01*
X-23500Y21969D01*
X-32133Y21491D02*
X-28673Y18032D01*
X-30173Y22173D02*
Y23221D01*
X-32133Y21491D02*
Y23211D01*
X-32142Y23221D02*
X-32133Y23211D01*
X54500Y13484D02*
X54531Y13516D01*
X-2531Y14000D02*
Y18000D01*
X54500Y9531D02*
Y13484D01*
X54469Y9500D02*
X54500Y9531D01*
X-54789Y32088D02*
X-54779Y32079D01*
X-54789Y34057D02*
X-54779Y34047D01*
D74*
X45669Y61300D02*
X50000Y56968D01*
X38300Y61300D02*
X45669D01*
X32250Y55250D02*
X38300Y61300D01*
X31500Y55000D02*
X32000Y55500D01*
X26469Y55000D02*
X31500D01*
X12000Y70000D02*
X23000D01*
X8298Y66298D02*
X12000Y70000D01*
X23000Y64000D02*
X29500D01*
X31000Y62500D01*
Y60972D02*
Y62500D01*
X8298Y52500D02*
Y66298D01*
X-4727Y52500D02*
X8298D01*
Y49209D02*
Y52500D01*
X9430Y46174D02*
Y48077D01*
X8298Y49209D02*
X9430Y48077D01*
X-9430Y47797D02*
X-4727Y52500D01*
X-9430Y46174D02*
Y47797D01*
X50000Y56968D02*
Y57032D01*
X26900Y59431D02*
X29656D01*
X26469Y55000D02*
Y59000D01*
X26900Y59431D01*
X29656D02*
X31000Y60776D01*
Y60972D01*
X50000Y57032D02*
X54000Y61032D01*
D75*
X66969Y64969D02*
X67000Y65000D01*
X63000Y64969D02*
X66969D01*
X62000Y41000D02*
X62016Y41016D01*
X60149Y40968D02*
X62000D01*
X62016Y41016D02*
Y45827D01*
X62000Y45842D02*
X62016Y45827D01*
X55489Y63511D02*
X55512D01*
X54031Y64969D02*
X55489Y63511D01*
X54000Y64969D02*
X54031D01*
X55512Y63511D02*
X57000Y62023D01*
X57011Y62011D01*
X57000Y59469D02*
Y62023D01*
X59969Y64969D02*
X63000D01*
X57011Y62011D02*
X59969Y64969D01*
X54000Y56469D02*
X57000Y59469D01*
X54000Y52000D02*
Y56469D01*
X59181Y40000D02*
X60149Y40968D01*
X59000Y40000D02*
X59181D01*
X56500Y44083D02*
X58260Y45842D01*
X56500Y38532D02*
Y44083D01*
Y38532D02*
X58031Y37000D01*
X62000Y37031D02*
Y40968D01*
X61968Y37000D02*
X62000Y37031D01*
X58031Y34969D02*
Y37000D01*
Y34969D02*
X59000Y34000D01*
X63000D01*
X63813Y33187D01*
Y-20187D02*
Y33187D01*
X58260Y45842D02*
Y46630D01*
X-13000Y-5032D02*
Y-2500D01*
X68173Y49063D02*
X70000D01*
X65740Y46630D02*
X68173Y49063D01*
X58260Y56157D02*
X58791Y55626D01*
Y54795D02*
Y55626D01*
Y54795D02*
X60647Y52939D01*
X69939D01*
X70000Y53000D01*
X65740Y45842D02*
Y46630D01*
X55921Y48968D02*
X58260Y46630D01*
X54000Y48968D02*
X55921D01*
X62000Y56157D02*
Y60031D01*
X63000Y61032D01*
X31931Y18908D02*
Y22431D01*
X32000Y22500D01*
X31012Y17989D02*
X31931Y18908D01*
X30957Y17989D02*
X31012D01*
X29500Y16532D02*
X30957Y17989D01*
X60500Y-23500D02*
X63813Y-20187D01*
D76*
X-10719Y-15407D02*
Y-307D01*
D77*
X-17028Y64264D02*
D03*
X17028D02*
D03*
D78*
Y48516D02*
D03*
X-17028D02*
D03*
D79*
X-11378Y50484D02*
D03*
X11378D02*
D03*
X-66500Y20653D02*
D03*
Y27347D02*
D03*
Y-27347D02*
D03*
Y-20653D02*
D03*
Y-3347D02*
D03*
Y3347D02*
D03*
X66500Y-20653D02*
D03*
Y-27347D02*
D03*
Y27347D02*
D03*
Y20653D02*
D03*
D80*
X-31157Y37000D02*
D03*
Y27158D02*
D03*
Y46843D02*
D03*
X-50842D02*
D03*
Y37000D02*
D03*
Y27158D02*
D03*
X-41000D02*
D03*
Y46843D02*
D03*
Y37000D02*
D03*
D81*
X31000Y31000D02*
D03*
X38000Y40000D02*
D03*
X20000Y42500D02*
D03*
X21000Y31000D02*
D03*
X29000Y34000D02*
D03*
X35500Y47500D02*
D03*
X38000D02*
D03*
X-42500Y57500D02*
D03*
X-46500Y62000D02*
D03*
X-5000Y20000D02*
D03*
X-39000Y10500D02*
D03*
X-4130Y37087D02*
D03*
X-19335Y39335D02*
D03*
X-15154Y35500D02*
D03*
X-18000Y37000D02*
D03*
X57500Y32000D02*
D03*
X55500Y26000D02*
D03*
X-70000Y0D02*
D03*
Y-24000D02*
D03*
X-64000Y34000D02*
D03*
X-72000Y-37000D02*
D03*
X72000D02*
D03*
X70000Y-24000D02*
D03*
Y24000D02*
D03*
X68500Y-9000D02*
D03*
X68000Y8000D02*
D03*
X54000Y-5800D02*
D03*
X53300Y-11100D02*
D03*
X57500Y-20000D02*
D03*
X19500Y-32500D02*
D03*
X30500D02*
D03*
X40000Y-27500D02*
D03*
Y-32500D02*
D03*
X64000Y-24500D02*
D03*
X50500Y-32500D02*
D03*
X61000Y2000D02*
D03*
X-28500Y61000D02*
D03*
X-20835Y45665D02*
D03*
X-71500Y55000D02*
D03*
X-21000Y19500D02*
D03*
X13500Y67000D02*
D03*
X17500Y39000D02*
D03*
X0Y55500D02*
D03*
X14000Y58000D02*
D03*
X-6000Y68000D02*
D03*
X0D02*
D03*
X-12000D02*
D03*
X-59500Y63500D02*
D03*
X-36500Y71000D02*
D03*
X-43500Y67500D02*
D03*
X-42500Y54500D02*
D03*
X-34228Y61101D02*
D03*
X-26143Y50011D02*
D03*
X-31500Y54000D02*
D03*
X-36500Y54500D02*
D03*
X-48000Y57500D02*
D03*
X-32000Y58000D02*
D03*
X-36500Y66500D02*
D03*
X-4500Y58000D02*
D03*
X2500D02*
D03*
X-66000Y12000D02*
D03*
X-10000Y-36000D02*
D03*
Y-27500D02*
D03*
X-16700Y-21100D02*
D03*
X-20500Y-25000D02*
D03*
X-40000D02*
D03*
X-50000D02*
D03*
X5000Y71000D02*
D03*
Y56000D02*
D03*
X-54000Y66500D02*
D03*
X-24500Y52000D02*
D03*
X-22500Y42000D02*
D03*
X35000Y71000D02*
D03*
X-57500Y52000D02*
D03*
X-61500Y59500D02*
D03*
X-59500Y70500D02*
D03*
X-55000Y56000D02*
D03*
X-2993Y49500D02*
D03*
X12404Y32020D02*
D03*
X9650Y39500D02*
D03*
X60000Y71500D02*
D03*
Y69000D02*
D03*
X48000Y69500D02*
D03*
Y72000D02*
D03*
X54000Y52000D02*
D03*
X-71000Y44000D02*
D03*
X59000Y40000D02*
D03*
X-9500Y19500D02*
D03*
X-64061Y6500D02*
D03*
X-49516Y10516D02*
D03*
X-53500Y10500D02*
D03*
X-61500Y-3500D02*
D03*
X46500Y-27981D02*
D03*
X61000Y-34500D02*
D03*
X10000D02*
D03*
X0D02*
D03*
X500Y-24000D02*
D03*
X-3500D02*
D03*
X6000Y9000D02*
D03*
X9500Y9500D02*
D03*
X11500Y-24500D02*
D03*
X-11500Y-24000D02*
D03*
X27500Y-23000D02*
D03*
X-14500Y-14500D02*
D03*
X-8500Y3000D02*
D03*
X-23000Y1000D02*
D03*
X-13000Y-2500D02*
D03*
X-18000Y2000D02*
D03*
X-17500Y13500D02*
D03*
X-16000Y11000D02*
D03*
X-13000Y-11000D02*
D03*
X-51500Y-20000D02*
D03*
X2500Y500D02*
D03*
X-33000Y2000D02*
D03*
X61000Y13000D02*
D03*
X46000Y40500D02*
D03*
X54000D02*
D03*
X69000Y56500D02*
D03*
Y41000D02*
D03*
X50500Y24500D02*
D03*
X-41000Y-10000D02*
D03*
X-33000D02*
D03*
X-41000Y2000D02*
D03*
Y-4000D02*
D03*
X-33000D02*
D03*
X-51500Y-13500D02*
D03*
X-21627Y-20000D02*
D03*
X42000Y-16500D02*
D03*
X9500Y-3500D02*
D03*
X49500Y5500D02*
D03*
X28000Y22500D02*
D03*
X-26500Y23500D02*
D03*
X1500Y15000D02*
D03*
X30000Y-26000D02*
D03*
X18500Y-17000D02*
D03*
X17500Y18000D02*
D03*
X42500Y16500D02*
D03*
X41500Y20500D02*
D03*
X40000Y-11500D02*
D03*
X32000Y22500D02*
D03*
X30000Y-4000D02*
D03*
Y4000D02*
D03*
X36000D02*
D03*
Y-4000D02*
D03*
X24000D02*
D03*
Y4000D02*
D03*
X46500Y16000D02*
D03*
X-15155Y26500D02*
D03*
X54531Y13516D02*
D03*
X42000Y-20500D02*
D03*
X9000Y25000D02*
D03*
X6000D02*
D03*
X3000D02*
D03*
X12000D02*
D03*
X15157Y25106D02*
D03*
X18000Y28000D02*
D03*
X0Y25000D02*
D03*
X-3000D02*
D03*
X-6000D02*
D03*
X-9000D02*
D03*
X-12000D02*
D03*
X-60000Y47000D02*
D03*
X-35000Y57000D02*
D03*
X-61000Y-27000D02*
D03*
Y21000D02*
D03*
X-67500Y44000D02*
D03*
M02*
