M48
;Layer_Color=9474304
;FILE_FORMAT=2:5
INCH,LZ
;TYPE=PLATED
T1F00S00C0.01181
T3F00S00C0.02559
T4F00S00C0.02756
%
T01
X-0072Y-0037
X-007Y-0024
X-0061Y-0027
X-005Y-0025
X-00515Y-002
Y-00135
X-0041Y-001
Y-0004
Y0002
X-0033
Y-0004
Y-001
X-0023Y0001
X-0018Y0002
X-0013Y-00025
Y-0011
X-00145Y-00145
X-00167Y-00211
X-0021627Y-002
X-00205Y-0025
X-00115Y-0024
X-001Y-00275
Y-0036
X0Y-00345
X001
X00195Y-00325
X00305
X003Y-0026
X00275Y-0023
X00185Y-0017
X00115Y-00245
X00005Y-0024
X-00035
X00025Y00005
X00095Y-00035
Y00095
X0006Y0009
X00015Y0015
X-0005Y002
X-00095Y00195
X-0009Y0025
X-0006
X-0003
X0
X0003
X0006
X0009
X0012
X0015157Y0025106
X0018Y0028
X0021Y0031
X0012404Y003202
X000965Y00395
X00175Y0039
X002Y00425
X0029Y0034
X0031Y0031
X0032Y00225
X0028
X00175Y0018
X0024Y0004
X003
X0036
Y-0004
X003
X0024
X004Y-00115
X0042Y-00165
Y-00205
X004Y-00275
Y-00325
X00505
X00465Y-0027981
X00575Y-002
X0064Y-00245
X0061Y-00345
X00533Y-00111
X0054Y-00058
X0061Y0002
Y0013
X0054531Y0013516
X00465Y0016
X00425Y00165
X00415Y00205
X00505Y00245
X00555Y0026
X00575Y0032
X0059Y004
X0054Y00405
X0046
X0038Y004
Y00475
X00355
X0054Y0052
X0014Y0058
X00135Y0067
X0Y0068
X-0006
X-0012
X-00045Y0058
X0Y00555
X00025Y0058
X0005Y0056
X-0002993Y00495
X-000413Y0037087
X-0015154Y00355
X-0018Y0037
X-0019335Y0039335
X-00225Y0042
X-0020835Y0045665
X-0026143Y0050011
X-00245Y0052
X-00315Y0054
X-0032Y0058
X-0035Y0057
X-00365Y00545
X-00425
Y00575
X-0048
X-00465Y0062
X-00435Y00675
X-00365Y00665
X-0034228Y0061101
X-00285Y0061
X-0031157Y0046843
Y0037
Y0027158
X-00265Y00235
X-0021Y00195
X-00175Y00135
X-0016Y0011
X-00085Y0003
X-0012Y0025
X-0015155Y00265
X-0041Y0027158
X-0050842
Y0037
Y0046843
X-006Y0047
X-00575Y0052
X-0055Y0056
X-00615Y00595
X-00595Y00635
X-0054Y00665
X-00715Y0055
X-0071Y0044
X-00675
X-0064Y0034
X-0061Y0021
X-0066Y0012
X-0064061Y00065
X-007Y0
X-00615Y-00035
X-00535Y00105
X-0049516Y0010516
X-0039Y00105
X-0041Y0037
Y0046843
X-004Y-0025
X00495Y00055
X0068Y0008
X00685Y-0009
X007Y-0024
X0072Y-0037
X007Y0024
X0069Y0041
Y00565
X006Y0069
Y00715
X0048Y0072
Y00695
X0035Y0071
X0005
X-00365
X-00595Y00705
T03
X-0011378Y0050484
X0011378
T04
X-00665Y-0027347
Y-0020653
Y-0003347
Y0003347
Y0020653
Y0027347
X00665
Y0020653
Y-0020653
Y-0027347
M30
