G04*
G04 #@! TF.GenerationSoftware,Altium Limited,Altium Designer,19.1.5 (86)*
G04*
G04 Layer_Color=65535*
%FSLAX25Y25*%
%MOIN*%
G70*
G01*
G75*
%ADD10C,0.00984*%
%ADD11C,0.00787*%
%ADD12C,0.00031*%
%ADD13C,0.00500*%
%ADD14C,0.01500*%
%ADD15C,0.00600*%
%ADD16C,0.00800*%
%ADD17C,0.01000*%
%ADD18R,0.03937X0.00787*%
G36*
X-42118Y5843D02*
X-41331D01*
Y5451D01*
X-41630Y4727D01*
X-42184Y4174D01*
X-42908Y3874D01*
X-43299D01*
D01*
X-43299D01*
X-42118Y5843D01*
D02*
G37*
G36*
X-67500Y54500D02*
Y54301D01*
X-67652Y53934D01*
X-67934Y53652D01*
X-68301Y53500D01*
X-68500D01*
X-68699D01*
X-69067Y53652D01*
X-69348Y53934D01*
X-69500Y54301D01*
Y54500D01*
Y54699D01*
X-69348Y55066D01*
X-69067Y55348D01*
X-68699Y55500D01*
X-68500D01*
X-68301D01*
X-67934Y55348D01*
X-67652Y55066D01*
X-67500Y54699D01*
Y54500D01*
D01*
D02*
G37*
G36*
X-38272Y72905D02*
X-36500D01*
Y72512D01*
X-37681Y71331D01*
X-38272D01*
Y72905D01*
D02*
G37*
G36*
X36504Y7000D02*
X36403Y6675D01*
X36393Y5993D01*
X36575Y5337D01*
X36935Y4759D01*
X37444Y4306D01*
X38061Y4016D01*
X38734Y3911D01*
X39409Y4001D01*
X39720Y4140D01*
Y4140D01*
X36882Y7000D01*
X36504Y7000D01*
D02*
G37*
G36*
X51906Y40772D02*
Y39000D01*
X51512D01*
X50331Y40181D01*
Y40772D01*
X51906D01*
D02*
G37*
G36*
X36094Y59228D02*
Y61000D01*
X36488D01*
X37669Y59819D01*
Y59228D01*
X36094D01*
D02*
G37*
G36*
X56094Y49228D02*
Y51000D01*
X56488D01*
X57669Y49819D01*
Y49228D01*
X56094D01*
D02*
G37*
G36*
X52906Y-9956D02*
X52473D01*
X54884Y-6256D01*
X55322D01*
X52906Y-9956D01*
D02*
G37*
G36*
X50988Y-6492D02*
X51042Y-6497D01*
X51106Y-6502D01*
X51175Y-6517D01*
X51248Y-6531D01*
X51317Y-6556D01*
X51327Y-6561D01*
X51347Y-6566D01*
X51386Y-6585D01*
X51430Y-6605D01*
X51480Y-6630D01*
X51534Y-6664D01*
X51588Y-6704D01*
X51642Y-6753D01*
X51647Y-6758D01*
X51667Y-6777D01*
X51691Y-6802D01*
X51721Y-6841D01*
X51755Y-6886D01*
X51790Y-6940D01*
X51824Y-6999D01*
X51854Y-7068D01*
X51858Y-7078D01*
X51863Y-7097D01*
X51878Y-7137D01*
X51893Y-7186D01*
X51903Y-7250D01*
X51917Y-7319D01*
X51922Y-7402D01*
X51927Y-7486D01*
Y-7496D01*
Y-7520D01*
X51922Y-7555D01*
Y-7604D01*
X51913Y-7663D01*
X51903Y-7722D01*
X51893Y-7786D01*
X51873Y-7850D01*
Y-7855D01*
X51863Y-7880D01*
X51854Y-7914D01*
X51834Y-7953D01*
X51814Y-8007D01*
X51785Y-8061D01*
X51755Y-8121D01*
X51716Y-8185D01*
X51711Y-8189D01*
X51696Y-8214D01*
X51676Y-8244D01*
X51642Y-8288D01*
X51608Y-8342D01*
X51558Y-8396D01*
X51509Y-8460D01*
X51450Y-8529D01*
X51445Y-8539D01*
X51421Y-8558D01*
X51386Y-8598D01*
X51342Y-8642D01*
X51283Y-8701D01*
X51219Y-8765D01*
X51145Y-8839D01*
X51066Y-8918D01*
X50446Y-9523D01*
X52109D01*
Y-9956D01*
X49856D01*
Y-9547D01*
X50742Y-8667D01*
X50747Y-8662D01*
X50751Y-8657D01*
X50776Y-8632D01*
X50815Y-8593D01*
X50865Y-8539D01*
X50924Y-8485D01*
X50983Y-8421D01*
X51037Y-8357D01*
X51091Y-8298D01*
X51096Y-8293D01*
X51116Y-8273D01*
X51140Y-8239D01*
X51170Y-8204D01*
X51204Y-8160D01*
X51239Y-8111D01*
X51273Y-8061D01*
X51302Y-8012D01*
X51307Y-8007D01*
X51317Y-7988D01*
X51327Y-7963D01*
X51347Y-7934D01*
X51362Y-7894D01*
X51381Y-7850D01*
X51396Y-7811D01*
X51406Y-7766D01*
Y-7761D01*
X51411Y-7747D01*
X51416Y-7722D01*
X51421Y-7693D01*
X51425Y-7653D01*
X51430Y-7609D01*
X51435Y-7515D01*
Y-7510D01*
Y-7496D01*
Y-7471D01*
X51430Y-7437D01*
X51425Y-7402D01*
X51421Y-7358D01*
X51401Y-7274D01*
Y-7269D01*
X51396Y-7255D01*
X51386Y-7235D01*
X51376Y-7205D01*
X51342Y-7141D01*
X51293Y-7078D01*
X51288Y-7073D01*
X51278Y-7063D01*
X51263Y-7048D01*
X51243Y-7028D01*
X51219Y-7004D01*
X51189Y-6984D01*
X51111Y-6940D01*
X51106D01*
X51091Y-6930D01*
X51066Y-6925D01*
X51037Y-6915D01*
X50997Y-6905D01*
X50953Y-6900D01*
X50904Y-6891D01*
X50806D01*
X50766Y-6895D01*
X50712Y-6900D01*
X50648Y-6915D01*
X50584Y-6930D01*
X50515Y-6955D01*
X50446Y-6989D01*
X50437Y-6994D01*
X50417Y-7004D01*
X50382Y-7028D01*
X50338Y-7053D01*
X50289Y-7092D01*
X50235Y-7132D01*
X50176Y-7186D01*
X50122Y-7240D01*
X49866Y-6935D01*
X49876Y-6925D01*
X49900Y-6900D01*
X49940Y-6866D01*
X49994Y-6817D01*
X50063Y-6768D01*
X50136Y-6713D01*
X50220Y-6659D01*
X50314Y-6610D01*
X50318D01*
X50323Y-6605D01*
X50338Y-6600D01*
X50358Y-6590D01*
X50382Y-6581D01*
X50412Y-6571D01*
X50486Y-6546D01*
X50569Y-6526D01*
X50673Y-6507D01*
X50781Y-6492D01*
X50904Y-6487D01*
X50943D01*
X50988Y-6492D01*
D02*
G37*
G36*
X48036D02*
X48090Y-6497D01*
X48154Y-6502D01*
X48223Y-6517D01*
X48296Y-6531D01*
X48365Y-6556D01*
X48375Y-6561D01*
X48395Y-6566D01*
X48434Y-6585D01*
X48478Y-6605D01*
X48528Y-6630D01*
X48582Y-6664D01*
X48636Y-6704D01*
X48690Y-6753D01*
X48695Y-6758D01*
X48715Y-6777D01*
X48739Y-6802D01*
X48769Y-6841D01*
X48803Y-6886D01*
X48838Y-6940D01*
X48872Y-6999D01*
X48902Y-7068D01*
X48906Y-7078D01*
X48911Y-7097D01*
X48926Y-7137D01*
X48941Y-7186D01*
X48951Y-7250D01*
X48965Y-7319D01*
X48970Y-7402D01*
X48975Y-7486D01*
Y-7496D01*
Y-7520D01*
X48970Y-7555D01*
Y-7604D01*
X48961Y-7663D01*
X48951Y-7722D01*
X48941Y-7786D01*
X48921Y-7850D01*
Y-7855D01*
X48911Y-7880D01*
X48902Y-7914D01*
X48882Y-7953D01*
X48862Y-8007D01*
X48833Y-8061D01*
X48803Y-8121D01*
X48764Y-8185D01*
X48759Y-8189D01*
X48744Y-8214D01*
X48724Y-8244D01*
X48690Y-8288D01*
X48656Y-8342D01*
X48606Y-8396D01*
X48557Y-8460D01*
X48498Y-8529D01*
X48493Y-8539D01*
X48469Y-8558D01*
X48434Y-8598D01*
X48390Y-8642D01*
X48331Y-8701D01*
X48267Y-8765D01*
X48193Y-8839D01*
X48114Y-8918D01*
X47494Y-9523D01*
X49157D01*
Y-9956D01*
X46904D01*
Y-9547D01*
X47790Y-8667D01*
X47794Y-8662D01*
X47799Y-8657D01*
X47824Y-8632D01*
X47863Y-8593D01*
X47913Y-8539D01*
X47972Y-8485D01*
X48031Y-8421D01*
X48085Y-8357D01*
X48139Y-8298D01*
X48144Y-8293D01*
X48164Y-8273D01*
X48188Y-8239D01*
X48218Y-8204D01*
X48252Y-8160D01*
X48287Y-8111D01*
X48321Y-8061D01*
X48351Y-8012D01*
X48355Y-8007D01*
X48365Y-7988D01*
X48375Y-7963D01*
X48395Y-7934D01*
X48410Y-7894D01*
X48429Y-7850D01*
X48444Y-7811D01*
X48454Y-7766D01*
Y-7761D01*
X48459Y-7747D01*
X48464Y-7722D01*
X48469Y-7693D01*
X48474Y-7653D01*
X48478Y-7609D01*
X48483Y-7515D01*
Y-7510D01*
Y-7496D01*
Y-7471D01*
X48478Y-7437D01*
X48474Y-7402D01*
X48469Y-7358D01*
X48449Y-7274D01*
Y-7269D01*
X48444Y-7255D01*
X48434Y-7235D01*
X48424Y-7205D01*
X48390Y-7141D01*
X48341Y-7078D01*
X48336Y-7073D01*
X48326Y-7063D01*
X48311Y-7048D01*
X48291Y-7028D01*
X48267Y-7004D01*
X48237Y-6984D01*
X48159Y-6940D01*
X48154D01*
X48139Y-6930D01*
X48114Y-6925D01*
X48085Y-6915D01*
X48045Y-6905D01*
X48001Y-6900D01*
X47952Y-6891D01*
X47854D01*
X47814Y-6895D01*
X47760Y-6900D01*
X47696Y-6915D01*
X47632Y-6930D01*
X47563Y-6955D01*
X47494Y-6989D01*
X47485Y-6994D01*
X47465Y-7004D01*
X47430Y-7028D01*
X47386Y-7053D01*
X47337Y-7092D01*
X47283Y-7132D01*
X47224Y-7186D01*
X47170Y-7240D01*
X46914Y-6935D01*
X46924Y-6925D01*
X46948Y-6900D01*
X46988Y-6866D01*
X47042Y-6817D01*
X47111Y-6768D01*
X47184Y-6713D01*
X47268Y-6659D01*
X47362Y-6610D01*
X47366D01*
X47371Y-6605D01*
X47386Y-6600D01*
X47406Y-6590D01*
X47430Y-6581D01*
X47460Y-6571D01*
X47534Y-6546D01*
X47617Y-6526D01*
X47721Y-6507D01*
X47829Y-6492D01*
X47952Y-6487D01*
X47991D01*
X48036Y-6492D01*
D02*
G37*
G36*
X42132D02*
X42186Y-6497D01*
X42250Y-6502D01*
X42319Y-6517D01*
X42392Y-6531D01*
X42461Y-6556D01*
X42471Y-6561D01*
X42491Y-6566D01*
X42530Y-6585D01*
X42574Y-6605D01*
X42624Y-6630D01*
X42678Y-6664D01*
X42732Y-6704D01*
X42786Y-6753D01*
X42791Y-6758D01*
X42811Y-6777D01*
X42835Y-6802D01*
X42865Y-6841D01*
X42899Y-6886D01*
X42934Y-6940D01*
X42968Y-6999D01*
X42998Y-7068D01*
X43002Y-7078D01*
X43007Y-7097D01*
X43022Y-7137D01*
X43037Y-7186D01*
X43047Y-7250D01*
X43062Y-7319D01*
X43066Y-7402D01*
X43071Y-7486D01*
Y-7496D01*
Y-7520D01*
X43066Y-7555D01*
Y-7604D01*
X43057Y-7663D01*
X43047Y-7722D01*
X43037Y-7786D01*
X43017Y-7850D01*
Y-7855D01*
X43007Y-7880D01*
X42998Y-7914D01*
X42978Y-7953D01*
X42958Y-8007D01*
X42929Y-8061D01*
X42899Y-8121D01*
X42860Y-8185D01*
X42855Y-8189D01*
X42840Y-8214D01*
X42820Y-8244D01*
X42786Y-8288D01*
X42752Y-8342D01*
X42702Y-8396D01*
X42653Y-8460D01*
X42594Y-8529D01*
X42589Y-8539D01*
X42565Y-8558D01*
X42530Y-8598D01*
X42486Y-8642D01*
X42427Y-8701D01*
X42363Y-8765D01*
X42289Y-8839D01*
X42210Y-8918D01*
X41590Y-9523D01*
X43253D01*
Y-9956D01*
X41000D01*
Y-9547D01*
X41886Y-8667D01*
X41890Y-8662D01*
X41895Y-8657D01*
X41920Y-8632D01*
X41959Y-8593D01*
X42009Y-8539D01*
X42068Y-8485D01*
X42127Y-8421D01*
X42181Y-8357D01*
X42235Y-8298D01*
X42240Y-8293D01*
X42259Y-8273D01*
X42284Y-8239D01*
X42314Y-8204D01*
X42348Y-8160D01*
X42382Y-8111D01*
X42417Y-8061D01*
X42447Y-8012D01*
X42451Y-8007D01*
X42461Y-7988D01*
X42471Y-7963D01*
X42491Y-7934D01*
X42505Y-7894D01*
X42525Y-7850D01*
X42540Y-7811D01*
X42550Y-7766D01*
Y-7761D01*
X42555Y-7747D01*
X42560Y-7722D01*
X42565Y-7693D01*
X42570Y-7653D01*
X42574Y-7609D01*
X42579Y-7515D01*
Y-7510D01*
Y-7496D01*
Y-7471D01*
X42574Y-7437D01*
X42570Y-7402D01*
X42565Y-7358D01*
X42545Y-7274D01*
Y-7269D01*
X42540Y-7255D01*
X42530Y-7235D01*
X42520Y-7205D01*
X42486Y-7141D01*
X42437Y-7078D01*
X42432Y-7073D01*
X42422Y-7063D01*
X42407Y-7048D01*
X42387Y-7028D01*
X42363Y-7004D01*
X42333Y-6984D01*
X42255Y-6940D01*
X42250D01*
X42235Y-6930D01*
X42210Y-6925D01*
X42181Y-6915D01*
X42141Y-6905D01*
X42097Y-6900D01*
X42048Y-6891D01*
X41950D01*
X41910Y-6895D01*
X41856Y-6900D01*
X41792Y-6915D01*
X41728Y-6930D01*
X41659Y-6955D01*
X41590Y-6989D01*
X41581Y-6994D01*
X41561Y-7004D01*
X41526Y-7028D01*
X41482Y-7053D01*
X41433Y-7092D01*
X41379Y-7132D01*
X41320Y-7186D01*
X41266Y-7240D01*
X41010Y-6935D01*
X41020Y-6925D01*
X41044Y-6900D01*
X41084Y-6866D01*
X41138Y-6817D01*
X41207Y-6768D01*
X41280Y-6713D01*
X41364Y-6659D01*
X41458Y-6610D01*
X41462D01*
X41467Y-6605D01*
X41482Y-6600D01*
X41502Y-6590D01*
X41526Y-6581D01*
X41556Y-6571D01*
X41630Y-6546D01*
X41713Y-6526D01*
X41817Y-6507D01*
X41925Y-6492D01*
X42048Y-6487D01*
X42087D01*
X42132Y-6492D01*
D02*
G37*
G36*
X59913D02*
X59976D01*
X60045Y-6502D01*
X60124Y-6512D01*
X60203Y-6526D01*
X60281Y-6546D01*
X60291D01*
X60316Y-6556D01*
X60350Y-6571D01*
X60400Y-6585D01*
X60454Y-6610D01*
X60508Y-6635D01*
X60562Y-6669D01*
X60616Y-6704D01*
X60621Y-6708D01*
X60641Y-6723D01*
X60665Y-6743D01*
X60695Y-6773D01*
X60729Y-6812D01*
X60764Y-6856D01*
X60793Y-6905D01*
X60823Y-6959D01*
X60828Y-6964D01*
X60833Y-6984D01*
X60842Y-7014D01*
X60857Y-7058D01*
X60872Y-7107D01*
X60882Y-7161D01*
X60887Y-7220D01*
X60892Y-7289D01*
Y-7294D01*
Y-7304D01*
Y-7319D01*
Y-7338D01*
X60882Y-7397D01*
X60872Y-7466D01*
X60852Y-7545D01*
X60823Y-7633D01*
X60778Y-7717D01*
X60724Y-7801D01*
X60714Y-7811D01*
X60695Y-7835D01*
X60655Y-7875D01*
X60601Y-7924D01*
X60537Y-7978D01*
X60454Y-8042D01*
X60360Y-8106D01*
X60252Y-8165D01*
X60257Y-8170D01*
X60277Y-8180D01*
X60306Y-8194D01*
X60345Y-8214D01*
X60390Y-8244D01*
X60434Y-8268D01*
X60532Y-8337D01*
X60537Y-8342D01*
X60557Y-8352D01*
X60582Y-8371D01*
X60611Y-8396D01*
X60646Y-8426D01*
X60685Y-8460D01*
X60764Y-8539D01*
X60769Y-8544D01*
X60778Y-8558D01*
X60798Y-8583D01*
X60818Y-8613D01*
X60842Y-8652D01*
X60867Y-8691D01*
X60911Y-8790D01*
X60916Y-8795D01*
X60921Y-8814D01*
X60931Y-8844D01*
X60941Y-8878D01*
X60951Y-8927D01*
X60956Y-8977D01*
X60965Y-9036D01*
Y-9100D01*
Y-9110D01*
Y-9134D01*
X60960Y-9178D01*
X60956Y-9228D01*
X60946Y-9291D01*
X60926Y-9356D01*
X60906Y-9424D01*
X60877Y-9488D01*
X60872Y-9493D01*
X60862Y-9518D01*
X60842Y-9547D01*
X60813Y-9587D01*
X60778Y-9631D01*
X60734Y-9680D01*
X60685Y-9729D01*
X60626Y-9774D01*
X60621Y-9779D01*
X60596Y-9793D01*
X60567Y-9813D01*
X60523Y-9838D01*
X60464Y-9867D01*
X60400Y-9892D01*
X60331Y-9921D01*
X60252Y-9946D01*
X60242D01*
X60213Y-9956D01*
X60168Y-9961D01*
X60114Y-9971D01*
X60040Y-9980D01*
X59962Y-9990D01*
X59873Y-9995D01*
X59780Y-10000D01*
X59730D01*
X59681Y-9995D01*
X59612Y-9990D01*
X59534Y-9985D01*
X59450Y-9975D01*
X59366Y-9961D01*
X59283Y-9941D01*
X59273Y-9936D01*
X59248Y-9931D01*
X59209Y-9916D01*
X59160Y-9897D01*
X59106Y-9872D01*
X59047Y-9843D01*
X58983Y-9808D01*
X58929Y-9769D01*
X58924Y-9764D01*
X58904Y-9749D01*
X58879Y-9725D01*
X58850Y-9695D01*
X58815Y-9656D01*
X58776Y-9606D01*
X58741Y-9557D01*
X58712Y-9503D01*
X58707Y-9498D01*
X58702Y-9474D01*
X58687Y-9444D01*
X58678Y-9400D01*
X58663Y-9351D01*
X58648Y-9291D01*
X58643Y-9228D01*
X58638Y-9159D01*
Y-9154D01*
Y-9144D01*
Y-9129D01*
X58643Y-9105D01*
Y-9080D01*
X58648Y-9046D01*
X58658Y-8972D01*
X58683Y-8888D01*
X58712Y-8800D01*
X58751Y-8706D01*
X58810Y-8618D01*
Y-8613D01*
X58820Y-8608D01*
X58845Y-8578D01*
X58884Y-8534D01*
X58943Y-8480D01*
X59022Y-8416D01*
X59115Y-8347D01*
X59229Y-8273D01*
X59356Y-8204D01*
X59352D01*
X59342Y-8194D01*
X59327Y-8185D01*
X59302Y-8175D01*
X59243Y-8140D01*
X59170Y-8091D01*
X59091Y-8037D01*
X59007Y-7973D01*
X58933Y-7899D01*
X58864Y-7825D01*
Y-7820D01*
X58860Y-7816D01*
X58840Y-7786D01*
X58815Y-7742D01*
X58791Y-7688D01*
X58761Y-7614D01*
X58737Y-7530D01*
X58717Y-7442D01*
X58712Y-7343D01*
Y-7333D01*
Y-7314D01*
X58717Y-7284D01*
X58722Y-7245D01*
X58727Y-7196D01*
X58741Y-7141D01*
X58756Y-7087D01*
X58781Y-7028D01*
X58786Y-7023D01*
X58796Y-7004D01*
X58810Y-6974D01*
X58830Y-6935D01*
X58860Y-6891D01*
X58894Y-6846D01*
X58938Y-6797D01*
X58983Y-6753D01*
X58987Y-6748D01*
X59007Y-6733D01*
X59037Y-6708D01*
X59076Y-6684D01*
X59125Y-6650D01*
X59184Y-6620D01*
X59253Y-6590D01*
X59327Y-6561D01*
X59332D01*
X59337Y-6556D01*
X59366Y-6551D01*
X59411Y-6536D01*
X59470Y-6522D01*
X59539Y-6512D01*
X59622Y-6497D01*
X59716Y-6492D01*
X59819Y-6487D01*
X59863D01*
X59913Y-6492D01*
D02*
G37*
G36*
X56975D02*
X57044Y-6502D01*
X57118Y-6512D01*
X57202Y-6531D01*
X57290Y-6556D01*
X57374Y-6590D01*
X57379D01*
X57384Y-6595D01*
X57413Y-6610D01*
X57452Y-6635D01*
X57507Y-6669D01*
X57566Y-6713D01*
X57630Y-6768D01*
X57694Y-6836D01*
X57758Y-6910D01*
X57762Y-6920D01*
X57782Y-6950D01*
X57812Y-6994D01*
X57851Y-7058D01*
X57890Y-7141D01*
X57930Y-7235D01*
X57969Y-7343D01*
X58003Y-7461D01*
Y-7466D01*
X58008Y-7476D01*
X58013Y-7496D01*
X58018Y-7520D01*
X58023Y-7550D01*
X58033Y-7589D01*
X58038Y-7633D01*
X58048Y-7683D01*
X58058Y-7737D01*
X58063Y-7796D01*
X58077Y-7934D01*
X58087Y-8081D01*
X58092Y-8248D01*
Y-8253D01*
Y-8268D01*
Y-8288D01*
Y-8312D01*
Y-8352D01*
X58087Y-8391D01*
Y-8435D01*
X58082Y-8485D01*
X58072Y-8598D01*
X58058Y-8716D01*
X58038Y-8844D01*
X58013Y-8967D01*
Y-8972D01*
X58008Y-8982D01*
X58003Y-8996D01*
X57999Y-9021D01*
X57994Y-9046D01*
X57984Y-9080D01*
X57954Y-9154D01*
X57925Y-9242D01*
X57881Y-9336D01*
X57836Y-9429D01*
X57777Y-9518D01*
Y-9523D01*
X57772Y-9528D01*
X57748Y-9557D01*
X57713Y-9597D01*
X57669Y-9651D01*
X57610Y-9705D01*
X57541Y-9769D01*
X57467Y-9823D01*
X57379Y-9877D01*
X57374D01*
X57369Y-9882D01*
X57354Y-9887D01*
X57339Y-9897D01*
X57285Y-9916D01*
X57221Y-9936D01*
X57138Y-9961D01*
X57044Y-9980D01*
X56941Y-9995D01*
X56823Y-10000D01*
X56778D01*
X56724Y-9995D01*
X56655Y-9985D01*
X56582Y-9975D01*
X56493Y-9961D01*
X56409Y-9936D01*
X56321Y-9902D01*
X56311Y-9897D01*
X56282Y-9882D01*
X56242Y-9857D01*
X56188Y-9823D01*
X56129Y-9779D01*
X56065Y-9725D01*
X56001Y-9661D01*
X55937Y-9587D01*
Y-9582D01*
X55932Y-9577D01*
X55913Y-9547D01*
X55883Y-9498D01*
X55849Y-9434D01*
X55809Y-9356D01*
X55765Y-9262D01*
X55726Y-9154D01*
X55691Y-9036D01*
Y-9031D01*
X55686Y-9021D01*
X55681Y-9001D01*
X55676Y-8977D01*
X55671Y-8942D01*
X55662Y-8908D01*
X55657Y-8863D01*
X55647Y-8809D01*
X55637Y-8755D01*
X55632Y-8696D01*
X55617Y-8563D01*
X55607Y-8411D01*
X55603Y-8248D01*
Y-8244D01*
Y-8229D01*
Y-8209D01*
Y-8180D01*
X55607Y-8145D01*
Y-8106D01*
Y-8061D01*
X55612Y-8012D01*
X55622Y-7899D01*
X55637Y-7781D01*
X55657Y-7653D01*
X55681Y-7530D01*
Y-7525D01*
X55686Y-7515D01*
X55691Y-7501D01*
X55696Y-7476D01*
X55706Y-7446D01*
X55716Y-7417D01*
X55745Y-7338D01*
X55775Y-7250D01*
X55819Y-7156D01*
X55868Y-7063D01*
X55922Y-6974D01*
Y-6969D01*
X55932Y-6964D01*
X55952Y-6935D01*
X55986Y-6891D01*
X56031Y-6841D01*
X56090Y-6782D01*
X56154Y-6723D01*
X56232Y-6664D01*
X56316Y-6615D01*
X56321D01*
X56326Y-6610D01*
X56341Y-6605D01*
X56360Y-6595D01*
X56409Y-6576D01*
X56478Y-6551D01*
X56557Y-6526D01*
X56655Y-6507D01*
X56759Y-6492D01*
X56877Y-6487D01*
X56921D01*
X56975Y-6492D01*
D02*
G37*
G36*
X45167D02*
X45236Y-6502D01*
X45310Y-6512D01*
X45394Y-6531D01*
X45482Y-6556D01*
X45566Y-6590D01*
X45571D01*
X45576Y-6595D01*
X45605Y-6610D01*
X45645Y-6635D01*
X45699Y-6669D01*
X45758Y-6713D01*
X45822Y-6768D01*
X45886Y-6836D01*
X45950Y-6910D01*
X45954Y-6920D01*
X45974Y-6950D01*
X46004Y-6994D01*
X46043Y-7058D01*
X46082Y-7141D01*
X46122Y-7235D01*
X46161Y-7343D01*
X46196Y-7461D01*
Y-7466D01*
X46200Y-7476D01*
X46205Y-7496D01*
X46210Y-7520D01*
X46215Y-7550D01*
X46225Y-7589D01*
X46230Y-7633D01*
X46240Y-7683D01*
X46250Y-7737D01*
X46255Y-7796D01*
X46269Y-7934D01*
X46279Y-8081D01*
X46284Y-8248D01*
Y-8253D01*
Y-8268D01*
Y-8288D01*
Y-8312D01*
Y-8352D01*
X46279Y-8391D01*
Y-8435D01*
X46274Y-8485D01*
X46264Y-8598D01*
X46250Y-8716D01*
X46230Y-8844D01*
X46205Y-8967D01*
Y-8972D01*
X46200Y-8982D01*
X46196Y-8996D01*
X46191Y-9021D01*
X46186Y-9046D01*
X46176Y-9080D01*
X46146Y-9154D01*
X46117Y-9242D01*
X46073Y-9336D01*
X46028Y-9429D01*
X45969Y-9518D01*
Y-9523D01*
X45964Y-9528D01*
X45940Y-9557D01*
X45905Y-9597D01*
X45861Y-9651D01*
X45802Y-9705D01*
X45733Y-9769D01*
X45659Y-9823D01*
X45571Y-9877D01*
X45566D01*
X45561Y-9882D01*
X45546Y-9887D01*
X45531Y-9897D01*
X45477Y-9916D01*
X45413Y-9936D01*
X45330Y-9961D01*
X45236Y-9980D01*
X45133Y-9995D01*
X45015Y-10000D01*
X44970D01*
X44916Y-9995D01*
X44847Y-9985D01*
X44774Y-9975D01*
X44685Y-9961D01*
X44601Y-9936D01*
X44513Y-9902D01*
X44503Y-9897D01*
X44473Y-9882D01*
X44434Y-9857D01*
X44380Y-9823D01*
X44321Y-9779D01*
X44257Y-9725D01*
X44193Y-9661D01*
X44129Y-9587D01*
Y-9582D01*
X44124Y-9577D01*
X44104Y-9547D01*
X44075Y-9498D01*
X44041Y-9434D01*
X44001Y-9356D01*
X43957Y-9262D01*
X43918Y-9154D01*
X43883Y-9036D01*
Y-9031D01*
X43878Y-9021D01*
X43873Y-9001D01*
X43868Y-8977D01*
X43863Y-8942D01*
X43854Y-8908D01*
X43849Y-8863D01*
X43839Y-8809D01*
X43829Y-8755D01*
X43824Y-8696D01*
X43809Y-8563D01*
X43799Y-8411D01*
X43795Y-8248D01*
Y-8244D01*
Y-8229D01*
Y-8209D01*
Y-8180D01*
X43799Y-8145D01*
Y-8106D01*
Y-8061D01*
X43804Y-8012D01*
X43814Y-7899D01*
X43829Y-7781D01*
X43849Y-7653D01*
X43873Y-7530D01*
Y-7525D01*
X43878Y-7515D01*
X43883Y-7501D01*
X43888Y-7476D01*
X43898Y-7446D01*
X43908Y-7417D01*
X43937Y-7338D01*
X43967Y-7250D01*
X44011Y-7156D01*
X44060Y-7063D01*
X44114Y-6974D01*
Y-6969D01*
X44124Y-6964D01*
X44144Y-6935D01*
X44178Y-6891D01*
X44223Y-6841D01*
X44282Y-6782D01*
X44346Y-6723D01*
X44424Y-6664D01*
X44508Y-6615D01*
X44513D01*
X44518Y-6610D01*
X44533Y-6605D01*
X44552Y-6595D01*
X44601Y-6576D01*
X44670Y-6551D01*
X44749Y-6526D01*
X44847Y-6507D01*
X44951Y-6492D01*
X45069Y-6487D01*
X45113D01*
X45167Y-6492D01*
D02*
G37*
G36*
X-2744Y34271D02*
X-1603Y32500D01*
X-2193D01*
X-3030Y33882D01*
X-3866Y32500D01*
X-4447D01*
X-3305Y34247D01*
X-4353Y35924D01*
X-3802D01*
X-3020Y34635D01*
X-2228Y35924D01*
X-1691D01*
X-2744Y34271D01*
D02*
G37*
G36*
X-5977Y35919D02*
X-5903Y35914D01*
X-5824Y35910D01*
X-5740Y35895D01*
X-5652Y35880D01*
X-5568Y35855D01*
X-5563D01*
X-5558Y35851D01*
X-5534Y35846D01*
X-5494Y35831D01*
X-5440Y35811D01*
X-5386Y35782D01*
X-5327Y35752D01*
X-5268Y35718D01*
X-5214Y35673D01*
X-5209Y35669D01*
X-5189Y35654D01*
X-5165Y35629D01*
X-5135Y35595D01*
X-5106Y35550D01*
X-5071Y35501D01*
X-5037Y35447D01*
X-5012Y35388D01*
X-5007Y35383D01*
X-5003Y35359D01*
X-4993Y35324D01*
X-4978Y35280D01*
X-4968Y35226D01*
X-4958Y35167D01*
X-4953Y35098D01*
X-4948Y35024D01*
Y35019D01*
Y34994D01*
Y34965D01*
X-4953Y34926D01*
X-4958Y34876D01*
X-4968Y34827D01*
X-4998Y34719D01*
Y34714D01*
X-5007Y34694D01*
X-5017Y34670D01*
X-5032Y34635D01*
X-5052Y34591D01*
X-5076Y34547D01*
X-5140Y34458D01*
X-5145Y34453D01*
X-5155Y34438D01*
X-5175Y34419D01*
X-5199Y34389D01*
X-5234Y34360D01*
X-5273Y34325D01*
X-5317Y34291D01*
X-5367Y34256D01*
X-5372Y34251D01*
X-5391Y34242D01*
X-5421Y34227D01*
X-5460Y34207D01*
X-5504Y34188D01*
X-5558Y34168D01*
X-5622Y34148D01*
X-5686Y34128D01*
X-5681D01*
X-5662Y34119D01*
X-5632Y34109D01*
X-5598Y34089D01*
X-5563Y34065D01*
X-5519Y34035D01*
X-5480Y34001D01*
X-5440Y33956D01*
X-5435Y33951D01*
X-5421Y33932D01*
X-5401Y33907D01*
X-5376Y33868D01*
X-5342Y33823D01*
X-5308Y33764D01*
X-5273Y33700D01*
X-5234Y33627D01*
X-4693Y32500D01*
X-5219D01*
X-5731Y33592D01*
Y33597D01*
X-5740Y33612D01*
X-5750Y33637D01*
X-5765Y33666D01*
X-5804Y33735D01*
X-5849Y33799D01*
X-5854Y33804D01*
X-5859Y33814D01*
X-5873Y33828D01*
X-5888Y33848D01*
X-5927Y33892D01*
X-5977Y33932D01*
X-5982D01*
X-5987Y33942D01*
X-6001Y33946D01*
X-6021Y33961D01*
X-6070Y33981D01*
X-6129Y34001D01*
X-6134D01*
X-6144Y34005D01*
X-6159Y34010D01*
X-6183Y34015D01*
X-6242Y34020D01*
X-6311Y34025D01*
X-6533D01*
Y32500D01*
X-7000D01*
Y35924D01*
X-6031D01*
X-5977Y35919D01*
D02*
G37*
G36*
X67891Y-49105D02*
X67935D01*
X67985Y-49110D01*
X68098Y-49120D01*
X68216Y-49135D01*
X68344Y-49154D01*
X68467Y-49179D01*
X68472D01*
X68482Y-49184D01*
X68496Y-49189D01*
X68521Y-49194D01*
X68546Y-49199D01*
X68580Y-49209D01*
X68654Y-49238D01*
X68742Y-49268D01*
X68836Y-49312D01*
X68929Y-49356D01*
X69018Y-49415D01*
X69023D01*
X69028Y-49420D01*
X69057Y-49445D01*
X69097Y-49479D01*
X69151Y-49523D01*
X69205Y-49582D01*
X69269Y-49651D01*
X69323Y-49725D01*
X69377Y-49814D01*
Y-49819D01*
X69382Y-49824D01*
X69387Y-49838D01*
X69397Y-49853D01*
X69416Y-49907D01*
X69436Y-49971D01*
X69461Y-50055D01*
X69480Y-50148D01*
X69495Y-50252D01*
X69500Y-50370D01*
Y-50414D01*
X69495Y-50468D01*
X69485Y-50537D01*
X69475Y-50611D01*
X69461Y-50699D01*
X69436Y-50783D01*
X69402Y-50872D01*
X69397Y-50881D01*
X69382Y-50911D01*
X69357Y-50950D01*
X69323Y-51004D01*
X69279Y-51063D01*
X69225Y-51127D01*
X69160Y-51191D01*
X69087Y-51255D01*
X69082D01*
X69077Y-51260D01*
X69047Y-51280D01*
X68998Y-51309D01*
X68934Y-51344D01*
X68856Y-51383D01*
X68762Y-51428D01*
X68654Y-51467D01*
X68536Y-51501D01*
X68531D01*
X68521Y-51506D01*
X68501Y-51511D01*
X68477Y-51516D01*
X68442Y-51521D01*
X68408Y-51531D01*
X68363Y-51536D01*
X68309Y-51546D01*
X68255Y-51555D01*
X68196Y-51560D01*
X68063Y-51575D01*
X67911Y-51585D01*
X67748Y-51590D01*
X67744D01*
X67729D01*
X67709D01*
X67680D01*
X67645Y-51585D01*
X67606D01*
X67562D01*
X67512Y-51580D01*
X67399Y-51570D01*
X67281Y-51555D01*
X67153Y-51536D01*
X67030Y-51511D01*
X67025D01*
X67015Y-51506D01*
X67001Y-51501D01*
X66976Y-51496D01*
X66947Y-51487D01*
X66917Y-51477D01*
X66838Y-51447D01*
X66750Y-51418D01*
X66656Y-51373D01*
X66563Y-51324D01*
X66474Y-51270D01*
X66469D01*
X66464Y-51260D01*
X66435Y-51241D01*
X66391Y-51206D01*
X66341Y-51162D01*
X66282Y-51103D01*
X66223Y-51039D01*
X66164Y-50960D01*
X66115Y-50876D01*
Y-50872D01*
X66110Y-50867D01*
X66105Y-50852D01*
X66095Y-50832D01*
X66076Y-50783D01*
X66051Y-50714D01*
X66027Y-50635D01*
X66007Y-50537D01*
X65992Y-50434D01*
X65987Y-50316D01*
Y-50271D01*
X65992Y-50217D01*
X66002Y-50148D01*
X66012Y-50074D01*
X66031Y-49991D01*
X66056Y-49902D01*
X66090Y-49819D01*
Y-49814D01*
X66095Y-49809D01*
X66110Y-49779D01*
X66135Y-49740D01*
X66169Y-49686D01*
X66213Y-49627D01*
X66268Y-49563D01*
X66336Y-49499D01*
X66410Y-49435D01*
X66420Y-49430D01*
X66450Y-49410D01*
X66494Y-49381D01*
X66558Y-49341D01*
X66641Y-49302D01*
X66735Y-49263D01*
X66843Y-49223D01*
X66961Y-49189D01*
X66966D01*
X66976Y-49184D01*
X66996Y-49179D01*
X67020Y-49174D01*
X67050Y-49169D01*
X67089Y-49159D01*
X67133Y-49154D01*
X67183Y-49145D01*
X67237Y-49135D01*
X67296Y-49130D01*
X67434Y-49115D01*
X67581Y-49105D01*
X67748Y-49100D01*
X67753D01*
X67768D01*
X67788D01*
X67812D01*
X67852D01*
X67891Y-49105D01*
D02*
G37*
G36*
X69126Y-52884D02*
X69180Y-52894D01*
X69239Y-52913D01*
X69244D01*
X69254Y-52918D01*
X69269Y-52928D01*
X69283Y-52938D01*
X69333Y-52968D01*
X69377Y-53007D01*
Y-53012D01*
X69387Y-53017D01*
X69411Y-53046D01*
X69441Y-53091D01*
X69466Y-53149D01*
Y-53154D01*
X69471Y-53164D01*
X69475Y-53179D01*
X69480Y-53199D01*
X69495Y-53253D01*
X69500Y-53317D01*
Y-53351D01*
X69495Y-53371D01*
X69485Y-53425D01*
X69466Y-53484D01*
Y-53489D01*
X69461Y-53499D01*
X69451Y-53514D01*
X69441Y-53528D01*
X69416Y-53578D01*
X69377Y-53622D01*
X69372D01*
X69367Y-53632D01*
X69338Y-53656D01*
X69293Y-53686D01*
X69239Y-53715D01*
X69234D01*
X69225Y-53720D01*
X69210Y-53725D01*
X69190Y-53730D01*
X69136Y-53745D01*
X69072Y-53750D01*
X69067D01*
X69057D01*
X69037D01*
X69018Y-53745D01*
X68964Y-53735D01*
X68905Y-53715D01*
X68900D01*
X68890Y-53710D01*
X68875Y-53701D01*
X68856Y-53691D01*
X68811Y-53661D01*
X68762Y-53622D01*
X68757Y-53617D01*
X68752Y-53612D01*
X68728Y-53583D01*
X68698Y-53538D01*
X68669Y-53484D01*
Y-53479D01*
X68664Y-53469D01*
X68659Y-53455D01*
X68649Y-53435D01*
X68639Y-53381D01*
X68634Y-53317D01*
Y-53282D01*
X68639Y-53263D01*
X68649Y-53209D01*
X68669Y-53149D01*
Y-53145D01*
X68673Y-53135D01*
X68683Y-53120D01*
X68693Y-53100D01*
X68723Y-53056D01*
X68762Y-53007D01*
X68767Y-53002D01*
X68772Y-52997D01*
X68801Y-52972D01*
X68846Y-52943D01*
X68905Y-52913D01*
X68910D01*
X68919Y-52908D01*
X68934Y-52903D01*
X68954Y-52894D01*
X69008Y-52884D01*
X69072Y-52879D01*
X69077D01*
X69087D01*
X69106D01*
X69126Y-52884D01*
D02*
G37*
G36*
X69456Y-57263D02*
X69033D01*
Y-56382D01*
X66533D01*
X66981Y-57199D01*
X66592Y-57371D01*
X66017Y-56279D01*
Y-55875D01*
X69033D01*
Y-55108D01*
X69456D01*
Y-57263D01*
D02*
G37*
G36*
Y-58945D02*
Y-59472D01*
X66828Y-60500D01*
Y-59983D01*
X68565Y-59339D01*
X68993Y-59201D01*
X68555Y-59053D01*
X66828Y-58414D01*
Y-57917D01*
X69456Y-58945D01*
D02*
G37*
G36*
X57157Y-2361D02*
X57147D01*
X57128Y-2356D01*
X57062D01*
X57039Y-2352D01*
X56864D01*
X56817Y-2356D01*
X56765Y-2361D01*
X56708Y-2366D01*
X56647Y-2371D01*
X56515Y-2389D01*
X56378Y-2418D01*
X56241Y-2456D01*
X56179Y-2479D01*
X56118Y-2507D01*
X56113D01*
X56104Y-2517D01*
X56090Y-2522D01*
X56066Y-2536D01*
X56014Y-2574D01*
X55948Y-2626D01*
X55877Y-2692D01*
X55802Y-2772D01*
X55736Y-2866D01*
X55679Y-2980D01*
X57157D01*
Y-3867D01*
X55660D01*
Y-3872D01*
X55665Y-3881D01*
X55670Y-3900D01*
X55679Y-3919D01*
X55693Y-3947D01*
X55708Y-3980D01*
X55750Y-4051D01*
X55807Y-4131D01*
X55882Y-4216D01*
X55925Y-4254D01*
X55972Y-4292D01*
X56028Y-4329D01*
X56085Y-4363D01*
X56090D01*
X56099Y-4367D01*
X56118Y-4377D01*
X56147Y-4386D01*
X56179Y-4400D01*
X56217Y-4414D01*
X56265Y-4429D01*
X56316Y-4443D01*
X56378Y-4457D01*
X56444Y-4471D01*
X56515Y-4485D01*
X56595Y-4499D01*
X56680Y-4509D01*
X56770Y-4518D01*
X56864Y-4523D01*
X57157D01*
Y-5429D01*
X56968D01*
X56921Y-5424D01*
X56807D01*
X56746Y-5420D01*
X56604Y-5410D01*
X56449Y-5396D01*
X56293Y-5377D01*
X56142Y-5349D01*
X56137D01*
X56123Y-5344D01*
X56104Y-5339D01*
X56076Y-5335D01*
X56043Y-5325D01*
X56005Y-5311D01*
X55915Y-5283D01*
X55811Y-5250D01*
X55703Y-5207D01*
X55589Y-5155D01*
X55486Y-5094D01*
X55481Y-5089D01*
X55467Y-5080D01*
X55443Y-5066D01*
X55415Y-5042D01*
X55377Y-5019D01*
X55335Y-4986D01*
X55287Y-4943D01*
X55240Y-4901D01*
X55188Y-4853D01*
X55132Y-4797D01*
X55018Y-4679D01*
X54910Y-4542D01*
X54815Y-4386D01*
X54811Y-4381D01*
X54806Y-4367D01*
X54792Y-4344D01*
X54778Y-4311D01*
X54759Y-4273D01*
X54740Y-4221D01*
X54721Y-4169D01*
X54697Y-4108D01*
X54674Y-4042D01*
X54655Y-3966D01*
X54636Y-3890D01*
X54617Y-3805D01*
X54589Y-3631D01*
X54584Y-3537D01*
X54579Y-3442D01*
Y-3437D01*
Y-3418D01*
Y-3390D01*
X54584Y-3357D01*
X54589Y-3310D01*
X54594Y-3258D01*
X54598Y-3197D01*
X54608Y-3131D01*
X54622Y-3060D01*
X54636Y-2984D01*
X54679Y-2829D01*
X54707Y-2748D01*
X54740Y-2663D01*
X54773Y-2583D01*
X54815Y-2503D01*
X54820Y-2498D01*
X54825Y-2484D01*
X54839Y-2460D01*
X54858Y-2432D01*
X54882Y-2394D01*
X54915Y-2352D01*
X54948Y-2305D01*
X54990Y-2253D01*
X55033Y-2196D01*
X55085Y-2139D01*
X55136Y-2083D01*
X55198Y-2021D01*
X55264Y-1965D01*
X55335Y-1903D01*
X55405Y-1847D01*
X55486Y-1795D01*
X55490D01*
X55500Y-1785D01*
X55514Y-1781D01*
X55533Y-1767D01*
X55561Y-1752D01*
X55589Y-1738D01*
X55627Y-1719D01*
X55670Y-1700D01*
X55764Y-1658D01*
X55877Y-1615D01*
X56005Y-1573D01*
X56142Y-1540D01*
X56147D01*
X56161Y-1535D01*
X56179Y-1531D01*
X56213Y-1526D01*
X56250Y-1521D01*
X56293Y-1512D01*
X56345Y-1507D01*
X56401Y-1497D01*
X56467Y-1488D01*
X56538Y-1483D01*
X56614Y-1474D01*
X56689Y-1469D01*
X56864Y-1460D01*
X57053Y-1455D01*
X57157D01*
Y-2361D01*
D02*
G37*
G36*
X46612Y-2389D02*
X46603D01*
X46584Y-2385D01*
X46513D01*
X46489Y-2380D01*
X46324D01*
X46277Y-2385D01*
X46225Y-2389D01*
X46164Y-2394D01*
X46093Y-2404D01*
X46017Y-2413D01*
X45862Y-2446D01*
X45777Y-2470D01*
X45696Y-2498D01*
X45616Y-2531D01*
X45536Y-2564D01*
X45460Y-2611D01*
X45394Y-2659D01*
X45390Y-2663D01*
X45380Y-2673D01*
X45361Y-2687D01*
X45342Y-2710D01*
X45314Y-2739D01*
X45286Y-2772D01*
X45253Y-2814D01*
X45224Y-2857D01*
X45191Y-2913D01*
X45158Y-2970D01*
X45130Y-3036D01*
X45102Y-3102D01*
X45083Y-3182D01*
X45064Y-3263D01*
X45055Y-3348D01*
X45050Y-3442D01*
Y-3447D01*
Y-3466D01*
X45055Y-3489D01*
Y-3527D01*
X45059Y-3570D01*
X45069Y-3621D01*
X45078Y-3673D01*
X45092Y-3735D01*
X45111Y-3796D01*
X45135Y-3862D01*
X45163Y-3928D01*
X45196Y-3990D01*
X45234Y-4056D01*
X45281Y-4117D01*
X45333Y-4178D01*
X45394Y-4230D01*
X45399Y-4235D01*
X45408Y-4240D01*
X45432Y-4254D01*
X45460Y-4273D01*
X45493Y-4292D01*
X45536Y-4315D01*
X45588Y-4344D01*
X45649Y-4367D01*
X45715Y-4391D01*
X45786Y-4419D01*
X45871Y-4443D01*
X45956Y-4462D01*
X46055Y-4481D01*
X46159Y-4490D01*
X46268Y-4499D01*
X46385Y-4504D01*
X46612D01*
Y-5429D01*
X46423D01*
X46376Y-5424D01*
X46263D01*
X46201Y-5420D01*
X46060Y-5410D01*
X45904Y-5396D01*
X45748Y-5377D01*
X45597Y-5349D01*
X45593D01*
X45578Y-5344D01*
X45559Y-5339D01*
X45531Y-5335D01*
X45498Y-5325D01*
X45460Y-5311D01*
X45371Y-5283D01*
X45267Y-5250D01*
X45158Y-5207D01*
X45045Y-5155D01*
X44941Y-5094D01*
X44936Y-5089D01*
X44922Y-5080D01*
X44899Y-5066D01*
X44870Y-5042D01*
X44833Y-5019D01*
X44790Y-4986D01*
X44743Y-4943D01*
X44696Y-4901D01*
X44644Y-4853D01*
X44587Y-4797D01*
X44474Y-4679D01*
X44365Y-4542D01*
X44271Y-4386D01*
X44266Y-4381D01*
X44262Y-4367D01*
X44247Y-4344D01*
X44233Y-4311D01*
X44214Y-4273D01*
X44195Y-4221D01*
X44177Y-4169D01*
X44153Y-4108D01*
X44129Y-4042D01*
X44111Y-3966D01*
X44092Y-3890D01*
X44073Y-3805D01*
X44044Y-3631D01*
X44040Y-3537D01*
X44035Y-3442D01*
Y-3437D01*
Y-3418D01*
Y-3390D01*
X44040Y-3357D01*
X44044Y-3310D01*
X44049Y-3258D01*
X44054Y-3197D01*
X44063Y-3131D01*
X44077Y-3060D01*
X44092Y-2984D01*
X44134Y-2829D01*
X44162Y-2748D01*
X44195Y-2663D01*
X44229Y-2583D01*
X44271Y-2503D01*
X44276Y-2498D01*
X44280Y-2484D01*
X44295Y-2460D01*
X44313Y-2432D01*
X44337Y-2394D01*
X44370Y-2352D01*
X44403Y-2305D01*
X44446Y-2253D01*
X44488Y-2196D01*
X44540Y-2139D01*
X44592Y-2083D01*
X44653Y-2021D01*
X44719Y-1965D01*
X44790Y-1903D01*
X44861Y-1847D01*
X44941Y-1795D01*
X44946D01*
X44955Y-1785D01*
X44969Y-1781D01*
X44988Y-1767D01*
X45017Y-1752D01*
X45045Y-1738D01*
X45083Y-1719D01*
X45125Y-1700D01*
X45220Y-1658D01*
X45333Y-1615D01*
X45460Y-1573D01*
X45597Y-1540D01*
X45602D01*
X45616Y-1535D01*
X45635Y-1531D01*
X45668Y-1526D01*
X45706Y-1521D01*
X45748Y-1512D01*
X45800Y-1507D01*
X45857Y-1497D01*
X45923Y-1488D01*
X45994Y-1483D01*
X46069Y-1474D01*
X46145Y-1469D01*
X46319Y-1460D01*
X46508Y-1455D01*
X46612D01*
Y-2389D01*
D02*
G37*
G36*
X70788Y-3475D02*
X70661D01*
X70632Y-3480D01*
X70604Y-3485D01*
X70533Y-3494D01*
X70453Y-3513D01*
X70368Y-3537D01*
X70288Y-3574D01*
X70212Y-3626D01*
X70203Y-3631D01*
X70184Y-3655D01*
X70155Y-3687D01*
X70122Y-3735D01*
X70085Y-3791D01*
X70056Y-3857D01*
X70037Y-3938D01*
X70028Y-4027D01*
Y-4032D01*
Y-4037D01*
Y-4051D01*
X70033Y-4070D01*
X70037Y-4112D01*
X70052Y-4169D01*
X70075Y-4235D01*
X70104Y-4301D01*
X70151Y-4363D01*
X70212Y-4424D01*
X70222Y-4428D01*
X70245Y-4447D01*
X70288Y-4471D01*
X70344Y-4495D01*
X70415Y-4523D01*
X70500Y-4546D01*
X70599Y-4565D01*
X70712Y-4570D01*
X70788D01*
Y-5429D01*
X70698D01*
X70661Y-5424D01*
X70623D01*
X70575Y-5420D01*
X70528Y-5415D01*
X70415Y-5401D01*
X70297Y-5377D01*
X70179Y-5349D01*
X70061Y-5311D01*
X70056D01*
X70047Y-5306D01*
X70033Y-5297D01*
X70014Y-5288D01*
X69957Y-5259D01*
X69886Y-5221D01*
X69811Y-5170D01*
X69731Y-5108D01*
X69646Y-5033D01*
X69570Y-4948D01*
X69565Y-4953D01*
X69561Y-4957D01*
X69547Y-4971D01*
X69532Y-4986D01*
X69485Y-5033D01*
X69424Y-5085D01*
X69348Y-5146D01*
X69259Y-5203D01*
X69164Y-5259D01*
X69056Y-5311D01*
X69051D01*
X69042Y-5316D01*
X69027Y-5321D01*
X69004Y-5330D01*
X68975Y-5339D01*
X68942Y-5349D01*
X68905Y-5358D01*
X68862Y-5368D01*
X68763Y-5391D01*
X68650Y-5410D01*
X68518Y-5424D01*
X68376Y-5429D01*
X68352D01*
Y-4570D01*
X68461D01*
X68485Y-4565D01*
X68513D01*
X68541Y-4561D01*
X68612Y-4551D01*
X68692Y-4532D01*
X68777Y-4509D01*
X68857Y-4471D01*
X68933Y-4424D01*
X68942Y-4419D01*
X68961Y-4395D01*
X68994Y-4363D01*
X69027Y-4320D01*
X69060Y-4263D01*
X69093Y-4193D01*
X69112Y-4117D01*
X69122Y-4027D01*
Y-4023D01*
Y-4018D01*
Y-4004D01*
X69117Y-3985D01*
X69112Y-3942D01*
X69098Y-3881D01*
X69075Y-3820D01*
X69042Y-3754D01*
X68994Y-3687D01*
X68933Y-3626D01*
X68923Y-3621D01*
X68900Y-3603D01*
X68857Y-3579D01*
X68801Y-3551D01*
X68730Y-3522D01*
X68645Y-3499D01*
X68546Y-3480D01*
X68433Y-3475D01*
X68352D01*
Y-2616D01*
X68442D01*
X68480Y-2621D01*
X68518D01*
X68565Y-2626D01*
X68612Y-2630D01*
X68721Y-2644D01*
X68834Y-2668D01*
X68952Y-2696D01*
X69060Y-2734D01*
X69065D01*
X69075Y-2739D01*
X69089Y-2748D01*
X69108Y-2758D01*
X69164Y-2786D01*
X69230Y-2824D01*
X69311Y-2876D01*
X69396Y-2942D01*
X69485Y-3017D01*
X69570Y-3107D01*
X69575Y-3102D01*
X69580Y-3097D01*
X69589Y-3083D01*
X69608Y-3064D01*
X69650Y-3022D01*
X69707Y-2965D01*
X69778Y-2909D01*
X69863Y-2847D01*
X69957Y-2786D01*
X70061Y-2739D01*
X70066D01*
X70075Y-2734D01*
X70089Y-2729D01*
X70113Y-2720D01*
X70141Y-2710D01*
X70174Y-2701D01*
X70217Y-2687D01*
X70259Y-2677D01*
X70306Y-2668D01*
X70363Y-2654D01*
X70481Y-2635D01*
X70618Y-2621D01*
X70764Y-2616D01*
X70788D01*
Y-3475D01*
D02*
G37*
G36*
X52927Y-1389D02*
X52970D01*
X53022Y-1398D01*
X53083Y-1403D01*
X53149Y-1417D01*
X53220Y-1436D01*
X53300Y-1455D01*
X53381Y-1483D01*
X53465Y-1516D01*
X53546Y-1554D01*
X53631Y-1601D01*
X53716Y-1653D01*
X53796Y-1715D01*
X53876Y-1785D01*
X53881Y-1790D01*
X53895Y-1804D01*
X53914Y-1828D01*
X53942Y-1856D01*
X53971Y-1894D01*
X54008Y-1941D01*
X54041Y-1998D01*
X54084Y-2059D01*
X54122Y-2125D01*
X54159Y-2201D01*
X54192Y-2286D01*
X54221Y-2371D01*
X54249Y-2465D01*
X54268Y-2559D01*
X54282Y-2663D01*
X54287Y-2772D01*
Y-2777D01*
Y-2800D01*
X54282Y-2833D01*
Y-2876D01*
X54273Y-2928D01*
X54263Y-2989D01*
X54249Y-3055D01*
X54230Y-3131D01*
X54207Y-3211D01*
X54178Y-3291D01*
X54145Y-3376D01*
X54103Y-3461D01*
X54051Y-3541D01*
X53994Y-3626D01*
X53923Y-3702D01*
X53848Y-3777D01*
X53843Y-3782D01*
X53829Y-3791D01*
X53801Y-3810D01*
X53768Y-3834D01*
X53725Y-3867D01*
X53668Y-3895D01*
X53607Y-3933D01*
X53536Y-3966D01*
X53456Y-3999D01*
X53371Y-4037D01*
X53277Y-4065D01*
X53173Y-4093D01*
X53060Y-4122D01*
X52942Y-4141D01*
X52814Y-4150D01*
X52682Y-4155D01*
X52583D01*
Y-3206D01*
X52776D01*
X52819Y-3201D01*
X52876Y-3192D01*
X52942Y-3178D01*
X53008Y-3154D01*
X53074Y-3126D01*
X53130Y-3088D01*
X53135Y-3083D01*
X53154Y-3064D01*
X53178Y-3036D01*
X53206Y-2998D01*
X53229Y-2951D01*
X53253Y-2895D01*
X53272Y-2833D01*
X53277Y-2758D01*
Y-2748D01*
Y-2729D01*
X53272Y-2696D01*
X53263Y-2654D01*
X53248Y-2607D01*
X53225Y-2555D01*
X53197Y-2503D01*
X53154Y-2456D01*
X53149Y-2451D01*
X53130Y-2437D01*
X53107Y-2418D01*
X53069Y-2394D01*
X53027Y-2371D01*
X52975Y-2352D01*
X52913Y-2338D01*
X52847Y-2333D01*
X52814D01*
X52776Y-2342D01*
X52729Y-2352D01*
X52677Y-2366D01*
X52621Y-2394D01*
X52569Y-2427D01*
X52522Y-2475D01*
X52517Y-2479D01*
X52503Y-2498D01*
X52484Y-2531D01*
X52465Y-2578D01*
X52446Y-2630D01*
X52427Y-2701D01*
X52413Y-2777D01*
X52408Y-2866D01*
Y-5429D01*
X51417D01*
Y-2871D01*
Y-2861D01*
Y-2843D01*
X51422Y-2805D01*
Y-2762D01*
X51431Y-2706D01*
X51436Y-2640D01*
X51450Y-2564D01*
X51469Y-2489D01*
X51488Y-2404D01*
X51516Y-2314D01*
X51544Y-2224D01*
X51582Y-2135D01*
X51629Y-2045D01*
X51681Y-1960D01*
X51743Y-1875D01*
X51814Y-1795D01*
X51818Y-1790D01*
X51832Y-1776D01*
X51856Y-1757D01*
X51884Y-1729D01*
X51927Y-1700D01*
X51974Y-1663D01*
X52031Y-1630D01*
X52097Y-1587D01*
X52167Y-1549D01*
X52248Y-1512D01*
X52333Y-1479D01*
X52427Y-1450D01*
X52531Y-1422D01*
X52635Y-1403D01*
X52753Y-1389D01*
X52871Y-1384D01*
X52899D01*
X52927Y-1389D01*
D02*
G37*
G36*
X59078Y-4377D02*
X57586D01*
Y-3645D01*
X59078D01*
Y-4377D01*
D02*
G37*
G36*
X67276Y-1460D02*
X67314Y-1464D01*
X67404Y-1474D01*
X67503Y-1493D01*
X67607Y-1521D01*
X67701Y-1564D01*
X67743Y-1587D01*
X67786Y-1615D01*
X67791D01*
X67795Y-1625D01*
X67819Y-1644D01*
X67852Y-1681D01*
X67890Y-1733D01*
X67928Y-1799D01*
X67961Y-1880D01*
X67984Y-1974D01*
X67994Y-2026D01*
Y-2083D01*
Y-2087D01*
Y-2092D01*
X67989Y-2121D01*
X67984Y-2163D01*
X67980Y-2205D01*
Y-2210D01*
Y-2215D01*
X67975Y-2238D01*
X67970Y-2276D01*
X67961Y-2314D01*
X66984Y-5429D01*
X65926D01*
X66974Y-2366D01*
X65355D01*
Y-1455D01*
X67238D01*
X67276Y-1460D01*
D02*
G37*
G36*
X61631Y-2380D02*
X60909D01*
X60871Y-2385D01*
X60829Y-2394D01*
X60777Y-2408D01*
X60725Y-2427D01*
X60678Y-2451D01*
X60635Y-2489D01*
X60631Y-2493D01*
X60621Y-2507D01*
X60602Y-2531D01*
X60583Y-2564D01*
X60564Y-2611D01*
X60545Y-2663D01*
X60536Y-2725D01*
X60531Y-2795D01*
Y-3055D01*
X61631D01*
Y-3980D01*
X60531D01*
Y-5429D01*
X59540D01*
Y-2791D01*
Y-2781D01*
Y-2762D01*
X59545Y-2725D01*
Y-2677D01*
X59550Y-2621D01*
X59559Y-2559D01*
X59569Y-2489D01*
X59583Y-2408D01*
X59601Y-2328D01*
X59625Y-2248D01*
X59649Y-2163D01*
X59682Y-2078D01*
X59724Y-1998D01*
X59767Y-1922D01*
X59819Y-1851D01*
X59880Y-1785D01*
X59885Y-1781D01*
X59894Y-1771D01*
X59918Y-1757D01*
X59946Y-1733D01*
X59979Y-1710D01*
X60026Y-1681D01*
X60078Y-1649D01*
X60140Y-1620D01*
X60206Y-1587D01*
X60286Y-1559D01*
X60371Y-1531D01*
X60465Y-1507D01*
X60564Y-1483D01*
X60678Y-1469D01*
X60796Y-1460D01*
X60923Y-1455D01*
X61631D01*
Y-2380D01*
D02*
G37*
G36*
X43450Y-2366D02*
X42336D01*
X42289Y-2371D01*
X42241Y-2375D01*
X42189Y-2380D01*
X42147Y-2389D01*
X42109Y-2404D01*
X42105D01*
X42095Y-2408D01*
X42071Y-2432D01*
X42043Y-2465D01*
X42034Y-2493D01*
X42029Y-2522D01*
Y-2526D01*
Y-2536D01*
X42034Y-2550D01*
X42038Y-2574D01*
X42057Y-2621D01*
X42071Y-2654D01*
X42090Y-2682D01*
X42095Y-2687D01*
X42105Y-2696D01*
X42119Y-2710D01*
X42142Y-2729D01*
X42166Y-2753D01*
X42204Y-2781D01*
X42241Y-2810D01*
X42289Y-2838D01*
X43034Y-3286D01*
X43039D01*
X43049Y-3296D01*
X43067Y-3305D01*
X43086Y-3319D01*
X43115Y-3338D01*
X43143Y-3362D01*
X43214Y-3418D01*
X43294Y-3485D01*
X43374Y-3565D01*
X43454Y-3650D01*
X43521Y-3749D01*
Y-3754D01*
X43530Y-3763D01*
X43535Y-3777D01*
X43549Y-3796D01*
X43558Y-3820D01*
X43572Y-3848D01*
X43605Y-3919D01*
X43639Y-4004D01*
X43662Y-4103D01*
X43681Y-4211D01*
X43690Y-4325D01*
Y-4329D01*
Y-4339D01*
Y-4353D01*
Y-4372D01*
X43686Y-4424D01*
X43676Y-4490D01*
X43662Y-4565D01*
X43639Y-4650D01*
X43610Y-4735D01*
X43572Y-4825D01*
Y-4830D01*
X43568Y-4834D01*
X43554Y-4863D01*
X43525Y-4905D01*
X43492Y-4957D01*
X43445Y-5019D01*
X43393Y-5080D01*
X43327Y-5141D01*
X43256Y-5198D01*
X43247Y-5203D01*
X43228Y-5217D01*
X43190Y-5240D01*
X43143Y-5269D01*
X43082Y-5297D01*
X43015Y-5325D01*
X42940Y-5354D01*
X42860Y-5377D01*
X42850D01*
X42836Y-5382D01*
X42817Y-5387D01*
X42794Y-5391D01*
X42765D01*
X42728Y-5396D01*
X42690Y-5401D01*
X42643Y-5406D01*
X42591Y-5410D01*
X42529Y-5415D01*
X42468Y-5420D01*
X42397Y-5424D01*
X42322D01*
X42241Y-5429D01*
X41000D01*
Y-4481D01*
X42388D01*
X42411Y-4476D01*
X42440D01*
X42501Y-4462D01*
X42529Y-4447D01*
X42558Y-4433D01*
X42562Y-4429D01*
X42567Y-4424D01*
X42591Y-4395D01*
X42614Y-4348D01*
X42619Y-4320D01*
X42624Y-4287D01*
Y-4282D01*
Y-4273D01*
X42619Y-4259D01*
X42614Y-4235D01*
X42605Y-4211D01*
X42595Y-4183D01*
X42577Y-4155D01*
X42553Y-4126D01*
X42548Y-4122D01*
X42539Y-4112D01*
X42525Y-4093D01*
X42501Y-4075D01*
X42473Y-4046D01*
X42440Y-4018D01*
X42397Y-3990D01*
X42350Y-3957D01*
X41585Y-3494D01*
X41581D01*
X41576Y-3485D01*
X41562Y-3475D01*
X41543Y-3466D01*
X41496Y-3428D01*
X41434Y-3381D01*
X41368Y-3324D01*
X41297Y-3249D01*
X41227Y-3168D01*
X41165Y-3079D01*
Y-3074D01*
X41161Y-3069D01*
X41151Y-3055D01*
X41142Y-3036D01*
X41118Y-2984D01*
X41090Y-2918D01*
X41061Y-2838D01*
X41038Y-2748D01*
X41019Y-2654D01*
X41014Y-2555D01*
Y-2550D01*
Y-2545D01*
Y-2531D01*
Y-2512D01*
X41019Y-2460D01*
X41024Y-2399D01*
X41033Y-2323D01*
X41052Y-2248D01*
X41071Y-2163D01*
X41099Y-2083D01*
Y-2078D01*
X41104Y-2073D01*
X41118Y-2045D01*
X41137Y-2007D01*
X41165Y-1955D01*
X41203Y-1899D01*
X41250Y-1837D01*
X41302Y-1776D01*
X41363Y-1719D01*
X41373Y-1715D01*
X41392Y-1696D01*
X41429Y-1672D01*
X41477Y-1639D01*
X41533Y-1606D01*
X41604Y-1573D01*
X41680Y-1545D01*
X41765Y-1516D01*
X41769D01*
X41774Y-1512D01*
X41788D01*
X41812Y-1507D01*
X41835Y-1502D01*
X41868Y-1497D01*
X41906Y-1493D01*
X41953Y-1483D01*
X42005Y-1479D01*
X42062Y-1474D01*
X42123Y-1469D01*
X42194Y-1464D01*
X42270Y-1460D01*
X42355D01*
X42444Y-1455D01*
X43450D01*
Y-2366D01*
D02*
G37*
G36*
X63538Y-1394D02*
X63581D01*
X63632Y-1398D01*
X63694Y-1408D01*
X63760Y-1422D01*
X63835Y-1436D01*
X63911Y-1455D01*
X63996Y-1483D01*
X64081Y-1512D01*
X64166Y-1549D01*
X64251Y-1592D01*
X64336Y-1644D01*
X64416Y-1705D01*
X64496Y-1771D01*
X64501Y-1776D01*
X64515Y-1790D01*
X64534Y-1809D01*
X64562Y-1837D01*
X64591Y-1875D01*
X64628Y-1922D01*
X64666Y-1969D01*
X64704Y-2031D01*
X64742Y-2097D01*
X64779Y-2168D01*
X64817Y-2243D01*
X64845Y-2328D01*
X64874Y-2413D01*
X64893Y-2507D01*
X64907Y-2607D01*
X64912Y-2710D01*
Y-4183D01*
Y-4188D01*
Y-4207D01*
X64907Y-4235D01*
Y-4278D01*
X64897Y-4325D01*
X64888Y-4381D01*
X64878Y-4443D01*
X64860Y-4509D01*
X64841Y-4584D01*
X64812Y-4660D01*
X64779Y-4735D01*
X64737Y-4816D01*
X64690Y-4896D01*
X64638Y-4971D01*
X64572Y-5052D01*
X64501Y-5122D01*
X64496Y-5127D01*
X64482Y-5137D01*
X64458Y-5155D01*
X64425Y-5179D01*
X64388Y-5212D01*
X64340Y-5240D01*
X64284Y-5278D01*
X64218Y-5311D01*
X64147Y-5344D01*
X64071Y-5382D01*
X63986Y-5410D01*
X63897Y-5439D01*
X63802Y-5467D01*
X63699Y-5486D01*
X63595Y-5495D01*
X63481Y-5500D01*
X63453D01*
X63425Y-5495D01*
X63382D01*
X63326Y-5491D01*
X63269Y-5481D01*
X63198Y-5467D01*
X63127Y-5453D01*
X63047Y-5434D01*
X62967Y-5410D01*
X62882Y-5377D01*
X62797Y-5344D01*
X62712Y-5302D01*
X62627Y-5250D01*
X62547Y-5193D01*
X62467Y-5127D01*
X62462Y-5122D01*
X62448Y-5108D01*
X62429Y-5089D01*
X62405Y-5061D01*
X62372Y-5023D01*
X62339Y-4976D01*
X62301Y-4924D01*
X62268Y-4868D01*
X62231Y-4801D01*
X62193Y-4731D01*
X62160Y-4655D01*
X62127Y-4570D01*
X62103Y-4481D01*
X62084Y-4386D01*
X62070Y-4287D01*
X62065Y-4183D01*
Y-2710D01*
Y-2706D01*
Y-2687D01*
X62070Y-2654D01*
Y-2616D01*
X62080Y-2569D01*
X62089Y-2512D01*
X62098Y-2451D01*
X62117Y-2380D01*
X62136Y-2309D01*
X62164Y-2234D01*
X62198Y-2158D01*
X62235Y-2078D01*
X62283Y-1998D01*
X62334Y-1918D01*
X62396Y-1842D01*
X62467Y-1771D01*
X62471Y-1767D01*
X62485Y-1752D01*
X62509Y-1733D01*
X62537Y-1710D01*
X62580Y-1681D01*
X62627Y-1649D01*
X62684Y-1615D01*
X62745Y-1578D01*
X62816Y-1545D01*
X62891Y-1512D01*
X62976Y-1479D01*
X63066Y-1450D01*
X63160Y-1422D01*
X63264Y-1403D01*
X63368Y-1394D01*
X63481Y-1389D01*
X63510D01*
X63538Y-1394D01*
D02*
G37*
G36*
X49071D02*
X49114Y-1398D01*
X49161Y-1403D01*
X49213Y-1408D01*
X49336Y-1427D01*
X49468Y-1455D01*
X49605Y-1493D01*
X49746Y-1545D01*
X49751D01*
X49765Y-1554D01*
X49784Y-1559D01*
X49808Y-1573D01*
X49841Y-1592D01*
X49878Y-1611D01*
X49968Y-1658D01*
X50072Y-1724D01*
X50180Y-1799D01*
X50298Y-1889D01*
X50407Y-1993D01*
X50412Y-1998D01*
X50421Y-2007D01*
X50435Y-2021D01*
X50454Y-2045D01*
X50478Y-2073D01*
X50506Y-2102D01*
X50539Y-2139D01*
X50572Y-2182D01*
X50643Y-2281D01*
X50714Y-2394D01*
X50785Y-2517D01*
X50846Y-2654D01*
Y-2659D01*
X50851Y-2673D01*
X50860Y-2692D01*
X50870Y-2720D01*
X50884Y-2753D01*
X50893Y-2795D01*
X50907Y-2838D01*
X50926Y-2890D01*
X50940Y-2946D01*
X50955Y-3008D01*
X50978Y-3145D01*
X50997Y-3291D01*
X51002Y-3442D01*
Y-3447D01*
Y-3461D01*
Y-3485D01*
Y-3513D01*
X50997Y-3551D01*
X50992Y-3593D01*
X50987Y-3645D01*
X50983Y-3697D01*
X50964Y-3820D01*
X50936Y-3957D01*
X50898Y-4098D01*
X50846Y-4240D01*
Y-4245D01*
X50841Y-4254D01*
X50832Y-4278D01*
X50818Y-4301D01*
X50803Y-4334D01*
X50785Y-4372D01*
X50733Y-4462D01*
X50671Y-4565D01*
X50596Y-4674D01*
X50511Y-4787D01*
X50407Y-4896D01*
X50402Y-4901D01*
X50393Y-4910D01*
X50379Y-4924D01*
X50355Y-4943D01*
X50327Y-4971D01*
X50298Y-5000D01*
X50261Y-5028D01*
X50218Y-5066D01*
X50119Y-5137D01*
X50006Y-5212D01*
X49883Y-5283D01*
X49746Y-5349D01*
X49741D01*
X49727Y-5354D01*
X49708Y-5363D01*
X49680Y-5373D01*
X49647Y-5382D01*
X49605Y-5396D01*
X49562Y-5410D01*
X49510Y-5424D01*
X49453Y-5439D01*
X49392Y-5453D01*
X49260Y-5476D01*
X49114Y-5495D01*
X48963Y-5500D01*
X48925D01*
X48892Y-5495D01*
X48859D01*
X48816Y-5491D01*
X48764Y-5486D01*
X48713Y-5481D01*
X48594Y-5462D01*
X48462Y-5434D01*
X48325Y-5401D01*
X48184Y-5349D01*
X48179D01*
X48170Y-5339D01*
X48146Y-5335D01*
X48123Y-5321D01*
X48089Y-5302D01*
X48052Y-5283D01*
X48009Y-5259D01*
X47962Y-5236D01*
X47863Y-5170D01*
X47750Y-5094D01*
X47636Y-5000D01*
X47523Y-4896D01*
X47518Y-4891D01*
X47509Y-4882D01*
X47495Y-4868D01*
X47476Y-4844D01*
X47452Y-4816D01*
X47424Y-4783D01*
X47391Y-4745D01*
X47358Y-4702D01*
X47287Y-4603D01*
X47212Y-4490D01*
X47141Y-4363D01*
X47075Y-4230D01*
Y-4226D01*
X47070Y-4211D01*
X47060Y-4193D01*
X47051Y-4164D01*
X47042Y-4131D01*
X47027Y-4089D01*
X47013Y-4042D01*
X46999Y-3990D01*
X46985Y-3933D01*
X46971Y-3872D01*
X46947Y-3739D01*
X46928Y-3593D01*
X46924Y-3442D01*
Y-3437D01*
Y-3423D01*
Y-3400D01*
X46928Y-3371D01*
Y-3334D01*
X46933Y-3291D01*
X46938Y-3244D01*
X46942Y-3187D01*
X46961Y-3069D01*
X46990Y-2937D01*
X47023Y-2795D01*
X47075Y-2659D01*
Y-2654D01*
X47084Y-2640D01*
X47089Y-2621D01*
X47103Y-2597D01*
X47122Y-2564D01*
X47141Y-2526D01*
X47164Y-2484D01*
X47188Y-2437D01*
X47254Y-2333D01*
X47330Y-2220D01*
X47419Y-2102D01*
X47523Y-1988D01*
X47528Y-1984D01*
X47537Y-1974D01*
X47551Y-1960D01*
X47575Y-1941D01*
X47603Y-1918D01*
X47636Y-1889D01*
X47674Y-1856D01*
X47717Y-1823D01*
X47811Y-1752D01*
X47924Y-1677D01*
X48052Y-1606D01*
X48184Y-1545D01*
X48189D01*
X48203Y-1540D01*
X48222Y-1531D01*
X48250Y-1521D01*
X48283Y-1507D01*
X48321Y-1497D01*
X48368Y-1483D01*
X48420Y-1464D01*
X48476Y-1450D01*
X48538Y-1436D01*
X48670Y-1412D01*
X48812Y-1394D01*
X48963Y-1389D01*
X49033D01*
X49071Y-1394D01*
D02*
G37*
G36*
X-2523Y27771D02*
X-1381Y26000D01*
X-1972D01*
X-2808Y27382D01*
X-3645Y26000D01*
X-4225D01*
X-3084Y27747D01*
X-4132Y29424D01*
X-3581D01*
X-2798Y28135D01*
X-2006Y29424D01*
X-1470D01*
X-2523Y27771D01*
D02*
G37*
G36*
X-4496Y29026D02*
X-5514D01*
Y26000D01*
X-5987D01*
Y29026D01*
X-7000D01*
Y29424D01*
X-4496D01*
Y29026D01*
D02*
G37*
%LPC*%
G36*
X59799Y-6866D02*
X59750D01*
X59701Y-6871D01*
X59632Y-6881D01*
X59558Y-6895D01*
X59484Y-6915D01*
X59411Y-6940D01*
X59342Y-6979D01*
X59337Y-6984D01*
X59317Y-6999D01*
X59293Y-7028D01*
X59263Y-7063D01*
X59229Y-7112D01*
X59204Y-7171D01*
X59184Y-7240D01*
X59179Y-7319D01*
Y-7323D01*
Y-7333D01*
Y-7353D01*
X59184Y-7378D01*
X59194Y-7437D01*
X59219Y-7506D01*
Y-7510D01*
X59229Y-7520D01*
X59233Y-7535D01*
X59248Y-7555D01*
X59288Y-7609D01*
X59342Y-7668D01*
X59347Y-7673D01*
X59356Y-7683D01*
X59376Y-7697D01*
X59401Y-7712D01*
X59430Y-7737D01*
X59465Y-7761D01*
X59548Y-7816D01*
X59553Y-7820D01*
X59568Y-7830D01*
X59598Y-7845D01*
X59632Y-7860D01*
X59671Y-7884D01*
X59721Y-7909D01*
X59780Y-7938D01*
X59839Y-7968D01*
X59844D01*
X59853Y-7963D01*
X59868Y-7953D01*
X59888Y-7943D01*
X59942Y-7914D01*
X60006Y-7880D01*
X60080Y-7835D01*
X60154Y-7786D01*
X60222Y-7732D01*
X60281Y-7678D01*
X60286Y-7673D01*
X60306Y-7648D01*
X60326Y-7619D01*
X60355Y-7574D01*
X60380Y-7525D01*
X60404Y-7466D01*
X60419Y-7402D01*
X60424Y-7328D01*
Y-7323D01*
Y-7319D01*
Y-7289D01*
X60414Y-7250D01*
X60404Y-7196D01*
X60385Y-7141D01*
X60355Y-7082D01*
X60316Y-7028D01*
X60262Y-6979D01*
X60252Y-6974D01*
X60232Y-6959D01*
X60193Y-6945D01*
X60144Y-6920D01*
X60080Y-6900D01*
X59996Y-6886D01*
X59908Y-6871D01*
X59799Y-6866D01*
D02*
G37*
G36*
X59765Y-8401D02*
X59755Y-8406D01*
X59735Y-8416D01*
X59701Y-8435D01*
X59662Y-8455D01*
X59612Y-8480D01*
X59563Y-8509D01*
X59514Y-8544D01*
X59465Y-8573D01*
X59460Y-8578D01*
X59445Y-8588D01*
X59421Y-8603D01*
X59396Y-8627D01*
X59332Y-8681D01*
X59268Y-8745D01*
X59263Y-8750D01*
X59258Y-8760D01*
X59243Y-8780D01*
X59229Y-8800D01*
X59189Y-8859D01*
X59160Y-8927D01*
Y-8932D01*
X59155Y-8942D01*
X59150Y-8962D01*
X59145Y-8986D01*
X59140Y-9016D01*
X59135Y-9050D01*
X59130Y-9129D01*
Y-9134D01*
Y-9149D01*
X59135Y-9173D01*
Y-9198D01*
X59150Y-9267D01*
X59179Y-9336D01*
X59184Y-9341D01*
X59189Y-9351D01*
X59199Y-9365D01*
X59219Y-9390D01*
X59263Y-9439D01*
X59322Y-9488D01*
X59327Y-9493D01*
X59337Y-9498D01*
X59356Y-9508D01*
X59381Y-9523D01*
X59411Y-9542D01*
X59450Y-9557D01*
X59534Y-9587D01*
X59539D01*
X59553Y-9592D01*
X59578Y-9597D01*
X59612Y-9601D01*
X59652Y-9606D01*
X59696Y-9611D01*
X59799Y-9616D01*
X59853D01*
X59888Y-9611D01*
X59927D01*
X59971Y-9601D01*
X60065Y-9587D01*
X60070D01*
X60085Y-9582D01*
X60109Y-9572D01*
X60139Y-9562D01*
X60208Y-9538D01*
X60277Y-9498D01*
X60281Y-9493D01*
X60291Y-9488D01*
X60306Y-9474D01*
X60326Y-9459D01*
X60375Y-9410D01*
X60419Y-9351D01*
X60424Y-9346D01*
X60429Y-9336D01*
X60439Y-9316D01*
X60449Y-9287D01*
X60459Y-9257D01*
X60464Y-9218D01*
X60473Y-9178D01*
Y-9134D01*
Y-9129D01*
Y-9119D01*
Y-9100D01*
X60468Y-9075D01*
X60459Y-9011D01*
X60439Y-8947D01*
Y-8942D01*
X60434Y-8932D01*
X60424Y-8913D01*
X60414Y-8888D01*
X60380Y-8829D01*
X60355Y-8800D01*
X60326Y-8765D01*
X60321Y-8760D01*
X60311Y-8750D01*
X60291Y-8731D01*
X60272Y-8706D01*
X60237Y-8681D01*
X60203Y-8647D01*
X60158Y-8618D01*
X60109Y-8583D01*
X60104Y-8578D01*
X60085Y-8568D01*
X60055Y-8549D01*
X60016Y-8529D01*
X59967Y-8499D01*
X59908Y-8470D01*
X59839Y-8435D01*
X59765Y-8401D01*
D02*
G37*
G36*
X56847Y-6876D02*
X56818D01*
X56783Y-6881D01*
X56739Y-6886D01*
X56690Y-6895D01*
X56636Y-6915D01*
X56577Y-6935D01*
X56523Y-6964D01*
X56518Y-6969D01*
X56498Y-6979D01*
X56473Y-6999D01*
X56439Y-7028D01*
X56400Y-7063D01*
X56360Y-7107D01*
X56316Y-7161D01*
X56277Y-7220D01*
X56272Y-7230D01*
X56262Y-7250D01*
X56242Y-7289D01*
X56222Y-7338D01*
X56193Y-7402D01*
X56168Y-7471D01*
X56144Y-7555D01*
X56119Y-7648D01*
Y-7653D01*
Y-7658D01*
X56114Y-7673D01*
X56109Y-7693D01*
X56104Y-7747D01*
X56095Y-7816D01*
X56085Y-7899D01*
X56075Y-7998D01*
X56070Y-8111D01*
X56065Y-8229D01*
Y-8234D01*
Y-8244D01*
Y-8258D01*
Y-8283D01*
Y-8332D01*
Y-8396D01*
Y-8401D01*
Y-8411D01*
Y-8426D01*
X56070Y-8445D01*
Y-8495D01*
X56075Y-8549D01*
X57526Y-7481D01*
Y-7476D01*
X57521Y-7456D01*
X57512Y-7432D01*
X57497Y-7397D01*
X57482Y-7358D01*
X57467Y-7319D01*
X57423Y-7235D01*
X57418Y-7230D01*
X57413Y-7215D01*
X57398Y-7196D01*
X57384Y-7171D01*
X57339Y-7112D01*
X57280Y-7048D01*
X57275Y-7043D01*
X57266Y-7033D01*
X57246Y-7018D01*
X57226Y-6999D01*
X57197Y-6979D01*
X57162Y-6959D01*
X57088Y-6920D01*
X57083D01*
X57069Y-6915D01*
X57049Y-6905D01*
X57020Y-6895D01*
X56985Y-6891D01*
X56946Y-6881D01*
X56847Y-6876D01*
D02*
G37*
G36*
X57610Y-7914D02*
X56163Y-8991D01*
Y-8996D01*
X56168Y-9016D01*
X56178Y-9041D01*
X56193Y-9075D01*
X56203Y-9114D01*
X56222Y-9159D01*
X56262Y-9247D01*
X56267Y-9252D01*
X56272Y-9267D01*
X56286Y-9287D01*
X56301Y-9316D01*
X56345Y-9380D01*
X56405Y-9444D01*
X56409Y-9449D01*
X56419Y-9459D01*
X56439Y-9474D01*
X56464Y-9488D01*
X56493Y-9508D01*
X56528Y-9533D01*
X56601Y-9572D01*
X56606D01*
X56621Y-9577D01*
X56641Y-9587D01*
X56675Y-9592D01*
X56710Y-9601D01*
X56749Y-9611D01*
X56847Y-9616D01*
X56877D01*
X56911Y-9611D01*
X56956Y-9606D01*
X57005Y-9597D01*
X57059Y-9582D01*
X57118Y-9562D01*
X57172Y-9533D01*
X57177Y-9528D01*
X57197Y-9518D01*
X57226Y-9493D01*
X57261Y-9469D01*
X57295Y-9429D01*
X57339Y-9385D01*
X57379Y-9331D01*
X57418Y-9272D01*
X57423Y-9262D01*
X57433Y-9242D01*
X57452Y-9203D01*
X57477Y-9154D01*
X57502Y-9095D01*
X57526Y-9021D01*
X57551Y-8937D01*
X57576Y-8849D01*
Y-8844D01*
X57580Y-8839D01*
Y-8824D01*
X57585Y-8804D01*
X57590Y-8780D01*
X57595Y-8750D01*
X57605Y-8681D01*
X57615Y-8593D01*
X57625Y-8495D01*
X57635Y-8381D01*
Y-8263D01*
Y-8258D01*
Y-8248D01*
Y-8229D01*
Y-8209D01*
X57630Y-8150D01*
X57625Y-8086D01*
Y-8081D01*
Y-8071D01*
Y-8052D01*
X57620Y-8032D01*
X57615Y-7978D01*
X57610Y-7914D01*
D02*
G37*
G36*
X45039Y-6876D02*
X45010D01*
X44975Y-6881D01*
X44931Y-6886D01*
X44882Y-6895D01*
X44828Y-6915D01*
X44769Y-6935D01*
X44715Y-6964D01*
X44710Y-6969D01*
X44690Y-6979D01*
X44665Y-6999D01*
X44631Y-7028D01*
X44592Y-7063D01*
X44552Y-7107D01*
X44508Y-7161D01*
X44469Y-7220D01*
X44464Y-7230D01*
X44454Y-7250D01*
X44434Y-7289D01*
X44414Y-7338D01*
X44385Y-7402D01*
X44360Y-7471D01*
X44336Y-7555D01*
X44311Y-7648D01*
Y-7653D01*
Y-7658D01*
X44306Y-7673D01*
X44301Y-7693D01*
X44296Y-7747D01*
X44287Y-7816D01*
X44277Y-7899D01*
X44267Y-7998D01*
X44262Y-8111D01*
X44257Y-8229D01*
Y-8234D01*
Y-8244D01*
Y-8258D01*
Y-8283D01*
Y-8332D01*
Y-8396D01*
Y-8401D01*
Y-8411D01*
Y-8426D01*
X44262Y-8445D01*
Y-8495D01*
X44267Y-8549D01*
X45718Y-7481D01*
Y-7476D01*
X45713Y-7456D01*
X45704Y-7432D01*
X45689Y-7397D01*
X45674Y-7358D01*
X45659Y-7319D01*
X45615Y-7235D01*
X45610Y-7230D01*
X45605Y-7215D01*
X45590Y-7196D01*
X45576Y-7171D01*
X45531Y-7112D01*
X45472Y-7048D01*
X45467Y-7043D01*
X45458Y-7033D01*
X45438Y-7018D01*
X45418Y-6999D01*
X45389Y-6979D01*
X45354Y-6959D01*
X45280Y-6920D01*
X45276D01*
X45261Y-6915D01*
X45241Y-6905D01*
X45211Y-6895D01*
X45177Y-6891D01*
X45138Y-6881D01*
X45039Y-6876D01*
D02*
G37*
G36*
X45802Y-7914D02*
X44355Y-8991D01*
Y-8996D01*
X44360Y-9016D01*
X44370Y-9041D01*
X44385Y-9075D01*
X44395Y-9114D01*
X44414Y-9159D01*
X44454Y-9247D01*
X44459Y-9252D01*
X44464Y-9267D01*
X44478Y-9287D01*
X44493Y-9316D01*
X44537Y-9380D01*
X44596Y-9444D01*
X44601Y-9449D01*
X44611Y-9459D01*
X44631Y-9474D01*
X44656Y-9488D01*
X44685Y-9508D01*
X44719Y-9533D01*
X44793Y-9572D01*
X44798D01*
X44813Y-9577D01*
X44833Y-9587D01*
X44867Y-9592D01*
X44902Y-9601D01*
X44941Y-9611D01*
X45039Y-9616D01*
X45069D01*
X45103Y-9611D01*
X45148Y-9606D01*
X45197Y-9597D01*
X45251Y-9582D01*
X45310Y-9562D01*
X45364Y-9533D01*
X45369Y-9528D01*
X45389Y-9518D01*
X45418Y-9493D01*
X45453Y-9469D01*
X45487Y-9429D01*
X45531Y-9385D01*
X45571Y-9331D01*
X45610Y-9272D01*
X45615Y-9262D01*
X45625Y-9242D01*
X45645Y-9203D01*
X45669Y-9154D01*
X45694Y-9095D01*
X45718Y-9021D01*
X45743Y-8937D01*
X45768Y-8849D01*
Y-8844D01*
X45772Y-8839D01*
Y-8824D01*
X45777Y-8804D01*
X45782Y-8780D01*
X45787Y-8750D01*
X45797Y-8681D01*
X45807Y-8593D01*
X45817Y-8495D01*
X45827Y-8381D01*
Y-8263D01*
Y-8258D01*
Y-8248D01*
Y-8229D01*
Y-8209D01*
X45822Y-8150D01*
X45817Y-8086D01*
Y-8081D01*
Y-8071D01*
Y-8052D01*
X45812Y-8032D01*
X45807Y-7978D01*
X45802Y-7914D01*
D02*
G37*
G36*
X-6095Y35531D02*
X-6533D01*
Y34399D01*
X-6095D01*
X-6055Y34404D01*
X-6011Y34409D01*
X-5962Y34414D01*
X-5859Y34434D01*
X-5854D01*
X-5834Y34443D01*
X-5809Y34448D01*
X-5780Y34463D01*
X-5706Y34497D01*
X-5632Y34547D01*
X-5627Y34552D01*
X-5618Y34561D01*
X-5598Y34576D01*
X-5578Y34601D01*
X-5558Y34625D01*
X-5534Y34660D01*
X-5490Y34734D01*
X-5485Y34739D01*
X-5480Y34753D01*
X-5470Y34778D01*
X-5460Y34808D01*
X-5450Y34842D01*
X-5445Y34886D01*
X-5435Y34935D01*
Y34985D01*
Y34990D01*
Y34994D01*
Y35009D01*
X-5440Y35029D01*
X-5445Y35078D01*
X-5455Y35137D01*
X-5480Y35201D01*
X-5509Y35270D01*
X-5549Y35334D01*
X-5608Y35393D01*
X-5618Y35398D01*
X-5637Y35413D01*
X-5677Y35437D01*
X-5731Y35462D01*
X-5804Y35486D01*
X-5883Y35511D01*
X-5982Y35526D01*
X-6095Y35531D01*
D02*
G37*
G36*
X67881Y-49558D02*
X67763D01*
X67758D01*
X67748D01*
X67729D01*
X67709D01*
X67650Y-49563D01*
X67586Y-49568D01*
X67581D01*
X67571D01*
X67552D01*
X67532Y-49573D01*
X67478Y-49578D01*
X67414Y-49582D01*
X68491Y-51029D01*
X68496D01*
X68516Y-51024D01*
X68541Y-51014D01*
X68575Y-50999D01*
X68614Y-50990D01*
X68659Y-50970D01*
X68747Y-50931D01*
X68752Y-50926D01*
X68767Y-50921D01*
X68787Y-50906D01*
X68816Y-50891D01*
X68880Y-50847D01*
X68944Y-50788D01*
X68949Y-50783D01*
X68959Y-50773D01*
X68974Y-50753D01*
X68988Y-50729D01*
X69008Y-50699D01*
X69033Y-50665D01*
X69072Y-50591D01*
Y-50586D01*
X69077Y-50571D01*
X69087Y-50552D01*
X69092Y-50517D01*
X69102Y-50483D01*
X69111Y-50444D01*
X69116Y-50345D01*
Y-50316D01*
X69111Y-50281D01*
X69106Y-50237D01*
X69097Y-50188D01*
X69082Y-50134D01*
X69062Y-50074D01*
X69033Y-50020D01*
X69028Y-50015D01*
X69018Y-49996D01*
X68993Y-49966D01*
X68969Y-49932D01*
X68929Y-49897D01*
X68885Y-49853D01*
X68831Y-49814D01*
X68772Y-49774D01*
X68762Y-49769D01*
X68742Y-49760D01*
X68703Y-49740D01*
X68654Y-49715D01*
X68595Y-49691D01*
X68521Y-49666D01*
X68437Y-49642D01*
X68349Y-49617D01*
X68344D01*
X68339Y-49612D01*
X68324D01*
X68304Y-49607D01*
X68280Y-49602D01*
X68250Y-49597D01*
X68181Y-49587D01*
X68093Y-49578D01*
X67994Y-49568D01*
X67881Y-49558D01*
D02*
G37*
G36*
X66981Y-49666D02*
X66976D01*
X66956Y-49671D01*
X66932Y-49681D01*
X66897Y-49696D01*
X66858Y-49710D01*
X66819Y-49725D01*
X66735Y-49769D01*
X66730Y-49774D01*
X66715Y-49779D01*
X66696Y-49794D01*
X66671Y-49809D01*
X66612Y-49853D01*
X66548Y-49912D01*
X66543Y-49917D01*
X66533Y-49927D01*
X66518Y-49947D01*
X66499Y-49966D01*
X66479Y-49996D01*
X66459Y-50030D01*
X66420Y-50104D01*
Y-50109D01*
X66415Y-50124D01*
X66405Y-50143D01*
X66395Y-50173D01*
X66391Y-50207D01*
X66381Y-50247D01*
X66376Y-50345D01*
Y-50375D01*
X66381Y-50409D01*
X66386Y-50453D01*
X66395Y-50503D01*
X66415Y-50557D01*
X66435Y-50616D01*
X66464Y-50670D01*
X66469Y-50675D01*
X66479Y-50694D01*
X66499Y-50719D01*
X66528Y-50753D01*
X66563Y-50793D01*
X66607Y-50832D01*
X66661Y-50876D01*
X66720Y-50916D01*
X66730Y-50921D01*
X66750Y-50931D01*
X66789Y-50950D01*
X66838Y-50970D01*
X66902Y-50999D01*
X66971Y-51024D01*
X67055Y-51049D01*
X67148Y-51073D01*
X67153D01*
X67158D01*
X67173Y-51078D01*
X67193Y-51083D01*
X67247Y-51088D01*
X67316Y-51098D01*
X67399Y-51108D01*
X67498Y-51118D01*
X67611Y-51122D01*
X67729Y-51127D01*
X67734D01*
X67744D01*
X67758D01*
X67783D01*
X67832D01*
X67896D01*
X67901D01*
X67911D01*
X67926D01*
X67945Y-51122D01*
X67994D01*
X68049Y-51118D01*
X66981Y-49666D01*
D02*
G37*
G36*
X63481Y-2253D02*
X63448D01*
X63411Y-2262D01*
X63363Y-2272D01*
X63311Y-2290D01*
X63255Y-2314D01*
X63198Y-2352D01*
X63146Y-2404D01*
X63142Y-2408D01*
X63127Y-2432D01*
X63104Y-2465D01*
X63080Y-2507D01*
X63057Y-2564D01*
X63033Y-2626D01*
X63019Y-2701D01*
X63014Y-2781D01*
Y-4093D01*
Y-4098D01*
Y-4103D01*
Y-4131D01*
X63024Y-4174D01*
X63033Y-4226D01*
X63047Y-4282D01*
X63071Y-4348D01*
X63104Y-4410D01*
X63146Y-4466D01*
X63151Y-4471D01*
X63170Y-4490D01*
X63198Y-4513D01*
X63236Y-4537D01*
X63288Y-4565D01*
X63345Y-4589D01*
X63411Y-4608D01*
X63481Y-4613D01*
X63491D01*
X63514Y-4608D01*
X63552Y-4603D01*
X63599Y-4594D01*
X63656Y-4575D01*
X63713Y-4551D01*
X63769Y-4513D01*
X63821Y-4466D01*
X63826Y-4462D01*
X63845Y-4438D01*
X63868Y-4405D01*
X63892Y-4363D01*
X63920Y-4311D01*
X63939Y-4245D01*
X63958Y-4174D01*
X63963Y-4093D01*
Y-2781D01*
Y-2777D01*
Y-2772D01*
Y-2743D01*
X63953Y-2701D01*
X63944Y-2649D01*
X63930Y-2588D01*
X63901Y-2526D01*
X63868Y-2460D01*
X63821Y-2404D01*
X63816Y-2399D01*
X63798Y-2380D01*
X63769Y-2356D01*
X63727Y-2328D01*
X63680Y-2300D01*
X63618Y-2276D01*
X63552Y-2257D01*
X63481Y-2253D01*
D02*
G37*
G36*
X48963Y-2366D02*
X48920D01*
X48892Y-2371D01*
X48854Y-2375D01*
X48812Y-2380D01*
X48764Y-2389D01*
X48713Y-2404D01*
X48594Y-2441D01*
X48538Y-2465D01*
X48476Y-2498D01*
X48415Y-2531D01*
X48354Y-2574D01*
X48292Y-2621D01*
X48236Y-2677D01*
X48231Y-2682D01*
X48222Y-2692D01*
X48207Y-2710D01*
X48189Y-2734D01*
X48165Y-2762D01*
X48141Y-2800D01*
X48113Y-2843D01*
X48089Y-2890D01*
X48061Y-2942D01*
X48033Y-2998D01*
X48009Y-3064D01*
X47986Y-3131D01*
X47967Y-3201D01*
X47953Y-3277D01*
X47943Y-3357D01*
X47938Y-3437D01*
Y-3442D01*
Y-3456D01*
Y-3480D01*
X47943Y-3513D01*
X47948Y-3551D01*
X47953Y-3598D01*
X47962Y-3645D01*
X47976Y-3702D01*
X48014Y-3820D01*
X48037Y-3881D01*
X48066Y-3947D01*
X48099Y-4013D01*
X48141Y-4075D01*
X48189Y-4136D01*
X48241Y-4197D01*
X48245Y-4202D01*
X48255Y-4211D01*
X48274Y-4226D01*
X48292Y-4245D01*
X48325Y-4268D01*
X48359Y-4296D01*
X48401Y-4325D01*
X48443Y-4353D01*
X48495Y-4381D01*
X48552Y-4410D01*
X48675Y-4462D01*
X48741Y-4481D01*
X48812Y-4495D01*
X48887Y-4504D01*
X48963Y-4509D01*
X49005D01*
X49033Y-4504D01*
X49071Y-4499D01*
X49114Y-4490D01*
X49161Y-4481D01*
X49213Y-4471D01*
X49326Y-4433D01*
X49387Y-4410D01*
X49449Y-4377D01*
X49510Y-4344D01*
X49567Y-4301D01*
X49628Y-4254D01*
X49685Y-4197D01*
X49689Y-4193D01*
X49699Y-4183D01*
X49713Y-4164D01*
X49732Y-4141D01*
X49756Y-4112D01*
X49779Y-4075D01*
X49808Y-4032D01*
X49836Y-3985D01*
X49864Y-3933D01*
X49893Y-3876D01*
X49916Y-3810D01*
X49940Y-3744D01*
X49959Y-3673D01*
X49973Y-3598D01*
X49982Y-3518D01*
X49987Y-3437D01*
Y-3433D01*
Y-3418D01*
Y-3395D01*
X49982Y-3362D01*
X49977Y-3324D01*
X49973Y-3277D01*
X49963Y-3230D01*
X49949Y-3173D01*
X49916Y-3055D01*
X49893Y-2994D01*
X49859Y-2928D01*
X49826Y-2861D01*
X49789Y-2800D01*
X49741Y-2739D01*
X49689Y-2677D01*
X49685Y-2673D01*
X49675Y-2663D01*
X49661Y-2649D01*
X49638Y-2630D01*
X49609Y-2607D01*
X49571Y-2578D01*
X49534Y-2550D01*
X49487Y-2522D01*
X49435Y-2493D01*
X49383Y-2465D01*
X49255Y-2413D01*
X49189Y-2394D01*
X49118Y-2380D01*
X49043Y-2371D01*
X48963Y-2366D01*
D02*
G37*
%LPD*%
D10*
X23252Y48102D02*
G03*
X23252Y48102I-492J0D01*
G01*
X41024Y10992D02*
G03*
X41024Y10992I-492J0D01*
G01*
X-47236Y6847D02*
G03*
X-47236Y6847I-492J0D01*
G01*
X-39945Y73693D02*
G03*
X-39945Y73693I-492J0D01*
G01*
X35799Y57063D02*
G03*
X35799Y57063I-492J0D01*
G01*
X55799Y47063D02*
G03*
X55799Y47063I-492J0D01*
G01*
X53185Y42937D02*
G03*
X53185Y42937I-492J0D01*
G01*
D11*
X36674Y7407D02*
G03*
X39670Y4118I2085J-1110D01*
G01*
X-43299Y3874D02*
G03*
X-41331Y5843I0J1969D01*
G01*
X-38075Y71331D02*
G03*
X-36500Y72905I0J1575D01*
G01*
X37669Y59425D02*
G03*
X36094Y61000I-1575J0D01*
G01*
X57669Y49425D02*
G03*
X56094Y51000I-1575J0D01*
G01*
X50331Y40575D02*
G03*
X51906Y39000I1575J0D01*
G01*
X29158Y37669D02*
Y39047D01*
X25221Y37669D02*
X29158D01*
Y44953D02*
Y46331D01*
X25221D02*
X29158D01*
X20000Y-7500D02*
Y7500D01*
Y-7500D02*
X40000D01*
Y4219D01*
X36719Y7500D02*
X40000Y4219D01*
X20000Y7500D02*
X36719D01*
X-43299Y-13842D02*
X-30701D01*
Y5843D01*
X-42118D02*
X-30701D01*
X-43299Y4661D02*
X-42118Y5843D01*
X-43299Y-13842D02*
Y4661D01*
X-38272Y71331D02*
X-38075D01*
X-34728Y61094D02*
Y72905D01*
X-38272Y61094D02*
Y72905D01*
Y61094D02*
X-34728D01*
X-38272Y72905D02*
X-34728D01*
X37669Y59228D02*
Y59425D01*
X36094Y62772D02*
X47905D01*
X36094Y59228D02*
X47905D01*
Y62772D01*
X36094Y59228D02*
Y62772D01*
X56094Y49228D02*
Y52772D01*
X67905Y49228D02*
Y52772D01*
X56094Y49228D02*
X67905D01*
X56094Y52772D02*
X67905D01*
X57669Y49228D02*
Y49425D01*
X51906Y37228D02*
Y40772D01*
X40095Y37228D02*
Y40772D01*
X51906D01*
X40095Y37228D02*
X51906D01*
X50331Y40575D02*
Y40772D01*
D12*
X-67500Y54500D02*
G03*
X-67500Y54500I-1000J0D01*
G01*
D13*
X47484Y7563D02*
G03*
X48469Y8547I0J984D01*
G01*
Y14453D02*
G03*
X47484Y15437I-984J0D01*
G01*
X45516D02*
G03*
X44532Y14453I0J-984D01*
G01*
Y8547D02*
G03*
X45516Y7563I984J0D01*
G01*
X-56516Y-3937D02*
G03*
X-55532Y-2953I0J984D01*
G01*
Y2953D02*
G03*
X-56516Y3937I-984J0D01*
G01*
X-58484D02*
G03*
X-59469Y2953I0J-984D01*
G01*
Y-2953D02*
G03*
X-58484Y-3937I984J0D01*
G01*
X19563Y-17484D02*
G03*
X20547Y-18469I984J0D01*
G01*
X26453D02*
G03*
X27437Y-17484I0J984D01*
G01*
Y-15516D02*
G03*
X26453Y-14532I-984J0D01*
G01*
X20547D02*
G03*
X19563Y-15516I0J-984D01*
G01*
X-47563Y14484D02*
G03*
X-48547Y15469I-984J0D01*
G01*
X-54453D02*
G03*
X-55437Y14484I0J-984D01*
G01*
Y12516D02*
G03*
X-54453Y11531I984J0D01*
G01*
X-48547D02*
G03*
X-47563Y12516I0J984D01*
G01*
X3563Y-6984D02*
G03*
X4547Y-7969I984J0D01*
G01*
X10453D02*
G03*
X11437Y-6984I0J984D01*
G01*
Y-5016D02*
G03*
X10453Y-4031I-984J0D01*
G01*
X4547D02*
G03*
X3563Y-5016I0J-984D01*
G01*
X11563Y-2984D02*
G03*
X12547Y-3968I984J0D01*
G01*
X18453D02*
G03*
X19437Y-2984I0J984D01*
G01*
Y-1016D02*
G03*
X18453Y-32I-984J0D01*
G01*
X12547D02*
G03*
X11563Y-1016I0J-984D01*
G01*
X12516Y-8063D02*
G03*
X11531Y-9047I0J-984D01*
G01*
Y-14953D02*
G03*
X12516Y-15937I984J0D01*
G01*
X14484D02*
G03*
X15469Y-14953I0J984D01*
G01*
Y-9047D02*
G03*
X14484Y-8063I-984J0D01*
G01*
X-46937Y-16984D02*
G03*
X-45953Y-17968I984J0D01*
G01*
X-40047D02*
G03*
X-39063Y-16984I0J984D01*
G01*
Y-15016D02*
G03*
X-40047Y-14031I-984J0D01*
G01*
X-45953D02*
G03*
X-46937Y-15016I0J-984D01*
G01*
X19563Y15516D02*
G03*
X20547Y14532I984J0D01*
G01*
X26453D02*
G03*
X27437Y15516I0J984D01*
G01*
Y17484D02*
G03*
X26453Y18469I-984J0D01*
G01*
X20547D02*
G03*
X19563Y17484I0J-984D01*
G01*
X-16016Y-9937D02*
G03*
X-15032Y-8953I0J984D01*
G01*
Y-3047D02*
G03*
X-16016Y-2063I-984J0D01*
G01*
X-17984D02*
G03*
X-18969Y-3047I0J-984D01*
G01*
Y-8953D02*
G03*
X-17984Y-9937I984J0D01*
G01*
X2484Y4063D02*
G03*
X3469Y5047I0J984D01*
G01*
Y10953D02*
G03*
X2484Y11937I-984J0D01*
G01*
X516D02*
G03*
X-469Y10953I0J-984D01*
G01*
Y5047D02*
G03*
X516Y4063I984J0D01*
G01*
X11563Y1016D02*
G03*
X12547Y32I984J0D01*
G01*
X18453D02*
G03*
X19437Y1016I0J984D01*
G01*
Y2984D02*
G03*
X18453Y3968I-984J0D01*
G01*
X12547D02*
G03*
X11563Y2984I0J-984D01*
G01*
X-27063Y-15016D02*
G03*
X-28047Y-14031I-984J0D01*
G01*
X-33953D02*
G03*
X-34937Y-15016I0J-984D01*
G01*
Y-16984D02*
G03*
X-33953Y-17968I984J0D01*
G01*
X-28047D02*
G03*
X-27063Y-16984I0J984D01*
G01*
X40437Y17484D02*
G03*
X39453Y18469I-984J0D01*
G01*
X33547D02*
G03*
X32563Y17484I0J-984D01*
G01*
Y15516D02*
G03*
X33547Y14532I984J0D01*
G01*
X39453D02*
G03*
X40437Y15516I0J984D01*
G01*
X-563Y18984D02*
G03*
X-1547Y19969I-984J0D01*
G01*
X-7453D02*
G03*
X-8437Y18984I0J-984D01*
G01*
Y17016D02*
G03*
X-7453Y16032I984J0D01*
G01*
X-1547D02*
G03*
X-563Y17016I0J984D01*
G01*
X47484Y-437D02*
G03*
X48469Y547I0J984D01*
G01*
Y6453D02*
G03*
X47484Y7437I-984J0D01*
G01*
X45516D02*
G03*
X44532Y6453I0J-984D01*
G01*
Y547D02*
G03*
X45516Y-437I984J0D01*
G01*
X30484Y14563D02*
G03*
X31468Y15547I0J984D01*
G01*
Y21453D02*
G03*
X30484Y22437I-984J0D01*
G01*
X28516D02*
G03*
X27531Y21453I0J-984D01*
G01*
Y15547D02*
G03*
X28516Y14563I984J0D01*
G01*
X63937Y37984D02*
G03*
X62953Y38969I-984J0D01*
G01*
X57047D02*
G03*
X56063Y37984I0J-984D01*
G01*
Y36016D02*
G03*
X57047Y35032I984J0D01*
G01*
X62953D02*
G03*
X63937Y36016I0J984D01*
G01*
X-13984Y-3063D02*
G03*
X-14968Y-4047I0J-984D01*
G01*
Y-9953D02*
G03*
X-13984Y-10937I984J0D01*
G01*
X-12016D02*
G03*
X-11032Y-9953I0J984D01*
G01*
Y-4047D02*
G03*
X-12016Y-3063I-984J0D01*
G01*
X-21984Y5937D02*
G03*
X-22968Y4953I0J-984D01*
G01*
Y-953D02*
G03*
X-21984Y-1937I984J0D01*
G01*
X-20016D02*
G03*
X-19031Y-953I0J984D01*
G01*
Y4953D02*
G03*
X-20016Y5937I-984J0D01*
G01*
X-21079Y61032D02*
G03*
X-20095Y62016I0J984D01*
G01*
X-27968D02*
G03*
X-26984Y61032I984J0D01*
G01*
Y64969D02*
G03*
X-27968Y63984I0J-984D01*
G01*
X-20095D02*
G03*
X-21079Y64969I-984J0D01*
G01*
X-62016Y45063D02*
G03*
X-61032Y46047I0J984D01*
G01*
Y51953D02*
G03*
X-62016Y52937I-984J0D01*
G01*
X-63984D02*
G03*
X-64969Y51953I0J-984D01*
G01*
Y46047D02*
G03*
X-63984Y45063I984J0D01*
G01*
X-21016Y65031D02*
G03*
X-20031Y66016I0J984D01*
G01*
Y71921D02*
G03*
X-21016Y72905I-984J0D01*
G01*
X-22984D02*
G03*
X-23968Y71921I0J-984D01*
G01*
Y66016D02*
G03*
X-22984Y65031I984J0D01*
G01*
X8063Y36016D02*
G03*
X9047Y35032I984J0D01*
G01*
X14953D02*
G03*
X15937Y36016I0J984D01*
G01*
Y37984D02*
G03*
X14953Y38969I-984J0D01*
G01*
X9047D02*
G03*
X8063Y37984I0J-984D01*
G01*
X21547Y56968D02*
G03*
X20563Y55984I0J-984D01*
G01*
X28437D02*
G03*
X27453Y56968I-984J0D01*
G01*
Y53031D02*
G03*
X28437Y54016I0J984D01*
G01*
X20563D02*
G03*
X21547Y53031I984J0D01*
G01*
Y60969D02*
G03*
X20563Y59984I0J-984D01*
G01*
X28437D02*
G03*
X27453Y60969I-984J0D01*
G01*
Y57032D02*
G03*
X28437Y58016I0J984D01*
G01*
X20563D02*
G03*
X21547Y57032I984J0D01*
G01*
X42953Y49031D02*
G03*
X43937Y50016I0J984D01*
G01*
X36063D02*
G03*
X37047Y49031I984J0D01*
G01*
Y52969D02*
G03*
X36063Y51984I0J-984D01*
G01*
X43937D02*
G03*
X42953Y52969I-984J0D01*
G01*
Y69032D02*
G03*
X43937Y70016I0J984D01*
G01*
X36063D02*
G03*
X37047Y69032I984J0D01*
G01*
Y72969D02*
G03*
X36063Y71984I0J-984D01*
G01*
X43937D02*
G03*
X42953Y72969I-984J0D01*
G01*
X51968Y66953D02*
G03*
X50984Y67937I-984J0D01*
G01*
Y60063D02*
G03*
X51968Y61047I0J984D01*
G01*
X48031D02*
G03*
X49016Y60063I984J0D01*
G01*
Y67937D02*
G03*
X48031Y66953I0J-984D01*
G01*
X45047Y50968D02*
G03*
X44063Y49984I0J-984D01*
G01*
X51937D02*
G03*
X50953Y50968I-984J0D01*
G01*
Y47032D02*
G03*
X51937Y48016I0J984D01*
G01*
X44063D02*
G03*
X45047Y47032I984J0D01*
G01*
X55968Y38453D02*
G03*
X54984Y39437I-984J0D01*
G01*
Y31563D02*
G03*
X55968Y32547I0J984D01*
G01*
X52031D02*
G03*
X53016Y31563I984J0D01*
G01*
Y39437D02*
G03*
X52031Y38453I0J-984D01*
G01*
X39968D02*
G03*
X38984Y39437I-984J0D01*
G01*
Y31563D02*
G03*
X39968Y32547I0J984D01*
G01*
X36031D02*
G03*
X37016Y31563I984J0D01*
G01*
Y39437D02*
G03*
X36031Y38453I0J-984D01*
G01*
X71969Y53984D02*
G03*
X70984Y54969I-984J0D01*
G01*
Y47095D02*
G03*
X71969Y48079I0J984D01*
G01*
X68032D02*
G03*
X69016Y47095I984J0D01*
G01*
Y54969D02*
G03*
X68032Y53984I0J-984D01*
G01*
X66953Y39031D02*
G03*
X67937Y40016I0J984D01*
G01*
X60063D02*
G03*
X61047Y39031I984J0D01*
G01*
Y42968D02*
G03*
X60063Y41984I0J-984D01*
G01*
X67937D02*
G03*
X66953Y42968I-984J0D01*
G01*
X52031Y44047D02*
G03*
X53016Y43063I984J0D01*
G01*
Y50937D02*
G03*
X52031Y49953I0J-984D01*
G01*
X55968D02*
G03*
X54984Y50937I-984J0D01*
G01*
Y43063D02*
G03*
X55968Y44047I0J984D01*
G01*
X-66516Y45063D02*
G03*
X-65531Y46047I0J984D01*
G01*
Y51953D02*
G03*
X-66516Y52937I-984J0D01*
G01*
X-68484D02*
G03*
X-69468Y51953I0J-984D01*
G01*
Y46047D02*
G03*
X-68484Y45063I984J0D01*
G01*
X-61532Y42421D02*
G03*
X-62516Y43406I-984J0D01*
G01*
Y35531D02*
G03*
X-61532Y36516I0J984D01*
G01*
X-65469D02*
G03*
X-64484Y35531I984J0D01*
G01*
Y43406D02*
G03*
X-65469Y42421I0J-984D01*
G01*
X-65531Y42453D02*
G03*
X-66516Y43437I-984J0D01*
G01*
Y35563D02*
G03*
X-65531Y36547I0J984D01*
G01*
X-69468D02*
G03*
X-68484Y35563I984J0D01*
G01*
Y43437D02*
G03*
X-69468Y42453I0J-984D01*
G01*
X-21047Y53031D02*
G03*
X-20063Y54016I0J984D01*
G01*
X-27937D02*
G03*
X-26953Y53031I984J0D01*
G01*
Y56968D02*
G03*
X-27937Y55984I0J-984D01*
G01*
X-20063D02*
G03*
X-21047Y56968I-984J0D01*
G01*
X-47079Y54031D02*
G03*
X-46095Y55016I0J984D01*
G01*
X-53969D02*
G03*
X-52984Y54031I984J0D01*
G01*
Y57968D02*
G03*
X-53969Y56984I0J-984D01*
G01*
X-46095D02*
G03*
X-47079Y57968I-984J0D01*
G01*
X-25469Y17047D02*
G03*
X-24484Y16063I984J0D01*
G01*
Y23937D02*
G03*
X-25469Y22953I0J-984D01*
G01*
X-21531D02*
G03*
X-22516Y23937I-984J0D01*
G01*
Y16063D02*
G03*
X-21531Y17047I0J984D01*
G01*
X66016Y66937D02*
G03*
X65031Y65953I0J-984D01*
G01*
Y60047D02*
G03*
X66016Y59063I984J0D01*
G01*
X67984D02*
G03*
X68968Y60047I0J984D01*
G01*
Y65953D02*
G03*
X67984Y66937I-984J0D01*
G01*
X50984Y-25437D02*
G03*
X51968Y-24453I0J984D01*
G01*
Y-18547D02*
G03*
X50984Y-17563I-984J0D01*
G01*
X49016D02*
G03*
X48031Y-18547I0J-984D01*
G01*
Y-24453D02*
G03*
X49016Y-25437I984J0D01*
G01*
X29016Y-14563D02*
G03*
X28032Y-15547I0J-984D01*
G01*
Y-21453D02*
G03*
X29016Y-22437I984J0D01*
G01*
X30984D02*
G03*
X31969Y-21453I0J984D01*
G01*
Y-15547D02*
G03*
X30984Y-14563I-984J0D01*
G01*
X14484Y8063D02*
G03*
X15469Y9047I0J984D01*
G01*
Y14953D02*
G03*
X14484Y15937I-984J0D01*
G01*
X12516D02*
G03*
X11531Y14953I0J-984D01*
G01*
Y9047D02*
G03*
X12516Y8063I984J0D01*
G01*
X4591Y29000D02*
G03*
X4591Y29000I-2591J0D01*
G01*
Y35500D02*
G03*
X4591Y35500I-2591J0D01*
G01*
X34500Y51500D02*
Y53500D01*
X29500Y51500D02*
Y53500D01*
X-13500Y-19000D02*
Y-12000D01*
X-500D01*
Y-19000D02*
Y-12000D01*
X-13500Y-19000D02*
X-500D01*
X-8000Y-10500D02*
X-1000D01*
X-8000D02*
Y2500D01*
X-1000D01*
Y-10500D02*
Y2500D01*
D14*
X-56191Y52748D02*
G03*
X-56191Y52748I-557J0D01*
G01*
D15*
X-7063Y30571D02*
Y31555D01*
X-7555Y31063D02*
X-7063Y30571D01*
X-12968Y29829D02*
X-9031D01*
X-12968Y40171D02*
X-9031D01*
X-7555Y31063D02*
X-7063Y31555D01*
X20500Y72500D02*
X25500D01*
X20500Y61500D02*
Y72500D01*
Y61500D02*
X25500D01*
Y72500D01*
X27500Y32000D02*
Y37000D01*
X16500D02*
X27500D01*
X16500Y32000D02*
Y37000D01*
Y32000D02*
X27500D01*
X-60787Y-73465D02*
X60787D01*
Y-40000D01*
X-60787Y-73465D02*
Y-40000D01*
X-5628Y-28189D02*
X-4372D01*
X-3750Y-28811D01*
Y-40000D02*
Y-28811D01*
X-6250D02*
X-5628Y-28189D01*
X-6250Y-40000D02*
Y-28811D01*
Y-40000D02*
X-3750D01*
X-15628Y-28189D02*
X-14372D01*
X-13750Y-28811D01*
Y-40000D02*
Y-28811D01*
X-16250D02*
X-15628Y-28189D01*
X-16250Y-40000D02*
Y-28811D01*
Y-40000D02*
X-13750D01*
X-25628Y-28189D02*
X-24372D01*
X-23750Y-28811D01*
Y-40000D02*
Y-28811D01*
X-26250D02*
X-25628Y-28189D01*
X-26250Y-40000D02*
Y-28811D01*
Y-40000D02*
X-23750D01*
X-35628Y-28189D02*
X-34372D01*
X-33750Y-28811D01*
Y-40000D02*
Y-28811D01*
X-36250D02*
X-35628Y-28189D01*
X-36250Y-40000D02*
Y-28811D01*
Y-40000D02*
X-33750D01*
X-45628Y-28189D02*
X-44372D01*
X-43750Y-28811D01*
Y-40000D02*
Y-28811D01*
X-46250D02*
X-45628Y-28189D01*
X-46250Y-40000D02*
Y-28811D01*
Y-40000D02*
X-43750D01*
X-55628Y-28189D02*
X-54372D01*
X-53750Y-28811D01*
Y-40000D02*
Y-28811D01*
X-56250D02*
X-55628Y-28189D01*
X-56250Y-40000D02*
Y-28811D01*
Y-40000D02*
X-53750D01*
X3750D02*
X6250D01*
X3750D02*
Y-28811D01*
X4372Y-28189D01*
X6250Y-40000D02*
Y-28811D01*
X5628Y-28189D02*
X6250Y-28811D01*
X4372Y-28189D02*
X5628D01*
X13750Y-40000D02*
X16250D01*
X13750D02*
Y-28811D01*
X14372Y-28189D01*
X16250Y-40000D02*
Y-28811D01*
X15628Y-28189D02*
X16250Y-28811D01*
X14372Y-28189D02*
X15628D01*
X23750Y-40000D02*
X26250D01*
X23750D02*
Y-28811D01*
X24372Y-28189D01*
X26250Y-40000D02*
Y-28811D01*
X25628Y-28189D02*
X26250Y-28811D01*
X24372Y-28189D02*
X25628D01*
X33750Y-40000D02*
X36250D01*
X33750D02*
Y-28811D01*
X34372Y-28189D01*
X36250Y-40000D02*
Y-28811D01*
X35628Y-28189D02*
X36250Y-28811D01*
X34372Y-28189D02*
X35628D01*
X43750Y-40000D02*
X46250D01*
X43750D02*
Y-28811D01*
X44372Y-28189D01*
X46250Y-40000D02*
Y-28811D01*
X45628Y-28189D02*
X46250Y-28811D01*
X44372Y-28189D02*
X45628D01*
X53750Y-40000D02*
X56250D01*
X53750D02*
Y-28811D01*
X54372Y-28189D01*
X56250Y-40000D02*
Y-28811D01*
X55628Y-28189D02*
X56250Y-28811D01*
X54372Y-28189D02*
X55628D01*
X-60787Y-40000D02*
X60787Y-40000D01*
X-70240Y17307D02*
Y30693D01*
X-74768Y20457D02*
Y27543D01*
X-61185Y20260D02*
Y27740D01*
X-65319Y15535D02*
X-63744D01*
X-65319Y32465D02*
X-63744D01*
X-74768Y20457D02*
X-70240Y20063D01*
X-74768Y27543D02*
X-70240Y27937D01*
X51968Y51063D02*
Y58937D01*
X48031Y51063D02*
X51968D01*
X48031D02*
Y58937D01*
X51968D01*
X-52937Y58063D02*
Y65937D01*
X-49000D01*
Y58063D02*
Y65937D01*
X-52937Y58063D02*
X-49000D01*
X53000Y73000D02*
X55000D01*
X53000Y68000D02*
X55000D01*
X48469Y8547D02*
Y14453D01*
X45516Y7563D02*
X47484D01*
X44532Y8547D02*
Y14453D01*
X45516Y15437D02*
X47484D01*
X-55532Y-2953D02*
Y2953D01*
X-58484Y-3937D02*
X-56516D01*
X-59469Y-2953D02*
Y2953D01*
X-58484Y3937D02*
X-56516D01*
X20547Y-18469D02*
X26453D01*
X19563Y-17484D02*
Y-15516D01*
X20547Y-14532D02*
X26453D01*
X27437Y-17484D02*
Y-15516D01*
X-54453Y15469D02*
X-48547D01*
X-47563Y12516D02*
Y14484D01*
X-54453Y11531D02*
X-48547D01*
X-55437Y12516D02*
Y14484D01*
X4547Y-7969D02*
X10453D01*
X3563Y-6984D02*
Y-5016D01*
X4547Y-4031D02*
X10453D01*
X11437Y-6984D02*
Y-5016D01*
X12547Y-3968D02*
X18453D01*
X11563Y-2984D02*
Y-1016D01*
X12547Y-32D02*
X18453D01*
X19437Y-2984D02*
Y-1016D01*
X11531Y-14953D02*
Y-9047D01*
X12516Y-8063D02*
X14484D01*
X15469Y-14953D02*
Y-9047D01*
X12516Y-15937D02*
X14484D01*
X-45953Y-17968D02*
X-40047D01*
X-46937Y-16984D02*
Y-15016D01*
X-45953Y-14031D02*
X-40047D01*
X-39063Y-16984D02*
Y-15016D01*
X20547Y14532D02*
X26453D01*
X19563Y15516D02*
Y17484D01*
X20547Y18469D02*
X26453D01*
X27437Y15516D02*
Y17484D01*
X-15032Y-8953D02*
Y-3047D01*
X-17984Y-9937D02*
X-16016D01*
X-18969Y-8953D02*
Y-3047D01*
X-17984Y-2063D02*
X-16016D01*
X3469Y5047D02*
Y10953D01*
X516Y4063D02*
X2484D01*
X-469Y5047D02*
Y10953D01*
X516Y11937D02*
X2484D01*
X12547Y32D02*
X18453D01*
X11563Y1016D02*
Y2984D01*
X12547Y3968D02*
X18453D01*
X19437Y1016D02*
Y2984D01*
X-33953Y-14031D02*
X-28047D01*
X-27063Y-16984D02*
Y-15016D01*
X-33953Y-17968D02*
X-28047D01*
X-34937Y-16984D02*
Y-15016D01*
X33547Y18469D02*
X39453D01*
X40437Y15516D02*
Y17484D01*
X33547Y14532D02*
X39453D01*
X32563Y15516D02*
Y17484D01*
X-7453Y19969D02*
X-1547D01*
X-563Y17016D02*
Y18984D01*
X-7453Y16032D02*
X-1547D01*
X-8437Y17016D02*
Y18984D01*
X48469Y547D02*
Y6453D01*
X45516Y-437D02*
X47484D01*
X44532Y547D02*
Y6453D01*
X45516Y7437D02*
X47484D01*
X31468Y15547D02*
Y21453D01*
X28516Y14563D02*
X30484D01*
X27531Y15547D02*
Y21453D01*
X28516Y22437D02*
X30484D01*
X57047Y38969D02*
X62953D01*
X63937Y36016D02*
Y37984D01*
X57047Y35032D02*
X62953D01*
X56063Y36016D02*
Y37984D01*
X-14968Y-9953D02*
Y-4047D01*
X-13984Y-3063D02*
X-12016D01*
X-11032Y-9953D02*
Y-4047D01*
X-13984Y-10937D02*
X-12016D01*
X-22968Y-953D02*
Y4953D01*
X-21984Y5937D02*
X-20016D01*
X-19031Y-953D02*
Y4953D01*
X-21984Y-1937D02*
X-20016D01*
X-27968Y62016D02*
Y63984D01*
X-26984Y61032D02*
X-21079D01*
X-20095Y62016D02*
Y63984D01*
X-26984Y64969D02*
X-21079D01*
X-61032Y46047D02*
Y51953D01*
X-63984Y45063D02*
X-62016D01*
X-64969Y46047D02*
Y51953D01*
X-63984Y52937D02*
X-62016D01*
X-20031Y66016D02*
Y71921D01*
X-22984Y65031D02*
X-21016D01*
X-23968Y66016D02*
Y71921D01*
X-22984Y72905D02*
X-21016D01*
X9047Y35032D02*
X14953D01*
X8063Y36016D02*
Y37984D01*
X9047Y38969D02*
X14953D01*
X15937Y36016D02*
Y37984D01*
X28437Y54016D02*
Y55984D01*
X21547Y56968D02*
X27453D01*
X20563Y54016D02*
Y55984D01*
X21547Y53031D02*
X27453D01*
X28437Y58016D02*
Y59984D01*
X21547Y60969D02*
X27453D01*
X20563Y58016D02*
Y59984D01*
X21547Y57032D02*
X27453D01*
X36063Y50016D02*
Y51984D01*
X37047Y49031D02*
X42953D01*
X43937Y50016D02*
Y51984D01*
X37047Y52969D02*
X42953D01*
X36063Y70016D02*
Y71984D01*
X37047Y69032D02*
X42953D01*
X43937Y70016D02*
Y71984D01*
X37047Y72969D02*
X42953D01*
X49016Y60063D02*
X50984D01*
X51968Y61047D02*
Y66953D01*
X49016Y67937D02*
X50984D01*
X48031Y61047D02*
Y66953D01*
X51937Y48016D02*
Y49984D01*
X45047Y50968D02*
X50953D01*
X44063Y48016D02*
Y49984D01*
X45047Y47032D02*
X50953D01*
X53016Y31563D02*
X54984D01*
X55968Y32547D02*
Y38453D01*
X53016Y39437D02*
X54984D01*
X52031Y32547D02*
Y38453D01*
X37016Y31563D02*
X38984D01*
X39968Y32547D02*
Y38453D01*
X37016Y39437D02*
X38984D01*
X36031Y32547D02*
Y38453D01*
X69016Y47095D02*
X70984D01*
X71969Y48079D02*
Y53984D01*
X69016Y54969D02*
X70984D01*
X68032Y48079D02*
Y53984D01*
X60063Y40016D02*
Y41984D01*
X61047Y39031D02*
X66953D01*
X67937Y40016D02*
Y41984D01*
X61047Y42968D02*
X66953D01*
X53016Y50937D02*
X54984D01*
X52031Y44047D02*
Y49953D01*
X53016Y43063D02*
X54984D01*
X55968Y44047D02*
Y49953D01*
Y59063D02*
Y66937D01*
X52031Y59063D02*
X55968D01*
X52031D02*
Y66937D01*
X55968D01*
X-55468Y-3937D02*
Y3937D01*
X-51531D01*
Y-3937D02*
Y3937D01*
X-55468Y-3937D02*
X-51531D01*
X19563Y-18531D02*
X27437D01*
Y-22468D02*
Y-18531D01*
X19563Y-22468D02*
X27437D01*
X19563D02*
Y-18531D01*
X15469Y-23937D02*
Y-16063D01*
X11531Y-23937D02*
X15469D01*
X11531D02*
Y-16063D01*
X15469D01*
X-55437Y19468D02*
X-47563D01*
Y15531D02*
Y19468D01*
X-55437Y15531D02*
X-47563D01*
X-55437D02*
Y19468D01*
X-469Y-11937D02*
Y-4063D01*
X3469D01*
Y-11937D02*
Y-4063D01*
X-469Y-11937D02*
X3469D01*
X3563Y-8032D02*
X11437D01*
Y-11969D02*
Y-8032D01*
X3563Y-11969D02*
X11437D01*
X3563D02*
Y-8032D01*
Y-16032D02*
X11437D01*
Y-19969D02*
Y-16032D01*
X3563Y-19969D02*
X11437D01*
X3563D02*
Y-16032D01*
X3469Y-19937D02*
Y-12063D01*
X-469Y-19937D02*
X3469D01*
X-469D02*
Y-12063D01*
X3469D01*
X563Y-32D02*
X8437D01*
Y-3968D02*
Y-32D01*
X563Y-3968D02*
X8437D01*
X563D02*
Y-32D01*
X11563Y-4031D02*
X19437D01*
Y-7969D02*
Y-4031D01*
X11563Y-7969D02*
X19437D01*
X11563D02*
Y-4031D01*
X19468Y-15937D02*
Y-8063D01*
X15531Y-15937D02*
X19468D01*
X15531D02*
Y-8063D01*
X19468D01*
X-55468Y-11937D02*
Y-4063D01*
X-51531D01*
Y-11937D02*
Y-4063D01*
X-55468Y-11937D02*
X-51531D01*
X-47469Y7563D02*
Y15437D01*
X-43532D01*
Y7563D02*
Y15437D01*
X-47469Y7563D02*
X-43532D01*
X-50968Y-21937D02*
Y-14063D01*
X-47032D01*
Y-21937D02*
Y-14063D01*
X-50968Y-21937D02*
X-47032D01*
X3563Y-23968D02*
X11437D01*
X3563D02*
Y-20031D01*
X11437D01*
Y-23968D02*
Y-20031D01*
X-46937Y-21969D02*
X-39063D01*
X-46937D02*
Y-18032D01*
X-39063D01*
Y-21969D02*
Y-18032D01*
X19563Y22468D02*
X27437D01*
Y18531D02*
Y22468D01*
X19563Y18531D02*
X27437D01*
X19563D02*
Y22468D01*
X-532Y4063D02*
Y11937D01*
X-4468Y4063D02*
X-532D01*
X-4468D02*
Y11937D01*
X-532D01*
X3563Y7969D02*
X11437D01*
Y4031D02*
Y7969D01*
X3563Y4031D02*
X11437D01*
X3563D02*
Y7969D01*
X-22968Y-9937D02*
Y-2063D01*
X-19031D01*
Y-9937D02*
Y-2063D01*
X-22968Y-9937D02*
X-19031D01*
X3563Y15969D02*
X11437D01*
Y12032D02*
Y15969D01*
X3563Y12032D02*
X11437D01*
X3563D02*
Y15969D01*
X-437Y19969D02*
X7437D01*
Y16032D02*
Y19969D01*
X-437Y16032D02*
X7437D01*
X-437D02*
Y19969D01*
X3563Y3968D02*
X11437D01*
Y32D02*
Y3968D01*
X3563Y32D02*
X11437D01*
X3563D02*
Y3968D01*
X11563Y7969D02*
X19437D01*
Y4031D02*
Y7969D01*
X11563Y4031D02*
X19437D01*
X11563D02*
Y7969D01*
X-22937Y-13969D02*
X-15063D01*
X-22937D02*
Y-10031D01*
X-15063D01*
Y-13969D02*
Y-10031D01*
X-16969Y-1937D02*
Y5937D01*
X-13032D01*
Y-1937D02*
Y5937D01*
X-16969Y-1937D02*
X-13032D01*
X15531Y8063D02*
Y15937D01*
X19468D01*
Y8063D02*
Y15937D01*
X15531Y8063D02*
X19468D01*
X-26969Y-21937D02*
Y-14063D01*
X-23031D01*
Y-21937D02*
Y-14063D01*
X-26969Y-21937D02*
X-23031D01*
X7563Y16032D02*
X15437D01*
X7563D02*
Y19969D01*
X15437D01*
Y16032D02*
Y19969D01*
X-34937Y-18032D02*
X-27063D01*
Y-21969D02*
Y-18032D01*
X-34937Y-21969D02*
X-27063D01*
X-34937D02*
Y-18032D01*
X32563Y18531D02*
X40437D01*
X32563D02*
Y22468D01*
X40437D01*
Y18531D02*
Y22468D01*
X-8437Y15969D02*
X-563D01*
Y12032D02*
Y15969D01*
X-8437Y12032D02*
X-563D01*
X-8437D02*
Y15969D01*
X48563Y7531D02*
X56437D01*
X48563D02*
Y11468D01*
X56437D01*
Y7531D02*
Y11468D01*
X52469Y11563D02*
Y19437D01*
X48531Y11563D02*
X52469D01*
X48531D02*
Y19437D01*
X52469D01*
X56468Y15563D02*
Y23437D01*
X52531Y15563D02*
X56468D01*
X52531D02*
Y23437D01*
X56468D01*
X48563Y-469D02*
X56437D01*
X48563D02*
Y3469D01*
X56437D01*
Y-469D02*
Y3469D01*
X40532Y-437D02*
Y7437D01*
X44469D01*
Y-437D02*
Y7437D01*
X40532Y-437D02*
X44469D01*
X40532Y7563D02*
Y15437D01*
X44469D01*
Y7563D02*
Y15437D01*
X40532Y7563D02*
X44469D01*
X44563Y23469D02*
X52437D01*
Y19532D02*
Y23469D01*
X44563Y19532D02*
X52437D01*
X44563D02*
Y23469D01*
X33563Y-18469D02*
X41437D01*
X33563D02*
Y-14532D01*
X41437D01*
Y-18469D02*
Y-14532D01*
X33563Y-22468D02*
X41437D01*
X33563D02*
Y-18531D01*
X41437D01*
Y-22468D02*
Y-18531D01*
X9469Y27063D02*
Y34937D01*
X5531Y27063D02*
X9469D01*
X5531D02*
Y34937D01*
X9469D01*
X-27937Y57032D02*
X-20063D01*
X-27937D02*
Y60969D01*
X-20063D01*
Y57032D02*
Y60969D01*
X-24032Y65063D02*
Y72937D01*
X-27968Y65063D02*
X-24032D01*
X-27968D02*
Y72937D01*
X-24032D01*
X20063Y47032D02*
X27937D01*
X20063D02*
Y50968D01*
X27937D01*
Y47032D02*
Y50968D01*
X-70240Y-30693D02*
Y-17307D01*
X-74768Y-27543D02*
Y-20457D01*
X-61185Y-27740D02*
Y-20260D01*
X-65319Y-32465D02*
X-63744D01*
X-65319Y-15535D02*
X-63744D01*
X-74768Y-27543D02*
X-70240Y-27937D01*
X-74768Y-20457D02*
X-70240Y-20063D01*
Y-6693D02*
Y6693D01*
X-74768Y-3543D02*
Y3543D01*
X-61185Y-3740D02*
Y3740D01*
X-65319Y-8465D02*
X-63744D01*
X-65319Y8465D02*
X-63744D01*
X-74768Y-3543D02*
X-70240Y-3937D01*
X-74768Y3543D02*
X-70240Y3937D01*
X70240Y-30693D02*
Y-17307D01*
X74768Y-27543D02*
Y-20457D01*
X61185Y-27740D02*
Y-20260D01*
X63744Y-15535D02*
X65319D01*
X63744Y-32465D02*
X65319D01*
X70240Y-20063D02*
X74768Y-20457D01*
X70240Y-27937D02*
X74768Y-27543D01*
X70240Y17307D02*
Y30693D01*
X74768Y20457D02*
Y27543D01*
X61185Y20260D02*
Y27740D01*
X63744Y32465D02*
X65319D01*
X63744Y15535D02*
X65319D01*
X70240Y27937D02*
X74768Y27543D01*
X70240Y20063D02*
X74768Y20457D01*
X-65531Y46047D02*
Y51953D01*
X-68484Y45063D02*
X-66516D01*
X-69468Y46047D02*
Y51953D01*
X-68484Y52937D02*
X-66516D01*
X-64484Y35531D02*
X-62516D01*
X-61532Y36516D02*
Y42421D01*
X-64484Y43406D02*
X-62516D01*
X-65469Y36516D02*
Y42421D01*
X-68484Y35563D02*
X-66516D01*
X-65531Y36547D02*
Y42453D01*
X-68484Y43437D02*
X-66516D01*
X-69468Y36547D02*
Y42453D01*
X-69532Y35563D02*
Y43437D01*
X-73469Y35563D02*
X-69532D01*
X-73469D02*
Y43437D01*
X-69532D01*
X64063Y-35032D02*
X71937D01*
Y-38969D02*
Y-35032D01*
X64063Y-38969D02*
X71937D01*
X64063D02*
Y-35032D01*
X62968Y3563D02*
Y11437D01*
X59031Y3563D02*
X62968D01*
X59031D02*
Y11437D01*
X62968D01*
X-65437Y10031D02*
X-57563D01*
X-65437D02*
Y13969D01*
X-57563D01*
Y10031D02*
Y13969D01*
X-65437Y-13969D02*
X-57563D01*
X-65437D02*
Y-10031D01*
X-57563D01*
Y-13969D02*
Y-10031D01*
X-71937Y-38969D02*
X-64063D01*
X-71937D02*
Y-35032D01*
X-64063D01*
Y-38969D02*
Y-35032D01*
X-73469Y45063D02*
Y52937D01*
X-69532D01*
Y45063D02*
Y52937D01*
X-73469Y45063D02*
X-69532D01*
X61032Y59063D02*
X64969D01*
Y66937D01*
X61032D02*
X64969D01*
X61032Y59063D02*
Y66937D01*
X-48469Y65063D02*
Y72937D01*
X-44532D01*
Y65063D02*
Y72937D01*
X-48469Y65063D02*
X-44532D01*
X-27937Y54016D02*
Y55984D01*
X-26953Y53031D02*
X-21047D01*
X-20063Y54016D02*
Y55984D01*
X-26953Y56968D02*
X-21047D01*
X-53969Y55016D02*
Y56984D01*
X-52984Y54031D02*
X-47079D01*
X-46095Y55016D02*
Y56984D01*
X-52984Y57968D02*
X-47079D01*
X-24484Y23937D02*
X-22516D01*
X-25469Y17047D02*
Y22953D01*
X-24484Y16063D02*
X-22516D01*
X-21531Y17047D02*
Y22953D01*
X65031Y60047D02*
Y65953D01*
X66016Y66937D02*
X67984D01*
X68968Y60047D02*
Y65953D01*
X66016Y59063D02*
X67984D01*
X51968Y-24453D02*
Y-18547D01*
X49016Y-25437D02*
X50984D01*
X48031Y-24453D02*
Y-18547D01*
X49016Y-17563D02*
X50984D01*
X28032Y-21453D02*
Y-15547D01*
X29016Y-14563D02*
X30984D01*
X31969Y-21453D02*
Y-15547D01*
X29016Y-22437D02*
X30984D01*
X15469Y9047D02*
Y14953D01*
X12516Y8063D02*
X14484D01*
X11531Y9047D02*
Y14953D01*
X12516Y15937D02*
X14484D01*
D16*
X28244Y61563D02*
Y69437D01*
X33756Y61563D02*
Y69437D01*
X29425Y66878D02*
X31000Y64516D01*
X29425Y66878D02*
X32575D01*
X31000Y64516D02*
X32575Y66878D01*
X-56097Y55094D02*
X-54994D01*
Y57095D01*
Y65895D02*
Y67895D01*
X-56097D02*
X-54994D01*
X-67994D02*
X-66891D01*
X-67994Y65895D02*
Y67895D01*
X-17028Y74500D02*
X17028D01*
Y68482D02*
Y74500D01*
X17000Y53482D02*
Y60482D01*
X-17028Y68482D02*
Y74500D01*
X-17000Y53482D02*
Y60482D01*
X-66050Y-56700D02*
X-64150Y-61100D01*
X-69550Y-60300D02*
X-66050Y-56700D01*
X-69550Y-60300D02*
X-65550Y-60000D01*
X-69150Y-56400D02*
X-65550Y-60000D01*
X-69150Y-56400D02*
X-65850Y-56100D01*
X-68150Y-48100D02*
X-65850Y-56100D01*
X-70650Y-61100D02*
X-68150Y-48100D01*
D17*
X-28401Y51173D02*
X-26827D01*
X-55173D02*
X-53598D01*
X-55173Y49599D02*
Y51173D01*
Y22827D02*
Y24402D01*
Y22827D02*
X-53598D01*
X-28401D02*
X-26827D01*
Y24402D01*
Y49599D02*
Y51173D01*
D18*
X31000Y64122D02*
D03*
M02*
